{
	"asset":{
		"generator":"Khronos glTF Blender I/O v3.6.28",
		"version":"2.0"
	},
	"scene":0,
	"scenes":[
		{
			"name":"Scene",
			"nodes":[
				0,
				1,
				2
			]
		}
	],
	"nodes":[
		{
			"mesh":0,
			"name":"Doorway_Interior.001"
		},
		{
			"mesh":1,
			"name":"Door_Wall.001",
			"rotation":[
				0.7071068286895752,
				0,
				0,
				0.7071068286895752
			]
		},
		{
			"mesh":2,
			"name":"Door_Frame.001"
		}
	],
	"meshes":[
		{
			"name":"Cube.002",
			"primitives":[
				{
					"attributes":{
						"POSITION":0,
						"NORMAL":1,
						"TEXCOORD_0":2
					},
					"indices":3
				},
				{
					"attributes":{
						"POSITION":4,
						"NORMAL":5,
						"TEXCOORD_0":6
					},
					"indices":7
				}
			]
		},
		{
			"name":"Plane.001",
			"primitives":[
				{
					"attributes":{
						"POSITION":8,
						"NORMAL":9,
						"TEXCOORD_0":10
					},
					"indices":11
				},
				{
					"attributes":{
						"POSITION":12,
						"NORMAL":13,
						"TEXCOORD_0":14
					},
					"indices":15
				}
			]
		},
		{
			"name":"Cube.003",
			"primitives":[
				{
					"attributes":{
						"POSITION":16,
						"NORMAL":17,
						"TEXCOORD_0":18
					},
					"indices":19
				}
			]
		}
	],
	"accessors":[
		{
			"bufferView":0,
			"componentType":5126,
			"count":64,
			"max":[
				3,
				6,
				0.20000004768371582
			],
			"min":[
				-4,
				-2.384185791015625e-07,
				2.384185791015625e-07
			],
			"type":"VEC3"
		},
		{
			"bufferView":1,
			"componentType":5126,
			"count":64,
			"type":"VEC3"
		},
		{
			"bufferView":2,
			"componentType":5126,
			"count":64,
			"type":"VEC2"
		},
		{
			"bufferView":3,
			"componentType":5123,
			"count":96,
			"type":"SCALAR"
		},
		{
			"bufferView":4,
			"componentType":5126,
			"count":8,
			"max":[
				1.2000000476837158,
				0.7000001668930054,
				0.20000004768371582
			],
			"min":[
				-1.2000000476837158,
				6.811952779628427e-09,
				2.384185791015625e-07
			],
			"type":"VEC3"
		},
		{
			"bufferView":5,
			"componentType":5126,
			"count":8,
			"type":"VEC3"
		},
		{
			"bufferView":6,
			"componentType":5126,
			"count":8,
			"type":"VEC2"
		},
		{
			"bufferView":7,
			"componentType":5123,
			"count":12,
			"type":"SCALAR"
		},
		{
			"bufferView":8,
			"componentType":5126,
			"count":44,
			"max":[
				3,
				0,
				8.742276236262114e-09
			],
			"min":[
				-4,
				-0.20000028610229492,
				-6
			],
			"type":"VEC3"
		},
		{
			"bufferView":9,
			"componentType":5126,
			"count":44,
			"type":"VEC3"
		},
		{
			"bufferView":10,
			"componentType":5126,
			"count":44,
			"type":"VEC2"
		},
		{
			"bufferView":11,
			"componentType":5123,
			"count":90,
			"type":"SCALAR"
		},
		{
			"bufferView":12,
			"componentType":5126,
			"count":25,
			"max":[
				1.2000000476837158,
				0,
				8.742276236262114e-09
			],
			"min":[
				-1.2000000476837158,
				-0.20000018179416656,
				-3.200000047683716
			],
			"type":"VEC3"
		},
		{
			"bufferView":13,
			"componentType":5126,
			"count":25,
			"type":"VEC3"
		},
		{
			"bufferView":14,
			"componentType":5126,
			"count":25,
			"type":"VEC2"
		},
		{
			"bufferView":15,
			"componentType":5123,
			"count":42,
			"type":"SCALAR"
		},
		{
			"bufferView":16,
			"componentType":5126,
			"count":154,
			"max":[
				1.1999999284744263,
				3.2001121044158936,
				0.20000019669532776
			],
			"min":[
				-1.1999999284744263,
				0,
				-0.19999989867210388
			],
			"type":"VEC3"
		},
		{
			"bufferView":17,
			"componentType":5126,
			"count":154,
			"type":"VEC3"
		},
		{
			"bufferView":18,
			"componentType":5126,
			"count":154,
			"type":"VEC2"
		},
		{
			"bufferView":19,
			"componentType":5123,
			"count":324,
			"type":"SCALAR"
		}
	],
	"bufferViews":[
		{
			"buffer":0,
			"byteLength":768,
			"byteOffset":0,
			"target":34962
		},
		{
			"buffer":0,
			"byteLength":768,
			"byteOffset":768,
			"target":34962
		},
		{
			"buffer":0,
			"byteLength":512,
			"byteOffset":1536,
			"target":34962
		},
		{
			"buffer":0,
			"byteLength":192,
			"byteOffset":2048,
			"target":34963
		},
		{
			"buffer":0,
			"byteLength":96,
			"byteOffset":2240,
			"target":34962
		},
		{
			"buffer":0,
			"byteLength":96,
			"byteOffset":2336,
			"target":34962
		},
		{
			"buffer":0,
			"byteLength":64,
			"byteOffset":2432,
			"target":34962
		},
		{
			"buffer":0,
			"byteLength":24,
			"byteOffset":2496,
			"target":34963
		},
		{
			"buffer":0,
			"byteLength":528,
			"byteOffset":2520,
			"target":34962
		},
		{
			"buffer":0,
			"byteLength":528,
			"byteOffset":3048,
			"target":34962
		},
		{
			"buffer":0,
			"byteLength":352,
			"byteOffset":3576,
			"target":34962
		},
		{
			"buffer":0,
			"byteLength":180,
			"byteOffset":3928,
			"target":34963
		},
		{
			"buffer":0,
			"byteLength":300,
			"byteOffset":4108,
			"target":34962
		},
		{
			"buffer":0,
			"byteLength":300,
			"byteOffset":4408,
			"target":34962
		},
		{
			"buffer":0,
			"byteLength":200,
			"byteOffset":4708,
			"target":34962
		},
		{
			"buffer":0,
			"byteLength":84,
			"byteOffset":4908,
			"target":34963
		},
		{
			"buffer":0,
			"byteLength":1848,
			"byteOffset":4992,
			"target":34962
		},
		{
			"buffer":0,
			"byteLength":1848,
			"byteOffset":6840,
			"target":34962
		},
		{
			"buffer":0,
			"byteLength":1232,
			"byteOffset":8688,
			"target":34962
		},
		{
			"buffer":0,
			"byteLength":648,
			"byteOffset":9920,
			"target":34963
		}
	],
	"buffers":[
		{
			"byteLength":10568,
			"uri":"data:application/octet-stream;base64,"
		}
	]
}
