{
	"asset":{
		"generator":"Khronos glTF Blender I/O v3.6.28",
		"version":"2.0"
	},
	"scene":0,
	"scenes":[
		{
			"name":"Scene",
			"nodes":[
				0,
				1,
				2,
				3,
				4,
				5
			]
		}
	],
	"nodes":[
		{
			"mesh":0,
			"name":"Room",
			"scale":[
				6,
				6,
				6
			]
		},
		{
			"mesh":1,
			"name":"Floor",
			"scale":[
				7.200000286102295,
				7.200000286102295,
				7.200000286102295
			]
		},
		{
			"mesh":2,
			"name":"Side_Windows",
			"scale":[
				6,
				6,
				6
			]
		},
		{
			"mesh":3,
			"name":"Back_Window",
			"scale":[
				6,
				6,
				6
			]
		},
		{
			"mesh":4,
			"name":"Roof_Windows",
			"scale":[
				6,
				6,
				6
			]
		},
		{
			"mesh":5,
			"name":"Floor_Lights",
			"scale":[
				7.200000286102295,
				7.200000286102295,
				7.200000286102295
			]
		}
	],
	"meshes":[
		{
			"name":"Cube.001",
			"primitives":[
				{
					"attributes":{
						"POSITION":0,
						"NORMAL":1,
						"TEXCOORD_0":2
					},
					"indices":3
				}
			]
		},
		{
			"name":"Cube.003",
			"primitives":[
				{
					"attributes":{
						"POSITION":4,
						"NORMAL":5,
						"TEXCOORD_0":6
					},
					"indices":7
				}
			]
		},
		{
			"name":"Cube.008",
			"primitives":[
				{
					"attributes":{
						"POSITION":8,
						"NORMAL":9,
						"TEXCOORD_0":10
					},
					"indices":11
				}
			]
		},
		{
			"name":"Cube.009",
			"primitives":[
				{
					"attributes":{
						"POSITION":12,
						"NORMAL":13,
						"TEXCOORD_0":14
					},
					"indices":15
				}
			]
		},
		{
			"name":"Cube.010",
			"primitives":[
				{
					"attributes":{
						"POSITION":16,
						"NORMAL":17,
						"TEXCOORD_0":18
					},
					"indices":19
				}
			]
		},
		{
			"name":"Cube.011",
			"primitives":[
				{
					"attributes":{
						"POSITION":20,
						"NORMAL":21,
						"TEXCOORD_0":22
					},
					"indices":23
				}
			]
		}
	],
	"accessors":[
		{
			"bufferView":0,
			"componentType":5126,
			"count":702,
			"max":[
				1.350000023841858,
				0.971666693687439,
				1.183333396911621
			],
			"min":[
				-1.350000023841858,
				0,
				-1.183333396911621
			],
			"type":"VEC3"
		},
		{
			"bufferView":1,
			"componentType":5126,
			"count":702,
			"type":"VEC3"
		},
		{
			"bufferView":2,
			"componentType":5126,
			"count":702,
			"type":"VEC2"
		},
		{
			"bufferView":3,
			"componentType":5123,
			"count":1332,
			"type":"SCALAR"
		},
		{
			"bufferView":4,
			"componentType":5126,
			"count":178,
			"max":[
				1.125,
				0,
				0.986111044883728
			],
			"min":[
				-1.125,
				-0.0416666641831398,
				-0.9861111044883728
			],
			"type":"VEC3"
		},
		{
			"bufferView":5,
			"componentType":5126,
			"count":178,
			"type":"VEC3"
		},
		{
			"bufferView":6,
			"componentType":5126,
			"count":178,
			"type":"VEC2"
		},
		{
			"bufferView":7,
			"componentType":5123,
			"count":420,
			"type":"SCALAR"
		},
		{
			"bufferView":8,
			"componentType":5126,
			"count":48,
			"max":[
				1.3999998569488525,
				0.8333333730697632,
				0.9166666865348816
			],
			"min":[
				-1.3999998569488525,
				0.08333331346511841,
				-0.9166666865348816
			],
			"type":"VEC3"
		},
		{
			"bufferView":9,
			"componentType":5126,
			"count":48,
			"type":"VEC3"
		},
		{
			"bufferView":10,
			"componentType":5126,
			"count":48,
			"type":"VEC2"
		},
		{
			"bufferView":11,
			"componentType":5123,
			"count":72,
			"type":"SCALAR"
		},
		{
			"bufferView":12,
			"componentType":5126,
			"count":32,
			"max":[
				1.0833334922790527,
				0.8333333730697632,
				1.2333332300186157
			],
			"min":[
				-1.0833334922790527,
				0.0833333358168602,
				1.1833332777023315
			],
			"type":"VEC3"
		},
		{
			"bufferView":13,
			"componentType":5126,
			"count":32,
			"type":"VEC3"
		},
		{
			"bufferView":14,
			"componentType":5126,
			"count":32,
			"type":"VEC2"
		},
		{
			"bufferView":15,
			"componentType":5123,
			"count":60,
			"type":"SCALAR"
		},
		{
			"bufferView":16,
			"componentType":5126,
			"count":88,
			"max":[
				1.1936286687850952,
				1.0049999952316284,
				1.027999997138977
			],
			"min":[
				-1.1936286687850952,
				0.971666693687439,
				-1.0196666717529297
			],
			"type":"VEC3"
		},
		{
			"bufferView":17,
			"componentType":5126,
			"count":88,
			"type":"VEC3"
		},
		{
			"bufferView":18,
			"componentType":5126,
			"count":88,
			"type":"VEC2"
		},
		{
			"bufferView":19,
			"componentType":5123,
			"count":168,
			"type":"SCALAR"
		},
		{
			"bufferView":20,
			"componentType":5126,
			"count":20,
			"max":[
				1.024999976158142,
				-0.006944443564862013,
				0.8861110210418701
			],
			"min":[
				-1.024999976158142,
				-0.006944443564862013,
				-0.8861110806465149
			],
			"type":"VEC3"
		},
		{
			"bufferView":21,
			"componentType":5126,
			"count":20,
			"type":"VEC3"
		},
		{
			"bufferView":22,
			"componentType":5126,
			"count":20,
			"type":"VEC2"
		},
		{
			"bufferView":23,
			"componentType":5123,
			"count":60,
			"type":"SCALAR"
		}
	],
	"bufferViews":[
		{
			"buffer":0,
			"byteLength":8424,
			"byteOffset":0,
			"target":34962
		},
		{
			"buffer":0,
			"byteLength":8424,
			"byteOffset":8424,
			"target":34962
		},
		{
			"buffer":0,
			"byteLength":5616,
			"byteOffset":16848,
			"target":34962
		},
		{
			"buffer":0,
			"byteLength":2664,
			"byteOffset":22464,
			"target":34963
		},
		{
			"buffer":0,
			"byteLength":2136,
			"byteOffset":25128,
			"target":34962
		},
		{
			"buffer":0,
			"byteLength":2136,
			"byteOffset":27264,
			"target":34962
		},
		{
			"buffer":0,
			"byteLength":1424,
			"byteOffset":29400,
			"target":34962
		},
		{
			"buffer":0,
			"byteLength":840,
			"byteOffset":30824,
			"target":34963
		},
		{
			"buffer":0,
			"byteLength":576,
			"byteOffset":31664,
			"target":34962
		},
		{
			"buffer":0,
			"byteLength":576,
			"byteOffset":32240,
			"target":34962
		},
		{
			"buffer":0,
			"byteLength":384,
			"byteOffset":32816,
			"target":34962
		},
		{
			"buffer":0,
			"byteLength":144,
			"byteOffset":33200,
			"target":34963
		},
		{
			"buffer":0,
			"byteLength":384,
			"byteOffset":33344,
			"target":34962
		},
		{
			"buffer":0,
			"byteLength":384,
			"byteOffset":33728,
			"target":34962
		},
		{
			"buffer":0,
			"byteLength":256,
			"byteOffset":34112,
			"target":34962
		},
		{
			"buffer":0,
			"byteLength":120,
			"byteOffset":34368,
			"target":34963
		},
		{
			"buffer":0,
			"byteLength":1056,
			"byteOffset":34488,
			"target":34962
		},
		{
			"buffer":0,
			"byteLength":1056,
			"byteOffset":35544,
			"target":34962
		},
		{
			"buffer":0,
			"byteLength":704,
			"byteOffset":36600,
			"target":34962
		},
		{
			"buffer":0,
			"byteLength":336,
			"byteOffset":37304,
			"target":34963
		},
		{
			"buffer":0,
			"byteLength":240,
			"byteOffset":37640,
			"target":34962
		},
		{
			"buffer":0,
			"byteLength":240,
			"byteOffset":37880,
			"target":34962
		},
		{
			"buffer":0,
			"byteLength":160,
			"byteOffset":38120,
			"target":34962
		},
		{
			"buffer":0,
			"byteLength":120,
			"byteOffset":38280,
			"target":34963
		}
	],
	"buffers":[
		{
			"byteLength":38400,
			"uri":"data:application/octet-stream;base64,"
		}
	]
}
