{
	"asset":{
		"generator":"Khronos glTF Blender I/O v3.6.28",
		"version":"2.0"
	},
	"scene":0,
	"scenes":[
		{
			"name":"Scene",
			"nodes":[
				0,
				1,
				2,
				3
			]
		}
	],
	"nodes":[
		{
			"mesh":0,
			"name":"Small_Wall",
			"rotation":[
				0.7071068286895752,
				0,
				0,
				0.7071068286895752
			],
			"translation":[
				0,
				0,
				-2.799999952316284
			]
		},
		{
			"mesh":1,
			"name":"Small_Hex",
			"rotation":[
				0.7071068286895752,
				0,
				0,
				0.7071068286895752
			],
			"translation":[
				0,
				-1.5,
				-2.799999952316284
			]
		},
		{
			"mesh":2,
			"name":"Small_Border_Exterior",
			"rotation":[
				0.7071068286895752,
				0,
				0,
				0.7071068286895752
			],
			"translation":[
				0,
				0,
				-2.799999952316284
			]
		},
		{
			"mesh":3,
			"name":"Small_Interior_2"
		}
	],
	"meshes":[
		{
			"name":"Plane.011",
			"primitives":[
				{
					"attributes":{
						"POSITION":0,
						"NORMAL":1,
						"TEXCOORD_0":2
					},
					"indices":3
				}
			]
		},
		{
			"name":"Plane.018",
			"primitives":[
				{
					"attributes":{
						"POSITION":4,
						"NORMAL":5,
						"TEXCOORD_0":6
					},
					"indices":7
				}
			]
		},
		{
			"name":"Plane.010",
			"primitives":[
				{
					"attributes":{
						"POSITION":8,
						"NORMAL":9,
						"TEXCOORD_0":10
					},
					"indices":11
				}
			]
		},
		{
			"name":"Cube.002",
			"primitives":[
				{
					"attributes":{
						"POSITION":12,
						"NORMAL":13,
						"TEXCOORD_0":14
					},
					"indices":15
				}
			]
		}
	],
	"accessors":[
		{
			"bufferView":0,
			"componentType":5126,
			"count":36,
			"max":[
				3,
				-1,
				5.245366452300004e-08
			],
			"min":[
				-3,
				-1.200000286102295,
				-6
			],
			"type":"VEC3"
		},
		{
			"bufferView":1,
			"componentType":5126,
			"count":36,
			"type":"VEC3"
		},
		{
			"bufferView":2,
			"componentType":5126,
			"count":36,
			"type":"VEC2"
		},
		{
			"bufferView":3,
			"componentType":5123,
			"count":66,
			"type":"SCALAR"
		},
		{
			"bufferView":4,
			"componentType":5126,
			"count":108,
			"max":[
				0.6340144872665405,
				-1.2000001668930054,
				-2.428757429122925
			],
			"min":[
				-0.6340144872665405,
				-1.3000001907348633,
				-6.571242332458496
			],
			"type":"VEC3"
		},
		{
			"bufferView":5,
			"componentType":5126,
			"count":108,
			"type":"VEC3"
		},
		{
			"bufferView":6,
			"componentType":5126,
			"count":108,
			"type":"VEC2"
		},
		{
			"bufferView":7,
			"componentType":5123,
			"count":180,
			"type":"SCALAR"
		},
		{
			"bufferView":8,
			"componentType":5126,
			"count":196,
			"max":[
				3,
				-1.1999998092651367,
				-0.01433201227337122
			],
			"min":[
				-3,
				-1.3000001907348633,
				-6
			],
			"type":"VEC3"
		},
		{
			"bufferView":9,
			"componentType":5126,
			"count":196,
			"type":"VEC3"
		},
		{
			"bufferView":10,
			"componentType":5126,
			"count":196,
			"type":"VEC2"
		},
		{
			"bufferView":11,
			"componentType":5123,
			"count":402,
			"type":"SCALAR"
		},
		{
			"bufferView":12,
			"componentType":5126,
			"count":150,
			"max":[
				3,
				5.800000190734863,
				-3.6999998092651367
			],
			"min":[
				-3,
				7.674098014831543e-05,
				-3.799999713897705
			],
			"type":"VEC3"
		},
		{
			"bufferView":13,
			"componentType":5126,
			"count":150,
			"type":"VEC3"
		},
		{
			"bufferView":14,
			"componentType":5126,
			"count":150,
			"type":"VEC2"
		},
		{
			"bufferView":15,
			"componentType":5123,
			"count":222,
			"type":"SCALAR"
		}
	],
	"bufferViews":[
		{
			"buffer":0,
			"byteLength":432,
			"byteOffset":0,
			"target":34962
		},
		{
			"buffer":0,
			"byteLength":432,
			"byteOffset":432,
			"target":34962
		},
		{
			"buffer":0,
			"byteLength":288,
			"byteOffset":864,
			"target":34962
		},
		{
			"buffer":0,
			"byteLength":132,
			"byteOffset":1152,
			"target":34963
		},
		{
			"buffer":0,
			"byteLength":1296,
			"byteOffset":1284,
			"target":34962
		},
		{
			"buffer":0,
			"byteLength":1296,
			"byteOffset":2580,
			"target":34962
		},
		{
			"buffer":0,
			"byteLength":864,
			"byteOffset":3876,
			"target":34962
		},
		{
			"buffer":0,
			"byteLength":360,
			"byteOffset":4740,
			"target":34963
		},
		{
			"buffer":0,
			"byteLength":2352,
			"byteOffset":5100,
			"target":34962
		},
		{
			"buffer":0,
			"byteLength":2352,
			"byteOffset":7452,
			"target":34962
		},
		{
			"buffer":0,
			"byteLength":1568,
			"byteOffset":9804,
			"target":34962
		},
		{
			"buffer":0,
			"byteLength":804,
			"byteOffset":11372,
			"target":34963
		},
		{
			"buffer":0,
			"byteLength":1800,
			"byteOffset":12176,
			"target":34962
		},
		{
			"buffer":0,
			"byteLength":1800,
			"byteOffset":13976,
			"target":34962
		},
		{
			"buffer":0,
			"byteLength":1200,
			"byteOffset":15776,
			"target":34962
		},
		{
			"buffer":0,
			"byteLength":444,
			"byteOffset":16976,
			"target":34963
		}
	],
	"buffers":[
		{
			"byteLength":17420,
			"uri":"data:application/octet-stream;base64,"
		}
	]
}
