{
	"asset":{
		"generator":"Khronos glTF Blender I/O v3.6.28",
		"version":"2.0"
	},
	"scene":0,
	"scenes":[
		{
			"name":"Scene",
			"nodes":[
				0,
				1,
				2,
				3,
				4,
				5,
				6
			]
		}
	],
	"nodes":[
		{
			"mesh":0,
			"name":"Window_Wall",
			"rotation":[
				0.7071068286895752,
				0,
				0,
				0.7071068286895752
			],
			"translation":[
				0,
				0,
				-3.799999952316284
			]
		},
		{
			"mesh":1,
			"name":"Window Frame",
			"translation":[
				0,
				0,
				-4.800000190734863
			]
		},
		{
			"mesh":2,
			"name":"Window",
			"translation":[
				0,
				0,
				-4.800000190734863
			]
		},
		{
			"mesh":3,
			"name":"Small_Interior_Panel"
		},
		{
			"mesh":4,
			"name":"Interior_Extrusion",
			"rotation":[
				0.7071068286895752,
				0,
				0,
				0.7071068286895752
			],
			"translation":[
				0,
				0,
				-3.799999952316284
			]
		},
		{
			"mesh":5,
			"name":"Extruded_Complete",
			"rotation":[
				0.7071068286895752,
				0,
				0,
				0.7071068286895752
			],
			"translation":[
				0,
				0,
				-3.799999952316284
			]
		},
		{
			"mesh":6,
			"name":"Cylinder",
			"scale":[
				-0.10000002384185791,
				-0.10000002384185791,
				-0.10000002384185791
			],
			"translation":[
				0.008861780166625977,
				0.10433230549097061,
				-3.6999998092651367
			]
		}
	],
	"meshes":[
		{
			"name":"Plane.012",
			"primitives":[
				{
					"attributes":{
						"POSITION":0,
						"NORMAL":1,
						"TEXCOORD_0":2
					},
					"indices":3
				},
				{
					"attributes":{
						"POSITION":4,
						"NORMAL":5,
						"TEXCOORD_0":6
					},
					"indices":7
				}
			]
		},
		{
			"name":"Cube.005",
			"primitives":[
				{
					"attributes":{
						"POSITION":8,
						"NORMAL":9,
						"TEXCOORD_0":10
					},
					"indices":11
				}
			]
		},
		{
			"name":"Cube.003",
			"primitives":[
				{
					"attributes":{
						"POSITION":12,
						"NORMAL":13,
						"TEXCOORD_0":14
					},
					"indices":15
				}
			]
		},
		{
			"name":"Cube.051",
			"primitives":[
				{
					"attributes":{
						"POSITION":16,
						"NORMAL":17,
						"TEXCOORD_0":18
					},
					"indices":19
				}
			]
		},
		{
			"name":"Plane.030",
			"primitives":[
				{
					"attributes":{
						"POSITION":20,
						"NORMAL":21,
						"TEXCOORD_0":22
					},
					"indices":23
				}
			]
		},
		{
			"name":"Plane.014",
			"primitives":[
				{
					"attributes":{
						"POSITION":24,
						"NORMAL":25,
						"TEXCOORD_0":26
					},
					"indices":27
				}
			]
		},
		{
			"name":"Cylinder",
			"primitives":[
				{
					"attributes":{
						"POSITION":28,
						"NORMAL":29,
						"TEXCOORD_0":30
					},
					"indices":31
				}
			]
		}
	],
	"accessors":[
		{
			"bufferView":0,
			"componentType":5126,
			"count":62,
			"max":[
				3,
				3.700000047683716,
				-1.5298985545086907e-07
			],
			"min":[
				-3,
				3.499999761581421,
				-6
			],
			"type":"VEC3"
		},
		{
			"bufferView":1,
			"componentType":5126,
			"count":62,
			"type":"VEC3"
		},
		{
			"bufferView":2,
			"componentType":5126,
			"count":62,
			"type":"VEC2"
		},
		{
			"bufferView":3,
			"componentType":5123,
			"count":144,
			"type":"SCALAR"
		},
		{
			"bufferView":4,
			"componentType":5126,
			"count":36,
			"max":[
				2.200000047683716,
				3.700000047683716,
				-0.699999988079071
			],
			"min":[
				-2.200000047683716,
				3.499999761581421,
				-5.300000190734863
			],
			"type":"VEC3"
		},
		{
			"bufferView":5,
			"componentType":5126,
			"count":36,
			"type":"VEC3"
		},
		{
			"bufferView":6,
			"componentType":5126,
			"count":36,
			"type":"VEC2"
		},
		{
			"bufferView":7,
			"componentType":5123,
			"count":60,
			"type":"SCALAR"
		},
		{
			"bufferView":8,
			"componentType":5126,
			"count":158,
			"max":[
				2.200000047683716,
				5.300000190734863,
				4.699999809265137
			],
			"min":[
				-2.200000047683716,
				0.7000000476837158,
				4.5
			],
			"type":"VEC3"
		},
		{
			"bufferView":9,
			"componentType":5126,
			"count":158,
			"type":"VEC3"
		},
		{
			"bufferView":10,
			"componentType":5126,
			"count":158,
			"type":"VEC2"
		},
		{
			"bufferView":11,
			"componentType":5123,
			"count":306,
			"type":"SCALAR"
		},
		{
			"bufferView":12,
			"componentType":5126,
			"count":80,
			"max":[
				2.200000047683716,
				5.300000190734863,
				4.5000529289245605
			],
			"min":[
				-2.200000047683716,
				0.699999988079071,
				4.104218006134033
			],
			"type":"VEC3"
		},
		{
			"bufferView":13,
			"componentType":5126,
			"count":80,
			"type":"VEC3"
		},
		{
			"bufferView":14,
			"componentType":5126,
			"count":80,
			"type":"VEC2"
		},
		{
			"bufferView":15,
			"componentType":5123,
			"count":132,
			"type":"SCALAR"
		},
		{
			"bufferView":16,
			"componentType":5126,
			"count":96,
			"max":[
				2.5,
				5.599999904632568,
				2.384185791015625e-07
			],
			"min":[
				-2.500000476837158,
				0.4000000059604645,
				-0.09999966621398926
			],
			"type":"VEC3"
		},
		{
			"bufferView":17,
			"componentType":5126,
			"count":96,
			"type":"VEC3"
		},
		{
			"bufferView":18,
			"componentType":5126,
			"count":96,
			"type":"VEC2"
		},
		{
			"bufferView":19,
			"componentType":5123,
			"count":144,
			"type":"SCALAR"
		},
		{
			"bufferView":20,
			"componentType":5126,
			"count":156,
			"max":[
				2.799999952316284,
				3.8000001907348633,
				-1.9246577664944198e-07
			],
			"min":[
				-2.799999952316284,
				3.6999998092651367,
				-6
			],
			"type":"VEC3"
		},
		{
			"bufferView":21,
			"componentType":5126,
			"count":156,
			"type":"VEC3"
		},
		{
			"bufferView":22,
			"componentType":5126,
			"count":156,
			"type":"VEC2"
		},
		{
			"bufferView":23,
			"componentType":5123,
			"count":288,
			"type":"SCALAR"
		},
		{
			"bufferView":24,
			"componentType":5126,
			"count":212,
			"max":[
				3,
				3.500000238418579,
				-1.7942726060482528e-07
			],
			"min":[
				-3,
				3.3999998569488525,
				-6
			],
			"type":"VEC3"
		},
		{
			"bufferView":25,
			"componentType":5126,
			"count":212,
			"type":"VEC3"
		},
		{
			"bufferView":26,
			"componentType":5126,
			"count":212,
			"type":"VEC2"
		},
		{
			"bufferView":27,
			"componentType":5123,
			"count":432,
			"type":"SCALAR"
		},
		{
			"bufferView":28,
			"componentType":5126,
			"count":204,
			"max":[
				29.999996185302734,
				1.0424456596374512,
				-35.99999237060547
			],
			"min":[
				-29.999996185302734,
				-58.95851516723633,
				-36.99999237060547
			],
			"type":"VEC3"
		},
		{
			"bufferView":29,
			"componentType":5126,
			"count":204,
			"type":"VEC3"
		},
		{
			"bufferView":30,
			"componentType":5126,
			"count":204,
			"type":"VEC2"
		},
		{
			"bufferView":31,
			"componentType":5123,
			"count":384,
			"type":"SCALAR"
		}
	],
	"bufferViews":[
		{
			"buffer":0,
			"byteLength":744,
			"byteOffset":0,
			"target":34962
		},
		{
			"buffer":0,
			"byteLength":744,
			"byteOffset":744,
			"target":34962
		},
		{
			"buffer":0,
			"byteLength":496,
			"byteOffset":1488,
			"target":34962
		},
		{
			"buffer":0,
			"byteLength":288,
			"byteOffset":1984,
			"target":34963
		},
		{
			"buffer":0,
			"byteLength":432,
			"byteOffset":2272,
			"target":34962
		},
		{
			"buffer":0,
			"byteLength":432,
			"byteOffset":2704,
			"target":34962
		},
		{
			"buffer":0,
			"byteLength":288,
			"byteOffset":3136,
			"target":34962
		},
		{
			"buffer":0,
			"byteLength":120,
			"byteOffset":3424,
			"target":34963
		},
		{
			"buffer":0,
			"byteLength":1896,
			"byteOffset":3544,
			"target":34962
		},
		{
			"buffer":0,
			"byteLength":1896,
			"byteOffset":5440,
			"target":34962
		},
		{
			"buffer":0,
			"byteLength":1264,
			"byteOffset":7336,
			"target":34962
		},
		{
			"buffer":0,
			"byteLength":612,
			"byteOffset":8600,
			"target":34963
		},
		{
			"buffer":0,
			"byteLength":960,
			"byteOffset":9212,
			"target":34962
		},
		{
			"buffer":0,
			"byteLength":960,
			"byteOffset":10172,
			"target":34962
		},
		{
			"buffer":0,
			"byteLength":640,
			"byteOffset":11132,
			"target":34962
		},
		{
			"buffer":0,
			"byteLength":264,
			"byteOffset":11772,
			"target":34963
		},
		{
			"buffer":0,
			"byteLength":1152,
			"byteOffset":12036,
			"target":34962
		},
		{
			"buffer":0,
			"byteLength":1152,
			"byteOffset":13188,
			"target":34962
		},
		{
			"buffer":0,
			"byteLength":768,
			"byteOffset":14340,
			"target":34962
		},
		{
			"buffer":0,
			"byteLength":288,
			"byteOffset":15108,
			"target":34963
		},
		{
			"buffer":0,
			"byteLength":1872,
			"byteOffset":15396,
			"target":34962
		},
		{
			"buffer":0,
			"byteLength":1872,
			"byteOffset":17268,
			"target":34962
		},
		{
			"buffer":0,
			"byteLength":1248,
			"byteOffset":19140,
			"target":34962
		},
		{
			"buffer":0,
			"byteLength":576,
			"byteOffset":20388,
			"target":34963
		},
		{
			"buffer":0,
			"byteLength":2544,
			"byteOffset":20964,
			"target":34962
		},
		{
			"buffer":0,
			"byteLength":2544,
			"byteOffset":23508,
			"target":34962
		},
		{
			"buffer":0,
			"byteLength":1696,
			"byteOffset":26052,
			"target":34962
		},
		{
			"buffer":0,
			"byteLength":864,
			"byteOffset":27748,
			"target":34963
		},
		{
			"buffer":0,
			"byteLength":2448,
			"byteOffset":28612,
			"target":34962
		},
		{
			"buffer":0,
			"byteLength":2448,
			"byteOffset":31060,
			"target":34962
		},
		{
			"buffer":0,
			"byteLength":1632,
			"byteOffset":33508,
			"target":34962
		},
		{
			"buffer":0,
			"byteLength":768,
			"byteOffset":35140,
			"target":34963
		}
	],
	"buffers":[
		{
			"byteLength":35908,
			"uri":"data:application/octet-stream;base64,"
		}
	]
}
