{
	"asset":{
		"generator":"Khronos glTF Blender I/O v3.6.28",
		"version":"2.0"
	},
	"scene":0,
	"scenes":[
		{
			"name":"Scene",
			"nodes":[
				0,
				1,
				2
			]
		}
	],
	"nodes":[
		{
			"mesh":0,
			"name":"Small_Wall",
			"rotation":[
				0.7071068286895752,
				0,
				0,
				0.7071068286895752
			]
		},
		{
			"mesh":1,
			"name":"Small_Interior_3"
		},
		{
			"mesh":2,
			"name":"Shower_Divider_2"
		}
	],
	"meshes":[
		{
			"name":"Plane.011",
			"primitives":[
				{
					"attributes":{
						"POSITION":0,
						"NORMAL":1,
						"TEXCOORD_0":2
					},
					"indices":3
				}
			]
		},
		{
			"name":"Cube.003",
			"primitives":[
				{
					"attributes":{
						"POSITION":4,
						"NORMAL":5,
						"TEXCOORD_0":6
					},
					"indices":7
				}
			]
		},
		{
			"name":"Cube.005",
			"primitives":[
				{
					"attributes":{
						"POSITION":8,
						"NORMAL":9,
						"TEXCOORD_0":10
					},
					"indices":11
				}
			]
		}
	],
	"accessors":[
		{
			"bufferView":0,
			"componentType":5126,
			"count":36,
			"max":[
				3,
				0.20000001788139343,
				-4.440892098500626e-16
			],
			"min":[
				-3,
				-2.682209014892578e-07,
				-6
			],
			"type":"VEC3"
		},
		{
			"bufferView":1,
			"componentType":5126,
			"count":36,
			"type":"VEC3"
		},
		{
			"bufferView":2,
			"componentType":5126,
			"count":36,
			"type":"VEC2"
		},
		{
			"bufferView":3,
			"componentType":5123,
			"count":66,
			"type":"SCALAR"
		},
		{
			"bufferView":4,
			"componentType":5126,
			"count":48,
			"max":[
				3,
				6,
				0.40000003576278687
			],
			"min":[
				-3,
				-2.384185791015625e-07,
				0.20000024139881134
			],
			"type":"VEC3"
		},
		{
			"bufferView":5,
			"componentType":5126,
			"count":48,
			"type":"VEC3"
		},
		{
			"bufferView":6,
			"componentType":5126,
			"count":48,
			"type":"VEC2"
		},
		{
			"bufferView":7,
			"componentType":5123,
			"count":72,
			"type":"SCALAR"
		},
		{
			"bufferView":8,
			"componentType":5126,
			"count":48,
			"max":[
				1.1000006198883057,
				5.649999618530273,
				2.5
			],
			"min":[
				-1.0999997854232788,
				0,
				0.20000028610229492
			],
			"type":"VEC3"
		},
		{
			"bufferView":9,
			"componentType":5126,
			"count":48,
			"type":"VEC3"
		},
		{
			"bufferView":10,
			"componentType":5126,
			"count":48,
			"type":"VEC2"
		},
		{
			"bufferView":11,
			"componentType":5123,
			"count":72,
			"type":"SCALAR"
		}
	],
	"bufferViews":[
		{
			"buffer":0,
			"byteLength":432,
			"byteOffset":0,
			"target":34962
		},
		{
			"buffer":0,
			"byteLength":432,
			"byteOffset":432,
			"target":34962
		},
		{
			"buffer":0,
			"byteLength":288,
			"byteOffset":864,
			"target":34962
		},
		{
			"buffer":0,
			"byteLength":132,
			"byteOffset":1152,
			"target":34963
		},
		{
			"buffer":0,
			"byteLength":576,
			"byteOffset":1284,
			"target":34962
		},
		{
			"buffer":0,
			"byteLength":576,
			"byteOffset":1860,
			"target":34962
		},
		{
			"buffer":0,
			"byteLength":384,
			"byteOffset":2436,
			"target":34962
		},
		{
			"buffer":0,
			"byteLength":144,
			"byteOffset":2820,
			"target":34963
		},
		{
			"buffer":0,
			"byteLength":576,
			"byteOffset":2964,
			"target":34962
		},
		{
			"buffer":0,
			"byteLength":576,
			"byteOffset":3540,
			"target":34962
		},
		{
			"buffer":0,
			"byteLength":384,
			"byteOffset":4116,
			"target":34962
		},
		{
			"buffer":0,
			"byteLength":144,
			"byteOffset":4500,
			"target":34963
		}
	],
	"buffers":[
		{
			"byteLength":4644,
			"uri":"data:application/octet-stream;base64,"
		}
	]
}
