{
	"asset":{
		"generator":"Khronos glTF Blender I/O v3.6.28",
		"version":"2.0"
	},
	"scene":0,
	"scenes":[
		{
			"name":"Scene",
			"nodes":[
				0,
				1,
				2,
				3,
				4,
				5
			]
		}
	],
	"nodes":[
		{
			"mesh":0,
			"name":"Hex_Panel",
			"translation":[
				0,
				3,
				-1.1830168962478638
			]
		},
		{
			"mesh":1,
			"name":"Extruded Wall",
			"rotation":[
				0.7071068286895752,
				0,
				0,
				0.7071068286895752
			],
			"translation":[
				0,
				0,
				-1
			]
		},
		{
			"mesh":2,
			"name":"Doorway_Interior",
			"translation":[
				0,
				3,
				0
			]
		},
		{
			"mesh":3,
			"name":"Door_Wall",
			"rotation":[
				0.7071068286895752,
				0,
				0,
				0.7071068286895752
			],
			"translation":[
				0,
				0,
				-1
			]
		},
		{
			"mesh":4,
			"name":"Door_Frame",
			"translation":[
				0,
				0,
				-1
			]
		},
		{
			"mesh":5,
			"name":"Small_Interior"
		}
	],
	"meshes":[
		{
			"name":"Cube.001",
			"primitives":[
				{
					"attributes":{
						"POSITION":0,
						"NORMAL":1,
						"TEXCOORD_0":2
					},
					"indices":3
				}
			]
		},
		{
			"name":"Plane.009",
			"primitives":[
				{
					"attributes":{
						"POSITION":4,
						"NORMAL":5,
						"TEXCOORD_0":6
					},
					"indices":7
				}
			]
		},
		{
			"name":"Cube.052",
			"primitives":[
				{
					"attributes":{
						"POSITION":8,
						"NORMAL":9,
						"TEXCOORD_0":10
					},
					"indices":11
				},
				{
					"attributes":{
						"POSITION":12,
						"NORMAL":13,
						"TEXCOORD_0":14
					},
					"indices":15
				}
			]
		},
		{
			"name":"Plane.004",
			"primitives":[
				{
					"attributes":{
						"POSITION":16,
						"NORMAL":17,
						"TEXCOORD_0":18
					},
					"indices":19
				},
				{
					"attributes":{
						"POSITION":20,
						"NORMAL":21,
						"TEXCOORD_0":22
					},
					"indices":23
				}
			]
		},
		{
			"name":"Cube.007",
			"primitives":[
				{
					"attributes":{
						"POSITION":24,
						"NORMAL":25,
						"TEXCOORD_0":26
					},
					"indices":27
				}
			]
		},
		{
			"name":"Cube.045",
			"primitives":[
				{
					"attributes":{
						"POSITION":28,
						"NORMAL":29,
						"TEXCOORD_0":30
					},
					"indices":31
				},
				{
					"attributes":{
						"POSITION":32,
						"NORMAL":33,
						"TEXCOORD_0":34
					},
					"indices":35
				}
			]
		}
	],
	"accessors":[
		{
			"bufferView":0,
			"componentType":5126,
			"count":192,
			"max":[
				2.0636348724365234,
				1.8047969341278076,
				-2.806992292404175
			],
			"min":[
				-2.0636348724365234,
				-1.8047969341278076,
				-2.8769748210906982
			],
			"type":"VEC3"
		},
		{
			"bufferView":1,
			"componentType":5126,
			"count":192,
			"type":"VEC3"
		},
		{
			"bufferView":2,
			"componentType":5126,
			"count":192,
			"type":"VEC2"
		},
		{
			"bufferView":3,
			"componentType":5123,
			"count":336,
			"type":"SCALAR"
		},
		{
			"bufferView":4,
			"componentType":5126,
			"count":146,
			"max":[
				3,
				-3,
				1.3475934679263446e-07
			],
			"min":[
				-3,
				-3.1000001430511475,
				-6
			],
			"type":"VEC3"
		},
		{
			"bufferView":5,
			"componentType":5126,
			"count":146,
			"type":"VEC3"
		},
		{
			"bufferView":6,
			"componentType":5126,
			"count":146,
			"type":"VEC2"
		},
		{
			"bufferView":7,
			"componentType":5123,
			"count":264,
			"type":"SCALAR"
		},
		{
			"bufferView":8,
			"componentType":5126,
			"count":64,
			"max":[
				3,
				3,
				-3.5999999046325684
			],
			"min":[
				-3,
				-3.000000238418579,
				-3.799999713897705
			],
			"type":"VEC3"
		},
		{
			"bufferView":9,
			"componentType":5126,
			"count":64,
			"type":"VEC3"
		},
		{
			"bufferView":10,
			"componentType":5126,
			"count":64,
			"type":"VEC2"
		},
		{
			"bufferView":11,
			"componentType":5123,
			"count":96,
			"type":"SCALAR"
		},
		{
			"bufferView":12,
			"componentType":5126,
			"count":8,
			"max":[
				1.2000000476837158,
				-2.299999713897705,
				-3.5999999046325684
			],
			"min":[
				-1.2000000476837158,
				-3,
				-3.799999713897705
			],
			"type":"VEC3"
		},
		{
			"bufferView":13,
			"componentType":5126,
			"count":8,
			"type":"VEC3"
		},
		{
			"bufferView":14,
			"componentType":5126,
			"count":8,
			"type":"VEC2"
		},
		{
			"bufferView":15,
			"componentType":5123,
			"count":12,
			"type":"SCALAR"
		},
		{
			"bufferView":16,
			"componentType":5126,
			"count":54,
			"max":[
				3,
				-2.799999952316284,
				1.3113415775478643e-07
			],
			"min":[
				-3,
				-3.000000238418579,
				-6
			],
			"type":"VEC3"
		},
		{
			"bufferView":17,
			"componentType":5126,
			"count":54,
			"type":"VEC3"
		},
		{
			"bufferView":18,
			"componentType":5126,
			"count":54,
			"type":"VEC2"
		},
		{
			"bufferView":19,
			"componentType":5123,
			"count":114,
			"type":"SCALAR"
		},
		{
			"bufferView":20,
			"componentType":5126,
			"count":27,
			"max":[
				1.2000000476837158,
				-2.799999952316284,
				1.3113415775478643e-07
			],
			"min":[
				-1.2000000476837158,
				-3.000000238418579,
				-3.200000047683716
			],
			"type":"VEC3"
		},
		{
			"bufferView":21,
			"componentType":5126,
			"count":27,
			"type":"VEC3"
		},
		{
			"bufferView":22,
			"componentType":5126,
			"count":27,
			"type":"VEC2"
		},
		{
			"bufferView":23,
			"componentType":5123,
			"count":48,
			"type":"SCALAR"
		},
		{
			"bufferView":24,
			"componentType":5126,
			"count":186,
			"max":[
				1.1999999284744263,
				3.2001121044158936,
				-2.5999999046325684
			],
			"min":[
				-1.1999999284744263,
				0,
				-3.200000047683716
			],
			"type":"VEC3"
		},
		{
			"bufferView":25,
			"componentType":5126,
			"count":186,
			"type":"VEC3"
		},
		{
			"bufferView":26,
			"componentType":5126,
			"count":186,
			"type":"VEC2"
		},
		{
			"bufferView":27,
			"componentType":5123,
			"count":438,
			"type":"SCALAR"
		},
		{
			"bufferView":28,
			"componentType":5126,
			"count":136,
			"max":[
				3,
				4.800000190734863,
				-3.6999998092651367
			],
			"min":[
				-3,
				1.2000000476837158,
				-3.799999713897705
			],
			"type":"VEC3"
		},
		{
			"bufferView":29,
			"componentType":5126,
			"count":136,
			"type":"VEC3"
		},
		{
			"bufferView":30,
			"componentType":5126,
			"count":136,
			"type":"VEC2"
		},
		{
			"bufferView":31,
			"componentType":5123,
			"count":204,
			"type":"SCALAR"
		},
		{
			"bufferView":32,
			"componentType":5126,
			"count":8,
			"max":[
				1.2000000476837158,
				1.7000000476837158,
				-3.6999998092651367
			],
			"min":[
				-1.2000000476837158,
				1.2000000476837158,
				-3.799999713897705
			],
			"type":"VEC3"
		},
		{
			"bufferView":33,
			"componentType":5126,
			"count":8,
			"type":"VEC3"
		},
		{
			"bufferView":34,
			"componentType":5126,
			"count":8,
			"type":"VEC2"
		},
		{
			"bufferView":35,
			"componentType":5123,
			"count":12,
			"type":"SCALAR"
		}
	],
	"bufferViews":[
		{
			"buffer":0,
			"byteLength":2304,
			"byteOffset":0,
			"target":34962
		},
		{
			"buffer":0,
			"byteLength":2304,
			"byteOffset":2304,
			"target":34962
		},
		{
			"buffer":0,
			"byteLength":1536,
			"byteOffset":4608,
			"target":34962
		},
		{
			"buffer":0,
			"byteLength":672,
			"byteOffset":6144,
			"target":34963
		},
		{
			"buffer":0,
			"byteLength":1752,
			"byteOffset":6816,
			"target":34962
		},
		{
			"buffer":0,
			"byteLength":1752,
			"byteOffset":8568,
			"target":34962
		},
		{
			"buffer":0,
			"byteLength":1168,
			"byteOffset":10320,
			"target":34962
		},
		{
			"buffer":0,
			"byteLength":528,
			"byteOffset":11488,
			"target":34963
		},
		{
			"buffer":0,
			"byteLength":768,
			"byteOffset":12016,
			"target":34962
		},
		{
			"buffer":0,
			"byteLength":768,
			"byteOffset":12784,
			"target":34962
		},
		{
			"buffer":0,
			"byteLength":512,
			"byteOffset":13552,
			"target":34962
		},
		{
			"buffer":0,
			"byteLength":192,
			"byteOffset":14064,
			"target":34963
		},
		{
			"buffer":0,
			"byteLength":96,
			"byteOffset":14256,
			"target":34962
		},
		{
			"buffer":0,
			"byteLength":96,
			"byteOffset":14352,
			"target":34962
		},
		{
			"buffer":0,
			"byteLength":64,
			"byteOffset":14448,
			"target":34962
		},
		{
			"buffer":0,
			"byteLength":24,
			"byteOffset":14512,
			"target":34963
		},
		{
			"buffer":0,
			"byteLength":648,
			"byteOffset":14536,
			"target":34962
		},
		{
			"buffer":0,
			"byteLength":648,
			"byteOffset":15184,
			"target":34962
		},
		{
			"buffer":0,
			"byteLength":432,
			"byteOffset":15832,
			"target":34962
		},
		{
			"buffer":0,
			"byteLength":228,
			"byteOffset":16264,
			"target":34963
		},
		{
			"buffer":0,
			"byteLength":324,
			"byteOffset":16492,
			"target":34962
		},
		{
			"buffer":0,
			"byteLength":324,
			"byteOffset":16816,
			"target":34962
		},
		{
			"buffer":0,
			"byteLength":216,
			"byteOffset":17140,
			"target":34962
		},
		{
			"buffer":0,
			"byteLength":96,
			"byteOffset":17356,
			"target":34963
		},
		{
			"buffer":0,
			"byteLength":2232,
			"byteOffset":17452,
			"target":34962
		},
		{
			"buffer":0,
			"byteLength":2232,
			"byteOffset":19684,
			"target":34962
		},
		{
			"buffer":0,
			"byteLength":1488,
			"byteOffset":21916,
			"target":34962
		},
		{
			"buffer":0,
			"byteLength":876,
			"byteOffset":23404,
			"target":34963
		},
		{
			"buffer":0,
			"byteLength":1632,
			"byteOffset":24280,
			"target":34962
		},
		{
			"buffer":0,
			"byteLength":1632,
			"byteOffset":25912,
			"target":34962
		},
		{
			"buffer":0,
			"byteLength":1088,
			"byteOffset":27544,
			"target":34962
		},
		{
			"buffer":0,
			"byteLength":408,
			"byteOffset":28632,
			"target":34963
		},
		{
			"buffer":0,
			"byteLength":96,
			"byteOffset":29040,
			"target":34962
		},
		{
			"buffer":0,
			"byteLength":96,
			"byteOffset":29136,
			"target":34962
		},
		{
			"buffer":0,
			"byteLength":64,
			"byteOffset":29232,
			"target":34962
		},
		{
			"buffer":0,
			"byteLength":24,
			"byteOffset":29296,
			"target":34963
		}
	],
	"buffers":[
		{
			"byteLength":29320,
			"uri":"data:application/octet-stream;base64,"
		}
	]
}
