{
	"asset":{
		"generator":"Khronos glTF Blender I/O v3.6.28",
		"version":"2.0"
	},
	"scene":0,
	"scenes":[
		{
			"name":"Scene",
			"nodes":[
				0,
				1,
				2,
				3
			]
		}
	],
	"nodes":[
		{
			"mesh":0,
			"name":"Hex_Panel",
			"translation":[
				0,
				3,
				0
			]
		},
		{
			"mesh":1,
			"name":"Extruded Wall",
			"rotation":[
				0.7071068286895752,
				0,
				0,
				0.7071068286895752
			]
		},
		{
			"mesh":2,
			"name":"Door_Wall",
			"rotation":[
				0.7071068286895752,
				0,
				0,
				0.7071068286895752
			]
		},
		{
			"mesh":3,
			"name":"Door_Frame"
		}
	],
	"meshes":[
		{
			"name":"Cube.001",
			"primitives":[
				{
					"attributes":{
						"POSITION":0,
						"NORMAL":1,
						"TEXCOORD_0":2
					},
					"indices":3
				}
			]
		},
		{
			"name":"Plane.009",
			"primitives":[
				{
					"attributes":{
						"POSITION":4,
						"NORMAL":5,
						"TEXCOORD_0":6
					},
					"indices":7
				}
			]
		},
		{
			"name":"Plane.004",
			"primitives":[
				{
					"attributes":{
						"POSITION":8,
						"NORMAL":9,
						"TEXCOORD_0":10
					},
					"indices":11
				},
				{
					"attributes":{
						"POSITION":12,
						"NORMAL":13,
						"TEXCOORD_0":14
					},
					"indices":15
				}
			]
		},
		{
			"name":"Cube.007",
			"primitives":[
				{
					"attributes":{
						"POSITION":16,
						"NORMAL":17,
						"TEXCOORD_0":18
					},
					"indices":19
				}
			]
		}
	],
	"accessors":[
		{
			"bufferView":0,
			"componentType":5126,
			"count":192,
			"max":[
				2.0636348724365234,
				1.8047969341278076,
				0.0655398964881897
			],
			"min":[
				-2.0636348724365234,
				-1.8047969341278076,
				-0.004442635923624039
			],
			"type":"VEC3"
		},
		{
			"bufferView":1,
			"componentType":5126,
			"count":192,
			"type":"VEC3"
		},
		{
			"bufferView":2,
			"componentType":5126,
			"count":192,
			"type":"VEC2"
		},
		{
			"bufferView":3,
			"componentType":5123,
			"count":336,
			"type":"SCALAR"
		},
		{
			"bufferView":4,
			"componentType":5126,
			"count":180,
			"max":[
				3,
				0.10000014305114746,
				-7.459561857103836e-10
			],
			"min":[
				-3,
				0,
				-6
			],
			"type":"VEC3"
		},
		{
			"bufferView":5,
			"componentType":5126,
			"count":180,
			"type":"VEC3"
		},
		{
			"bufferView":6,
			"componentType":5126,
			"count":180,
			"type":"VEC2"
		},
		{
			"bufferView":7,
			"componentType":5123,
			"count":354,
			"type":"SCALAR"
		},
		{
			"bufferView":8,
			"componentType":5126,
			"count":54,
			"max":[
				3,
				0,
				8.742276236262114e-09
			],
			"min":[
				-3,
				-0.20000028610229492,
				-6
			],
			"type":"VEC3"
		},
		{
			"bufferView":9,
			"componentType":5126,
			"count":54,
			"type":"VEC3"
		},
		{
			"bufferView":10,
			"componentType":5126,
			"count":54,
			"type":"VEC2"
		},
		{
			"bufferView":11,
			"componentType":5123,
			"count":114,
			"type":"SCALAR"
		},
		{
			"bufferView":12,
			"componentType":5126,
			"count":27,
			"max":[
				1.2000000476837158,
				0,
				8.742276236262114e-09
			],
			"min":[
				-1.2000000476837158,
				-0.20000018179416656,
				-3.200000047683716
			],
			"type":"VEC3"
		},
		{
			"bufferView":13,
			"componentType":5126,
			"count":27,
			"type":"VEC3"
		},
		{
			"bufferView":14,
			"componentType":5126,
			"count":27,
			"type":"VEC2"
		},
		{
			"bufferView":15,
			"componentType":5123,
			"count":48,
			"type":"SCALAR"
		},
		{
			"bufferView":16,
			"componentType":5126,
			"count":154,
			"max":[
				1.1999999284744263,
				3.2001121044158936,
				0.20000019669532776
			],
			"min":[
				-1.1999999284744263,
				0,
				-0.19999989867210388
			],
			"type":"VEC3"
		},
		{
			"bufferView":17,
			"componentType":5126,
			"count":154,
			"type":"VEC3"
		},
		{
			"bufferView":18,
			"componentType":5126,
			"count":154,
			"type":"VEC2"
		},
		{
			"bufferView":19,
			"componentType":5123,
			"count":324,
			"type":"SCALAR"
		}
	],
	"bufferViews":[
		{
			"buffer":0,
			"byteLength":2304,
			"byteOffset":0,
			"target":34962
		},
		{
			"buffer":0,
			"byteLength":2304,
			"byteOffset":2304,
			"target":34962
		},
		{
			"buffer":0,
			"byteLength":1536,
			"byteOffset":4608,
			"target":34962
		},
		{
			"buffer":0,
			"byteLength":672,
			"byteOffset":6144,
			"target":34963
		},
		{
			"buffer":0,
			"byteLength":2160,
			"byteOffset":6816,
			"target":34962
		},
		{
			"buffer":0,
			"byteLength":2160,
			"byteOffset":8976,
			"target":34962
		},
		{
			"buffer":0,
			"byteLength":1440,
			"byteOffset":11136,
			"target":34962
		},
		{
			"buffer":0,
			"byteLength":708,
			"byteOffset":12576,
			"target":34963
		},
		{
			"buffer":0,
			"byteLength":648,
			"byteOffset":13284,
			"target":34962
		},
		{
			"buffer":0,
			"byteLength":648,
			"byteOffset":13932,
			"target":34962
		},
		{
			"buffer":0,
			"byteLength":432,
			"byteOffset":14580,
			"target":34962
		},
		{
			"buffer":0,
			"byteLength":228,
			"byteOffset":15012,
			"target":34963
		},
		{
			"buffer":0,
			"byteLength":324,
			"byteOffset":15240,
			"target":34962
		},
		{
			"buffer":0,
			"byteLength":324,
			"byteOffset":15564,
			"target":34962
		},
		{
			"buffer":0,
			"byteLength":216,
			"byteOffset":15888,
			"target":34962
		},
		{
			"buffer":0,
			"byteLength":96,
			"byteOffset":16104,
			"target":34963
		},
		{
			"buffer":0,
			"byteLength":1848,
			"byteOffset":16200,
			"target":34962
		},
		{
			"buffer":0,
			"byteLength":1848,
			"byteOffset":18048,
			"target":34962
		},
		{
			"buffer":0,
			"byteLength":1232,
			"byteOffset":19896,
			"target":34962
		},
		{
			"buffer":0,
			"byteLength":648,
			"byteOffset":21128,
			"target":34963
		}
	],
	"buffers":[
		{
			"byteLength":21776,
			"uri":"data:application/octet-stream;base64,"
		}
	]
}
