{
	"asset":{
		"generator":"Khronos glTF Blender I/O v3.6.28",
		"version":"2.0"
	},
	"scene":0,
	"scenes":[
		{
			"name":"Scene",
			"nodes":[
				0,
				1,
				2,
				3
			]
		}
	],
	"nodes":[
		{
			"mesh":0,
			"name":"Doorway_Interior",
			"translation":[
				0,
				3,
				0
			]
		},
		{
			"mesh":1,
			"name":"Door_Wall",
			"rotation":[
				0.7071068286895752,
				0,
				0,
				0.7071068286895752
			],
			"translation":[
				0,
				0,
				-1
			]
		},
		{
			"mesh":2,
			"name":"Door_Frame",
			"translation":[
				0,
				0,
				-1
			]
		},
		{
			"mesh":3,
			"name":"Small_Interior"
		}
	],
	"meshes":[
		{
			"name":"Cube.052",
			"primitives":[
				{
					"attributes":{
						"POSITION":0,
						"NORMAL":1,
						"TEXCOORD_0":2
					},
					"indices":3
				},
				{
					"attributes":{
						"POSITION":4,
						"NORMAL":5,
						"TEXCOORD_0":6
					},
					"indices":7
				}
			]
		},
		{
			"name":"Plane.004",
			"primitives":[
				{
					"attributes":{
						"POSITION":8,
						"NORMAL":9,
						"TEXCOORD_0":10
					},
					"indices":11
				},
				{
					"attributes":{
						"POSITION":12,
						"NORMAL":13,
						"TEXCOORD_0":14
					},
					"indices":15
				}
			]
		},
		{
			"name":"Cube.007",
			"primitives":[
				{
					"attributes":{
						"POSITION":16,
						"NORMAL":17,
						"TEXCOORD_0":18
					},
					"indices":19
				}
			]
		},
		{
			"name":"Cube.045",
			"primitives":[
				{
					"attributes":{
						"POSITION":20,
						"NORMAL":21,
						"TEXCOORD_0":22
					},
					"indices":23
				},
				{
					"attributes":{
						"POSITION":24,
						"NORMAL":25,
						"TEXCOORD_0":26
					},
					"indices":27
				}
			]
		}
	],
	"accessors":[
		{
			"bufferView":0,
			"componentType":5126,
			"count":64,
			"max":[
				3,
				3,
				-3.5999999046325684
			],
			"min":[
				-3,
				-3.000000238418579,
				-3.799999713897705
			],
			"type":"VEC3"
		},
		{
			"bufferView":1,
			"componentType":5126,
			"count":64,
			"type":"VEC3"
		},
		{
			"bufferView":2,
			"componentType":5126,
			"count":64,
			"type":"VEC2"
		},
		{
			"bufferView":3,
			"componentType":5123,
			"count":96,
			"type":"SCALAR"
		},
		{
			"bufferView":4,
			"componentType":5126,
			"count":8,
			"max":[
				1.2000000476837158,
				-2.299999713897705,
				-3.5999999046325684
			],
			"min":[
				-1.2000000476837158,
				-3,
				-3.799999713897705
			],
			"type":"VEC3"
		},
		{
			"bufferView":5,
			"componentType":5126,
			"count":8,
			"type":"VEC3"
		},
		{
			"bufferView":6,
			"componentType":5126,
			"count":8,
			"type":"VEC2"
		},
		{
			"bufferView":7,
			"componentType":5123,
			"count":12,
			"type":"SCALAR"
		},
		{
			"bufferView":8,
			"componentType":5126,
			"count":54,
			"max":[
				3,
				-2.799999952316284,
				1.3113415775478643e-07
			],
			"min":[
				-3,
				-3.000000238418579,
				-6
			],
			"type":"VEC3"
		},
		{
			"bufferView":9,
			"componentType":5126,
			"count":54,
			"type":"VEC3"
		},
		{
			"bufferView":10,
			"componentType":5126,
			"count":54,
			"type":"VEC2"
		},
		{
			"bufferView":11,
			"componentType":5123,
			"count":114,
			"type":"SCALAR"
		},
		{
			"bufferView":12,
			"componentType":5126,
			"count":27,
			"max":[
				1.2000000476837158,
				-2.799999952316284,
				1.3113415775478643e-07
			],
			"min":[
				-1.2000000476837158,
				-3.000000238418579,
				-3.200000047683716
			],
			"type":"VEC3"
		},
		{
			"bufferView":13,
			"componentType":5126,
			"count":27,
			"type":"VEC3"
		},
		{
			"bufferView":14,
			"componentType":5126,
			"count":27,
			"type":"VEC2"
		},
		{
			"bufferView":15,
			"componentType":5123,
			"count":48,
			"type":"SCALAR"
		},
		{
			"bufferView":16,
			"componentType":5126,
			"count":186,
			"max":[
				1.1999999284744263,
				3.2001121044158936,
				-2.5999999046325684
			],
			"min":[
				-1.1999999284744263,
				0,
				-3.200000047683716
			],
			"type":"VEC3"
		},
		{
			"bufferView":17,
			"componentType":5126,
			"count":186,
			"type":"VEC3"
		},
		{
			"bufferView":18,
			"componentType":5126,
			"count":186,
			"type":"VEC2"
		},
		{
			"bufferView":19,
			"componentType":5123,
			"count":438,
			"type":"SCALAR"
		},
		{
			"bufferView":20,
			"componentType":5126,
			"count":136,
			"max":[
				3,
				4.800000190734863,
				-3.6999998092651367
			],
			"min":[
				-3,
				1.2000000476837158,
				-3.799999713897705
			],
			"type":"VEC3"
		},
		{
			"bufferView":21,
			"componentType":5126,
			"count":136,
			"type":"VEC3"
		},
		{
			"bufferView":22,
			"componentType":5126,
			"count":136,
			"type":"VEC2"
		},
		{
			"bufferView":23,
			"componentType":5123,
			"count":204,
			"type":"SCALAR"
		},
		{
			"bufferView":24,
			"componentType":5126,
			"count":8,
			"max":[
				1.2000000476837158,
				1.7000000476837158,
				-3.6999998092651367
			],
			"min":[
				-1.2000000476837158,
				1.2000000476837158,
				-3.799999713897705
			],
			"type":"VEC3"
		},
		{
			"bufferView":25,
			"componentType":5126,
			"count":8,
			"type":"VEC3"
		},
		{
			"bufferView":26,
			"componentType":5126,
			"count":8,
			"type":"VEC2"
		},
		{
			"bufferView":27,
			"componentType":5123,
			"count":12,
			"type":"SCALAR"
		}
	],
	"bufferViews":[
		{
			"buffer":0,
			"byteLength":768,
			"byteOffset":0,
			"target":34962
		},
		{
			"buffer":0,
			"byteLength":768,
			"byteOffset":768,
			"target":34962
		},
		{
			"buffer":0,
			"byteLength":512,
			"byteOffset":1536,
			"target":34962
		},
		{
			"buffer":0,
			"byteLength":192,
			"byteOffset":2048,
			"target":34963
		},
		{
			"buffer":0,
			"byteLength":96,
			"byteOffset":2240,
			"target":34962
		},
		{
			"buffer":0,
			"byteLength":96,
			"byteOffset":2336,
			"target":34962
		},
		{
			"buffer":0,
			"byteLength":64,
			"byteOffset":2432,
			"target":34962
		},
		{
			"buffer":0,
			"byteLength":24,
			"byteOffset":2496,
			"target":34963
		},
		{
			"buffer":0,
			"byteLength":648,
			"byteOffset":2520,
			"target":34962
		},
		{
			"buffer":0,
			"byteLength":648,
			"byteOffset":3168,
			"target":34962
		},
		{
			"buffer":0,
			"byteLength":432,
			"byteOffset":3816,
			"target":34962
		},
		{
			"buffer":0,
			"byteLength":228,
			"byteOffset":4248,
			"target":34963
		},
		{
			"buffer":0,
			"byteLength":324,
			"byteOffset":4476,
			"target":34962
		},
		{
			"buffer":0,
			"byteLength":324,
			"byteOffset":4800,
			"target":34962
		},
		{
			"buffer":0,
			"byteLength":216,
			"byteOffset":5124,
			"target":34962
		},
		{
			"buffer":0,
			"byteLength":96,
			"byteOffset":5340,
			"target":34963
		},
		{
			"buffer":0,
			"byteLength":2232,
			"byteOffset":5436,
			"target":34962
		},
		{
			"buffer":0,
			"byteLength":2232,
			"byteOffset":7668,
			"target":34962
		},
		{
			"buffer":0,
			"byteLength":1488,
			"byteOffset":9900,
			"target":34962
		},
		{
			"buffer":0,
			"byteLength":876,
			"byteOffset":11388,
			"target":34963
		},
		{
			"buffer":0,
			"byteLength":1632,
			"byteOffset":12264,
			"target":34962
		},
		{
			"buffer":0,
			"byteLength":1632,
			"byteOffset":13896,
			"target":34962
		},
		{
			"buffer":0,
			"byteLength":1088,
			"byteOffset":15528,
			"target":34962
		},
		{
			"buffer":0,
			"byteLength":408,
			"byteOffset":16616,
			"target":34963
		},
		{
			"buffer":0,
			"byteLength":96,
			"byteOffset":17024,
			"target":34962
		},
		{
			"buffer":0,
			"byteLength":96,
			"byteOffset":17120,
			"target":34962
		},
		{
			"buffer":0,
			"byteLength":64,
			"byteOffset":17216,
			"target":34962
		},
		{
			"buffer":0,
			"byteLength":24,
			"byteOffset":17280,
			"target":34963
		}
	],
	"buffers":[
		{
			"byteLength":17304,
			"uri":"data:application/octet-stream;base64,"
		}
	]
}
