{
	"asset":{
		"generator":"Khronos glTF Blender I/O v3.6.28",
		"version":"2.0"
	},
	"scene":0,
	"scenes":[
		{
			"name":"Scene",
			"nodes":[
				0,
				1,
				2
			]
		}
	],
	"nodes":[
		{
			"mesh":0,
			"name":"Small_Wall",
			"rotation":[
				0.7071068286895752,
				0,
				0,
				0.7071068286895752
			]
		},
		{
			"mesh":1,
			"name":"Small_Hex",
			"rotation":[
				0.7071068286895752,
				0,
				0,
				0.7071068286895752
			],
			"translation":[
				0,
				-1.5,
				0
			]
		},
		{
			"mesh":2,
			"name":"Small_Border_Exterior",
			"rotation":[
				0.7071068286895752,
				0,
				0,
				0.7071068286895752
			]
		}
	],
	"meshes":[
		{
			"name":"Plane.011",
			"primitives":[
				{
					"attributes":{
						"POSITION":0,
						"NORMAL":1,
						"TEXCOORD_0":2
					},
					"indices":3
				}
			]
		},
		{
			"name":"Plane.018",
			"primitives":[
				{
					"attributes":{
						"POSITION":4,
						"NORMAL":5,
						"TEXCOORD_0":6
					},
					"indices":7
				}
			]
		},
		{
			"name":"Plane.010",
			"primitives":[
				{
					"attributes":{
						"POSITION":8,
						"NORMAL":9,
						"TEXCOORD_0":10
					},
					"indices":11
				}
			]
		}
	],
	"accessors":[
		{
			"bufferView":0,
			"componentType":5126,
			"count":36,
			"max":[
				3,
				0.20000001788139343,
				-4.440892098500626e-16
			],
			"min":[
				-3,
				-2.682209014892578e-07,
				-6
			],
			"type":"VEC3"
		},
		{
			"bufferView":1,
			"componentType":5126,
			"count":36,
			"type":"VEC3"
		},
		{
			"bufferView":2,
			"componentType":5126,
			"count":36,
			"type":"VEC2"
		},
		{
			"bufferView":3,
			"componentType":5123,
			"count":66,
			"type":"SCALAR"
		},
		{
			"bufferView":4,
			"componentType":5126,
			"count":108,
			"max":[
				0.6340144872665405,
				-1.7877454183690134e-08,
				-2.4000000953674316
			],
			"min":[
				-0.6340144872665405,
				-0.10000017285346985,
				-6.5
			],
			"type":"VEC3"
		},
		{
			"bufferView":5,
			"componentType":5126,
			"count":108,
			"type":"VEC3"
		},
		{
			"bufferView":6,
			"componentType":5126,
			"count":108,
			"type":"VEC2"
		},
		{
			"bufferView":7,
			"componentType":5123,
			"count":180,
			"type":"SCALAR"
		},
		{
			"bufferView":8,
			"componentType":5126,
			"count":192,
			"max":[
				3,
				2.384185791015625e-07,
				4.895675420613088e-09
			],
			"min":[
				-3,
				-0.10000000149011612,
				-6
			],
			"type":"VEC3"
		},
		{
			"bufferView":9,
			"componentType":5126,
			"count":192,
			"type":"VEC3"
		},
		{
			"bufferView":10,
			"componentType":5126,
			"count":192,
			"type":"VEC2"
		},
		{
			"bufferView":11,
			"componentType":5123,
			"count":396,
			"type":"SCALAR"
		}
	],
	"bufferViews":[
		{
			"buffer":0,
			"byteLength":432,
			"byteOffset":0,
			"target":34962
		},
		{
			"buffer":0,
			"byteLength":432,
			"byteOffset":432,
			"target":34962
		},
		{
			"buffer":0,
			"byteLength":288,
			"byteOffset":864,
			"target":34962
		},
		{
			"buffer":0,
			"byteLength":132,
			"byteOffset":1152,
			"target":34963
		},
		{
			"buffer":0,
			"byteLength":1296,
			"byteOffset":1284,
			"target":34962
		},
		{
			"buffer":0,
			"byteLength":1296,
			"byteOffset":2580,
			"target":34962
		},
		{
			"buffer":0,
			"byteLength":864,
			"byteOffset":3876,
			"target":34962
		},
		{
			"buffer":0,
			"byteLength":360,
			"byteOffset":4740,
			"target":34963
		},
		{
			"buffer":0,
			"byteLength":2304,
			"byteOffset":5100,
			"target":34962
		},
		{
			"buffer":0,
			"byteLength":2304,
			"byteOffset":7404,
			"target":34962
		},
		{
			"buffer":0,
			"byteLength":1536,
			"byteOffset":9708,
			"target":34962
		},
		{
			"buffer":0,
			"byteLength":792,
			"byteOffset":11244,
			"target":34963
		}
	],
	"buffers":[
		{
			"byteLength":12036,
			"uri":"data:application/octet-stream;base64,"
		}
	]
}
