{
	"asset":{
		"generator":"Khronos glTF Blender I/O v3.6.28",
		"version":"2.0"
	},
	"scene":0,
	"scenes":[
		{
			"name":"Scene",
			"nodes":[
				0,
				1,
				2,
				3
			]
		}
	],
	"nodes":[
		{
			"mesh":0,
			"name":"Doorway_Interior"
		},
		{
			"mesh":1,
			"name":"Door_Wall",
			"rotation":[
				0.7071068286895752,
				0,
				0,
				0.7071068286895752
			]
		},
		{
			"mesh":2,
			"name":"Door_Frame"
		},
		{
			"mesh":3,
			"name":"Small_Interior"
		}
	],
	"meshes":[
		{
			"name":"Cube.052",
			"primitives":[
				{
					"attributes":{
						"POSITION":0,
						"NORMAL":1,
						"TEXCOORD_0":2
					},
					"indices":3
				},
				{
					"attributes":{
						"POSITION":4,
						"NORMAL":5,
						"TEXCOORD_0":6
					},
					"indices":7
				}
			]
		},
		{
			"name":"Plane.004",
			"primitives":[
				{
					"attributes":{
						"POSITION":8,
						"NORMAL":9,
						"TEXCOORD_0":10
					},
					"indices":11
				},
				{
					"attributes":{
						"POSITION":12,
						"NORMAL":13,
						"TEXCOORD_0":14
					},
					"indices":15
				}
			]
		},
		{
			"name":"Cube.007",
			"primitives":[
				{
					"attributes":{
						"POSITION":16,
						"NORMAL":17,
						"TEXCOORD_0":18
					},
					"indices":19
				}
			]
		},
		{
			"name":"Cube.045",
			"primitives":[
				{
					"attributes":{
						"POSITION":20,
						"NORMAL":21,
						"TEXCOORD_0":22
					},
					"indices":23
				},
				{
					"attributes":{
						"POSITION":24,
						"NORMAL":25,
						"TEXCOORD_0":26
					},
					"indices":27
				}
			]
		}
	],
	"accessors":[
		{
			"bufferView":0,
			"componentType":5126,
			"count":64,
			"max":[
				3,
				6,
				0.20000004768371582
			],
			"min":[
				-3,
				-2.384185791015625e-07,
				2.384185791015625e-07
			],
			"type":"VEC3"
		},
		{
			"bufferView":1,
			"componentType":5126,
			"count":64,
			"type":"VEC3"
		},
		{
			"bufferView":2,
			"componentType":5126,
			"count":64,
			"type":"VEC2"
		},
		{
			"bufferView":3,
			"componentType":5123,
			"count":96,
			"type":"SCALAR"
		},
		{
			"bufferView":4,
			"componentType":5126,
			"count":8,
			"max":[
				1.2000000476837158,
				0.7000002264976501,
				0.20000004768371582
			],
			"min":[
				-1.2000000476837158,
				4.768370942542788e-08,
				2.384185791015625e-07
			],
			"type":"VEC3"
		},
		{
			"bufferView":5,
			"componentType":5126,
			"count":8,
			"type":"VEC3"
		},
		{
			"bufferView":6,
			"componentType":5126,
			"count":8,
			"type":"VEC2"
		},
		{
			"bufferView":7,
			"componentType":5123,
			"count":12,
			"type":"SCALAR"
		},
		{
			"bufferView":8,
			"componentType":5126,
			"count":54,
			"max":[
				3,
				0,
				8.742276236262114e-09
			],
			"min":[
				-3,
				-0.20000028610229492,
				-6
			],
			"type":"VEC3"
		},
		{
			"bufferView":9,
			"componentType":5126,
			"count":54,
			"type":"VEC3"
		},
		{
			"bufferView":10,
			"componentType":5126,
			"count":54,
			"type":"VEC2"
		},
		{
			"bufferView":11,
			"componentType":5123,
			"count":114,
			"type":"SCALAR"
		},
		{
			"bufferView":12,
			"componentType":5126,
			"count":27,
			"max":[
				1.2000000476837158,
				0,
				8.742276236262114e-09
			],
			"min":[
				-1.2000000476837158,
				-0.20000018179416656,
				-3.200000047683716
			],
			"type":"VEC3"
		},
		{
			"bufferView":13,
			"componentType":5126,
			"count":27,
			"type":"VEC3"
		},
		{
			"bufferView":14,
			"componentType":5126,
			"count":27,
			"type":"VEC2"
		},
		{
			"bufferView":15,
			"componentType":5123,
			"count":48,
			"type":"SCALAR"
		},
		{
			"bufferView":16,
			"componentType":5126,
			"count":154,
			"max":[
				1.1999999284744263,
				3.2001121044158936,
				0.20000019669532776
			],
			"min":[
				-1.1999999284744263,
				0,
				-0.19999989867210388
			],
			"type":"VEC3"
		},
		{
			"bufferView":17,
			"componentType":5126,
			"count":154,
			"type":"VEC3"
		},
		{
			"bufferView":18,
			"componentType":5126,
			"count":154,
			"type":"VEC2"
		},
		{
			"bufferView":19,
			"componentType":5123,
			"count":324,
			"type":"SCALAR"
		},
		{
			"bufferView":20,
			"componentType":5126,
			"count":136,
			"max":[
				3,
				4.800000190734863,
				0.10000014305114746
			],
			"min":[
				-3,
				1.2000000476837158,
				2.384185791015625e-07
			],
			"type":"VEC3"
		},
		{
			"bufferView":21,
			"componentType":5126,
			"count":136,
			"type":"VEC3"
		},
		{
			"bufferView":22,
			"componentType":5126,
			"count":136,
			"type":"VEC2"
		},
		{
			"bufferView":23,
			"componentType":5123,
			"count":204,
			"type":"SCALAR"
		},
		{
			"bufferView":24,
			"componentType":5126,
			"count":8,
			"max":[
				1.2000000476837158,
				1.7000000476837158,
				0.10000014305114746
			],
			"min":[
				-1.2000000476837158,
				1.2000000476837158,
				2.384185791015625e-07
			],
			"type":"VEC3"
		},
		{
			"bufferView":25,
			"componentType":5126,
			"count":8,
			"type":"VEC3"
		},
		{
			"bufferView":26,
			"componentType":5126,
			"count":8,
			"type":"VEC2"
		},
		{
			"bufferView":27,
			"componentType":5123,
			"count":12,
			"type":"SCALAR"
		}
	],
	"bufferViews":[
		{
			"buffer":0,
			"byteLength":768,
			"byteOffset":0,
			"target":34962
		},
		{
			"buffer":0,
			"byteLength":768,
			"byteOffset":768,
			"target":34962
		},
		{
			"buffer":0,
			"byteLength":512,
			"byteOffset":1536,
			"target":34962
		},
		{
			"buffer":0,
			"byteLength":192,
			"byteOffset":2048,
			"target":34963
		},
		{
			"buffer":0,
			"byteLength":96,
			"byteOffset":2240,
			"target":34962
		},
		{
			"buffer":0,
			"byteLength":96,
			"byteOffset":2336,
			"target":34962
		},
		{
			"buffer":0,
			"byteLength":64,
			"byteOffset":2432,
			"target":34962
		},
		{
			"buffer":0,
			"byteLength":24,
			"byteOffset":2496,
			"target":34963
		},
		{
			"buffer":0,
			"byteLength":648,
			"byteOffset":2520,
			"target":34962
		},
		{
			"buffer":0,
			"byteLength":648,
			"byteOffset":3168,
			"target":34962
		},
		{
			"buffer":0,
			"byteLength":432,
			"byteOffset":3816,
			"target":34962
		},
		{
			"buffer":0,
			"byteLength":228,
			"byteOffset":4248,
			"target":34963
		},
		{
			"buffer":0,
			"byteLength":324,
			"byteOffset":4476,
			"target":34962
		},
		{
			"buffer":0,
			"byteLength":324,
			"byteOffset":4800,
			"target":34962
		},
		{
			"buffer":0,
			"byteLength":216,
			"byteOffset":5124,
			"target":34962
		},
		{
			"buffer":0,
			"byteLength":96,
			"byteOffset":5340,
			"target":34963
		},
		{
			"buffer":0,
			"byteLength":1848,
			"byteOffset":5436,
			"target":34962
		},
		{
			"buffer":0,
			"byteLength":1848,
			"byteOffset":7284,
			"target":34962
		},
		{
			"buffer":0,
			"byteLength":1232,
			"byteOffset":9132,
			"target":34962
		},
		{
			"buffer":0,
			"byteLength":648,
			"byteOffset":10364,
			"target":34963
		},
		{
			"buffer":0,
			"byteLength":1632,
			"byteOffset":11012,
			"target":34962
		},
		{
			"buffer":0,
			"byteLength":1632,
			"byteOffset":12644,
			"target":34962
		},
		{
			"buffer":0,
			"byteLength":1088,
			"byteOffset":14276,
			"target":34962
		},
		{
			"buffer":0,
			"byteLength":408,
			"byteOffset":15364,
			"target":34963
		},
		{
			"buffer":0,
			"byteLength":96,
			"byteOffset":15772,
			"target":34962
		},
		{
			"buffer":0,
			"byteLength":96,
			"byteOffset":15868,
			"target":34962
		},
		{
			"buffer":0,
			"byteLength":64,
			"byteOffset":15964,
			"target":34962
		},
		{
			"buffer":0,
			"byteLength":24,
			"byteOffset":16028,
			"target":34963
		}
	],
	"buffers":[
		{
			"byteLength":16052,
			"uri":"data:application/octet-stream;base64,"
		}
	]
}
