{
	"asset":{
		"generator":"Khronos glTF Blender I/O v3.6.28",
		"version":"2.0"
	},
	"scene":0,
	"scenes":[
		{
			"name":"Scene",
			"nodes":[
				0,
				1
			]
		}
	],
	"nodes":[
		{
			"mesh":0,
			"name":"Door_Wall",
			"rotation":[
				0.7071068286895752,
				0,
				0,
				0.7071068286895752
			]
		},
		{
			"mesh":1,
			"name":"Door_Frame"
		}
	],
	"meshes":[
		{
			"name":"Plane.004",
			"primitives":[
				{
					"attributes":{
						"POSITION":0,
						"NORMAL":1,
						"TEXCOORD_0":2
					},
					"indices":3
				},
				{
					"attributes":{
						"POSITION":4,
						"NORMAL":5,
						"TEXCOORD_0":6
					},
					"indices":7
				}
			]
		},
		{
			"name":"Cube.007",
			"primitives":[
				{
					"attributes":{
						"POSITION":8,
						"NORMAL":9,
						"TEXCOORD_0":10
					},
					"indices":11
				}
			]
		}
	],
	"accessors":[
		{
			"bufferView":0,
			"componentType":5126,
			"count":54,
			"max":[
				3,
				0,
				8.742276236262114e-09
			],
			"min":[
				-3,
				-0.20000028610229492,
				-6
			],
			"type":"VEC3"
		},
		{
			"bufferView":1,
			"componentType":5126,
			"count":54,
			"type":"VEC3"
		},
		{
			"bufferView":2,
			"componentType":5126,
			"count":54,
			"type":"VEC2"
		},
		{
			"bufferView":3,
			"componentType":5123,
			"count":114,
			"type":"SCALAR"
		},
		{
			"bufferView":4,
			"componentType":5126,
			"count":27,
			"max":[
				1.2000000476837158,
				0,
				8.742276236262114e-09
			],
			"min":[
				-1.2000000476837158,
				-0.20000018179416656,
				-3.200000047683716
			],
			"type":"VEC3"
		},
		{
			"bufferView":5,
			"componentType":5126,
			"count":27,
			"type":"VEC3"
		},
		{
			"bufferView":6,
			"componentType":5126,
			"count":27,
			"type":"VEC2"
		},
		{
			"bufferView":7,
			"componentType":5123,
			"count":48,
			"type":"SCALAR"
		},
		{
			"bufferView":8,
			"componentType":5126,
			"count":154,
			"max":[
				1.1999999284744263,
				3.2001121044158936,
				0.20000019669532776
			],
			"min":[
				-1.1999999284744263,
				0,
				-0.19999989867210388
			],
			"type":"VEC3"
		},
		{
			"bufferView":9,
			"componentType":5126,
			"count":154,
			"type":"VEC3"
		},
		{
			"bufferView":10,
			"componentType":5126,
			"count":154,
			"type":"VEC2"
		},
		{
			"bufferView":11,
			"componentType":5123,
			"count":324,
			"type":"SCALAR"
		}
	],
	"bufferViews":[
		{
			"buffer":0,
			"byteLength":648,
			"byteOffset":0,
			"target":34962
		},
		{
			"buffer":0,
			"byteLength":648,
			"byteOffset":648,
			"target":34962
		},
		{
			"buffer":0,
			"byteLength":432,
			"byteOffset":1296,
			"target":34962
		},
		{
			"buffer":0,
			"byteLength":228,
			"byteOffset":1728,
			"target":34963
		},
		{
			"buffer":0,
			"byteLength":324,
			"byteOffset":1956,
			"target":34962
		},
		{
			"buffer":0,
			"byteLength":324,
			"byteOffset":2280,
			"target":34962
		},
		{
			"buffer":0,
			"byteLength":216,
			"byteOffset":2604,
			"target":34962
		},
		{
			"buffer":0,
			"byteLength":96,
			"byteOffset":2820,
			"target":34963
		},
		{
			"buffer":0,
			"byteLength":1848,
			"byteOffset":2916,
			"target":34962
		},
		{
			"buffer":0,
			"byteLength":1848,
			"byteOffset":4764,
			"target":34962
		},
		{
			"buffer":0,
			"byteLength":1232,
			"byteOffset":6612,
			"target":34962
		},
		{
			"buffer":0,
			"byteLength":648,
			"byteOffset":7844,
			"target":34963
		}
	],
	"buffers":[
		{
			"byteLength":8492,
			"uri":"data:application/octet-stream;base64,"
		}
	]
}
