{
	"asset":{
		"generator":"Khronos glTF Blender I/O v3.6.28",
		"version":"2.0"
	},
	"scene":0,
	"scenes":[
		{
			"name":"Scene",
			"nodes":[
				0,
				1,
				2,
				3
			]
		}
	],
	"nodes":[
		{
			"mesh":0,
			"name":"Doorway_Interior",
			"translation":[
				0,
				3,
				0
			]
		},
		{
			"mesh":1,
			"name":"Door_Wall",
			"rotation":[
				0.7071068286895752,
				0,
				0,
				0.7071068286895752
			],
			"translation":[
				0,
				0,
				-1
			]
		},
		{
			"mesh":2,
			"name":"Door_Frame",
			"translation":[
				0,
				0,
				-1
			]
		},
		{
			"mesh":3,
			"name":"Small_Interior"
		}
	],
	"meshes":[
		{
			"name":"Cube.052",
			"primitives":[
				{
					"attributes":{
						"POSITION":0,
						"NORMAL":1,
						"TEXCOORD_0":2
					},
					"indices":3
				},
				{
					"attributes":{
						"POSITION":4,
						"NORMAL":5,
						"TEXCOORD_0":6
					},
					"indices":7
				}
			]
		},
		{
			"name":"Plane.004",
			"primitives":[
				{
					"attributes":{
						"POSITION":8,
						"NORMAL":9,
						"TEXCOORD_0":10
					},
					"indices":11
				},
				{
					"attributes":{
						"POSITION":12,
						"NORMAL":13,
						"TEXCOORD_0":14
					},
					"indices":15
				}
			]
		},
		{
			"name":"Cube.007",
			"primitives":[
				{
					"attributes":{
						"POSITION":16,
						"NORMAL":17,
						"TEXCOORD_0":18
					},
					"indices":19
				}
			]
		},
		{
			"name":"Cube.045",
			"primitives":[
				{
					"attributes":{
						"POSITION":20,
						"NORMAL":21,
						"TEXCOORD_0":22
					},
					"indices":23
				},
				{
					"attributes":{
						"POSITION":24,
						"NORMAL":25,
						"TEXCOORD_0":26
					},
					"indices":27
				}
			]
		}
	],
	"accessors":[
		{
			"bufferView":0,
			"componentType":5126,
			"count":128,
			"max":[
				3,
				3,
				-3.5999999046325684
			],
			"min":[
				-3,
				-3.000000238418579,
				-4.1999993324279785
			],
			"type":"VEC3"
		},
		{
			"bufferView":1,
			"componentType":5126,
			"count":128,
			"type":"VEC3"
		},
		{
			"bufferView":2,
			"componentType":5126,
			"count":128,
			"type":"VEC2"
		},
		{
			"bufferView":3,
			"componentType":5123,
			"count":192,
			"type":"SCALAR"
		},
		{
			"bufferView":4,
			"componentType":5126,
			"count":16,
			"max":[
				1.2000000476837158,
				-2.299999713897705,
				-3.5999999046325684
			],
			"min":[
				-1.2000000476837158,
				-3,
				-4.19999885559082
			],
			"type":"VEC3"
		},
		{
			"bufferView":5,
			"componentType":5126,
			"count":16,
			"type":"VEC3"
		},
		{
			"bufferView":6,
			"componentType":5126,
			"count":16,
			"type":"VEC2"
		},
		{
			"bufferView":7,
			"componentType":5123,
			"count":24,
			"type":"SCALAR"
		},
		{
			"bufferView":8,
			"componentType":5126,
			"count":54,
			"max":[
				3,
				-2.799999952316284,
				1.3113415775478643e-07
			],
			"min":[
				-3,
				-3.000000238418579,
				-6
			],
			"type":"VEC3"
		},
		{
			"bufferView":9,
			"componentType":5126,
			"count":54,
			"type":"VEC3"
		},
		{
			"bufferView":10,
			"componentType":5126,
			"count":54,
			"type":"VEC2"
		},
		{
			"bufferView":11,
			"componentType":5123,
			"count":114,
			"type":"SCALAR"
		},
		{
			"bufferView":12,
			"componentType":5126,
			"count":27,
			"max":[
				1.2000000476837158,
				-2.799999952316284,
				1.3113415775478643e-07
			],
			"min":[
				-1.2000000476837158,
				-3.000000238418579,
				-3.200000047683716
			],
			"type":"VEC3"
		},
		{
			"bufferView":13,
			"componentType":5126,
			"count":27,
			"type":"VEC3"
		},
		{
			"bufferView":14,
			"componentType":5126,
			"count":27,
			"type":"VEC2"
		},
		{
			"bufferView":15,
			"componentType":5123,
			"count":48,
			"type":"SCALAR"
		},
		{
			"bufferView":16,
			"componentType":5126,
			"count":186,
			"max":[
				1.1999999284744263,
				3.2001121044158936,
				-2.5999999046325684
			],
			"min":[
				-1.1999999284744263,
				0,
				-3.200000047683716
			],
			"type":"VEC3"
		},
		{
			"bufferView":17,
			"componentType":5126,
			"count":186,
			"type":"VEC3"
		},
		{
			"bufferView":18,
			"componentType":5126,
			"count":186,
			"type":"VEC2"
		},
		{
			"bufferView":19,
			"componentType":5123,
			"count":438,
			"type":"SCALAR"
		},
		{
			"bufferView":20,
			"componentType":5126,
			"count":272,
			"max":[
				3,
				4.800000190734863,
				-3.6999998092651367
			],
			"min":[
				-3,
				1.2000000476837158,
				-4.100002765655518
			],
			"type":"VEC3"
		},
		{
			"bufferView":21,
			"componentType":5126,
			"count":272,
			"type":"VEC3"
		},
		{
			"bufferView":22,
			"componentType":5126,
			"count":272,
			"type":"VEC2"
		},
		{
			"bufferView":23,
			"componentType":5123,
			"count":408,
			"type":"SCALAR"
		},
		{
			"bufferView":24,
			"componentType":5126,
			"count":16,
			"max":[
				1.2000000476837158,
				1.7000000476837158,
				-3.6999998092651367
			],
			"min":[
				-1.2000000476837158,
				1.2000000476837158,
				-4.100002288818359
			],
			"type":"VEC3"
		},
		{
			"bufferView":25,
			"componentType":5126,
			"count":16,
			"type":"VEC3"
		},
		{
			"bufferView":26,
			"componentType":5126,
			"count":16,
			"type":"VEC2"
		},
		{
			"bufferView":27,
			"componentType":5123,
			"count":24,
			"type":"SCALAR"
		}
	],
	"bufferViews":[
		{
			"buffer":0,
			"byteLength":1536,
			"byteOffset":0,
			"target":34962
		},
		{
			"buffer":0,
			"byteLength":1536,
			"byteOffset":1536,
			"target":34962
		},
		{
			"buffer":0,
			"byteLength":1024,
			"byteOffset":3072,
			"target":34962
		},
		{
			"buffer":0,
			"byteLength":384,
			"byteOffset":4096,
			"target":34963
		},
		{
			"buffer":0,
			"byteLength":192,
			"byteOffset":4480,
			"target":34962
		},
		{
			"buffer":0,
			"byteLength":192,
			"byteOffset":4672,
			"target":34962
		},
		{
			"buffer":0,
			"byteLength":128,
			"byteOffset":4864,
			"target":34962
		},
		{
			"buffer":0,
			"byteLength":48,
			"byteOffset":4992,
			"target":34963
		},
		{
			"buffer":0,
			"byteLength":648,
			"byteOffset":5040,
			"target":34962
		},
		{
			"buffer":0,
			"byteLength":648,
			"byteOffset":5688,
			"target":34962
		},
		{
			"buffer":0,
			"byteLength":432,
			"byteOffset":6336,
			"target":34962
		},
		{
			"buffer":0,
			"byteLength":228,
			"byteOffset":6768,
			"target":34963
		},
		{
			"buffer":0,
			"byteLength":324,
			"byteOffset":6996,
			"target":34962
		},
		{
			"buffer":0,
			"byteLength":324,
			"byteOffset":7320,
			"target":34962
		},
		{
			"buffer":0,
			"byteLength":216,
			"byteOffset":7644,
			"target":34962
		},
		{
			"buffer":0,
			"byteLength":96,
			"byteOffset":7860,
			"target":34963
		},
		{
			"buffer":0,
			"byteLength":2232,
			"byteOffset":7956,
			"target":34962
		},
		{
			"buffer":0,
			"byteLength":2232,
			"byteOffset":10188,
			"target":34962
		},
		{
			"buffer":0,
			"byteLength":1488,
			"byteOffset":12420,
			"target":34962
		},
		{
			"buffer":0,
			"byteLength":876,
			"byteOffset":13908,
			"target":34963
		},
		{
			"buffer":0,
			"byteLength":3264,
			"byteOffset":14784,
			"target":34962
		},
		{
			"buffer":0,
			"byteLength":3264,
			"byteOffset":18048,
			"target":34962
		},
		{
			"buffer":0,
			"byteLength":2176,
			"byteOffset":21312,
			"target":34962
		},
		{
			"buffer":0,
			"byteLength":816,
			"byteOffset":23488,
			"target":34963
		},
		{
			"buffer":0,
			"byteLength":192,
			"byteOffset":24304,
			"target":34962
		},
		{
			"buffer":0,
			"byteLength":192,
			"byteOffset":24496,
			"target":34962
		},
		{
			"buffer":0,
			"byteLength":128,
			"byteOffset":24688,
			"target":34962
		},
		{
			"buffer":0,
			"byteLength":48,
			"byteOffset":24816,
			"target":34963
		}
	],
	"buffers":[
		{
			"byteLength":24864,
			"uri":"data:application/octet-stream;base64,"
		}
	]
}
