{
	"asset":{
		"generator":"Khronos glTF Blender I/O v3.6.28",
		"version":"2.0"
	},
	"scene":0,
	"scenes":[
		{
			"name":"Scene",
			"nodes":[
				0,
				1,
				2,
				3,
				4,
				5,
				6
			]
		}
	],
	"nodes":[
		{
			"mesh":0,
			"name":"Room_Ceiling_Side_Panel_16x6"
		},
		{
			"mesh":1,
			"name":"Room_Ceiling_Lights_16x6"
		},
		{
			"mesh":2,
			"name":"Room_Ceiling_Edge_Panel_16x6"
		},
		{
			"mesh":3,
			"name":"Room_Ceiling_16x6"
		},
		{
			"mesh":4,
			"name":"Room_Base_Frame_16x6"
		},
		{
			"mesh":5,
			"name":"Middle_Floor_16x6"
		},
		{
			"mesh":6,
			"name":"Floor_16x6"
		}
	],
	"meshes":[
		{
			"name":"Cube.049",
			"primitives":[
				{
					"attributes":{
						"POSITION":0,
						"NORMAL":1,
						"TEXCOORD_0":2
					},
					"indices":3
				}
			]
		},
		{
			"name":"Cube.048",
			"primitives":[
				{
					"attributes":{
						"POSITION":4,
						"NORMAL":5,
						"TEXCOORD_0":6
					},
					"indices":7
				}
			]
		},
		{
			"name":"Cube.046",
			"primitives":[
				{
					"attributes":{
						"POSITION":8,
						"NORMAL":9,
						"TEXCOORD_0":10
					},
					"indices":11
				}
			]
		},
		{
			"name":"Cube.047",
			"primitives":[
				{
					"attributes":{
						"POSITION":12,
						"NORMAL":13,
						"TEXCOORD_0":14
					},
					"indices":15
				}
			]
		},
		{
			"name":"Cube.029",
			"primitives":[
				{
					"attributes":{
						"POSITION":16,
						"NORMAL":17,
						"TEXCOORD_0":18
					},
					"indices":19
				}
			]
		},
		{
			"name":"Plane.029",
			"primitives":[
				{
					"attributes":{
						"POSITION":20,
						"NORMAL":21,
						"TEXCOORD_0":22
					},
					"indices":23
				}
			]
		},
		{
			"name":"Plane.028",
			"primitives":[
				{
					"attributes":{
						"POSITION":24,
						"NORMAL":25,
						"TEXCOORD_0":26
					},
					"indices":27
				}
			]
		}
	],
	"accessors":[
		{
			"bufferView":0,
			"componentType":5126,
			"count":374,
			"max":[
				3.000000238418579,
				5.900000095367432,
				8
			],
			"min":[
				-3.000000238418579,
				5.800000190734863,
				-8
			],
			"type":"VEC3"
		},
		{
			"bufferView":1,
			"componentType":5126,
			"count":374,
			"type":"VEC3"
		},
		{
			"bufferView":2,
			"componentType":5126,
			"count":374,
			"type":"VEC2"
		},
		{
			"bufferView":3,
			"componentType":5123,
			"count":642,
			"type":"SCALAR"
		},
		{
			"bufferView":4,
			"componentType":5126,
			"count":36,
			"max":[
				0.5001071691513062,
				5.900000095367432,
				8
			],
			"min":[
				-0.5001071691513062,
				5.800000190734863,
				-8
			],
			"type":"VEC3"
		},
		{
			"bufferView":5,
			"componentType":5126,
			"count":36,
			"type":"VEC3"
		},
		{
			"bufferView":6,
			"componentType":5126,
			"count":36,
			"type":"VEC2"
		},
		{
			"bufferView":7,
			"componentType":5123,
			"count":66,
			"type":"SCALAR"
		},
		{
			"bufferView":8,
			"componentType":5126,
			"count":72,
			"max":[
				0.5001071691513062,
				5.900000095367432,
				8.600000381469727
			],
			"min":[
				-0.5001071691513062,
				5.800000190734863,
				-8.600000381469727
			],
			"type":"VEC3"
		},
		{
			"bufferView":9,
			"componentType":5126,
			"count":72,
			"type":"VEC3"
		},
		{
			"bufferView":10,
			"componentType":5126,
			"count":72,
			"type":"VEC2"
		},
		{
			"bufferView":11,
			"componentType":5123,
			"count":132,
			"type":"SCALAR"
		},
		{
			"bufferView":12,
			"componentType":5126,
			"count":150,
			"max":[
				4,
				6,
				9
			],
			"min":[
				-4,
				5.800000190734863,
				-9
			],
			"type":"VEC3"
		},
		{
			"bufferView":13,
			"componentType":5126,
			"count":150,
			"type":"VEC3"
		},
		{
			"bufferView":14,
			"componentType":5126,
			"count":150,
			"type":"VEC2"
		},
		{
			"bufferView":15,
			"componentType":5123,
			"count":324,
			"type":"SCALAR"
		},
		{
			"bufferView":16,
			"componentType":5126,
			"count":200,
			"max":[
				4,
				6.75,
				9
			],
			"min":[
				-4,
				-0.20000000298023224,
				-9
			],
			"type":"VEC3"
		},
		{
			"bufferView":17,
			"componentType":5126,
			"count":200,
			"type":"VEC3"
		},
		{
			"bufferView":18,
			"componentType":5126,
			"count":200,
			"type":"VEC2"
		},
		{
			"bufferView":19,
			"componentType":5123,
			"count":342,
			"type":"SCALAR"
		},
		{
			"bufferView":20,
			"componentType":5126,
			"count":73,
			"max":[
				3.095761299133301,
				7.674098014831543e-05,
				8.086785316467285
			],
			"min":[
				-3.086785316467285,
				-0.019927114248275757,
				-8.086785316467285
			],
			"type":"VEC3"
		},
		{
			"bufferView":21,
			"componentType":5126,
			"count":73,
			"type":"VEC3"
		},
		{
			"bufferView":22,
			"componentType":5126,
			"count":73,
			"type":"VEC2"
		},
		{
			"bufferView":23,
			"componentType":5123,
			"count":168,
			"type":"SCALAR"
		},
		{
			"bufferView":24,
			"componentType":5126,
			"count":514,
			"max":[
				4.000766754150391,
				7.677078247070312e-05,
				9.00076675415039
			],
			"min":[
				-4.000767230987549,
				-0.20000000298023224,
				-9.00076675415039
			],
			"type":"VEC3"
		},
		{
			"bufferView":25,
			"componentType":5126,
			"count":514,
			"type":"VEC3"
		},
		{
			"bufferView":26,
			"componentType":5126,
			"count":514,
			"type":"VEC2"
		},
		{
			"bufferView":27,
			"componentType":5123,
			"count":1254,
			"type":"SCALAR"
		}
	],
	"bufferViews":[
		{
			"buffer":0,
			"byteLength":4488,
			"byteOffset":0,
			"target":34962
		},
		{
			"buffer":0,
			"byteLength":4488,
			"byteOffset":4488,
			"target":34962
		},
		{
			"buffer":0,
			"byteLength":2992,
			"byteOffset":8976,
			"target":34962
		},
		{
			"buffer":0,
			"byteLength":1284,
			"byteOffset":11968,
			"target":34963
		},
		{
			"buffer":0,
			"byteLength":432,
			"byteOffset":13252,
			"target":34962
		},
		{
			"buffer":0,
			"byteLength":432,
			"byteOffset":13684,
			"target":34962
		},
		{
			"buffer":0,
			"byteLength":288,
			"byteOffset":14116,
			"target":34962
		},
		{
			"buffer":0,
			"byteLength":132,
			"byteOffset":14404,
			"target":34963
		},
		{
			"buffer":0,
			"byteLength":864,
			"byteOffset":14536,
			"target":34962
		},
		{
			"buffer":0,
			"byteLength":864,
			"byteOffset":15400,
			"target":34962
		},
		{
			"buffer":0,
			"byteLength":576,
			"byteOffset":16264,
			"target":34962
		},
		{
			"buffer":0,
			"byteLength":264,
			"byteOffset":16840,
			"target":34963
		},
		{
			"buffer":0,
			"byteLength":1800,
			"byteOffset":17104,
			"target":34962
		},
		{
			"buffer":0,
			"byteLength":1800,
			"byteOffset":18904,
			"target":34962
		},
		{
			"buffer":0,
			"byteLength":1200,
			"byteOffset":20704,
			"target":34962
		},
		{
			"buffer":0,
			"byteLength":648,
			"byteOffset":21904,
			"target":34963
		},
		{
			"buffer":0,
			"byteLength":2400,
			"byteOffset":22552,
			"target":34962
		},
		{
			"buffer":0,
			"byteLength":2400,
			"byteOffset":24952,
			"target":34962
		},
		{
			"buffer":0,
			"byteLength":1600,
			"byteOffset":27352,
			"target":34962
		},
		{
			"buffer":0,
			"byteLength":684,
			"byteOffset":28952,
			"target":34963
		},
		{
			"buffer":0,
			"byteLength":876,
			"byteOffset":29636,
			"target":34962
		},
		{
			"buffer":0,
			"byteLength":876,
			"byteOffset":30512,
			"target":34962
		},
		{
			"buffer":0,
			"byteLength":584,
			"byteOffset":31388,
			"target":34962
		},
		{
			"buffer":0,
			"byteLength":336,
			"byteOffset":31972,
			"target":34963
		},
		{
			"buffer":0,
			"byteLength":6168,
			"byteOffset":32308,
			"target":34962
		},
		{
			"buffer":0,
			"byteLength":6168,
			"byteOffset":38476,
			"target":34962
		},
		{
			"buffer":0,
			"byteLength":4112,
			"byteOffset":44644,
			"target":34962
		},
		{
			"buffer":0,
			"byteLength":2508,
			"byteOffset":48756,
			"target":34963
		}
	],
	"buffers":[
		{
			"byteLength":51264,
			"uri":"data:application/octet-stream;base64,"
		}
	]
}
