{
	"asset":{
		"generator":"Khronos glTF Blender I/O v3.6.28",
		"version":"2.0"
	},
	"scene":0,
	"scenes":[
		{
			"name":"Scene",
			"nodes":[
				0,
				1,
				2,
				3,
				4,
				5,
				6,
				7
			]
		}
	],
	"nodes":[
		{
			"mesh":0,
			"name":"Room_Ceiling_Panel_Lining_6x6"
		},
		{
			"mesh":1,
			"name":"Room_Ceiling_Middle_Panel_6x6"
		},
		{
			"mesh":2,
			"name":"Room_Ceiling_Light_Panel"
		},
		{
			"mesh":3,
			"name":"Room_Ceiling_6x6"
		},
		{
			"mesh":4,
			"name":"Room_Base_Frame_6x6"
		},
		{
			"mesh":5,
			"name":"Middle_Floor"
		},
		{
			"mesh":6,
			"name":"Floor_6x6"
		},
		{
			"mesh":7,
			"name":"Room_Ceiling_Side_Panels_6x6"
		}
	],
	"meshes":[
		{
			"name":"Cube.013",
			"primitives":[
				{
					"attributes":{
						"POSITION":0,
						"NORMAL":1,
						"TEXCOORD_0":2
					},
					"indices":3
				}
			]
		},
		{
			"name":"Cube.014",
			"primitives":[
				{
					"attributes":{
						"POSITION":4,
						"NORMAL":5,
						"TEXCOORD_0":6
					},
					"indices":7
				}
			]
		},
		{
			"name":"Cube.010",
			"primitives":[
				{
					"attributes":{
						"POSITION":8,
						"NORMAL":9,
						"TEXCOORD_0":10
					},
					"indices":11
				}
			]
		},
		{
			"name":"Cube.038",
			"primitives":[
				{
					"attributes":{
						"POSITION":12,
						"NORMAL":13,
						"TEXCOORD_0":14
					},
					"indices":15
				}
			]
		},
		{
			"name":"Cube.009",
			"primitives":[
				{
					"attributes":{
						"POSITION":16,
						"NORMAL":17,
						"TEXCOORD_0":18
					},
					"indices":19
				}
			]
		},
		{
			"name":"Plane.015",
			"primitives":[
				{
					"attributes":{
						"POSITION":20,
						"NORMAL":21,
						"TEXCOORD_0":22
					},
					"indices":23
				}
			]
		},
		{
			"name":"Plane.013",
			"primitives":[
				{
					"attributes":{
						"POSITION":24,
						"NORMAL":25,
						"TEXCOORD_0":26
					},
					"indices":27
				}
			]
		},
		{
			"name":"Cube.001",
			"primitives":[
				{
					"attributes":{
						"POSITION":28,
						"NORMAL":29,
						"TEXCOORD_0":30
					},
					"indices":31
				}
			]
		}
	],
	"accessors":[
		{
			"bufferView":0,
			"componentType":5126,
			"count":508,
			"max":[
				3.000000238418579,
				5.900000095367432,
				3
			],
			"min":[
				-3.000000238418579,
				5.849999904632568,
				-3.000000238418579
			],
			"type":"VEC3"
		},
		{
			"bufferView":1,
			"componentType":5126,
			"count":508,
			"type":"VEC3"
		},
		{
			"bufferView":2,
			"componentType":5126,
			"count":508,
			"type":"VEC2"
		},
		{
			"bufferView":3,
			"componentType":5123,
			"count":960,
			"type":"SCALAR"
		},
		{
			"bufferView":4,
			"componentType":5126,
			"count":36,
			"max":[
				0.6792893409729004,
				5.900000095367432,
				3
			],
			"min":[
				-0.6792893409729004,
				5.849999904632568,
				-3.000000238418579
			],
			"type":"VEC3"
		},
		{
			"bufferView":5,
			"componentType":5126,
			"count":36,
			"type":"VEC3"
		},
		{
			"bufferView":6,
			"componentType":5126,
			"count":36,
			"type":"VEC2"
		},
		{
			"bufferView":7,
			"componentType":5123,
			"count":66,
			"type":"SCALAR"
		},
		{
			"bufferView":8,
			"componentType":5126,
			"count":20,
			"max":[
				3.5999999046325684,
				5.900000095367432,
				3.5999999046325684
			],
			"min":[
				-3.5999999046325684,
				5.800000190734863,
				-3.5999999046325684
			],
			"type":"VEC3"
		},
		{
			"bufferView":9,
			"componentType":5126,
			"count":20,
			"type":"VEC3"
		},
		{
			"bufferView":10,
			"componentType":5126,
			"count":20,
			"type":"VEC2"
		},
		{
			"bufferView":11,
			"componentType":5123,
			"count":36,
			"type":"SCALAR"
		},
		{
			"bufferView":12,
			"componentType":5126,
			"count":52,
			"max":[
				4,
				6,
				4
			],
			"min":[
				-4,
				5.800000190734863,
				-4
			],
			"type":"VEC3"
		},
		{
			"bufferView":13,
			"componentType":5126,
			"count":52,
			"type":"VEC3"
		},
		{
			"bufferView":14,
			"componentType":5126,
			"count":52,
			"type":"VEC2"
		},
		{
			"bufferView":15,
			"componentType":5123,
			"count":84,
			"type":"SCALAR"
		},
		{
			"bufferView":16,
			"componentType":5126,
			"count":211,
			"max":[
				4,
				6.75,
				4
			],
			"min":[
				-4,
				-0.20000000298023224,
				-4
			],
			"type":"VEC3"
		},
		{
			"bufferView":17,
			"componentType":5126,
			"count":211,
			"type":"VEC3"
		},
		{
			"bufferView":18,
			"componentType":5126,
			"count":211,
			"type":"VEC2"
		},
		{
			"bufferView":19,
			"componentType":5123,
			"count":366,
			"type":"SCALAR"
		},
		{
			"bufferView":20,
			"componentType":5126,
			"count":116,
			"max":[
				3.086785078048706,
				7.674098014831543e-05,
				3.086785078048706
			],
			"min":[
				-3.086785078048706,
				-0.019927114248275757,
				-3.095762014389038
			],
			"type":"VEC3"
		},
		{
			"bufferView":21,
			"componentType":5126,
			"count":116,
			"type":"VEC3"
		},
		{
			"bufferView":22,
			"componentType":5126,
			"count":116,
			"type":"VEC2"
		},
		{
			"bufferView":23,
			"componentType":5123,
			"count":324,
			"type":"SCALAR"
		},
		{
			"bufferView":24,
			"componentType":5126,
			"count":323,
			"max":[
				4.000766754150391,
				7.677078247070312e-05,
				4.000766754150391
			],
			"min":[
				-4.000766754150391,
				-0.20000000298023224,
				-4.000766754150391
			],
			"type":"VEC3"
		},
		{
			"bufferView":25,
			"componentType":5126,
			"count":323,
			"type":"VEC3"
		},
		{
			"bufferView":26,
			"componentType":5126,
			"count":323,
			"type":"VEC2"
		},
		{
			"bufferView":27,
			"componentType":5123,
			"count":600,
			"type":"SCALAR"
		},
		{
			"bufferView":28,
			"componentType":5126,
			"count":100,
			"max":[
				3.000000238418579,
				5.849999904632568,
				3
			],
			"min":[
				-3.000000238418579,
				5.849999904632568,
				-3.000000238418579
			],
			"type":"VEC3"
		},
		{
			"bufferView":29,
			"componentType":5126,
			"count":100,
			"type":"VEC3"
		},
		{
			"bufferView":30,
			"componentType":5126,
			"count":100,
			"type":"VEC2"
		},
		{
			"bufferView":31,
			"componentType":5123,
			"count":156,
			"type":"SCALAR"
		}
	],
	"bufferViews":[
		{
			"buffer":0,
			"byteLength":6096,
			"byteOffset":0,
			"target":34962
		},
		{
			"buffer":0,
			"byteLength":6096,
			"byteOffset":6096,
			"target":34962
		},
		{
			"buffer":0,
			"byteLength":4064,
			"byteOffset":12192,
			"target":34962
		},
		{
			"buffer":0,
			"byteLength":1920,
			"byteOffset":16256,
			"target":34963
		},
		{
			"buffer":0,
			"byteLength":432,
			"byteOffset":18176,
			"target":34962
		},
		{
			"buffer":0,
			"byteLength":432,
			"byteOffset":18608,
			"target":34962
		},
		{
			"buffer":0,
			"byteLength":288,
			"byteOffset":19040,
			"target":34962
		},
		{
			"buffer":0,
			"byteLength":132,
			"byteOffset":19328,
			"target":34963
		},
		{
			"buffer":0,
			"byteLength":240,
			"byteOffset":19460,
			"target":34962
		},
		{
			"buffer":0,
			"byteLength":240,
			"byteOffset":19700,
			"target":34962
		},
		{
			"buffer":0,
			"byteLength":160,
			"byteOffset":19940,
			"target":34962
		},
		{
			"buffer":0,
			"byteLength":72,
			"byteOffset":20100,
			"target":34963
		},
		{
			"buffer":0,
			"byteLength":624,
			"byteOffset":20172,
			"target":34962
		},
		{
			"buffer":0,
			"byteLength":624,
			"byteOffset":20796,
			"target":34962
		},
		{
			"buffer":0,
			"byteLength":416,
			"byteOffset":21420,
			"target":34962
		},
		{
			"buffer":0,
			"byteLength":168,
			"byteOffset":21836,
			"target":34963
		},
		{
			"buffer":0,
			"byteLength":2532,
			"byteOffset":22004,
			"target":34962
		},
		{
			"buffer":0,
			"byteLength":2532,
			"byteOffset":24536,
			"target":34962
		},
		{
			"buffer":0,
			"byteLength":1688,
			"byteOffset":27068,
			"target":34962
		},
		{
			"buffer":0,
			"byteLength":732,
			"byteOffset":28756,
			"target":34963
		},
		{
			"buffer":0,
			"byteLength":1392,
			"byteOffset":29488,
			"target":34962
		},
		{
			"buffer":0,
			"byteLength":1392,
			"byteOffset":30880,
			"target":34962
		},
		{
			"buffer":0,
			"byteLength":928,
			"byteOffset":32272,
			"target":34962
		},
		{
			"buffer":0,
			"byteLength":648,
			"byteOffset":33200,
			"target":34963
		},
		{
			"buffer":0,
			"byteLength":3876,
			"byteOffset":33848,
			"target":34962
		},
		{
			"buffer":0,
			"byteLength":3876,
			"byteOffset":37724,
			"target":34962
		},
		{
			"buffer":0,
			"byteLength":2584,
			"byteOffset":41600,
			"target":34962
		},
		{
			"buffer":0,
			"byteLength":1200,
			"byteOffset":44184,
			"target":34963
		},
		{
			"buffer":0,
			"byteLength":1200,
			"byteOffset":45384,
			"target":34962
		},
		{
			"buffer":0,
			"byteLength":1200,
			"byteOffset":46584,
			"target":34962
		},
		{
			"buffer":0,
			"byteLength":800,
			"byteOffset":47784,
			"target":34962
		},
		{
			"buffer":0,
			"byteLength":312,
			"byteOffset":48584,
			"target":34963
		}
	],
	"buffers":[
		{
			"byteLength":48896,
			"uri":"data:application/octet-stream;base64,"
		}
	]
}
