{
	"asset":{
		"generator":"Khronos glTF Blender I/O v3.6.28",
		"version":"2.0"
	},
	"scene":0,
	"scenes":[
		{
			"name":"Scene",
			"nodes":[
				0,
				1,
				2,
				3,
				4,
				5,
				6,
				7,
				8,
				9,
				10,
				11
			]
		}
	],
	"nodes":[
		{
			"mesh":0,
			"name":"Cafeteria_Frame_Divider"
		},
		{
			"mesh":1,
			"name":"Cafeteria_Floor_Middle"
		},
		{
			"mesh":2,
			"name":"Cafeteria_Floor_Lights"
		},
		{
			"mesh":3,
			"name":"Cafeteria_Ceiling_Lights_Panel"
		},
		{
			"mesh":4,
			"name":"Cafeteria_Ceiling_Edge_Panel"
		},
		{
			"mesh":5,
			"name":"Cafeteria_Ceiling"
		},
		{
			"mesh":6,
			"name":"Cafeteria_Frame"
		},
		{
			"mesh":7,
			"name":"Cafeteria_Frame_Inside"
		},
		{
			"mesh":8,
			"name":"Cafeteria_Frame_Divider_Inside"
		},
		{
			"mesh":9,
			"name":"Cafeteria_Ceiling_Glass_Interior"
		},
		{
			"mesh":10,
			"name":"Cafeteria_Ceiling_Lights"
		},
		{
			"mesh":11,
			"name":"Cafeteria_Ceiling_Glass_Exterior"
		}
	],
	"meshes":[
		{
			"name":"Cube.010",
			"primitives":[
				{
					"attributes":{
						"POSITION":0,
						"NORMAL":1,
						"TEXCOORD_0":2
					},
					"indices":3
				}
			]
		},
		{
			"name":"Floor_Middle.001",
			"primitives":[
				{
					"attributes":{
						"POSITION":4,
						"NORMAL":5,
						"TEXCOORD_0":6
					},
					"indices":7
				}
			]
		},
		{
			"name":"Cube.009",
			"primitives":[
				{
					"attributes":{
						"POSITION":8,
						"NORMAL":9,
						"TEXCOORD_0":10
					},
					"indices":11
				}
			]
		},
		{
			"name":"Cube.006",
			"primitives":[
				{
					"attributes":{
						"POSITION":12,
						"NORMAL":13,
						"TEXCOORD_0":14
					},
					"indices":15
				}
			]
		},
		{
			"name":"Cube.004",
			"primitives":[
				{
					"attributes":{
						"POSITION":16,
						"NORMAL":17,
						"TEXCOORD_0":18
					},
					"indices":19
				}
			]
		},
		{
			"name":"Cube.005",
			"primitives":[
				{
					"attributes":{
						"POSITION":20,
						"NORMAL":21,
						"TEXCOORD_0":22
					},
					"indices":23
				}
			]
		},
		{
			"name":"Cube.007",
			"primitives":[
				{
					"attributes":{
						"POSITION":24,
						"NORMAL":25,
						"TEXCOORD_0":26
					},
					"indices":27
				}
			]
		},
		{
			"name":"Cube.011",
			"primitives":[
				{
					"attributes":{
						"POSITION":28,
						"NORMAL":29,
						"TEXCOORD_0":30
					},
					"indices":31
				}
			]
		},
		{
			"name":"Cube.012",
			"primitives":[
				{
					"attributes":{
						"POSITION":32,
						"NORMAL":33,
						"TEXCOORD_0":34
					},
					"indices":35
				}
			]
		},
		{
			"name":"Cube.013",
			"primitives":[
				{
					"attributes":{
						"POSITION":36,
						"NORMAL":37,
						"TEXCOORD_0":38
					},
					"indices":39
				}
			]
		},
		{
			"name":"Cube.015",
			"primitives":[
				{
					"attributes":{
						"POSITION":40,
						"NORMAL":41,
						"TEXCOORD_0":42
					},
					"indices":43
				}
			]
		},
		{
			"name":"Cube.014",
			"primitives":[
				{
					"attributes":{
						"POSITION":44,
						"NORMAL":45,
						"TEXCOORD_0":46
					},
					"indices":47
				}
			]
		}
	],
	"accessors":[
		{
			"bufferView":0,
			"componentType":5126,
			"count":24,
			"max":[
				2.0000059604644775,
				6,
				9.000006675720215
			],
			"min":[
				-1.9999940395355225,
				-0.20000004768371582,
				-9.000006675720215
			],
			"type":"VEC3"
		},
		{
			"bufferView":1,
			"componentType":5126,
			"count":24,
			"type":"VEC3"
		},
		{
			"bufferView":2,
			"componentType":5126,
			"count":24,
			"type":"VEC2"
		},
		{
			"bufferView":3,
			"componentType":5123,
			"count":36,
			"type":"SCALAR"
		},
		{
			"bufferView":4,
			"componentType":5126,
			"count":292,
			"max":[
				9,
				0,
				9
			],
			"min":[
				-9,
				-0.20000000298023224,
				-9
			],
			"type":"VEC3"
		},
		{
			"bufferView":5,
			"componentType":5126,
			"count":292,
			"type":"VEC3"
		},
		{
			"bufferView":6,
			"componentType":5126,
			"count":292,
			"type":"VEC2"
		},
		{
			"bufferView":7,
			"componentType":5123,
			"count":606,
			"type":"SCALAR"
		},
		{
			"bufferView":8,
			"componentType":5126,
			"count":16,
			"max":[
				8.600000381469727,
				-0.019999999552965164,
				8.600000381469727
			],
			"min":[
				-8.600000381469727,
				-0.019999999552965164,
				-8.600000381469727
			],
			"type":"VEC3"
		},
		{
			"bufferView":9,
			"componentType":5126,
			"count":16,
			"type":"VEC3"
		},
		{
			"bufferView":10,
			"componentType":5126,
			"count":16,
			"type":"VEC2"
		},
		{
			"bufferView":11,
			"componentType":5123,
			"count":24,
			"type":"SCALAR"
		},
		{
			"bufferView":12,
			"componentType":5126,
			"count":166,
			"max":[
				8,
				6,
				8
			],
			"min":[
				-8,
				5.900000095367432,
				-8
			],
			"type":"VEC3"
		},
		{
			"bufferView":13,
			"componentType":5126,
			"count":166,
			"type":"VEC3"
		},
		{
			"bufferView":14,
			"componentType":5126,
			"count":166,
			"type":"VEC2"
		},
		{
			"bufferView":15,
			"componentType":5123,
			"count":324,
			"type":"SCALAR"
		},
		{
			"bufferView":16,
			"componentType":5126,
			"count":120,
			"max":[
				8.600000381469727,
				6,
				8.600000381469727
			],
			"min":[
				-8.600000381469727,
				5.900000095367432,
				-8.600000381469727
			],
			"type":"VEC3"
		},
		{
			"bufferView":17,
			"componentType":5126,
			"count":120,
			"type":"VEC3"
		},
		{
			"bufferView":18,
			"componentType":5126,
			"count":120,
			"type":"VEC2"
		},
		{
			"bufferView":19,
			"componentType":5123,
			"count":204,
			"type":"SCALAR"
		},
		{
			"bufferView":20,
			"componentType":5126,
			"count":464,
			"max":[
				9,
				6.299999713897705,
				9
			],
			"min":[
				-9,
				6,
				-9
			],
			"type":"VEC3"
		},
		{
			"bufferView":21,
			"componentType":5126,
			"count":464,
			"type":"VEC3"
		},
		{
			"bufferView":22,
			"componentType":5126,
			"count":464,
			"type":"VEC2"
		},
		{
			"bufferView":23,
			"componentType":5123,
			"count":984,
			"type":"SCALAR"
		},
		{
			"bufferView":24,
			"componentType":5126,
			"count":114,
			"max":[
				9,
				6.199999809265137,
				9
			],
			"min":[
				-9,
				-0.20000000298023224,
				-9
			],
			"type":"VEC3"
		},
		{
			"bufferView":25,
			"componentType":5126,
			"count":114,
			"type":"VEC3"
		},
		{
			"bufferView":26,
			"componentType":5126,
			"count":114,
			"type":"VEC2"
		},
		{
			"bufferView":27,
			"componentType":5123,
			"count":264,
			"type":"SCALAR"
		},
		{
			"bufferView":28,
			"componentType":5126,
			"count":48,
			"max":[
				9,
				6,
				9
			],
			"min":[
				-9,
				-0.20000000298023224,
				-9
			],
			"type":"VEC3"
		},
		{
			"bufferView":29,
			"componentType":5126,
			"count":48,
			"type":"VEC3"
		},
		{
			"bufferView":30,
			"componentType":5126,
			"count":48,
			"type":"VEC2"
		},
		{
			"bufferView":31,
			"componentType":5123,
			"count":72,
			"type":"SCALAR"
		},
		{
			"bufferView":32,
			"componentType":5126,
			"count":24,
			"max":[
				2.0000059604644775,
				6,
				9.000006675720215
			],
			"min":[
				-1.9999940395355225,
				-0.20000004768371582,
				-9.000006675720215
			],
			"type":"VEC3"
		},
		{
			"bufferView":33,
			"componentType":5126,
			"count":24,
			"type":"VEC3"
		},
		{
			"bufferView":34,
			"componentType":5126,
			"count":24,
			"type":"VEC2"
		},
		{
			"bufferView":35,
			"componentType":5123,
			"count":36,
			"type":"SCALAR"
		},
		{
			"bufferView":36,
			"componentType":5126,
			"count":20,
			"max":[
				7.300000190734863,
				6.199999809265137,
				7.300000190734863
			],
			"min":[
				-7.300000190734863,
				6.199999809265137,
				-7.300000190734863
			],
			"type":"VEC3"
		},
		{
			"bufferView":37,
			"componentType":5126,
			"count":20,
			"type":"VEC3"
		},
		{
			"bufferView":38,
			"componentType":5126,
			"count":20,
			"type":"VEC2"
		},
		{
			"bufferView":39,
			"componentType":5123,
			"count":36,
			"type":"SCALAR"
		},
		{
			"bufferView":40,
			"componentType":5126,
			"count":24,
			"max":[
				8,
				5.900000095367432,
				8
			],
			"min":[
				-8,
				5.900000095367432,
				-8
			],
			"type":"VEC3"
		},
		{
			"bufferView":41,
			"componentType":5126,
			"count":24,
			"type":"VEC3"
		},
		{
			"bufferView":42,
			"componentType":5126,
			"count":24,
			"type":"VEC2"
		},
		{
			"bufferView":43,
			"componentType":5123,
			"count":48,
			"type":"SCALAR"
		},
		{
			"bufferView":44,
			"componentType":5126,
			"count":20,
			"max":[
				7.300000190734863,
				6.299999713897705,
				7.300000190734863
			],
			"min":[
				-7.300000190734863,
				6.299999713897705,
				-7.300000190734863
			],
			"type":"VEC3"
		},
		{
			"bufferView":45,
			"componentType":5126,
			"count":20,
			"type":"VEC3"
		},
		{
			"bufferView":46,
			"componentType":5126,
			"count":20,
			"type":"VEC2"
		},
		{
			"bufferView":47,
			"componentType":5123,
			"count":36,
			"type":"SCALAR"
		}
	],
	"bufferViews":[
		{
			"buffer":0,
			"byteLength":288,
			"byteOffset":0,
			"target":34962
		},
		{
			"buffer":0,
			"byteLength":288,
			"byteOffset":288,
			"target":34962
		},
		{
			"buffer":0,
			"byteLength":192,
			"byteOffset":576,
			"target":34962
		},
		{
			"buffer":0,
			"byteLength":72,
			"byteOffset":768,
			"target":34963
		},
		{
			"buffer":0,
			"byteLength":3504,
			"byteOffset":840,
			"target":34962
		},
		{
			"buffer":0,
			"byteLength":3504,
			"byteOffset":4344,
			"target":34962
		},
		{
			"buffer":0,
			"byteLength":2336,
			"byteOffset":7848,
			"target":34962
		},
		{
			"buffer":0,
			"byteLength":1212,
			"byteOffset":10184,
			"target":34963
		},
		{
			"buffer":0,
			"byteLength":192,
			"byteOffset":11396,
			"target":34962
		},
		{
			"buffer":0,
			"byteLength":192,
			"byteOffset":11588,
			"target":34962
		},
		{
			"buffer":0,
			"byteLength":128,
			"byteOffset":11780,
			"target":34962
		},
		{
			"buffer":0,
			"byteLength":48,
			"byteOffset":11908,
			"target":34963
		},
		{
			"buffer":0,
			"byteLength":1992,
			"byteOffset":11956,
			"target":34962
		},
		{
			"buffer":0,
			"byteLength":1992,
			"byteOffset":13948,
			"target":34962
		},
		{
			"buffer":0,
			"byteLength":1328,
			"byteOffset":15940,
			"target":34962
		},
		{
			"buffer":0,
			"byteLength":648,
			"byteOffset":17268,
			"target":34963
		},
		{
			"buffer":0,
			"byteLength":1440,
			"byteOffset":17916,
			"target":34962
		},
		{
			"buffer":0,
			"byteLength":1440,
			"byteOffset":19356,
			"target":34962
		},
		{
			"buffer":0,
			"byteLength":960,
			"byteOffset":20796,
			"target":34962
		},
		{
			"buffer":0,
			"byteLength":408,
			"byteOffset":21756,
			"target":34963
		},
		{
			"buffer":0,
			"byteLength":5568,
			"byteOffset":22164,
			"target":34962
		},
		{
			"buffer":0,
			"byteLength":5568,
			"byteOffset":27732,
			"target":34962
		},
		{
			"buffer":0,
			"byteLength":3712,
			"byteOffset":33300,
			"target":34962
		},
		{
			"buffer":0,
			"byteLength":1968,
			"byteOffset":37012,
			"target":34963
		},
		{
			"buffer":0,
			"byteLength":1368,
			"byteOffset":38980,
			"target":34962
		},
		{
			"buffer":0,
			"byteLength":1368,
			"byteOffset":40348,
			"target":34962
		},
		{
			"buffer":0,
			"byteLength":912,
			"byteOffset":41716,
			"target":34962
		},
		{
			"buffer":0,
			"byteLength":528,
			"byteOffset":42628,
			"target":34963
		},
		{
			"buffer":0,
			"byteLength":576,
			"byteOffset":43156,
			"target":34962
		},
		{
			"buffer":0,
			"byteLength":576,
			"byteOffset":43732,
			"target":34962
		},
		{
			"buffer":0,
			"byteLength":384,
			"byteOffset":44308,
			"target":34962
		},
		{
			"buffer":0,
			"byteLength":144,
			"byteOffset":44692,
			"target":34963
		},
		{
			"buffer":0,
			"byteLength":288,
			"byteOffset":44836,
			"target":34962
		},
		{
			"buffer":0,
			"byteLength":288,
			"byteOffset":45124,
			"target":34962
		},
		{
			"buffer":0,
			"byteLength":192,
			"byteOffset":45412,
			"target":34962
		},
		{
			"buffer":0,
			"byteLength":72,
			"byteOffset":45604,
			"target":34963
		},
		{
			"buffer":0,
			"byteLength":240,
			"byteOffset":45676,
			"target":34962
		},
		{
			"buffer":0,
			"byteLength":240,
			"byteOffset":45916,
			"target":34962
		},
		{
			"buffer":0,
			"byteLength":160,
			"byteOffset":46156,
			"target":34962
		},
		{
			"buffer":0,
			"byteLength":72,
			"byteOffset":46316,
			"target":34963
		},
		{
			"buffer":0,
			"byteLength":288,
			"byteOffset":46388,
			"target":34962
		},
		{
			"buffer":0,
			"byteLength":288,
			"byteOffset":46676,
			"target":34962
		},
		{
			"buffer":0,
			"byteLength":192,
			"byteOffset":46964,
			"target":34962
		},
		{
			"buffer":0,
			"byteLength":96,
			"byteOffset":47156,
			"target":34963
		},
		{
			"buffer":0,
			"byteLength":240,
			"byteOffset":47252,
			"target":34962
		},
		{
			"buffer":0,
			"byteLength":240,
			"byteOffset":47492,
			"target":34962
		},
		{
			"buffer":0,
			"byteLength":160,
			"byteOffset":47732,
			"target":34962
		},
		{
			"buffer":0,
			"byteLength":72,
			"byteOffset":47892,
			"target":34963
		}
	],
	"buffers":[
		{
			"byteLength":47964,
			"uri":"data:application/octet-stream;base64,"
		}
	]
}
