{
	"asset":{
		"generator":"Khronos glTF Blender I/O v3.6.28",
		"version":"2.0"
	},
	"scene":0,
	"scenes":[
		{
			"name":"Scene",
			"nodes":[
				0,
				1,
				2,
				3,
				4,
				5,
				6,
				7,
				8
			]
		}
	],
	"nodes":[
		{
			"mesh":0,
			"name":"Room_Floor_Trim_16x16"
		},
		{
			"mesh":1,
			"name":"Room_Floor_Middle_16x16"
		},
		{
			"mesh":2,
			"name":"Room_Floor_16x16"
		},
		{
			"mesh":3,
			"name":"Room_Ceiling_Panel_16x16",
			"translation":[
				-0.002708783373236656,
				0.001917966757901013,
				0.0008908328600227833
			]
		},
		{
			"mesh":4,
			"name":"Room_Ceiling_Lights_16x16"
		},
		{
			"mesh":5,
			"name":"Room_Ceiling_Edge_Panel_16x16"
		},
		{
			"mesh":6,
			"name":"Room_Ceiling_16x16"
		},
		{
			"mesh":7,
			"name":"Room_Base_Frame_16x16"
		},
		{
			"mesh":8,
			"name":"Room_Frame_Divider_x_axis"
		}
	],
	"meshes":[
		{
			"name":"Cube.022",
			"primitives":[
				{
					"attributes":{
						"POSITION":0,
						"NORMAL":1,
						"TEXCOORD_0":2
					},
					"indices":3
				}
			]
		},
		{
			"name":"Floor_Middle",
			"primitives":[
				{
					"attributes":{
						"POSITION":4,
						"NORMAL":5,
						"TEXCOORD_0":6
					},
					"indices":7
				}
			]
		},
		{
			"name":"Cube.021",
			"primitives":[
				{
					"attributes":{
						"POSITION":8,
						"NORMAL":9,
						"TEXCOORD_0":10
					},
					"indices":11
				}
			]
		},
		{
			"name":"Cube.043",
			"primitives":[
				{
					"attributes":{
						"POSITION":12,
						"NORMAL":13,
						"TEXCOORD_0":14
					},
					"indices":15
				}
			]
		},
		{
			"name":"Cube.040",
			"primitives":[
				{
					"attributes":{
						"POSITION":16,
						"NORMAL":17,
						"TEXCOORD_0":18
					},
					"indices":19
				}
			]
		},
		{
			"name":"Cube.042",
			"primitives":[
				{
					"attributes":{
						"POSITION":20,
						"NORMAL":21,
						"TEXCOORD_0":22
					},
					"indices":23
				}
			]
		},
		{
			"name":"Cube.041",
			"primitives":[
				{
					"attributes":{
						"POSITION":24,
						"NORMAL":25,
						"TEXCOORD_0":26
					},
					"indices":27
				}
			]
		},
		{
			"name":"Cube.027",
			"primitives":[
				{
					"attributes":{
						"POSITION":28,
						"NORMAL":29,
						"TEXCOORD_0":30
					},
					"indices":31
				}
			]
		},
		{
			"name":"Cube.001",
			"primitives":[
				{
					"attributes":{
						"POSITION":32,
						"NORMAL":33,
						"TEXCOORD_0":34
					},
					"indices":35
				}
			]
		}
	],
	"accessors":[
		{
			"bufferView":0,
			"componentType":5126,
			"count":14,
			"max":[
				8.598431587219238,
				-0.0009079034789465368,
				8.600000381469727
			],
			"min":[
				-8.598431587219238,
				-0.0010800089221447706,
				-8.600000381469727
			],
			"type":"VEC3"
		},
		{
			"bufferView":1,
			"componentType":5126,
			"count":14,
			"type":"VEC3"
		},
		{
			"bufferView":2,
			"componentType":5126,
			"count":14,
			"type":"VEC2"
		},
		{
			"bufferView":3,
			"componentType":5123,
			"count":24,
			"type":"SCALAR"
		},
		{
			"bufferView":4,
			"componentType":5126,
			"count":289,
			"max":[
				9,
				0,
				9
			],
			"min":[
				-9,
				-0.20000000298023224,
				-9
			],
			"type":"VEC3"
		},
		{
			"bufferView":5,
			"componentType":5126,
			"count":289,
			"type":"VEC3"
		},
		{
			"bufferView":6,
			"componentType":5126,
			"count":289,
			"type":"VEC2"
		},
		{
			"bufferView":7,
			"componentType":5123,
			"count":612,
			"type":"SCALAR"
		},
		{
			"bufferView":8,
			"componentType":5126,
			"count":32,
			"max":[
				8.600000381469727,
				-0.04994981735944748,
				8.600000381469727
			],
			"min":[
				-8.600000381469727,
				-0.05000000074505806,
				-8.600000381469727
			],
			"type":"VEC3"
		},
		{
			"bufferView":9,
			"componentType":5126,
			"count":32,
			"type":"VEC3"
		},
		{
			"bufferView":10,
			"componentType":5126,
			"count":32,
			"type":"VEC2"
		},
		{
			"bufferView":11,
			"componentType":5123,
			"count":72,
			"type":"SCALAR"
		},
		{
			"bufferView":12,
			"componentType":5126,
			"count":1588,
			"max":[
				7.997291088104248,
				5.900000095367432,
				7.999109268188477
			],
			"min":[
				-7.997291088104248,
				5.800000190734863,
				-7.999109268188477
			],
			"type":"VEC3"
		},
		{
			"bufferView":13,
			"componentType":5126,
			"count":1588,
			"type":"VEC3"
		},
		{
			"bufferView":14,
			"componentType":5126,
			"count":1588,
			"type":"VEC2"
		},
		{
			"bufferView":15,
			"componentType":5123,
			"count":2808,
			"type":"SCALAR"
		},
		{
			"bufferView":16,
			"componentType":5126,
			"count":136,
			"max":[
				8,
				5.900000095367432,
				8
			],
			"min":[
				-8,
				5.800000190734863,
				-8
			],
			"type":"VEC3"
		},
		{
			"bufferView":17,
			"componentType":5126,
			"count":136,
			"type":"VEC3"
		},
		{
			"bufferView":18,
			"componentType":5126,
			"count":136,
			"type":"VEC2"
		},
		{
			"bufferView":19,
			"componentType":5123,
			"count":252,
			"type":"SCALAR"
		},
		{
			"bufferView":20,
			"componentType":5126,
			"count":120,
			"max":[
				8.600000381469727,
				5.900000095367432,
				8.600000381469727
			],
			"min":[
				-8.600000381469727,
				5.800000190734863,
				-8.600000381469727
			],
			"type":"VEC3"
		},
		{
			"bufferView":21,
			"componentType":5126,
			"count":120,
			"type":"VEC3"
		},
		{
			"bufferView":22,
			"componentType":5126,
			"count":120,
			"type":"VEC2"
		},
		{
			"bufferView":23,
			"componentType":5123,
			"count":204,
			"type":"SCALAR"
		},
		{
			"bufferView":24,
			"componentType":5126,
			"count":122,
			"max":[
				9,
				6,
				9
			],
			"min":[
				-9,
				5.800000190734863,
				-9
			],
			"type":"VEC3"
		},
		{
			"bufferView":25,
			"componentType":5126,
			"count":122,
			"type":"VEC3"
		},
		{
			"bufferView":26,
			"componentType":5126,
			"count":122,
			"type":"VEC2"
		},
		{
			"bufferView":27,
			"componentType":5123,
			"count":240,
			"type":"SCALAR"
		},
		{
			"bufferView":28,
			"componentType":5126,
			"count":190,
			"max":[
				9,
				6.75,
				9
			],
			"min":[
				-9,
				-0.20000000298023224,
				-9
			],
			"type":"VEC3"
		},
		{
			"bufferView":29,
			"componentType":5126,
			"count":190,
			"type":"VEC3"
		},
		{
			"bufferView":30,
			"componentType":5126,
			"count":190,
			"type":"VEC2"
		},
		{
			"bufferView":31,
			"componentType":5123,
			"count":324,
			"type":"SCALAR"
		},
		{
			"bufferView":32,
			"componentType":5126,
			"count":24,
			"max":[
				-8.600000381469727,
				6,
				2
			],
			"min":[
				-9,
				-0.20000004768371582,
				-2.000000476837158
			],
			"type":"VEC3"
		},
		{
			"bufferView":33,
			"componentType":5126,
			"count":24,
			"type":"VEC3"
		},
		{
			"bufferView":34,
			"componentType":5126,
			"count":24,
			"type":"VEC2"
		},
		{
			"bufferView":35,
			"componentType":5123,
			"count":36,
			"type":"SCALAR"
		}
	],
	"bufferViews":[
		{
			"buffer":0,
			"byteLength":168,
			"byteOffset":0,
			"target":34962
		},
		{
			"buffer":0,
			"byteLength":168,
			"byteOffset":168,
			"target":34962
		},
		{
			"buffer":0,
			"byteLength":112,
			"byteOffset":336,
			"target":34962
		},
		{
			"buffer":0,
			"byteLength":48,
			"byteOffset":448,
			"target":34963
		},
		{
			"buffer":0,
			"byteLength":3468,
			"byteOffset":496,
			"target":34962
		},
		{
			"buffer":0,
			"byteLength":3468,
			"byteOffset":3964,
			"target":34962
		},
		{
			"buffer":0,
			"byteLength":2312,
			"byteOffset":7432,
			"target":34962
		},
		{
			"buffer":0,
			"byteLength":1224,
			"byteOffset":9744,
			"target":34963
		},
		{
			"buffer":0,
			"byteLength":384,
			"byteOffset":10968,
			"target":34962
		},
		{
			"buffer":0,
			"byteLength":384,
			"byteOffset":11352,
			"target":34962
		},
		{
			"buffer":0,
			"byteLength":256,
			"byteOffset":11736,
			"target":34962
		},
		{
			"buffer":0,
			"byteLength":144,
			"byteOffset":11992,
			"target":34963
		},
		{
			"buffer":0,
			"byteLength":19056,
			"byteOffset":12136,
			"target":34962
		},
		{
			"buffer":0,
			"byteLength":19056,
			"byteOffset":31192,
			"target":34962
		},
		{
			"buffer":0,
			"byteLength":12704,
			"byteOffset":50248,
			"target":34962
		},
		{
			"buffer":0,
			"byteLength":5616,
			"byteOffset":62952,
			"target":34963
		},
		{
			"buffer":0,
			"byteLength":1632,
			"byteOffset":68568,
			"target":34962
		},
		{
			"buffer":0,
			"byteLength":1632,
			"byteOffset":70200,
			"target":34962
		},
		{
			"buffer":0,
			"byteLength":1088,
			"byteOffset":71832,
			"target":34962
		},
		{
			"buffer":0,
			"byteLength":504,
			"byteOffset":72920,
			"target":34963
		},
		{
			"buffer":0,
			"byteLength":1440,
			"byteOffset":73424,
			"target":34962
		},
		{
			"buffer":0,
			"byteLength":1440,
			"byteOffset":74864,
			"target":34962
		},
		{
			"buffer":0,
			"byteLength":960,
			"byteOffset":76304,
			"target":34962
		},
		{
			"buffer":0,
			"byteLength":408,
			"byteOffset":77264,
			"target":34963
		},
		{
			"buffer":0,
			"byteLength":1464,
			"byteOffset":77672,
			"target":34962
		},
		{
			"buffer":0,
			"byteLength":1464,
			"byteOffset":79136,
			"target":34962
		},
		{
			"buffer":0,
			"byteLength":976,
			"byteOffset":80600,
			"target":34962
		},
		{
			"buffer":0,
			"byteLength":480,
			"byteOffset":81576,
			"target":34963
		},
		{
			"buffer":0,
			"byteLength":2280,
			"byteOffset":82056,
			"target":34962
		},
		{
			"buffer":0,
			"byteLength":2280,
			"byteOffset":84336,
			"target":34962
		},
		{
			"buffer":0,
			"byteLength":1520,
			"byteOffset":86616,
			"target":34962
		},
		{
			"buffer":0,
			"byteLength":648,
			"byteOffset":88136,
			"target":34963
		},
		{
			"buffer":0,
			"byteLength":288,
			"byteOffset":88784,
			"target":34962
		},
		{
			"buffer":0,
			"byteLength":288,
			"byteOffset":89072,
			"target":34962
		},
		{
			"buffer":0,
			"byteLength":192,
			"byteOffset":89360,
			"target":34962
		},
		{
			"buffer":0,
			"byteLength":72,
			"byteOffset":89552,
			"target":34963
		}
	],
	"buffers":[
		{
			"byteLength":89624,
			"uri":"data:application/octet-stream;base64,"
		}
	]
}
