{
	"asset":{
		"generator":"Khronos glTF Blender I/O v3.6.28",
		"version":"2.0"
	},
	"scene":0,
	"scenes":[
		{
			"name":"Scene",
			"nodes":[
				0,
				1,
				2,
				3,
				4,
				5,
				6,
				7
			]
		}
	],
	"nodes":[
		{
			"mesh":0,
			"name":"Room_Base_Frame_16x12"
		},
		{
			"mesh":1,
			"name":"Doorway",
			"scale":[
				6,
				6,
				6
			]
		},
		{
			"mesh":2,
			"name":"Roof"
		},
		{
			"mesh":3,
			"name":"Floor",
			"scale":[
				7.200000286102295,
				7.200000286102295,
				7.200000286102295
			]
		},
		{
			"mesh":4,
			"name":"Door_Frame"
		},
		{
			"mesh":5,
			"name":"Roof_Window"
		},
		{
			"mesh":6,
			"name":"Side_Windows"
		},
		{
			"mesh":7,
			"name":"Back_Window"
		}
	],
	"meshes":[
		{
			"name":"Cube.024",
			"primitives":[
				{
					"attributes":{
						"POSITION":0,
						"NORMAL":1,
						"TEXCOORD_0":2
					},
					"indices":3
				}
			]
		},
		{
			"name":"Cube.002",
			"primitives":[
				{
					"attributes":{
						"POSITION":4,
						"NORMAL":5,
						"TEXCOORD_0":6
					},
					"indices":7
				}
			]
		},
		{
			"name":"Cube.005",
			"primitives":[
				{
					"attributes":{
						"POSITION":8,
						"NORMAL":9,
						"TEXCOORD_0":10
					},
					"indices":11
				}
			]
		},
		{
			"name":"Cube.003",
			"primitives":[
				{
					"attributes":{
						"POSITION":12,
						"NORMAL":13,
						"TEXCOORD_0":14
					},
					"indices":15
				}
			]
		},
		{
			"name":"Cube.007",
			"primitives":[
				{
					"attributes":{
						"POSITION":16,
						"NORMAL":17,
						"TEXCOORD_0":18
					},
					"indices":19
				}
			]
		},
		{
			"name":"Cube.006",
			"primitives":[
				{
					"attributes":{
						"POSITION":20,
						"NORMAL":21,
						"TEXCOORD_0":22
					},
					"indices":23
				}
			]
		},
		{
			"name":"Cube.012",
			"primitives":[
				{
					"attributes":{
						"POSITION":24,
						"NORMAL":25,
						"TEXCOORD_0":26
					},
					"indices":27
				}
			]
		},
		{
			"name":"Cube.013",
			"primitives":[
				{
					"attributes":{
						"POSITION":28,
						"NORMAL":29,
						"TEXCOORD_0":30
					},
					"indices":31
				}
			]
		}
	],
	"accessors":[
		{
			"bufferView":0,
			"componentType":5126,
			"count":264,
			"max":[
				9,
				6,
				7
			],
			"min":[
				-9,
				-0.20000000298023224,
				-7
			],
			"type":"VEC3"
		},
		{
			"bufferView":1,
			"componentType":5126,
			"count":264,
			"type":"VEC3"
		},
		{
			"bufferView":2,
			"componentType":5126,
			"count":264,
			"type":"VEC2"
		},
		{
			"bufferView":3,
			"componentType":5123,
			"count":480,
			"type":"SCALAR"
		},
		{
			"bufferView":4,
			"componentType":5126,
			"count":104,
			"max":[
				1.3333333730697632,
				1,
				-1.1333333253860474
			],
			"min":[
				-1.3333333730697632,
				0,
				-1.1666667461395264
			],
			"type":"VEC3"
		},
		{
			"bufferView":5,
			"componentType":5126,
			"count":104,
			"type":"VEC3"
		},
		{
			"bufferView":6,
			"componentType":5126,
			"count":104,
			"type":"VEC2"
		},
		{
			"bufferView":7,
			"componentType":5123,
			"count":204,
			"type":"SCALAR"
		},
		{
			"bufferView":8,
			"componentType":5126,
			"count":192,
			"max":[
				8.800000190734863,
				6,
				6.800000190734863
			],
			"min":[
				-8.800000190734863,
				5.880007266998291,
				-6.800000190734863
			],
			"type":"VEC3"
		},
		{
			"bufferView":9,
			"componentType":5126,
			"count":192,
			"type":"VEC3"
		},
		{
			"bufferView":10,
			"componentType":5126,
			"count":192,
			"type":"VEC2"
		},
		{
			"bufferView":11,
			"componentType":5123,
			"count":372,
			"type":"SCALAR"
		},
		{
			"bufferView":12,
			"componentType":5126,
			"count":188,
			"max":[
				1.25,
				0,
				0.9722221493721008
			],
			"min":[
				-1.25,
				-0.0277777798473835,
				-0.9722222089767456
			],
			"type":"VEC3"
		},
		{
			"bufferView":13,
			"componentType":5126,
			"count":188,
			"type":"VEC3"
		},
		{
			"bufferView":14,
			"componentType":5126,
			"count":188,
			"type":"VEC2"
		},
		{
			"bufferView":15,
			"componentType":5123,
			"count":414,
			"type":"SCALAR"
		},
		{
			"bufferView":16,
			"componentType":5126,
			"count":296,
			"max":[
				5.199999809265137,
				3.2001121044158936,
				-6.601651668548584
			],
			"min":[
				-5.199999809265137,
				0,
				-7.001652240753174
			],
			"type":"VEC3"
		},
		{
			"bufferView":17,
			"componentType":5126,
			"count":296,
			"type":"VEC3"
		},
		{
			"bufferView":18,
			"componentType":5126,
			"count":296,
			"type":"VEC2"
		},
		{
			"bufferView":19,
			"componentType":5123,
			"count":648,
			"type":"SCALAR"
		},
		{
			"bufferView":20,
			"componentType":5126,
			"count":72,
			"max":[
				8.0988187789917,
				6.179999828338623,
				5.968000411987305
			],
			"min":[
				-8.0988187789917,
				6,
				-6.01800012588501
			],
			"type":"VEC3"
		},
		{
			"bufferView":21,
			"componentType":5126,
			"count":72,
			"type":"VEC3"
		},
		{
			"bufferView":22,
			"componentType":5126,
			"count":72,
			"type":"VEC2"
		},
		{
			"bufferView":23,
			"componentType":5123,
			"count":120,
			"type":"SCALAR"
		},
		{
			"bufferView":24,
			"componentType":5126,
			"count":48,
			"max":[
				9.299999237060547,
				5.5,
				5.5
			],
			"min":[
				-9.299999237060547,
				0.49999988079071045,
				-5.5
			],
			"type":"VEC3"
		},
		{
			"bufferView":25,
			"componentType":5126,
			"count":48,
			"type":"VEC3"
		},
		{
			"bufferView":26,
			"componentType":5126,
			"count":48,
			"type":"VEC2"
		},
		{
			"bufferView":27,
			"componentType":5123,
			"count":72,
			"type":"SCALAR"
		},
		{
			"bufferView":28,
			"componentType":5126,
			"count":32,
			"max":[
				7.500000953674316,
				5.5,
				7.299999237060547
			],
			"min":[
				-7.500000953674316,
				0.5,
				7
			],
			"type":"VEC3"
		},
		{
			"bufferView":29,
			"componentType":5126,
			"count":32,
			"type":"VEC3"
		},
		{
			"bufferView":30,
			"componentType":5126,
			"count":32,
			"type":"VEC2"
		},
		{
			"bufferView":31,
			"componentType":5123,
			"count":60,
			"type":"SCALAR"
		}
	],
	"bufferViews":[
		{
			"buffer":0,
			"byteLength":3168,
			"byteOffset":0,
			"target":34962
		},
		{
			"buffer":0,
			"byteLength":3168,
			"byteOffset":3168,
			"target":34962
		},
		{
			"buffer":0,
			"byteLength":2112,
			"byteOffset":6336,
			"target":34962
		},
		{
			"buffer":0,
			"byteLength":960,
			"byteOffset":8448,
			"target":34963
		},
		{
			"buffer":0,
			"byteLength":1248,
			"byteOffset":9408,
			"target":34962
		},
		{
			"buffer":0,
			"byteLength":1248,
			"byteOffset":10656,
			"target":34962
		},
		{
			"buffer":0,
			"byteLength":832,
			"byteOffset":11904,
			"target":34962
		},
		{
			"buffer":0,
			"byteLength":408,
			"byteOffset":12736,
			"target":34963
		},
		{
			"buffer":0,
			"byteLength":2304,
			"byteOffset":13144,
			"target":34962
		},
		{
			"buffer":0,
			"byteLength":2304,
			"byteOffset":15448,
			"target":34962
		},
		{
			"buffer":0,
			"byteLength":1536,
			"byteOffset":17752,
			"target":34962
		},
		{
			"buffer":0,
			"byteLength":744,
			"byteOffset":19288,
			"target":34963
		},
		{
			"buffer":0,
			"byteLength":2256,
			"byteOffset":20032,
			"target":34962
		},
		{
			"buffer":0,
			"byteLength":2256,
			"byteOffset":22288,
			"target":34962
		},
		{
			"buffer":0,
			"byteLength":1504,
			"byteOffset":24544,
			"target":34962
		},
		{
			"buffer":0,
			"byteLength":828,
			"byteOffset":26048,
			"target":34963
		},
		{
			"buffer":0,
			"byteLength":3552,
			"byteOffset":26876,
			"target":34962
		},
		{
			"buffer":0,
			"byteLength":3552,
			"byteOffset":30428,
			"target":34962
		},
		{
			"buffer":0,
			"byteLength":2368,
			"byteOffset":33980,
			"target":34962
		},
		{
			"buffer":0,
			"byteLength":1296,
			"byteOffset":36348,
			"target":34963
		},
		{
			"buffer":0,
			"byteLength":864,
			"byteOffset":37644,
			"target":34962
		},
		{
			"buffer":0,
			"byteLength":864,
			"byteOffset":38508,
			"target":34962
		},
		{
			"buffer":0,
			"byteLength":576,
			"byteOffset":39372,
			"target":34962
		},
		{
			"buffer":0,
			"byteLength":240,
			"byteOffset":39948,
			"target":34963
		},
		{
			"buffer":0,
			"byteLength":576,
			"byteOffset":40188,
			"target":34962
		},
		{
			"buffer":0,
			"byteLength":576,
			"byteOffset":40764,
			"target":34962
		},
		{
			"buffer":0,
			"byteLength":384,
			"byteOffset":41340,
			"target":34962
		},
		{
			"buffer":0,
			"byteLength":144,
			"byteOffset":41724,
			"target":34963
		},
		{
			"buffer":0,
			"byteLength":384,
			"byteOffset":41868,
			"target":34962
		},
		{
			"buffer":0,
			"byteLength":384,
			"byteOffset":42252,
			"target":34962
		},
		{
			"buffer":0,
			"byteLength":256,
			"byteOffset":42636,
			"target":34962
		},
		{
			"buffer":0,
			"byteLength":120,
			"byteOffset":42892,
			"target":34963
		}
	],
	"buffers":[
		{
			"byteLength":43012,
			"uri":"data:application/octet-stream;base64,"
		}
	]
}
