{
	"asset":{
		"generator":"Khronos glTF Blender I/O v3.6.28",
		"version":"2.0"
	},
	"scene":0,
	"scenes":[
		{
			"name":"Scene",
			"nodes":[
				0,
				1,
				2,
				3,
				4,
				5,
				6,
				7,
				8,
				9,
				10,
				11,
				12
			]
		}
	],
	"nodes":[
		{
			"mesh":0,
			"name":"Room_Base_Frame"
		},
		{
			"mesh":1,
			"name":"Doorway",
			"scale":[
				6,
				6,
				6
			]
		},
		{
			"mesh":2,
			"name":"Roof"
		},
		{
			"mesh":3,
			"name":"Floor",
			"scale":[
				7.200000286102295,
				7.200000286102295,
				7.200000286102295
			]
		},
		{
			"mesh":4,
			"name":"Door_Frame"
		},
		{
			"mesh":5,
			"name":"Roof_Window_Interior"
		},
		{
			"mesh":6,
			"name":"Side_Windows_Interior"
		},
		{
			"mesh":7,
			"name":"Back_Window_Interior"
		},
		{
			"mesh":8,
			"name":"Back_Window_Exterior"
		},
		{
			"mesh":9,
			"name":"Roof_Window_Exterior"
		},
		{
			"mesh":10,
			"name":"Side_Windows_Exterior"
		},
		{
			"mesh":11,
			"name":"Floor_Lights",
			"scale":[
				7.200000286102295,
				7.200000286102295,
				7.200000286102295
			]
		},
		{
			"mesh":12,
			"name":"Room_Base_Frame_Inside"
		}
	],
	"meshes":[
		{
			"name":"Cube.024",
			"primitives":[
				{
					"attributes":{
						"POSITION":0,
						"NORMAL":1,
						"TEXCOORD_0":2
					},
					"indices":3
				}
			]
		},
		{
			"name":"Cube.002",
			"primitives":[
				{
					"attributes":{
						"POSITION":4,
						"NORMAL":5,
						"TEXCOORD_0":6
					},
					"indices":7
				}
			]
		},
		{
			"name":"Cube.005",
			"primitives":[
				{
					"attributes":{
						"POSITION":8,
						"NORMAL":9,
						"TEXCOORD_0":10
					},
					"indices":11
				}
			]
		},
		{
			"name":"Cube.003",
			"primitives":[
				{
					"attributes":{
						"POSITION":12,
						"NORMAL":13,
						"TEXCOORD_0":14
					},
					"indices":15
				}
			]
		},
		{
			"name":"Cube.007",
			"primitives":[
				{
					"attributes":{
						"POSITION":16,
						"NORMAL":17,
						"TEXCOORD_0":18
					},
					"indices":19
				}
			]
		},
		{
			"name":"Cube.006",
			"primitives":[
				{
					"attributes":{
						"POSITION":20,
						"NORMAL":21,
						"TEXCOORD_0":22
					},
					"indices":23
				}
			]
		},
		{
			"name":"Cube.012",
			"primitives":[
				{
					"attributes":{
						"POSITION":24,
						"NORMAL":25,
						"TEXCOORD_0":26
					},
					"indices":27
				}
			]
		},
		{
			"name":"Cube.013",
			"primitives":[
				{
					"attributes":{
						"POSITION":28,
						"NORMAL":29,
						"TEXCOORD_0":30
					},
					"indices":31
				}
			]
		},
		{
			"name":"Cube.001",
			"primitives":[
				{
					"attributes":{
						"POSITION":32,
						"NORMAL":33,
						"TEXCOORD_0":34
					},
					"indices":35
				}
			]
		},
		{
			"name":"Cube.008",
			"primitives":[
				{
					"attributes":{
						"POSITION":36,
						"NORMAL":37,
						"TEXCOORD_0":38
					},
					"indices":39
				}
			]
		},
		{
			"name":"Cube.009",
			"primitives":[
				{
					"attributes":{
						"POSITION":40,
						"NORMAL":41,
						"TEXCOORD_0":42
					},
					"indices":43
				}
			]
		},
		{
			"name":"Cube.010",
			"primitives":[
				{
					"attributes":{
						"POSITION":44,
						"NORMAL":45,
						"TEXCOORD_0":46
					},
					"indices":47
				}
			]
		},
		{
			"name":"Cube.014",
			"primitives":[
				{
					"attributes":{
						"POSITION":48,
						"NORMAL":49,
						"TEXCOORD_0":50
					},
					"indices":51
				}
			]
		}
	],
	"accessors":[
		{
			"bufferView":0,
			"componentType":5126,
			"count":216,
			"max":[
				9,
				6,
				7
			],
			"min":[
				-9,
				-0.20000000298023224,
				-7
			],
			"type":"VEC3"
		},
		{
			"bufferView":1,
			"componentType":5126,
			"count":216,
			"type":"VEC3"
		},
		{
			"bufferView":2,
			"componentType":5126,
			"count":216,
			"type":"VEC2"
		},
		{
			"bufferView":3,
			"componentType":5123,
			"count":408,
			"type":"SCALAR"
		},
		{
			"bufferView":4,
			"componentType":5126,
			"count":104,
			"max":[
				1.3333333730697632,
				1,
				-1.1333333253860474
			],
			"min":[
				-1.3333333730697632,
				0,
				-1.1666667461395264
			],
			"type":"VEC3"
		},
		{
			"bufferView":5,
			"componentType":5126,
			"count":104,
			"type":"VEC3"
		},
		{
			"bufferView":6,
			"componentType":5126,
			"count":104,
			"type":"VEC2"
		},
		{
			"bufferView":7,
			"componentType":5123,
			"count":204,
			"type":"SCALAR"
		},
		{
			"bufferView":8,
			"componentType":5126,
			"count":192,
			"max":[
				8.800000190734863,
				6,
				6.800000190734863
			],
			"min":[
				-8.800000190734863,
				5.880007266998291,
				-6.800000190734863
			],
			"type":"VEC3"
		},
		{
			"bufferView":9,
			"componentType":5126,
			"count":192,
			"type":"VEC3"
		},
		{
			"bufferView":10,
			"componentType":5126,
			"count":192,
			"type":"VEC2"
		},
		{
			"bufferView":11,
			"componentType":5123,
			"count":372,
			"type":"SCALAR"
		},
		{
			"bufferView":12,
			"componentType":5126,
			"count":230,
			"max":[
				1.25,
				0,
				0.9722221493721008
			],
			"min":[
				-1.25,
				-0.0277777798473835,
				-0.9722222089767456
			],
			"type":"VEC3"
		},
		{
			"bufferView":13,
			"componentType":5126,
			"count":230,
			"type":"VEC3"
		},
		{
			"bufferView":14,
			"componentType":5126,
			"count":230,
			"type":"VEC2"
		},
		{
			"bufferView":15,
			"componentType":5123,
			"count":474,
			"type":"SCALAR"
		},
		{
			"bufferView":16,
			"componentType":5126,
			"count":296,
			"max":[
				5.199999809265137,
				3.2001121044158936,
				-6.601651668548584
			],
			"min":[
				-5.199999809265137,
				0,
				-7.001652240753174
			],
			"type":"VEC3"
		},
		{
			"bufferView":17,
			"componentType":5126,
			"count":296,
			"type":"VEC3"
		},
		{
			"bufferView":18,
			"componentType":5126,
			"count":296,
			"type":"VEC2"
		},
		{
			"bufferView":19,
			"componentType":5123,
			"count":648,
			"type":"SCALAR"
		},
		{
			"bufferView":20,
			"componentType":5126,
			"count":12,
			"max":[
				8.0988187789917,
				6,
				5.968000411987305
			],
			"min":[
				-8.0988187789917,
				6,
				-6.01800012588501
			],
			"type":"VEC3"
		},
		{
			"bufferView":21,
			"componentType":5126,
			"count":12,
			"type":"VEC3"
		},
		{
			"bufferView":22,
			"componentType":5126,
			"count":12,
			"type":"VEC2"
		},
		{
			"bufferView":23,
			"componentType":5123,
			"count":24,
			"type":"SCALAR"
		},
		{
			"bufferView":24,
			"componentType":5126,
			"count":8,
			"max":[
				8.999999046325684,
				5.5,
				5.5
			],
			"min":[
				-8.999999046325684,
				0.49999988079071045,
				-5.5
			],
			"type":"VEC3"
		},
		{
			"bufferView":25,
			"componentType":5126,
			"count":8,
			"type":"VEC3"
		},
		{
			"bufferView":26,
			"componentType":5126,
			"count":8,
			"type":"VEC2"
		},
		{
			"bufferView":27,
			"componentType":5123,
			"count":12,
			"type":"SCALAR"
		},
		{
			"bufferView":28,
			"componentType":5126,
			"count":6,
			"max":[
				7.500000953674316,
				5.5,
				7
			],
			"min":[
				-7.500000953674316,
				0.5,
				7
			],
			"type":"VEC3"
		},
		{
			"bufferView":29,
			"componentType":5126,
			"count":6,
			"type":"VEC3"
		},
		{
			"bufferView":30,
			"componentType":5126,
			"count":6,
			"type":"VEC2"
		},
		{
			"bufferView":31,
			"componentType":5123,
			"count":12,
			"type":"SCALAR"
		},
		{
			"bufferView":32,
			"componentType":5126,
			"count":26,
			"max":[
				7.500000953674316,
				5.5,
				7.299999237060547
			],
			"min":[
				-7.500000953674316,
				0.5,
				7
			],
			"type":"VEC3"
		},
		{
			"bufferView":33,
			"componentType":5126,
			"count":26,
			"type":"VEC3"
		},
		{
			"bufferView":34,
			"componentType":5126,
			"count":26,
			"type":"VEC2"
		},
		{
			"bufferView":35,
			"componentType":5123,
			"count":48,
			"type":"SCALAR"
		},
		{
			"bufferView":36,
			"componentType":5126,
			"count":60,
			"max":[
				8.0988187789917,
				6.179999828338623,
				5.968000411987305
			],
			"min":[
				-8.0988187789917,
				6,
				-6.01800012588501
			],
			"type":"VEC3"
		},
		{
			"bufferView":37,
			"componentType":5126,
			"count":60,
			"type":"VEC3"
		},
		{
			"bufferView":38,
			"componentType":5126,
			"count":60,
			"type":"VEC2"
		},
		{
			"bufferView":39,
			"componentType":5123,
			"count":96,
			"type":"SCALAR"
		},
		{
			"bufferView":40,
			"componentType":5126,
			"count":40,
			"max":[
				9.299999237060547,
				5.5,
				5.5
			],
			"min":[
				-9.299999237060547,
				0.49999988079071045,
				-5.5
			],
			"type":"VEC3"
		},
		{
			"bufferView":41,
			"componentType":5126,
			"count":40,
			"type":"VEC3"
		},
		{
			"bufferView":42,
			"componentType":5126,
			"count":40,
			"type":"VEC2"
		},
		{
			"bufferView":43,
			"componentType":5123,
			"count":60,
			"type":"SCALAR"
		},
		{
			"bufferView":44,
			"componentType":5126,
			"count":30,
			"max":[
				1.149999976158142,
				-0.002777779009193182,
				0.8861110210418701
			],
			"min":[
				-1.149999976158142,
				-0.002777779009193182,
				-0.8861110806465149
			],
			"type":"VEC3"
		},
		{
			"bufferView":45,
			"componentType":5126,
			"count":30,
			"type":"VEC3"
		},
		{
			"bufferView":46,
			"componentType":5126,
			"count":30,
			"type":"VEC2"
		},
		{
			"bufferView":47,
			"componentType":5123,
			"count":72,
			"type":"SCALAR"
		},
		{
			"bufferView":48,
			"componentType":5126,
			"count":48,
			"max":[
				9,
				6,
				7
			],
			"min":[
				-9,
				-0.20000000298023224,
				-7
			],
			"type":"VEC3"
		},
		{
			"bufferView":49,
			"componentType":5126,
			"count":48,
			"type":"VEC3"
		},
		{
			"bufferView":50,
			"componentType":5126,
			"count":48,
			"type":"VEC2"
		},
		{
			"bufferView":51,
			"componentType":5123,
			"count":72,
			"type":"SCALAR"
		}
	],
	"bufferViews":[
		{
			"buffer":0,
			"byteLength":2592,
			"byteOffset":0,
			"target":34962
		},
		{
			"buffer":0,
			"byteLength":2592,
			"byteOffset":2592,
			"target":34962
		},
		{
			"buffer":0,
			"byteLength":1728,
			"byteOffset":5184,
			"target":34962
		},
		{
			"buffer":0,
			"byteLength":816,
			"byteOffset":6912,
			"target":34963
		},
		{
			"buffer":0,
			"byteLength":1248,
			"byteOffset":7728,
			"target":34962
		},
		{
			"buffer":0,
			"byteLength":1248,
			"byteOffset":8976,
			"target":34962
		},
		{
			"buffer":0,
			"byteLength":832,
			"byteOffset":10224,
			"target":34962
		},
		{
			"buffer":0,
			"byteLength":408,
			"byteOffset":11056,
			"target":34963
		},
		{
			"buffer":0,
			"byteLength":2304,
			"byteOffset":11464,
			"target":34962
		},
		{
			"buffer":0,
			"byteLength":2304,
			"byteOffset":13768,
			"target":34962
		},
		{
			"buffer":0,
			"byteLength":1536,
			"byteOffset":16072,
			"target":34962
		},
		{
			"buffer":0,
			"byteLength":744,
			"byteOffset":17608,
			"target":34963
		},
		{
			"buffer":0,
			"byteLength":2760,
			"byteOffset":18352,
			"target":34962
		},
		{
			"buffer":0,
			"byteLength":2760,
			"byteOffset":21112,
			"target":34962
		},
		{
			"buffer":0,
			"byteLength":1840,
			"byteOffset":23872,
			"target":34962
		},
		{
			"buffer":0,
			"byteLength":948,
			"byteOffset":25712,
			"target":34963
		},
		{
			"buffer":0,
			"byteLength":3552,
			"byteOffset":26660,
			"target":34962
		},
		{
			"buffer":0,
			"byteLength":3552,
			"byteOffset":30212,
			"target":34962
		},
		{
			"buffer":0,
			"byteLength":2368,
			"byteOffset":33764,
			"target":34962
		},
		{
			"buffer":0,
			"byteLength":1296,
			"byteOffset":36132,
			"target":34963
		},
		{
			"buffer":0,
			"byteLength":144,
			"byteOffset":37428,
			"target":34962
		},
		{
			"buffer":0,
			"byteLength":144,
			"byteOffset":37572,
			"target":34962
		},
		{
			"buffer":0,
			"byteLength":96,
			"byteOffset":37716,
			"target":34962
		},
		{
			"buffer":0,
			"byteLength":48,
			"byteOffset":37812,
			"target":34963
		},
		{
			"buffer":0,
			"byteLength":96,
			"byteOffset":37860,
			"target":34962
		},
		{
			"buffer":0,
			"byteLength":96,
			"byteOffset":37956,
			"target":34962
		},
		{
			"buffer":0,
			"byteLength":64,
			"byteOffset":38052,
			"target":34962
		},
		{
			"buffer":0,
			"byteLength":24,
			"byteOffset":38116,
			"target":34963
		},
		{
			"buffer":0,
			"byteLength":72,
			"byteOffset":38140,
			"target":34962
		},
		{
			"buffer":0,
			"byteLength":72,
			"byteOffset":38212,
			"target":34962
		},
		{
			"buffer":0,
			"byteLength":48,
			"byteOffset":38284,
			"target":34962
		},
		{
			"buffer":0,
			"byteLength":24,
			"byteOffset":38332,
			"target":34963
		},
		{
			"buffer":0,
			"byteLength":312,
			"byteOffset":38356,
			"target":34962
		},
		{
			"buffer":0,
			"byteLength":312,
			"byteOffset":38668,
			"target":34962
		},
		{
			"buffer":0,
			"byteLength":208,
			"byteOffset":38980,
			"target":34962
		},
		{
			"buffer":0,
			"byteLength":96,
			"byteOffset":39188,
			"target":34963
		},
		{
			"buffer":0,
			"byteLength":720,
			"byteOffset":39284,
			"target":34962
		},
		{
			"buffer":0,
			"byteLength":720,
			"byteOffset":40004,
			"target":34962
		},
		{
			"buffer":0,
			"byteLength":480,
			"byteOffset":40724,
			"target":34962
		},
		{
			"buffer":0,
			"byteLength":192,
			"byteOffset":41204,
			"target":34963
		},
		{
			"buffer":0,
			"byteLength":480,
			"byteOffset":41396,
			"target":34962
		},
		{
			"buffer":0,
			"byteLength":480,
			"byteOffset":41876,
			"target":34962
		},
		{
			"buffer":0,
			"byteLength":320,
			"byteOffset":42356,
			"target":34962
		},
		{
			"buffer":0,
			"byteLength":120,
			"byteOffset":42676,
			"target":34963
		},
		{
			"buffer":0,
			"byteLength":360,
			"byteOffset":42796,
			"target":34962
		},
		{
			"buffer":0,
			"byteLength":360,
			"byteOffset":43156,
			"target":34962
		},
		{
			"buffer":0,
			"byteLength":240,
			"byteOffset":43516,
			"target":34962
		},
		{
			"buffer":0,
			"byteLength":144,
			"byteOffset":43756,
			"target":34963
		},
		{
			"buffer":0,
			"byteLength":576,
			"byteOffset":43900,
			"target":34962
		},
		{
			"buffer":0,
			"byteLength":576,
			"byteOffset":44476,
			"target":34962
		},
		{
			"buffer":0,
			"byteLength":384,
			"byteOffset":45052,
			"target":34962
		},
		{
			"buffer":0,
			"byteLength":144,
			"byteOffset":45436,
			"target":34963
		}
	],
	"buffers":[
		{
			"byteLength":45580,
			"uri":"data:application/octet-stream;base64,"
		}
	]
}
