{
	"asset":{
		"generator":"Khronos glTF Blender I/O v3.6.28",
		"version":"2.0"
	},
	"scene":0,
	"scenes":[
		{
			"name":"Scene",
			"nodes":[
				0,
				1,
				2,
				3,
				4,
				5,
				6,
				7,
				8,
				9
			]
		}
	],
	"nodes":[
		{
			"mesh":0,
			"name":"Room_Ceiling_Lights_16x6"
		},
		{
			"mesh":1,
			"name":"Room_Ceiling_Edge_Panel_16x6"
		},
		{
			"mesh":2,
			"name":"Room_Ceiling_16x6"
		},
		{
			"mesh":3,
			"name":"Room_Base_Frame_16x6"
		},
		{
			"mesh":4,
			"name":"Room_Base_Frame_Inside"
		},
		{
			"mesh":5,
			"name":"Kitchen_Ceiling_Edge_Panel",
			"rotation":[
				0,
				0.7071067094802856,
				0,
				0.7071068286895752
			]
		},
		{
			"mesh":6,
			"name":"Kitchen_Middle_Floor"
		},
		{
			"mesh":7,
			"name":"Kitchen_Floor_Left"
		},
		{
			"mesh":8,
			"name":"Kitchen_Floor_Right",
			"rotation":[
				0,
				0,
				-1,
				0
			],
			"scale":[
				-1,
				-1,
				-1
			]
		},
		{
			"mesh":9,
			"name":"Kitchen_Floor_Lights"
		}
	],
	"meshes":[
		{
			"name":"Cube.048",
			"primitives":[
				{
					"attributes":{
						"POSITION":0,
						"NORMAL":1,
						"TEXCOORD_0":2
					},
					"indices":3
				}
			]
		},
		{
			"name":"Cube.046",
			"primitives":[
				{
					"attributes":{
						"POSITION":4,
						"NORMAL":5,
						"TEXCOORD_0":6
					},
					"indices":7
				}
			]
		},
		{
			"name":"Cube.047",
			"primitives":[
				{
					"attributes":{
						"POSITION":8,
						"NORMAL":9,
						"TEXCOORD_0":10
					},
					"indices":11
				}
			]
		},
		{
			"name":"Cube.029",
			"primitives":[
				{
					"attributes":{
						"POSITION":12,
						"NORMAL":13,
						"TEXCOORD_0":14
					},
					"indices":15
				}
			]
		},
		{
			"name":"Cube.002",
			"primitives":[
				{
					"attributes":{
						"POSITION":16,
						"NORMAL":17,
						"TEXCOORD_0":18
					},
					"indices":19
				}
			]
		},
		{
			"name":"Cube.001",
			"primitives":[
				{
					"attributes":{
						"POSITION":20,
						"NORMAL":21,
						"TEXCOORD_0":22
					},
					"indices":7
				}
			]
		},
		{
			"name":"Plane.001",
			"primitives":[
				{
					"attributes":{
						"POSITION":23,
						"NORMAL":24,
						"TEXCOORD_0":25
					},
					"indices":26
				}
			]
		},
		{
			"name":"Plane.002",
			"primitives":[
				{
					"attributes":{
						"POSITION":27,
						"NORMAL":28,
						"TEXCOORD_0":29
					},
					"indices":30
				}
			]
		},
		{
			"name":"Plane.003",
			"primitives":[
				{
					"attributes":{
						"POSITION":31,
						"NORMAL":32,
						"TEXCOORD_0":33
					},
					"indices":34
				}
			]
		},
		{
			"name":"Plane.004",
			"primitives":[
				{
					"attributes":{
						"POSITION":35,
						"NORMAL":36,
						"TEXCOORD_0":37
					},
					"indices":38
				}
			]
		}
	],
	"accessors":[
		{
			"bufferView":0,
			"componentType":5126,
			"count":36,
			"max":[
				0.5001071691513062,
				5.900000095367432,
				8
			],
			"min":[
				-0.5001071691513062,
				5.800000190734863,
				-8
			],
			"type":"VEC3"
		},
		{
			"bufferView":1,
			"componentType":5126,
			"count":36,
			"type":"VEC3"
		},
		{
			"bufferView":2,
			"componentType":5126,
			"count":36,
			"type":"VEC2"
		},
		{
			"bufferView":3,
			"componentType":5123,
			"count":66,
			"type":"SCALAR"
		},
		{
			"bufferView":4,
			"componentType":5126,
			"count":72,
			"max":[
				0.5001071691513062,
				5.900000095367432,
				8.600000381469727
			],
			"min":[
				-0.5001071691513062,
				5.800000190734863,
				-8.600000381469727
			],
			"type":"VEC3"
		},
		{
			"bufferView":5,
			"componentType":5126,
			"count":72,
			"type":"VEC3"
		},
		{
			"bufferView":6,
			"componentType":5126,
			"count":72,
			"type":"VEC2"
		},
		{
			"bufferView":7,
			"componentType":5123,
			"count":132,
			"type":"SCALAR"
		},
		{
			"bufferView":8,
			"componentType":5126,
			"count":116,
			"max":[
				4,
				6,
				9
			],
			"min":[
				-4,
				5.800000190734863,
				-9
			],
			"type":"VEC3"
		},
		{
			"bufferView":9,
			"componentType":5126,
			"count":116,
			"type":"VEC3"
		},
		{
			"bufferView":10,
			"componentType":5126,
			"count":116,
			"type":"VEC2"
		},
		{
			"bufferView":11,
			"componentType":5123,
			"count":300,
			"type":"SCALAR"
		},
		{
			"bufferView":12,
			"componentType":5126,
			"count":84,
			"max":[
				4,
				6.25,
				9
			],
			"min":[
				-4,
				-0.20000000298023224,
				-9
			],
			"type":"VEC3"
		},
		{
			"bufferView":13,
			"componentType":5126,
			"count":84,
			"type":"VEC3"
		},
		{
			"bufferView":14,
			"componentType":5126,
			"count":84,
			"type":"VEC2"
		},
		{
			"bufferView":15,
			"componentType":5123,
			"count":150,
			"type":"SCALAR"
		},
		{
			"bufferView":16,
			"componentType":5126,
			"count":48,
			"max":[
				4,
				6,
				9
			],
			"min":[
				-4,
				-0.20000000298023224,
				-9
			],
			"type":"VEC3"
		},
		{
			"bufferView":17,
			"componentType":5126,
			"count":48,
			"type":"VEC3"
		},
		{
			"bufferView":18,
			"componentType":5126,
			"count":48,
			"type":"VEC2"
		},
		{
			"bufferView":19,
			"componentType":5123,
			"count":72,
			"type":"SCALAR"
		},
		{
			"bufferView":20,
			"componentType":5126,
			"count":72,
			"max":[
				7.900106906890869,
				5.900000095367432,
				2.900001287460327
			],
			"min":[
				-7.900106906890869,
				5.800000190734863,
				-2.90000057220459
			],
			"type":"VEC3"
		},
		{
			"bufferView":21,
			"componentType":5126,
			"count":72,
			"type":"VEC3"
		},
		{
			"bufferView":22,
			"componentType":5126,
			"count":72,
			"type":"VEC2"
		},
		{
			"bufferView":23,
			"componentType":5126,
			"count":10,
			"max":[
				3.095761299133301,
				7.674098014831543e-05,
				8.086785316467285
			],
			"min":[
				-3.086785316467285,
				7.674098014831543e-05,
				-8.086785316467285
			],
			"type":"VEC3"
		},
		{
			"bufferView":24,
			"componentType":5126,
			"count":10,
			"type":"VEC3"
		},
		{
			"bufferView":25,
			"componentType":5126,
			"count":10,
			"type":"VEC2"
		},
		{
			"bufferView":26,
			"componentType":5123,
			"count":24,
			"type":"SCALAR"
		},
		{
			"bufferView":27,
			"componentType":5126,
			"count":144,
			"max":[
				4.000766754150391,
				7.677078247070312e-05,
				4.76837158203125e-07
			],
			"min":[
				-4.000767230987549,
				-0.20000000298023224,
				-9.00076675415039
			],
			"type":"VEC3"
		},
		{
			"bufferView":28,
			"componentType":5126,
			"count":144,
			"type":"VEC3"
		},
		{
			"bufferView":29,
			"componentType":5126,
			"count":144,
			"type":"VEC2"
		},
		{
			"bufferView":30,
			"componentType":5123,
			"count":258,
			"type":"SCALAR"
		},
		{
			"bufferView":31,
			"componentType":5126,
			"count":146,
			"max":[
				4.000766754150391,
				7.677078247070312e-05,
				4.76837158203125e-07
			],
			"min":[
				-4.000767230987549,
				-0.20000000298023224,
				-9.00076675415039
			],
			"type":"VEC3"
		},
		{
			"bufferView":32,
			"componentType":5126,
			"count":146,
			"type":"VEC3"
		},
		{
			"bufferView":33,
			"componentType":5126,
			"count":146,
			"type":"VEC2"
		},
		{
			"bufferView":34,
			"componentType":5123,
			"count":273,
			"type":"SCALAR"
		},
		{
			"bufferView":35,
			"componentType":5126,
			"count":12,
			"max":[
				3.2095909118652344,
				-0.019927000626921654,
				8.200613975524902
			],
			"min":[
				-3.2006144523620605,
				-0.01992708444595337,
				-8.200613975524902
			],
			"type":"VEC3"
		},
		{
			"bufferView":36,
			"componentType":5126,
			"count":12,
			"type":"VEC3"
		},
		{
			"bufferView":37,
			"componentType":5126,
			"count":12,
			"type":"VEC2"
		},
		{
			"bufferView":38,
			"componentType":5123,
			"count":18,
			"type":"SCALAR"
		}
	],
	"bufferViews":[
		{
			"buffer":0,
			"byteLength":432,
			"byteOffset":0,
			"target":34962
		},
		{
			"buffer":0,
			"byteLength":432,
			"byteOffset":432,
			"target":34962
		},
		{
			"buffer":0,
			"byteLength":288,
			"byteOffset":864,
			"target":34962
		},
		{
			"buffer":0,
			"byteLength":132,
			"byteOffset":1152,
			"target":34963
		},
		{
			"buffer":0,
			"byteLength":864,
			"byteOffset":1284,
			"target":34962
		},
		{
			"buffer":0,
			"byteLength":864,
			"byteOffset":2148,
			"target":34962
		},
		{
			"buffer":0,
			"byteLength":576,
			"byteOffset":3012,
			"target":34962
		},
		{
			"buffer":0,
			"byteLength":264,
			"byteOffset":3588,
			"target":34963
		},
		{
			"buffer":0,
			"byteLength":1392,
			"byteOffset":3852,
			"target":34962
		},
		{
			"buffer":0,
			"byteLength":1392,
			"byteOffset":5244,
			"target":34962
		},
		{
			"buffer":0,
			"byteLength":928,
			"byteOffset":6636,
			"target":34962
		},
		{
			"buffer":0,
			"byteLength":600,
			"byteOffset":7564,
			"target":34963
		},
		{
			"buffer":0,
			"byteLength":1008,
			"byteOffset":8164,
			"target":34962
		},
		{
			"buffer":0,
			"byteLength":1008,
			"byteOffset":9172,
			"target":34962
		},
		{
			"buffer":0,
			"byteLength":672,
			"byteOffset":10180,
			"target":34962
		},
		{
			"buffer":0,
			"byteLength":300,
			"byteOffset":10852,
			"target":34963
		},
		{
			"buffer":0,
			"byteLength":576,
			"byteOffset":11152,
			"target":34962
		},
		{
			"buffer":0,
			"byteLength":576,
			"byteOffset":11728,
			"target":34962
		},
		{
			"buffer":0,
			"byteLength":384,
			"byteOffset":12304,
			"target":34962
		},
		{
			"buffer":0,
			"byteLength":144,
			"byteOffset":12688,
			"target":34963
		},
		{
			"buffer":0,
			"byteLength":864,
			"byteOffset":12832,
			"target":34962
		},
		{
			"buffer":0,
			"byteLength":864,
			"byteOffset":13696,
			"target":34962
		},
		{
			"buffer":0,
			"byteLength":576,
			"byteOffset":14560,
			"target":34962
		},
		{
			"buffer":0,
			"byteLength":120,
			"byteOffset":15136,
			"target":34962
		},
		{
			"buffer":0,
			"byteLength":120,
			"byteOffset":15256,
			"target":34962
		},
		{
			"buffer":0,
			"byteLength":80,
			"byteOffset":15376,
			"target":34962
		},
		{
			"buffer":0,
			"byteLength":48,
			"byteOffset":15456,
			"target":34963
		},
		{
			"buffer":0,
			"byteLength":1728,
			"byteOffset":15504,
			"target":34962
		},
		{
			"buffer":0,
			"byteLength":1728,
			"byteOffset":17232,
			"target":34962
		},
		{
			"buffer":0,
			"byteLength":1152,
			"byteOffset":18960,
			"target":34962
		},
		{
			"buffer":0,
			"byteLength":516,
			"byteOffset":20112,
			"target":34963
		},
		{
			"buffer":0,
			"byteLength":1752,
			"byteOffset":20628,
			"target":34962
		},
		{
			"buffer":0,
			"byteLength":1752,
			"byteOffset":22380,
			"target":34962
		},
		{
			"buffer":0,
			"byteLength":1168,
			"byteOffset":24132,
			"target":34962
		},
		{
			"buffer":0,
			"byteLength":546,
			"byteOffset":25300,
			"target":34963
		},
		{
			"buffer":0,
			"byteLength":144,
			"byteOffset":25848,
			"target":34962
		},
		{
			"buffer":0,
			"byteLength":144,
			"byteOffset":25992,
			"target":34962
		},
		{
			"buffer":0,
			"byteLength":96,
			"byteOffset":26136,
			"target":34962
		},
		{
			"buffer":0,
			"byteLength":36,
			"byteOffset":26232,
			"target":34963
		}
	],
	"buffers":[
		{
			"byteLength":26268,
			"uri":"data:application/octet-stream;base64,"
		}
	]
}
