{
	"asset":{
		"generator":"Khronos glTF Blender I/O v3.6.28",
		"version":"2.0"
	},
	"scene":0,
	"scenes":[
		{
			"name":"Scene",
			"nodes":[
				0,
				1,
				2,
				3,
				4,
				5,
				6
			]
		}
	],
	"nodes":[
		{
			"mesh":0,
			"name":"Shower_Base_Frame_Inside"
		},
		{
			"mesh":1,
			"name":"Shower_Base_Frame"
		},
		{
			"mesh":2,
			"name":"Shower_Ceiling_Edge"
		},
		{
			"mesh":3,
			"name":"Shower_Ceiling"
		},
		{
			"mesh":4,
			"name":"Shower_Ceiling_Lights"
		},
		{
			"mesh":5,
			"name":"Shower_Floor_Middle"
		},
		{
			"mesh":6,
			"name":"Shower_Floor"
		}
	],
	"meshes":[
		{
			"name":"Cube.012",
			"primitives":[
				{
					"attributes":{
						"POSITION":0,
						"NORMAL":1,
						"TEXCOORD_0":2
					},
					"indices":3
				}
			]
		},
		{
			"name":"Cube.011",
			"primitives":[
				{
					"attributes":{
						"POSITION":4,
						"NORMAL":5,
						"TEXCOORD_0":6
					},
					"indices":7
				}
			]
		},
		{
			"name":"Cube.015",
			"primitives":[
				{
					"attributes":{
						"POSITION":8,
						"NORMAL":9,
						"TEXCOORD_0":10
					},
					"indices":11
				}
			]
		},
		{
			"name":"Cube.016",
			"primitives":[
				{
					"attributes":{
						"POSITION":12,
						"NORMAL":13,
						"TEXCOORD_0":14
					},
					"indices":15
				}
			]
		},
		{
			"name":"Cube.017",
			"primitives":[
				{
					"attributes":{
						"POSITION":16,
						"NORMAL":17,
						"TEXCOORD_0":18
					},
					"indices":19
				}
			]
		},
		{
			"name":"Plane.007",
			"primitives":[
				{
					"attributes":{
						"POSITION":20,
						"NORMAL":21,
						"TEXCOORD_0":22
					},
					"indices":23
				}
			]
		},
		{
			"name":"Plane.008",
			"primitives":[
				{
					"attributes":{
						"POSITION":24,
						"NORMAL":25,
						"TEXCOORD_0":26
					},
					"indices":27
				}
			]
		}
	],
	"accessors":[
		{
			"bufferView":0,
			"componentType":5126,
			"count":52,
			"max":[
				4,
				6,
				5
			],
			"min":[
				-4,
				-0.20000000298023224,
				-4
			],
			"type":"VEC3"
		},
		{
			"bufferView":1,
			"componentType":5126,
			"count":52,
			"type":"VEC3"
		},
		{
			"bufferView":2,
			"componentType":5126,
			"count":52,
			"type":"VEC2"
		},
		{
			"bufferView":3,
			"componentType":5123,
			"count":84,
			"type":"SCALAR"
		},
		{
			"bufferView":4,
			"componentType":5126,
			"count":94,
			"max":[
				4,
				6.25,
				5
			],
			"min":[
				-4,
				-0.20000000298023224,
				-4
			],
			"type":"VEC3"
		},
		{
			"bufferView":5,
			"componentType":5126,
			"count":94,
			"type":"VEC3"
		},
		{
			"bufferView":6,
			"componentType":5126,
			"count":94,
			"type":"VEC2"
		},
		{
			"bufferView":7,
			"componentType":5123,
			"count":168,
			"type":"SCALAR"
		},
		{
			"bufferView":8,
			"componentType":5126,
			"count":58,
			"max":[
				3.5999999046325684,
				5.900000095367432,
				4.599999904632568
			],
			"min":[
				-3.5999999046325684,
				5.800000190734863,
				-3.5999999046325684
			],
			"type":"VEC3"
		},
		{
			"bufferView":9,
			"componentType":5126,
			"count":58,
			"type":"VEC3"
		},
		{
			"bufferView":10,
			"componentType":5126,
			"count":58,
			"type":"VEC2"
		},
		{
			"bufferView":11,
			"componentType":5123,
			"count":120,
			"type":"SCALAR"
		},
		{
			"bufferView":12,
			"componentType":5126,
			"count":36,
			"max":[
				4,
				6,
				5
			],
			"min":[
				-4,
				5.800000190734863,
				-4
			],
			"type":"VEC3"
		},
		{
			"bufferView":13,
			"componentType":5126,
			"count":36,
			"type":"VEC3"
		},
		{
			"bufferView":14,
			"componentType":5126,
			"count":36,
			"type":"VEC2"
		},
		{
			"bufferView":15,
			"componentType":5123,
			"count":60,
			"type":"SCALAR"
		},
		{
			"bufferView":16,
			"componentType":5126,
			"count":12,
			"max":[
				2.9000000953674316,
				5.900000095367432,
				3.9000000953674316
			],
			"min":[
				-2.9000000953674316,
				5.900000095367432,
				-2.9000000953674316
			],
			"type":"VEC3"
		},
		{
			"bufferView":17,
			"componentType":5126,
			"count":12,
			"type":"VEC3"
		},
		{
			"bufferView":18,
			"componentType":5126,
			"count":12,
			"type":"VEC2"
		},
		{
			"bufferView":19,
			"componentType":5123,
			"count":36,
			"type":"SCALAR"
		},
		{
			"bufferView":20,
			"componentType":5126,
			"count":10,
			"max":[
				3.086785078048706,
				7.674098014831543e-05,
				4.086785316467285
			],
			"min":[
				-3.086785078048706,
				7.674098014831543e-05,
				-3.095762014389038
			],
			"type":"VEC3"
		},
		{
			"bufferView":21,
			"componentType":5126,
			"count":10,
			"type":"VEC3"
		},
		{
			"bufferView":22,
			"componentType":5126,
			"count":10,
			"type":"VEC2"
		},
		{
			"bufferView":23,
			"componentType":5123,
			"count":24,
			"type":"SCALAR"
		},
		{
			"bufferView":24,
			"componentType":5126,
			"count":258,
			"max":[
				4.000766754150391,
				7.677078247070312e-05,
				5.000766754150391
			],
			"min":[
				-4.000766754150391,
				-0.20000000298023224,
				-4.000766754150391
			],
			"type":"VEC3"
		},
		{
			"bufferView":25,
			"componentType":5126,
			"count":258,
			"type":"VEC3"
		},
		{
			"bufferView":26,
			"componentType":5126,
			"count":258,
			"type":"VEC2"
		},
		{
			"bufferView":27,
			"componentType":5123,
			"count":480,
			"type":"SCALAR"
		}
	],
	"bufferViews":[
		{
			"buffer":0,
			"byteLength":624,
			"byteOffset":0,
			"target":34962
		},
		{
			"buffer":0,
			"byteLength":624,
			"byteOffset":624,
			"target":34962
		},
		{
			"buffer":0,
			"byteLength":416,
			"byteOffset":1248,
			"target":34962
		},
		{
			"buffer":0,
			"byteLength":168,
			"byteOffset":1664,
			"target":34963
		},
		{
			"buffer":0,
			"byteLength":1128,
			"byteOffset":1832,
			"target":34962
		},
		{
			"buffer":0,
			"byteLength":1128,
			"byteOffset":2960,
			"target":34962
		},
		{
			"buffer":0,
			"byteLength":752,
			"byteOffset":4088,
			"target":34962
		},
		{
			"buffer":0,
			"byteLength":336,
			"byteOffset":4840,
			"target":34963
		},
		{
			"buffer":0,
			"byteLength":696,
			"byteOffset":5176,
			"target":34962
		},
		{
			"buffer":0,
			"byteLength":696,
			"byteOffset":5872,
			"target":34962
		},
		{
			"buffer":0,
			"byteLength":464,
			"byteOffset":6568,
			"target":34962
		},
		{
			"buffer":0,
			"byteLength":240,
			"byteOffset":7032,
			"target":34963
		},
		{
			"buffer":0,
			"byteLength":432,
			"byteOffset":7272,
			"target":34962
		},
		{
			"buffer":0,
			"byteLength":432,
			"byteOffset":7704,
			"target":34962
		},
		{
			"buffer":0,
			"byteLength":288,
			"byteOffset":8136,
			"target":34962
		},
		{
			"buffer":0,
			"byteLength":120,
			"byteOffset":8424,
			"target":34963
		},
		{
			"buffer":0,
			"byteLength":144,
			"byteOffset":8544,
			"target":34962
		},
		{
			"buffer":0,
			"byteLength":144,
			"byteOffset":8688,
			"target":34962
		},
		{
			"buffer":0,
			"byteLength":96,
			"byteOffset":8832,
			"target":34962
		},
		{
			"buffer":0,
			"byteLength":72,
			"byteOffset":8928,
			"target":34963
		},
		{
			"buffer":0,
			"byteLength":120,
			"byteOffset":9000,
			"target":34962
		},
		{
			"buffer":0,
			"byteLength":120,
			"byteOffset":9120,
			"target":34962
		},
		{
			"buffer":0,
			"byteLength":80,
			"byteOffset":9240,
			"target":34962
		},
		{
			"buffer":0,
			"byteLength":48,
			"byteOffset":9320,
			"target":34963
		},
		{
			"buffer":0,
			"byteLength":3096,
			"byteOffset":9368,
			"target":34962
		},
		{
			"buffer":0,
			"byteLength":3096,
			"byteOffset":12464,
			"target":34962
		},
		{
			"buffer":0,
			"byteLength":2064,
			"byteOffset":15560,
			"target":34962
		},
		{
			"buffer":0,
			"byteLength":960,
			"byteOffset":17624,
			"target":34963
		}
	],
	"buffers":[
		{
			"byteLength":18584,
			"uri":"data:application/octet-stream;base64,"
		}
	]
}
