{
	"asset":{
		"generator":"Khronos glTF Blender I/O v3.6.28",
		"version":"2.0"
	},
	"scene":0,
	"scenes":[
		{
			"name":"Scene",
			"nodes":[
				0,
				1,
				2,
				3,
				4,
				5,
				6,
				7
			]
		}
	],
	"nodes":[
		{
			"mesh":0,
			"name":"Storage_Ceiling_Lights"
		},
		{
			"mesh":1,
			"name":"Storage_Ceiling_Edge"
		},
		{
			"mesh":2,
			"name":"Storage_Ceiling"
		},
		{
			"mesh":3,
			"name":"Storage_Frame_Inside"
		},
		{
			"mesh":4,
			"name":"Storage_Frame"
		},
		{
			"mesh":5,
			"name":"Storage_Floor_Middle"
		},
		{
			"mesh":6,
			"name":"Storage_Floor"
		},
		{
			"mesh":7,
			"name":"Storage_Floor_Lights"
		}
	],
	"meshes":[
		{
			"name":"Cube.003",
			"primitives":[
				{
					"attributes":{
						"POSITION":0,
						"NORMAL":1,
						"TEXCOORD_0":2
					},
					"indices":3
				}
			]
		},
		{
			"name":"Cube.005",
			"primitives":[
				{
					"attributes":{
						"POSITION":4,
						"NORMAL":5,
						"TEXCOORD_0":6
					},
					"indices":7
				}
			]
		},
		{
			"name":"Cube.004",
			"primitives":[
				{
					"attributes":{
						"POSITION":8,
						"NORMAL":9,
						"TEXCOORD_0":10
					},
					"indices":11
				}
			]
		},
		{
			"name":"Cube.007",
			"primitives":[
				{
					"attributes":{
						"POSITION":12,
						"NORMAL":13,
						"TEXCOORD_0":14
					},
					"indices":15
				}
			]
		},
		{
			"name":"Cube.006",
			"primitives":[
				{
					"attributes":{
						"POSITION":16,
						"NORMAL":17,
						"TEXCOORD_0":18
					},
					"indices":19
				}
			]
		},
		{
			"name":"Plane.005",
			"primitives":[
				{
					"attributes":{
						"POSITION":20,
						"NORMAL":21,
						"TEXCOORD_0":22
					},
					"indices":23
				}
			]
		},
		{
			"name":"Plane.006",
			"primitives":[
				{
					"attributes":{
						"POSITION":24,
						"NORMAL":25,
						"TEXCOORD_0":26
					},
					"indices":27
				}
			]
		},
		{
			"name":"Plane.007",
			"primitives":[
				{
					"attributes":{
						"POSITION":28,
						"NORMAL":29,
						"TEXCOORD_0":30
					},
					"indices":31
				}
			]
		}
	],
	"accessors":[
		{
			"bufferView":0,
			"componentType":5126,
			"count":36,
			"max":[
				0.20010718703269958,
				5.900000095367432,
				8
			],
			"min":[
				-0.20010718703269958,
				5.800000190734863,
				-8
			],
			"type":"VEC3"
		},
		{
			"bufferView":1,
			"componentType":5126,
			"count":36,
			"type":"VEC3"
		},
		{
			"bufferView":2,
			"componentType":5126,
			"count":36,
			"type":"VEC2"
		},
		{
			"bufferView":3,
			"componentType":5123,
			"count":66,
			"type":"SCALAR"
		},
		{
			"bufferView":4,
			"componentType":5126,
			"count":72,
			"max":[
				0.3001071810722351,
				5.900000095367432,
				8.600000381469727
			],
			"min":[
				-0.3001071810722351,
				5.800000190734863,
				-8.600000381469727
			],
			"type":"VEC3"
		},
		{
			"bufferView":5,
			"componentType":5126,
			"count":72,
			"type":"VEC3"
		},
		{
			"bufferView":6,
			"componentType":5126,
			"count":72,
			"type":"VEC2"
		},
		{
			"bufferView":7,
			"componentType":5123,
			"count":132,
			"type":"SCALAR"
		},
		{
			"bufferView":8,
			"componentType":5126,
			"count":134,
			"max":[
				4,
				6,
				9
			],
			"min":[
				-4,
				5.800000190734863,
				-9
			],
			"type":"VEC3"
		},
		{
			"bufferView":9,
			"componentType":5126,
			"count":134,
			"type":"VEC3"
		},
		{
			"bufferView":10,
			"componentType":5126,
			"count":134,
			"type":"VEC2"
		},
		{
			"bufferView":11,
			"componentType":5123,
			"count":360,
			"type":"SCALAR"
		},
		{
			"bufferView":12,
			"componentType":5126,
			"count":48,
			"max":[
				4,
				6,
				9
			],
			"min":[
				-4,
				-0.20000000298023224,
				-9
			],
			"type":"VEC3"
		},
		{
			"bufferView":13,
			"componentType":5126,
			"count":48,
			"type":"VEC3"
		},
		{
			"bufferView":14,
			"componentType":5126,
			"count":48,
			"type":"VEC2"
		},
		{
			"bufferView":15,
			"componentType":5123,
			"count":72,
			"type":"SCALAR"
		},
		{
			"bufferView":16,
			"componentType":5126,
			"count":84,
			"max":[
				4,
				6.25,
				9
			],
			"min":[
				-4,
				-0.20000000298023224,
				-9
			],
			"type":"VEC3"
		},
		{
			"bufferView":17,
			"componentType":5126,
			"count":84,
			"type":"VEC3"
		},
		{
			"bufferView":18,
			"componentType":5126,
			"count":84,
			"type":"VEC2"
		},
		{
			"bufferView":19,
			"componentType":5123,
			"count":150,
			"type":"SCALAR"
		},
		{
			"bufferView":20,
			"componentType":5126,
			"count":10,
			"max":[
				3.095761299133301,
				7.674098014831543e-05,
				8.086785316467285
			],
			"min":[
				-3.086785316467285,
				7.674098014831543e-05,
				-8.086785316467285
			],
			"type":"VEC3"
		},
		{
			"bufferView":21,
			"componentType":5126,
			"count":10,
			"type":"VEC3"
		},
		{
			"bufferView":22,
			"componentType":5126,
			"count":10,
			"type":"VEC2"
		},
		{
			"bufferView":23,
			"componentType":5123,
			"count":24,
			"type":"SCALAR"
		},
		{
			"bufferView":24,
			"componentType":5126,
			"count":265,
			"max":[
				4.000766754150391,
				7.677078247070312e-05,
				9.00076675415039
			],
			"min":[
				-4.000767230987549,
				-0.20000000298023224,
				-9.00076675415039
			],
			"type":"VEC3"
		},
		{
			"bufferView":25,
			"componentType":5126,
			"count":265,
			"type":"VEC3"
		},
		{
			"bufferView":26,
			"componentType":5126,
			"count":265,
			"type":"VEC2"
		},
		{
			"bufferView":27,
			"componentType":5123,
			"count":510,
			"type":"SCALAR"
		},
		{
			"bufferView":28,
			"componentType":5126,
			"count":12,
			"max":[
				3.2095909118652344,
				-0.01992708444595337,
				7.533819675445557
			],
			"min":[
				-3.2006144523620605,
				-0.01992708444595337,
				-7.533819675445557
			],
			"type":"VEC3"
		},
		{
			"bufferView":29,
			"componentType":5126,
			"count":12,
			"type":"VEC3"
		},
		{
			"bufferView":30,
			"componentType":5126,
			"count":12,
			"type":"VEC2"
		},
		{
			"bufferView":31,
			"componentType":5123,
			"count":24,
			"type":"SCALAR"
		}
	],
	"bufferViews":[
		{
			"buffer":0,
			"byteLength":432,
			"byteOffset":0,
			"target":34962
		},
		{
			"buffer":0,
			"byteLength":432,
			"byteOffset":432,
			"target":34962
		},
		{
			"buffer":0,
			"byteLength":288,
			"byteOffset":864,
			"target":34962
		},
		{
			"buffer":0,
			"byteLength":132,
			"byteOffset":1152,
			"target":34963
		},
		{
			"buffer":0,
			"byteLength":864,
			"byteOffset":1284,
			"target":34962
		},
		{
			"buffer":0,
			"byteLength":864,
			"byteOffset":2148,
			"target":34962
		},
		{
			"buffer":0,
			"byteLength":576,
			"byteOffset":3012,
			"target":34962
		},
		{
			"buffer":0,
			"byteLength":264,
			"byteOffset":3588,
			"target":34963
		},
		{
			"buffer":0,
			"byteLength":1608,
			"byteOffset":3852,
			"target":34962
		},
		{
			"buffer":0,
			"byteLength":1608,
			"byteOffset":5460,
			"target":34962
		},
		{
			"buffer":0,
			"byteLength":1072,
			"byteOffset":7068,
			"target":34962
		},
		{
			"buffer":0,
			"byteLength":720,
			"byteOffset":8140,
			"target":34963
		},
		{
			"buffer":0,
			"byteLength":576,
			"byteOffset":8860,
			"target":34962
		},
		{
			"buffer":0,
			"byteLength":576,
			"byteOffset":9436,
			"target":34962
		},
		{
			"buffer":0,
			"byteLength":384,
			"byteOffset":10012,
			"target":34962
		},
		{
			"buffer":0,
			"byteLength":144,
			"byteOffset":10396,
			"target":34963
		},
		{
			"buffer":0,
			"byteLength":1008,
			"byteOffset":10540,
			"target":34962
		},
		{
			"buffer":0,
			"byteLength":1008,
			"byteOffset":11548,
			"target":34962
		},
		{
			"buffer":0,
			"byteLength":672,
			"byteOffset":12556,
			"target":34962
		},
		{
			"buffer":0,
			"byteLength":300,
			"byteOffset":13228,
			"target":34963
		},
		{
			"buffer":0,
			"byteLength":120,
			"byteOffset":13528,
			"target":34962
		},
		{
			"buffer":0,
			"byteLength":120,
			"byteOffset":13648,
			"target":34962
		},
		{
			"buffer":0,
			"byteLength":80,
			"byteOffset":13768,
			"target":34962
		},
		{
			"buffer":0,
			"byteLength":48,
			"byteOffset":13848,
			"target":34963
		},
		{
			"buffer":0,
			"byteLength":3180,
			"byteOffset":13896,
			"target":34962
		},
		{
			"buffer":0,
			"byteLength":3180,
			"byteOffset":17076,
			"target":34962
		},
		{
			"buffer":0,
			"byteLength":2120,
			"byteOffset":20256,
			"target":34962
		},
		{
			"buffer":0,
			"byteLength":1020,
			"byteOffset":22376,
			"target":34963
		},
		{
			"buffer":0,
			"byteLength":144,
			"byteOffset":23396,
			"target":34962
		},
		{
			"buffer":0,
			"byteLength":144,
			"byteOffset":23540,
			"target":34962
		},
		{
			"buffer":0,
			"byteLength":96,
			"byteOffset":23684,
			"target":34962
		},
		{
			"buffer":0,
			"byteLength":48,
			"byteOffset":23780,
			"target":34963
		}
	],
	"buffers":[
		{
			"byteLength":23828,
			"uri":"data:application/octet-stream;base64,"
		}
	]
}
