{
	"asset":{
		"generator":"Khronos glTF Blender I/O v3.6.28",
		"version":"2.0"
	},
	"scene":0,
	"scenes":[
		{
			"name":"Scene",
			"nodes":[
				0,
				1,
				2,
				3,
				4,
				5,
				6,
				7,
				8,
				9
			]
		}
	],
	"nodes":[
		{
			"mesh":0,
			"name":"Room_Base_Frame_6x6"
		},
		{
			"mesh":1,
			"name":"Room_Ceiling_6x6"
		},
		{
			"mesh":2,
			"name":"Room_Ceiling_Edge"
		},
		{
			"mesh":3,
			"name":"Room_Base_Frame_Inside"
		},
		{
			"mesh":4,
			"name":"Utility_Floor_Edge"
		},
		{
			"mesh":5,
			"name":"Utility_Floor_Middle"
		},
		{
			"mesh":6,
			"name":"Utility_Floor_Edge_Light"
		},
		{
			"mesh":7,
			"name":"Room_Ceiling_Side_Panels_6x6.001"
		},
		{
			"mesh":8,
			"name":"Room_Ceiling_Panel_Lining_6x6.001"
		},
		{
			"mesh":9,
			"name":"Room_Ceiling_Middle_Panel_6x6.001"
		}
	],
	"meshes":[
		{
			"name":"Cube.009",
			"primitives":[
				{
					"attributes":{
						"POSITION":0,
						"NORMAL":1,
						"TEXCOORD_0":2
					},
					"indices":3
				}
			]
		},
		{
			"name":"Cube.038",
			"primitives":[
				{
					"attributes":{
						"POSITION":4,
						"NORMAL":5,
						"TEXCOORD_0":6
					},
					"indices":7
				}
			]
		},
		{
			"name":"Cube.010",
			"primitives":[
				{
					"attributes":{
						"POSITION":8,
						"NORMAL":9,
						"TEXCOORD_0":10
					},
					"indices":11
				}
			]
		},
		{
			"name":"Cube.005",
			"primitives":[
				{
					"attributes":{
						"POSITION":12,
						"NORMAL":13,
						"TEXCOORD_0":14
					},
					"indices":15
				}
			]
		},
		{
			"name":"Plane.002",
			"primitives":[
				{
					"attributes":{
						"POSITION":16,
						"NORMAL":17,
						"TEXCOORD_0":18
					},
					"indices":19
				}
			]
		},
		{
			"name":"Plane.001",
			"primitives":[
				{
					"attributes":{
						"POSITION":20,
						"NORMAL":21,
						"TEXCOORD_0":22
					},
					"indices":23
				}
			]
		},
		{
			"name":"Plane.003",
			"primitives":[
				{
					"attributes":{
						"POSITION":24,
						"NORMAL":25,
						"TEXCOORD_0":26
					},
					"indices":27
				}
			]
		},
		{
			"name":"Cube.004",
			"primitives":[
				{
					"attributes":{
						"POSITION":28,
						"NORMAL":29,
						"TEXCOORD_0":30
					},
					"indices":31
				}
			]
		},
		{
			"name":"Cube.003",
			"primitives":[
				{
					"attributes":{
						"POSITION":32,
						"NORMAL":33,
						"TEXCOORD_0":34
					},
					"indices":35
				}
			]
		},
		{
			"name":"Cube.002",
			"primitives":[
				{
					"attributes":{
						"POSITION":36,
						"NORMAL":37,
						"TEXCOORD_0":38
					},
					"indices":39
				}
			]
		}
	],
	"accessors":[
		{
			"bufferView":0,
			"componentType":5126,
			"count":94,
			"max":[
				4,
				6.25,
				4
			],
			"min":[
				-4,
				-0.20000000298023224,
				-4
			],
			"type":"VEC3"
		},
		{
			"bufferView":1,
			"componentType":5126,
			"count":94,
			"type":"VEC3"
		},
		{
			"bufferView":2,
			"componentType":5126,
			"count":94,
			"type":"VEC2"
		},
		{
			"bufferView":3,
			"componentType":5123,
			"count":168,
			"type":"SCALAR"
		},
		{
			"bufferView":4,
			"componentType":5126,
			"count":52,
			"max":[
				4,
				6,
				4
			],
			"min":[
				-4,
				5.800000190734863,
				-4
			],
			"type":"VEC3"
		},
		{
			"bufferView":5,
			"componentType":5126,
			"count":52,
			"type":"VEC3"
		},
		{
			"bufferView":6,
			"componentType":5126,
			"count":52,
			"type":"VEC2"
		},
		{
			"bufferView":7,
			"componentType":5123,
			"count":84,
			"type":"SCALAR"
		},
		{
			"bufferView":8,
			"componentType":5126,
			"count":20,
			"max":[
				3.5999999046325684,
				5.900000095367432,
				3.5999999046325684
			],
			"min":[
				-3.5999999046325684,
				5.800000190734863,
				-3.5999999046325684
			],
			"type":"VEC3"
		},
		{
			"bufferView":9,
			"componentType":5126,
			"count":20,
			"type":"VEC3"
		},
		{
			"bufferView":10,
			"componentType":5126,
			"count":20,
			"type":"VEC2"
		},
		{
			"bufferView":11,
			"componentType":5123,
			"count":36,
			"type":"SCALAR"
		},
		{
			"bufferView":12,
			"componentType":5126,
			"count":52,
			"max":[
				4,
				6,
				4
			],
			"min":[
				-4,
				-0.20000000298023224,
				-4
			],
			"type":"VEC3"
		},
		{
			"bufferView":13,
			"componentType":5126,
			"count":52,
			"type":"VEC3"
		},
		{
			"bufferView":14,
			"componentType":5126,
			"count":52,
			"type":"VEC2"
		},
		{
			"bufferView":15,
			"componentType":5123,
			"count":84,
			"type":"SCALAR"
		},
		{
			"bufferView":16,
			"componentType":5126,
			"count":256,
			"max":[
				4.000766754150391,
				7.677078247070312e-05,
				4.000766754150391
			],
			"min":[
				-4.000766754150391,
				-0.20000000298023224,
				-4.000766754150391
			],
			"type":"VEC3"
		},
		{
			"bufferView":17,
			"componentType":5126,
			"count":256,
			"type":"VEC3"
		},
		{
			"bufferView":18,
			"componentType":5126,
			"count":256,
			"type":"VEC2"
		},
		{
			"bufferView":19,
			"componentType":5123,
			"count":504,
			"type":"SCALAR"
		},
		{
			"bufferView":20,
			"componentType":5126,
			"count":15,
			"max":[
				3.086785078048706,
				7.674098014831543e-05,
				3.086785078048706
			],
			"min":[
				-3.086785078048706,
				7.674098014831543e-05,
				-3.095762014389038
			],
			"type":"VEC3"
		},
		{
			"bufferView":21,
			"componentType":5126,
			"count":15,
			"type":"VEC3"
		},
		{
			"bufferView":22,
			"componentType":5126,
			"count":15,
			"type":"VEC2"
		},
		{
			"bufferView":23,
			"componentType":5123,
			"count":36,
			"type":"SCALAR"
		},
		{
			"bufferView":24,
			"componentType":5126,
			"count":16,
			"max":[
				3.2006139755249023,
				-0.01992708444595337,
				3.2006139755249023
			],
			"min":[
				-3.2006139755249023,
				-0.01992708444595337,
				-3.2095909118652344
			],
			"type":"VEC3"
		},
		{
			"bufferView":25,
			"componentType":5126,
			"count":16,
			"type":"VEC3"
		},
		{
			"bufferView":26,
			"componentType":5126,
			"count":16,
			"type":"VEC2"
		},
		{
			"bufferView":27,
			"componentType":5123,
			"count":24,
			"type":"SCALAR"
		},
		{
			"bufferView":28,
			"componentType":5126,
			"count":112,
			"max":[
				3.000000238418579,
				5.849999904632568,
				3
			],
			"min":[
				-3.000000238418579,
				5.849999904632568,
				-3.000000238418579
			],
			"type":"VEC3"
		},
		{
			"bufferView":29,
			"componentType":5126,
			"count":112,
			"type":"VEC3"
		},
		{
			"bufferView":30,
			"componentType":5126,
			"count":112,
			"type":"VEC2"
		},
		{
			"bufferView":31,
			"componentType":5123,
			"count":180,
			"type":"SCALAR"
		},
		{
			"bufferView":32,
			"componentType":5126,
			"count":560,
			"max":[
				3.000000238418579,
				5.900000095367432,
				3
			],
			"min":[
				-3.000000238418579,
				5.849999904632568,
				-3.000000238418579
			],
			"type":"VEC3"
		},
		{
			"bufferView":33,
			"componentType":5126,
			"count":560,
			"type":"VEC3"
		},
		{
			"bufferView":34,
			"componentType":5126,
			"count":560,
			"type":"VEC2"
		},
		{
			"bufferView":35,
			"componentType":5123,
			"count":1068,
			"type":"SCALAR"
		},
		{
			"bufferView":36,
			"componentType":5126,
			"count":36,
			"max":[
				0.6792893409729004,
				5.900000095367432,
				1.4500000476837158
			],
			"min":[
				-0.6792893409729004,
				5.849999904632568,
				-1.4500000476837158
			],
			"type":"VEC3"
		},
		{
			"bufferView":37,
			"componentType":5126,
			"count":36,
			"type":"VEC3"
		},
		{
			"bufferView":38,
			"componentType":5126,
			"count":36,
			"type":"VEC2"
		},
		{
			"bufferView":39,
			"componentType":5123,
			"count":66,
			"type":"SCALAR"
		}
	],
	"bufferViews":[
		{
			"buffer":0,
			"byteLength":1128,
			"byteOffset":0,
			"target":34962
		},
		{
			"buffer":0,
			"byteLength":1128,
			"byteOffset":1128,
			"target":34962
		},
		{
			"buffer":0,
			"byteLength":752,
			"byteOffset":2256,
			"target":34962
		},
		{
			"buffer":0,
			"byteLength":336,
			"byteOffset":3008,
			"target":34963
		},
		{
			"buffer":0,
			"byteLength":624,
			"byteOffset":3344,
			"target":34962
		},
		{
			"buffer":0,
			"byteLength":624,
			"byteOffset":3968,
			"target":34962
		},
		{
			"buffer":0,
			"byteLength":416,
			"byteOffset":4592,
			"target":34962
		},
		{
			"buffer":0,
			"byteLength":168,
			"byteOffset":5008,
			"target":34963
		},
		{
			"buffer":0,
			"byteLength":240,
			"byteOffset":5176,
			"target":34962
		},
		{
			"buffer":0,
			"byteLength":240,
			"byteOffset":5416,
			"target":34962
		},
		{
			"buffer":0,
			"byteLength":160,
			"byteOffset":5656,
			"target":34962
		},
		{
			"buffer":0,
			"byteLength":72,
			"byteOffset":5816,
			"target":34963
		},
		{
			"buffer":0,
			"byteLength":624,
			"byteOffset":5888,
			"target":34962
		},
		{
			"buffer":0,
			"byteLength":624,
			"byteOffset":6512,
			"target":34962
		},
		{
			"buffer":0,
			"byteLength":416,
			"byteOffset":7136,
			"target":34962
		},
		{
			"buffer":0,
			"byteLength":168,
			"byteOffset":7552,
			"target":34963
		},
		{
			"buffer":0,
			"byteLength":3072,
			"byteOffset":7720,
			"target":34962
		},
		{
			"buffer":0,
			"byteLength":3072,
			"byteOffset":10792,
			"target":34962
		},
		{
			"buffer":0,
			"byteLength":2048,
			"byteOffset":13864,
			"target":34962
		},
		{
			"buffer":0,
			"byteLength":1008,
			"byteOffset":15912,
			"target":34963
		},
		{
			"buffer":0,
			"byteLength":180,
			"byteOffset":16920,
			"target":34962
		},
		{
			"buffer":0,
			"byteLength":180,
			"byteOffset":17100,
			"target":34962
		},
		{
			"buffer":0,
			"byteLength":120,
			"byteOffset":17280,
			"target":34962
		},
		{
			"buffer":0,
			"byteLength":72,
			"byteOffset":17400,
			"target":34963
		},
		{
			"buffer":0,
			"byteLength":192,
			"byteOffset":17472,
			"target":34962
		},
		{
			"buffer":0,
			"byteLength":192,
			"byteOffset":17664,
			"target":34962
		},
		{
			"buffer":0,
			"byteLength":128,
			"byteOffset":17856,
			"target":34962
		},
		{
			"buffer":0,
			"byteLength":48,
			"byteOffset":17984,
			"target":34963
		},
		{
			"buffer":0,
			"byteLength":1344,
			"byteOffset":18032,
			"target":34962
		},
		{
			"buffer":0,
			"byteLength":1344,
			"byteOffset":19376,
			"target":34962
		},
		{
			"buffer":0,
			"byteLength":896,
			"byteOffset":20720,
			"target":34962
		},
		{
			"buffer":0,
			"byteLength":360,
			"byteOffset":21616,
			"target":34963
		},
		{
			"buffer":0,
			"byteLength":6720,
			"byteOffset":21976,
			"target":34962
		},
		{
			"buffer":0,
			"byteLength":6720,
			"byteOffset":28696,
			"target":34962
		},
		{
			"buffer":0,
			"byteLength":4480,
			"byteOffset":35416,
			"target":34962
		},
		{
			"buffer":0,
			"byteLength":2136,
			"byteOffset":39896,
			"target":34963
		},
		{
			"buffer":0,
			"byteLength":432,
			"byteOffset":42032,
			"target":34962
		},
		{
			"buffer":0,
			"byteLength":432,
			"byteOffset":42464,
			"target":34962
		},
		{
			"buffer":0,
			"byteLength":288,
			"byteOffset":42896,
			"target":34962
		},
		{
			"buffer":0,
			"byteLength":132,
			"byteOffset":43184,
			"target":34963
		}
	],
	"buffers":[
		{
			"byteLength":43316,
			"uri":"data:application/octet-stream;base64,"
		}
	]
}
