{
	"asset":{
		"generator":"Khronos glTF Blender I/O v3.6.28",
		"version":"2.0"
	},
	"scene":0,
	"scenes":[
		{
			"name":"Scene",
			"nodes":[
				0,
				1,
				2,
				3,
				4,
				5,
				6,
				7,
				8,
				9,
				10,
				11,
				12,
				13,
				14,
				15,
				16,
				17
			]
		}
	],
	"nodes":[
		{
			"mesh":0,
			"name":"Workshop_Frame_Inside"
		},
		{
			"mesh":1,
			"name":"Workshop_Frame_Divider_Inside"
		},
		{
			"mesh":2,
			"name":"Workshop_Frame_Divider"
		},
		{
			"mesh":3,
			"name":"Workshop_Frame"
		},
		{
			"mesh":4,
			"name":"Workshop_Floor_Middle"
		},
		{
			"mesh":5,
			"name":"Workshop_Floor_Lights"
		},
		{
			"mesh":6,
			"name":"Workshop_Ceiling_Lights_Panel"
		},
		{
			"mesh":7,
			"name":"Workshop_Ceiling_Lights"
		},
		{
			"mesh":8,
			"name":"Workshop_Ceiling_Glass"
		},
		{
			"mesh":9,
			"name":"Workshop_Ceiling_Edge_Panel"
		},
		{
			"mesh":10,
			"name":"Workshop_Frame_Office_Divider"
		},
		{
			"mesh":11,
			"name":"Workshop_Office_Frame"
		},
		{
			"mesh":12,
			"name":"Workshop_Ceiling_Frame"
		},
		{
			"mesh":13,
			"name":"Workshop_Ceiling_Glass_Office",
			"rotation":[
				0,
				-0.7071068286895752,
				0,
				0.7071067094802856
			]
		},
		{
			"mesh":14,
			"name":"Workshop_Ceiling",
			"rotation":[
				0,
				-0.7071067094802856,
				0,
				0.7071068286895752
			]
		},
		{
			"mesh":15,
			"name":"Workshop_Ceiling_Lights_Panel.001"
		},
		{
			"mesh":16,
			"name":"Workshop_Ceiling.001",
			"rotation":[
				0,
				-0.7071067094802856,
				0,
				0.7071068286895752
			]
		},
		{
			"mesh":17,
			"name":"Door_Frame",
			"rotation":[
				0,
				0.7071067094802856,
				0,
				0.7071068286895752
			]
		}
	],
	"meshes":[
		{
			"name":"Cube.019",
			"primitives":[
				{
					"attributes":{
						"POSITION":0,
						"NORMAL":1,
						"TEXCOORD_0":2
					},
					"indices":3
				}
			]
		},
		{
			"name":"Cube.018",
			"primitives":[
				{
					"attributes":{
						"POSITION":4,
						"NORMAL":5,
						"TEXCOORD_0":6
					},
					"indices":7
				}
			]
		},
		{
			"name":"Cube.020",
			"primitives":[
				{
					"attributes":{
						"POSITION":8,
						"NORMAL":9,
						"TEXCOORD_0":10
					},
					"indices":11
				}
			]
		},
		{
			"name":"Cube.024",
			"primitives":[
				{
					"attributes":{
						"POSITION":12,
						"NORMAL":13,
						"TEXCOORD_0":14
					},
					"indices":15
				}
			]
		},
		{
			"name":"Floor_Middle.002",
			"primitives":[
				{
					"attributes":{
						"POSITION":16,
						"NORMAL":17,
						"TEXCOORD_0":18
					},
					"indices":19
				}
			]
		},
		{
			"name":"Cube.023",
			"primitives":[
				{
					"attributes":{
						"POSITION":20,
						"NORMAL":21,
						"TEXCOORD_0":22
					},
					"indices":23
				}
			]
		},
		{
			"name":"Cube.025",
			"primitives":[
				{
					"attributes":{
						"POSITION":24,
						"NORMAL":25,
						"TEXCOORD_0":26
					},
					"indices":27
				}
			]
		},
		{
			"name":"Cube.016",
			"primitives":[
				{
					"attributes":{
						"POSITION":28,
						"NORMAL":29,
						"TEXCOORD_0":30
					},
					"indices":31
				}
			]
		},
		{
			"name":"Cube.017",
			"primitives":[
				{
					"attributes":{
						"POSITION":32,
						"NORMAL":33,
						"TEXCOORD_0":34
					},
					"indices":35
				}
			]
		},
		{
			"name":"Cube.028",
			"primitives":[
				{
					"attributes":{
						"POSITION":36,
						"NORMAL":37,
						"TEXCOORD_0":38
					},
					"indices":39
				}
			]
		},
		{
			"name":"Cube.030",
			"primitives":[
				{
					"attributes":{
						"POSITION":40,
						"NORMAL":41,
						"TEXCOORD_0":42
					},
					"indices":43
				},
				{
					"attributes":{
						"POSITION":44,
						"NORMAL":45,
						"TEXCOORD_0":46
					},
					"indices":47
				}
			]
		},
		{
			"name":"Cube.031",
			"primitives":[
				{
					"attributes":{
						"POSITION":48,
						"NORMAL":49,
						"TEXCOORD_0":50
					},
					"indices":51
				}
			]
		},
		{
			"name":"Cube.034",
			"primitives":[
				{
					"attributes":{
						"POSITION":52,
						"NORMAL":53,
						"TEXCOORD_0":54
					},
					"indices":55
				}
			]
		},
		{
			"name":"Cube.039",
			"primitives":[
				{
					"attributes":{
						"POSITION":56,
						"NORMAL":57,
						"TEXCOORD_0":58
					},
					"indices":59
				}
			]
		},
		{
			"name":"Cube.038",
			"primitives":[
				{
					"attributes":{
						"POSITION":60,
						"NORMAL":61,
						"TEXCOORD_0":62
					},
					"indices":63
				},
				{
					"attributes":{
						"POSITION":64,
						"NORMAL":65,
						"TEXCOORD_0":66
					},
					"indices":67
				}
			]
		},
		{
			"name":"Cube.048",
			"primitives":[
				{
					"attributes":{
						"POSITION":68,
						"NORMAL":69,
						"TEXCOORD_0":70
					},
					"indices":71
				}
			]
		},
		{
			"name":"Cube.049",
			"primitives":[
				{
					"attributes":{
						"POSITION":72,
						"NORMAL":73,
						"TEXCOORD_0":74
					},
					"indices":75
				},
				{
					"attributes":{
						"POSITION":76,
						"NORMAL":77,
						"TEXCOORD_0":78
					},
					"indices":79
				}
			]
		},
		{
			"name":"Cube.046",
			"primitives":[
				{
					"attributes":{
						"POSITION":80,
						"NORMAL":81,
						"TEXCOORD_0":82
					},
					"indices":83
				}
			]
		}
	],
	"accessors":[
		{
			"bufferView":0,
			"componentType":5126,
			"count":48,
			"max":[
				9,
				6,
				9
			],
			"min":[
				-9,
				-0.20000000298023224,
				-9
			],
			"type":"VEC3"
		},
		{
			"bufferView":1,
			"componentType":5126,
			"count":48,
			"type":"VEC3"
		},
		{
			"bufferView":2,
			"componentType":5126,
			"count":48,
			"type":"VEC2"
		},
		{
			"bufferView":3,
			"componentType":5123,
			"count":72,
			"type":"SCALAR"
		},
		{
			"bufferView":4,
			"componentType":5126,
			"count":24,
			"max":[
				2.0000059604644775,
				6,
				9.000006675720215
			],
			"min":[
				-1.9999940395355225,
				-0.20000004768371582,
				-9.000006675720215
			],
			"type":"VEC3"
		},
		{
			"bufferView":5,
			"componentType":5126,
			"count":24,
			"type":"VEC3"
		},
		{
			"bufferView":6,
			"componentType":5126,
			"count":24,
			"type":"VEC2"
		},
		{
			"bufferView":7,
			"componentType":5123,
			"count":36,
			"type":"SCALAR"
		},
		{
			"bufferView":8,
			"componentType":5126,
			"count":24,
			"max":[
				2.0000059604644775,
				6,
				9.000006675720215
			],
			"min":[
				-1.9999940395355225,
				-0.20000004768371582,
				-9.000006675720215
			],
			"type":"VEC3"
		},
		{
			"bufferView":9,
			"componentType":5126,
			"count":24,
			"type":"VEC3"
		},
		{
			"bufferView":10,
			"componentType":5126,
			"count":24,
			"type":"VEC2"
		},
		{
			"bufferView":11,
			"componentType":5123,
			"count":36,
			"type":"SCALAR"
		},
		{
			"bufferView":12,
			"componentType":5126,
			"count":100,
			"max":[
				9,
				6.199999809265137,
				9
			],
			"min":[
				-9,
				-0.20000000298023224,
				-9
			],
			"type":"VEC3"
		},
		{
			"bufferView":13,
			"componentType":5126,
			"count":100,
			"type":"VEC3"
		},
		{
			"bufferView":14,
			"componentType":5126,
			"count":100,
			"type":"VEC2"
		},
		{
			"bufferView":15,
			"componentType":5123,
			"count":192,
			"type":"SCALAR"
		},
		{
			"bufferView":16,
			"componentType":5126,
			"count":257,
			"max":[
				9,
				0,
				9
			],
			"min":[
				-9,
				-0.20000000298023224,
				-9
			],
			"type":"VEC3"
		},
		{
			"bufferView":17,
			"componentType":5126,
			"count":257,
			"type":"VEC3"
		},
		{
			"bufferView":18,
			"componentType":5126,
			"count":257,
			"type":"VEC2"
		},
		{
			"bufferView":19,
			"componentType":5123,
			"count":606,
			"type":"SCALAR"
		},
		{
			"bufferView":20,
			"componentType":5126,
			"count":16,
			"max":[
				8.600000381469727,
				-0.05000000074505806,
				8.600000381469727
			],
			"min":[
				-8.600000381469727,
				-0.05000000074505806,
				-8.600000381469727
			],
			"type":"VEC3"
		},
		{
			"bufferView":21,
			"componentType":5126,
			"count":16,
			"type":"VEC3"
		},
		{
			"bufferView":22,
			"componentType":5126,
			"count":16,
			"type":"VEC2"
		},
		{
			"bufferView":23,
			"componentType":5123,
			"count":24,
			"type":"SCALAR"
		},
		{
			"bufferView":24,
			"componentType":5126,
			"count":38,
			"max":[
				8,
				6,
				8
			],
			"min":[
				-8,
				5.900000095367432,
				1.5
			],
			"type":"VEC3"
		},
		{
			"bufferView":25,
			"componentType":5126,
			"count":38,
			"type":"VEC3"
		},
		{
			"bufferView":26,
			"componentType":5126,
			"count":38,
			"type":"VEC2"
		},
		{
			"bufferView":27,
			"componentType":5123,
			"count":54,
			"type":"SCALAR"
		},
		{
			"bufferView":28,
			"componentType":5126,
			"count":6,
			"max":[
				0.09999998658895493,
				5.900000095367432,
				8
			],
			"min":[
				-0.09999998658895493,
				5.900000095367432,
				1.9999996423721313
			],
			"type":"VEC3"
		},
		{
			"bufferView":29,
			"componentType":5126,
			"count":6,
			"type":"VEC3"
		},
		{
			"bufferView":30,
			"componentType":5126,
			"count":6,
			"type":"VEC2"
		},
		{
			"bufferView":31,
			"componentType":5123,
			"count":12,
			"type":"SCALAR"
		},
		{
			"bufferView":32,
			"componentType":5126,
			"count":20,
			"max":[
				7.300000190734863,
				6.299999713897705,
				7.300000190734863
			],
			"min":[
				-7.300000190734863,
				6.199999809265137,
				2.700000047683716
			],
			"type":"VEC3"
		},
		{
			"bufferView":33,
			"componentType":5126,
			"count":20,
			"type":"VEC3"
		},
		{
			"bufferView":34,
			"componentType":5126,
			"count":20,
			"type":"VEC2"
		},
		{
			"bufferView":35,
			"componentType":5123,
			"count":36,
			"type":"SCALAR"
		},
		{
			"bufferView":36,
			"componentType":5126,
			"count":84,
			"max":[
				8.600000381469727,
				6,
				8.600000381469727
			],
			"min":[
				-8.600000381469727,
				5.900000095367432,
				1
			],
			"type":"VEC3"
		},
		{
			"bufferView":37,
			"componentType":5126,
			"count":84,
			"type":"VEC3"
		},
		{
			"bufferView":38,
			"componentType":5126,
			"count":84,
			"type":"VEC2"
		},
		{
			"bufferView":39,
			"componentType":5123,
			"count":138,
			"type":"SCALAR"
		},
		{
			"bufferView":40,
			"componentType":5126,
			"count":68,
			"max":[
				0.9999998211860657,
				6,
				1.9999933242797852
			],
			"min":[
				-8.999994277954102,
				-0.20000004768371582,
				-8.600000381469727
			],
			"type":"VEC3"
		},
		{
			"bufferView":41,
			"componentType":5126,
			"count":68,
			"type":"VEC3"
		},
		{
			"bufferView":42,
			"componentType":5126,
			"count":68,
			"type":"VEC2"
		},
		{
			"bufferView":43,
			"componentType":5123,
			"count":126,
			"type":"SCALAR"
		},
		{
			"bufferView":44,
			"componentType":5126,
			"count":28,
			"max":[
				0.9999994039535522,
				3,
				-2.200000286102295
			],
			"min":[
				0.6000105142593384,
				-0.20000004768371582,
				-4.600000381469727
			],
			"type":"VEC3"
		},
		{
			"bufferView":45,
			"componentType":5126,
			"count":28,
			"type":"VEC3"
		},
		{
			"bufferView":46,
			"componentType":5126,
			"count":28,
			"type":"VEC2"
		},
		{
			"bufferView":47,
			"componentType":5123,
			"count":42,
			"type":"SCALAR"
		},
		{
			"bufferView":48,
			"componentType":5126,
			"count":24,
			"max":[
				0.9999998211860657,
				6,
				2
			],
			"min":[
				-2.5331974029541016e-07,
				-0.20000004768371582,
				1
			],
			"type":"VEC3"
		},
		{
			"bufferView":49,
			"componentType":5126,
			"count":24,
			"type":"VEC3"
		},
		{
			"bufferView":50,
			"componentType":5126,
			"count":24,
			"type":"VEC2"
		},
		{
			"bufferView":51,
			"componentType":5123,
			"count":36,
			"type":"SCALAR"
		},
		{
			"bufferView":52,
			"componentType":5126,
			"count":15,
			"max":[
				7.5,
				6.199999809265137,
				7.500000476837158
			],
			"min":[
				-7.5,
				6.199999809265137,
				-7.5
			],
			"type":"VEC3"
		},
		{
			"bufferView":53,
			"componentType":5126,
			"count":15,
			"type":"VEC3"
		},
		{
			"bufferView":54,
			"componentType":5126,
			"count":15,
			"type":"VEC2"
		},
		{
			"bufferView":55,
			"componentType":5123,
			"count":33,
			"type":"SCALAR"
		},
		{
			"bufferView":56,
			"componentType":5126,
			"count":10,
			"max":[
				0.9000000953674316,
				6.299999713897705,
				7.299999713897705
			],
			"min":[
				-7.300000190734863,
				6.199999809265137,
				0.09999983012676239
			],
			"type":"VEC3"
		},
		{
			"bufferView":57,
			"componentType":5126,
			"count":10,
			"type":"VEC3"
		},
		{
			"bufferView":58,
			"componentType":5126,
			"count":10,
			"type":"VEC2"
		},
		{
			"bufferView":59,
			"componentType":5123,
			"count":18,
			"type":"SCALAR"
		},
		{
			"bufferView":60,
			"componentType":5126,
			"count":57,
			"max":[
				8,
				6.099999904632568,
				-0.9792888164520264
			],
			"min":[
				-9,
				6,
				-9
			],
			"type":"VEC3"
		},
		{
			"bufferView":61,
			"componentType":5126,
			"count":57,
			"type":"VEC3"
		},
		{
			"bufferView":62,
			"componentType":5126,
			"count":57,
			"type":"VEC2"
		},
		{
			"bufferView":63,
			"componentType":5123,
			"count":99,
			"type":"SCALAR"
		},
		{
			"bufferView":64,
			"componentType":5126,
			"count":117,
			"max":[
				8.99276065826416,
				6.299999713897705,
				9.001301765441895
			],
			"min":[
				-9.000000953674316,
				6,
				-7.999999523162842
			],
			"type":"VEC3"
		},
		{
			"bufferView":65,
			"componentType":5126,
			"count":117,
			"type":"VEC3"
		},
		{
			"bufferView":66,
			"componentType":5126,
			"count":117,
			"type":"VEC2"
		},
		{
			"bufferView":67,
			"componentType":5123,
			"count":246,
			"type":"SCALAR"
		},
		{
			"bufferView":68,
			"componentType":5126,
			"count":28,
			"max":[
				8,
				6,
				2
			],
			"min":[
				0,
				5.900000095367432,
				1
			],
			"type":"VEC3"
		},
		{
			"bufferView":69,
			"componentType":5126,
			"count":28,
			"type":"VEC3"
		},
		{
			"bufferView":70,
			"componentType":5126,
			"count":28,
			"type":"VEC2"
		},
		{
			"bufferView":71,
			"componentType":5123,
			"count":48,
			"type":"SCALAR"
		},
		{
			"bufferView":72,
			"componentType":5126,
			"count":10,
			"max":[
				7.5,
				6.099999904632568,
				0.2000005692243576
			],
			"min":[
				2.5,
				6.099999904632568,
				-0.2000005692243576
			],
			"type":"VEC3"
		},
		{
			"bufferView":73,
			"componentType":5126,
			"count":10,
			"type":"VEC3"
		},
		{
			"bufferView":74,
			"componentType":5126,
			"count":10,
			"type":"VEC2"
		},
		{
			"bufferView":75,
			"componentType":5123,
			"count":24,
			"type":"SCALAR"
		},
		{
			"bufferView":76,
			"componentType":5126,
			"count":210,
			"max":[
				8.59276008605957,
				6.299999713897705,
				8.601302146911621
			],
			"min":[
				1.9999994039535522,
				6,
				-8.601302146911621
			],
			"type":"VEC3"
		},
		{
			"bufferView":77,
			"componentType":5126,
			"count":210,
			"type":"VEC3"
		},
		{
			"bufferView":78,
			"componentType":5126,
			"count":210,
			"type":"VEC2"
		},
		{
			"bufferView":79,
			"componentType":5123,
			"count":390,
			"type":"SCALAR"
		},
		{
			"bufferView":80,
			"componentType":5126,
			"count":60,
			"max":[
				4.599999904632568,
				3,
				1.1999999284744263
			],
			"min":[
				2.200000047683716,
				-0.20000000298023224,
				0.3999996483325958
			],
			"type":"VEC3"
		},
		{
			"bufferView":81,
			"componentType":5126,
			"count":60,
			"type":"VEC3"
		},
		{
			"bufferView":82,
			"componentType":5126,
			"count":60,
			"type":"VEC2"
		},
		{
			"bufferView":83,
			"componentType":5123,
			"count":108,
			"type":"SCALAR"
		}
	],
	"bufferViews":[
		{
			"buffer":0,
			"byteLength":576,
			"byteOffset":0,
			"target":34962
		},
		{
			"buffer":0,
			"byteLength":576,
			"byteOffset":576,
			"target":34962
		},
		{
			"buffer":0,
			"byteLength":384,
			"byteOffset":1152,
			"target":34962
		},
		{
			"buffer":0,
			"byteLength":144,
			"byteOffset":1536,
			"target":34963
		},
		{
			"buffer":0,
			"byteLength":288,
			"byteOffset":1680,
			"target":34962
		},
		{
			"buffer":0,
			"byteLength":288,
			"byteOffset":1968,
			"target":34962
		},
		{
			"buffer":0,
			"byteLength":192,
			"byteOffset":2256,
			"target":34962
		},
		{
			"buffer":0,
			"byteLength":72,
			"byteOffset":2448,
			"target":34963
		},
		{
			"buffer":0,
			"byteLength":288,
			"byteOffset":2520,
			"target":34962
		},
		{
			"buffer":0,
			"byteLength":288,
			"byteOffset":2808,
			"target":34962
		},
		{
			"buffer":0,
			"byteLength":192,
			"byteOffset":3096,
			"target":34962
		},
		{
			"buffer":0,
			"byteLength":72,
			"byteOffset":3288,
			"target":34963
		},
		{
			"buffer":0,
			"byteLength":1200,
			"byteOffset":3360,
			"target":34962
		},
		{
			"buffer":0,
			"byteLength":1200,
			"byteOffset":4560,
			"target":34962
		},
		{
			"buffer":0,
			"byteLength":800,
			"byteOffset":5760,
			"target":34962
		},
		{
			"buffer":0,
			"byteLength":384,
			"byteOffset":6560,
			"target":34963
		},
		{
			"buffer":0,
			"byteLength":3084,
			"byteOffset":6944,
			"target":34962
		},
		{
			"buffer":0,
			"byteLength":3084,
			"byteOffset":10028,
			"target":34962
		},
		{
			"buffer":0,
			"byteLength":2056,
			"byteOffset":13112,
			"target":34962
		},
		{
			"buffer":0,
			"byteLength":1212,
			"byteOffset":15168,
			"target":34963
		},
		{
			"buffer":0,
			"byteLength":192,
			"byteOffset":16380,
			"target":34962
		},
		{
			"buffer":0,
			"byteLength":192,
			"byteOffset":16572,
			"target":34962
		},
		{
			"buffer":0,
			"byteLength":128,
			"byteOffset":16764,
			"target":34962
		},
		{
			"buffer":0,
			"byteLength":48,
			"byteOffset":16892,
			"target":34963
		},
		{
			"buffer":0,
			"byteLength":456,
			"byteOffset":16940,
			"target":34962
		},
		{
			"buffer":0,
			"byteLength":456,
			"byteOffset":17396,
			"target":34962
		},
		{
			"buffer":0,
			"byteLength":304,
			"byteOffset":17852,
			"target":34962
		},
		{
			"buffer":0,
			"byteLength":108,
			"byteOffset":18156,
			"target":34963
		},
		{
			"buffer":0,
			"byteLength":72,
			"byteOffset":18264,
			"target":34962
		},
		{
			"buffer":0,
			"byteLength":72,
			"byteOffset":18336,
			"target":34962
		},
		{
			"buffer":0,
			"byteLength":48,
			"byteOffset":18408,
			"target":34962
		},
		{
			"buffer":0,
			"byteLength":24,
			"byteOffset":18456,
			"target":34963
		},
		{
			"buffer":0,
			"byteLength":240,
			"byteOffset":18480,
			"target":34962
		},
		{
			"buffer":0,
			"byteLength":240,
			"byteOffset":18720,
			"target":34962
		},
		{
			"buffer":0,
			"byteLength":160,
			"byteOffset":18960,
			"target":34962
		},
		{
			"buffer":0,
			"byteLength":72,
			"byteOffset":19120,
			"target":34963
		},
		{
			"buffer":0,
			"byteLength":1008,
			"byteOffset":19192,
			"target":34962
		},
		{
			"buffer":0,
			"byteLength":1008,
			"byteOffset":20200,
			"target":34962
		},
		{
			"buffer":0,
			"byteLength":672,
			"byteOffset":21208,
			"target":34962
		},
		{
			"buffer":0,
			"byteLength":276,
			"byteOffset":21880,
			"target":34963
		},
		{
			"buffer":0,
			"byteLength":816,
			"byteOffset":22156,
			"target":34962
		},
		{
			"buffer":0,
			"byteLength":816,
			"byteOffset":22972,
			"target":34962
		},
		{
			"buffer":0,
			"byteLength":544,
			"byteOffset":23788,
			"target":34962
		},
		{
			"buffer":0,
			"byteLength":252,
			"byteOffset":24332,
			"target":34963
		},
		{
			"buffer":0,
			"byteLength":336,
			"byteOffset":24584,
			"target":34962
		},
		{
			"buffer":0,
			"byteLength":336,
			"byteOffset":24920,
			"target":34962
		},
		{
			"buffer":0,
			"byteLength":224,
			"byteOffset":25256,
			"target":34962
		},
		{
			"buffer":0,
			"byteLength":84,
			"byteOffset":25480,
			"target":34963
		},
		{
			"buffer":0,
			"byteLength":288,
			"byteOffset":25564,
			"target":34962
		},
		{
			"buffer":0,
			"byteLength":288,
			"byteOffset":25852,
			"target":34962
		},
		{
			"buffer":0,
			"byteLength":192,
			"byteOffset":26140,
			"target":34962
		},
		{
			"buffer":0,
			"byteLength":72,
			"byteOffset":26332,
			"target":34963
		},
		{
			"buffer":0,
			"byteLength":180,
			"byteOffset":26404,
			"target":34962
		},
		{
			"buffer":0,
			"byteLength":180,
			"byteOffset":26584,
			"target":34962
		},
		{
			"buffer":0,
			"byteLength":120,
			"byteOffset":26764,
			"target":34962
		},
		{
			"buffer":0,
			"byteLength":66,
			"byteOffset":26884,
			"target":34963
		},
		{
			"buffer":0,
			"byteLength":120,
			"byteOffset":26952,
			"target":34962
		},
		{
			"buffer":0,
			"byteLength":120,
			"byteOffset":27072,
			"target":34962
		},
		{
			"buffer":0,
			"byteLength":80,
			"byteOffset":27192,
			"target":34962
		},
		{
			"buffer":0,
			"byteLength":36,
			"byteOffset":27272,
			"target":34963
		},
		{
			"buffer":0,
			"byteLength":684,
			"byteOffset":27308,
			"target":34962
		},
		{
			"buffer":0,
			"byteLength":684,
			"byteOffset":27992,
			"target":34962
		},
		{
			"buffer":0,
			"byteLength":456,
			"byteOffset":28676,
			"target":34962
		},
		{
			"buffer":0,
			"byteLength":198,
			"byteOffset":29132,
			"target":34963
		},
		{
			"buffer":0,
			"byteLength":1404,
			"byteOffset":29332,
			"target":34962
		},
		{
			"buffer":0,
			"byteLength":1404,
			"byteOffset":30736,
			"target":34962
		},
		{
			"buffer":0,
			"byteLength":936,
			"byteOffset":32140,
			"target":34962
		},
		{
			"buffer":0,
			"byteLength":492,
			"byteOffset":33076,
			"target":34963
		},
		{
			"buffer":0,
			"byteLength":336,
			"byteOffset":33568,
			"target":34962
		},
		{
			"buffer":0,
			"byteLength":336,
			"byteOffset":33904,
			"target":34962
		},
		{
			"buffer":0,
			"byteLength":224,
			"byteOffset":34240,
			"target":34962
		},
		{
			"buffer":0,
			"byteLength":96,
			"byteOffset":34464,
			"target":34963
		},
		{
			"buffer":0,
			"byteLength":120,
			"byteOffset":34560,
			"target":34962
		},
		{
			"buffer":0,
			"byteLength":120,
			"byteOffset":34680,
			"target":34962
		},
		{
			"buffer":0,
			"byteLength":80,
			"byteOffset":34800,
			"target":34962
		},
		{
			"buffer":0,
			"byteLength":48,
			"byteOffset":34880,
			"target":34963
		},
		{
			"buffer":0,
			"byteLength":2520,
			"byteOffset":34928,
			"target":34962
		},
		{
			"buffer":0,
			"byteLength":2520,
			"byteOffset":37448,
			"target":34962
		},
		{
			"buffer":0,
			"byteLength":1680,
			"byteOffset":39968,
			"target":34962
		},
		{
			"buffer":0,
			"byteLength":780,
			"byteOffset":41648,
			"target":34963
		},
		{
			"buffer":0,
			"byteLength":720,
			"byteOffset":42428,
			"target":34962
		},
		{
			"buffer":0,
			"byteLength":720,
			"byteOffset":43148,
			"target":34962
		},
		{
			"buffer":0,
			"byteLength":480,
			"byteOffset":43868,
			"target":34962
		},
		{
			"buffer":0,
			"byteLength":216,
			"byteOffset":44348,
			"target":34963
		}
	],
	"buffers":[
		{
			"byteLength":44564,
			"uri":"data:application/octet-stream;base64,"
		}
	]
}
