{
	"asset":{
		"generator":"Khronos glTF Blender I/O v3.6.28",
		"version":"2.0"
	},
	"scene":0,
	"scenes":[
		{
			"name":"Scene",
			"nodes":[
				0,
				1,
				2
			]
		}
	],
	"nodes":[
		{
			"mesh":0,
			"name":"Small_Interior_2"
		},
		{
			"mesh":1,
			"name":"Small_Wall_Exterior",
			"rotation":[
				0.7071068286895752,
				0,
				0,
				0.7071068286895752
			],
			"translation":[
				0,
				0,
				-2.799999952316284
			]
		},
		{
			"mesh":2,
			"name":"Small_Wall_Interior",
			"rotation":[
				0.7071068286895752,
				0,
				0,
				0.7071068286895752
			],
			"translation":[
				0,
				0,
				-2.799999952316284
			]
		}
	],
	"meshes":[
		{
			"name":"Cube.002",
			"primitives":[
				{
					"attributes":{
						"POSITION":0,
						"NORMAL":1,
						"TEXCOORD_0":2
					},
					"indices":3
				}
			]
		},
		{
			"name":"Plane.011",
			"primitives":[
				{
					"attributes":{
						"POSITION":4,
						"NORMAL":5,
						"TEXCOORD_0":6
					},
					"indices":7
				}
			]
		},
		{
			"name":"Plane.002",
			"primitives":[
				{
					"attributes":{
						"POSITION":8,
						"NORMAL":9,
						"TEXCOORD_0":10
					},
					"indices":11
				}
			]
		}
	],
	"accessors":[
		{
			"bufferView":0,
			"componentType":5126,
			"count":136,
			"max":[
				3,
				5.800000190734863,
				-3.6999998092651367
			],
			"min":[
				-3,
				7.674098014831543e-05,
				-3.799999713897705
			],
			"type":"VEC3"
		},
		{
			"bufferView":1,
			"componentType":5126,
			"count":136,
			"type":"VEC3"
		},
		{
			"bufferView":2,
			"componentType":5126,
			"count":136,
			"type":"VEC2"
		},
		{
			"bufferView":3,
			"componentType":5123,
			"count":204,
			"type":"SCALAR"
		},
		{
			"bufferView":4,
			"componentType":5126,
			"count":20,
			"max":[
				3,
				-1,
				5.245366452300004e-08
			],
			"min":[
				-3,
				-1.200000286102295,
				-6
			],
			"type":"VEC3"
		},
		{
			"bufferView":5,
			"componentType":5126,
			"count":20,
			"type":"VEC3"
		},
		{
			"bufferView":6,
			"componentType":5126,
			"count":20,
			"type":"VEC2"
		},
		{
			"bufferView":7,
			"componentType":5123,
			"count":30,
			"type":"SCALAR"
		},
		{
			"bufferView":8,
			"componentType":5126,
			"count":4,
			"max":[
				3,
				-1,
				1.2681859118401917e-08
			],
			"min":[
				-3,
				-1,
				-6
			],
			"type":"VEC3"
		},
		{
			"bufferView":9,
			"componentType":5126,
			"count":4,
			"type":"VEC3"
		},
		{
			"bufferView":10,
			"componentType":5126,
			"count":4,
			"type":"VEC2"
		},
		{
			"bufferView":11,
			"componentType":5123,
			"count":6,
			"type":"SCALAR"
		}
	],
	"bufferViews":[
		{
			"buffer":0,
			"byteLength":1632,
			"byteOffset":0,
			"target":34962
		},
		{
			"buffer":0,
			"byteLength":1632,
			"byteOffset":1632,
			"target":34962
		},
		{
			"buffer":0,
			"byteLength":1088,
			"byteOffset":3264,
			"target":34962
		},
		{
			"buffer":0,
			"byteLength":408,
			"byteOffset":4352,
			"target":34963
		},
		{
			"buffer":0,
			"byteLength":240,
			"byteOffset":4760,
			"target":34962
		},
		{
			"buffer":0,
			"byteLength":240,
			"byteOffset":5000,
			"target":34962
		},
		{
			"buffer":0,
			"byteLength":160,
			"byteOffset":5240,
			"target":34962
		},
		{
			"buffer":0,
			"byteLength":60,
			"byteOffset":5400,
			"target":34963
		},
		{
			"buffer":0,
			"byteLength":48,
			"byteOffset":5460,
			"target":34962
		},
		{
			"buffer":0,
			"byteLength":48,
			"byteOffset":5508,
			"target":34962
		},
		{
			"buffer":0,
			"byteLength":32,
			"byteOffset":5556,
			"target":34962
		},
		{
			"buffer":0,
			"byteLength":12,
			"byteOffset":5588,
			"target":34963
		}
	],
	"buffers":[
		{
			"byteLength":5600,
			"uri":"data:application/octet-stream;base64,"
		}
	]
}
