{
	"asset":{
		"generator":"Khronos glTF Blender I/O v3.6.28",
		"version":"2.0"
	},
	"scene":0,
	"scenes":[
		{
			"name":"Scene",
			"nodes":[
				8
			]
		}
	],
	"nodes":[
		{
			"mesh":0,
			"name":"Left_Panel",
			"rotation":[
				0.5000000596046448,
				0.5,
				0.5,
				0.4999999403953552
			],
			"scale":[
				1.9911346435546875,
				1.8662058115005493,
				1.4990984201431274
			],
			"translation":[
				1.1920928955078125e-07,
				0.9000000953674316,
				8.061529399583378e-08
			]
		},
		{
			"mesh":1,
			"name":"Left_Panel_Light",
			"rotation":[
				0.5000000596046448,
				0.5,
				0.5,
				0.4999999403953552
			],
			"scale":[
				1.9911346435546875,
				1.8662058115005493,
				1.4990984201431274
			],
			"translation":[
				1.1920928955078125e-07,
				0.9000000953674316,
				8.061529399583378e-08
			]
		},
		{
			"mesh":2,
			"name":"Plane.002",
			"rotation":[
				0.5000000596046448,
				0.5,
				0.5,
				0.4999999403953552
			],
			"scale":[
				1.9911346435546875,
				1.8662058115005493,
				1.4990984201431274
			],
			"translation":[
				1.1920928955078125e-07,
				0.9000000953674316,
				8.061529399583378e-08
			]
		},
		{
			"children":[
				0,
				1,
				2
			],
			"name":"Left",
			"rotation":[
				-7.419555458909599e-08,
				2.081047689728166e-08,
				-0.7071067690849304,
				0.7071067690849304
			],
			"translation":[
				-0.9000000953674316,
				1.5000001192092896,
				4.030765765605793e-08
			]
		},
		{
			"mesh":3,
			"name":"Right_Panel",
			"rotation":[
				-0.5,
				0.5,
				-0.5000000596046448,
				0.5
			],
			"scale":[
				1.9911346435546875,
				1.8662058115005493,
				1.4990984201431274
			],
			"translation":[
				1.1920928955078125e-07,
				0.8999999761581421,
				-8.061532241754321e-08
			]
		},
		{
			"mesh":4,
			"name":"Plane",
			"rotation":[
				-0.5,
				0.5,
				-0.5000000596046448,
				0.5
			],
			"scale":[
				1.9911346435546875,
				1.8662058115005493,
				1.4990984201431274
			],
			"translation":[
				1.1920928955078125e-07,
				0.8999999761581421,
				-8.061532241754321e-08
			]
		},
		{
			"mesh":5,
			"name":"Right_Panel_Light",
			"rotation":[
				-0.5,
				0.5,
				-0.5000000596046448,
				0.5
			],
			"scale":[
				1.9911346435546875,
				1.8662058115005493,
				1.4990984201431274
			],
			"translation":[
				1.1920928955078125e-07,
				0.8999999761581421,
				-8.061532241754321e-08
			]
		},
		{
			"children":[
				4,
				5,
				6
			],
			"name":"Right",
			"rotation":[
				-0.7071067690849304,
				0.7071067690849304,
				-2.0810489331779536e-08,
				7.41955687999507e-08
			],
			"translation":[
				0.8999999761581421,
				1.5000001192092896,
				4.0307664761485285e-08
			]
		},
		{
			"children":[
				3,
				7
			],
			"name":"Exterior_Door_Rig"
		}
	],
	"animations":[
		{
			"channels":[
				{
					"sampler":0,
					"target":{
						"node":3,
						"path":"translation"
					}
				},
				{
					"sampler":1,
					"target":{
						"node":3,
						"path":"rotation"
					}
				},
				{
					"sampler":2,
					"target":{
						"node":3,
						"path":"scale"
					}
				},
				{
					"sampler":3,
					"target":{
						"node":7,
						"path":"translation"
					}
				},
				{
					"sampler":4,
					"target":{
						"node":7,
						"path":"rotation"
					}
				},
				{
					"sampler":5,
					"target":{
						"node":7,
						"path":"scale"
					}
				}
			],
			"name":"Exterior_Door_Closing",
			"samplers":[
				{
					"input":24,
					"interpolation":"LINEAR",
					"output":25
				},
				{
					"input":26,
					"interpolation":"STEP",
					"output":27
				},
				{
					"input":26,
					"interpolation":"STEP",
					"output":28
				},
				{
					"input":24,
					"interpolation":"LINEAR",
					"output":29
				},
				{
					"input":26,
					"interpolation":"STEP",
					"output":30
				},
				{
					"input":26,
					"interpolation":"STEP",
					"output":31
				}
			]
		},
		{
			"channels":[
				{
					"sampler":0,
					"target":{
						"node":3,
						"path":"translation"
					}
				},
				{
					"sampler":1,
					"target":{
						"node":3,
						"path":"rotation"
					}
				},
				{
					"sampler":2,
					"target":{
						"node":3,
						"path":"scale"
					}
				},
				{
					"sampler":3,
					"target":{
						"node":7,
						"path":"translation"
					}
				},
				{
					"sampler":4,
					"target":{
						"node":7,
						"path":"rotation"
					}
				},
				{
					"sampler":5,
					"target":{
						"node":7,
						"path":"scale"
					}
				}
			],
			"name":"Exterior_Door_Opening",
			"samplers":[
				{
					"input":24,
					"interpolation":"LINEAR",
					"output":32
				},
				{
					"input":26,
					"interpolation":"STEP",
					"output":33
				},
				{
					"input":26,
					"interpolation":"STEP",
					"output":34
				},
				{
					"input":24,
					"interpolation":"LINEAR",
					"output":35
				},
				{
					"input":26,
					"interpolation":"STEP",
					"output":36
				},
				{
					"input":26,
					"interpolation":"STEP",
					"output":37
				}
			]
		}
	],
	"meshes":[
		{
			"name":"Plane.004",
			"primitives":[
				{
					"attributes":{
						"POSITION":0,
						"NORMAL":1,
						"TEXCOORD_0":2
					},
					"indices":3
				}
			]
		},
		{
			"name":"Plane.007",
			"primitives":[
				{
					"attributes":{
						"POSITION":4,
						"NORMAL":5,
						"TEXCOORD_0":6
					},
					"indices":7
				}
			]
		},
		{
			"name":"Plane.003",
			"primitives":[
				{
					"attributes":{
						"POSITION":8,
						"NORMAL":9,
						"TEXCOORD_0":10
					},
					"indices":11
				}
			]
		},
		{
			"name":"Plane.005",
			"primitives":[
				{
					"attributes":{
						"POSITION":12,
						"NORMAL":13,
						"TEXCOORD_0":14
					},
					"indices":15
				}
			]
		},
		{
			"name":"Plane.002",
			"primitives":[
				{
					"attributes":{
						"POSITION":16,
						"NORMAL":17,
						"TEXCOORD_0":18
					},
					"indices":19
				}
			]
		},
		{
			"name":"Plane.006",
			"primitives":[
				{
					"attributes":{
						"POSITION":20,
						"NORMAL":21,
						"TEXCOORD_0":22
					},
					"indices":23
				}
			]
		}
	],
	"skins":[
		{
			"inverseBindMatrices":38,
			"joints":[
				3,
				7
			],
			"name":"Exterior_Door_Rig"
		}
	],
	"accessors":[
		{
			"bufferView":0,
			"componentType":5126,
			"count":96,
			"max":[
				0.0038258282002061605,
				0.01607539877295494,
				1.0006012916564941
			],
			"min":[
				-0.5022261738777161,
				-0.01607539877295494,
				-1.0006015300750732
			],
			"type":"VEC3"
		},
		{
			"bufferView":1,
			"componentType":5126,
			"count":96,
			"type":"VEC3"
		},
		{
			"bufferView":2,
			"componentType":5126,
			"count":96,
			"type":"VEC2"
		},
		{
			"bufferView":3,
			"componentType":5123,
			"count":234,
			"type":"SCALAR"
		},
		{
			"bufferView":4,
			"componentType":5126,
			"count":24,
			"max":[
				0.012282275594770908,
				0.01607539691030979,
				1.0006012916564941
			],
			"min":[
				-0.1434026062488556,
				-0.01607539691030979,
				-1.0006015300750732
			],
			"type":"VEC3"
		},
		{
			"bufferView":5,
			"componentType":5126,
			"count":24,
			"type":"VEC3"
		},
		{
			"bufferView":6,
			"componentType":5126,
			"count":24,
			"type":"VEC2"
		},
		{
			"bufferView":7,
			"componentType":5123,
			"count":60,
			"type":"SCALAR"
		},
		{
			"bufferView":8,
			"componentType":5126,
			"count":512,
			"max":[
				0.07592310011386871,
				0.037509262561798096,
				1.0006014108657837
			],
			"min":[
				-0.5022262334823608,
				-0.037509262561798096,
				-1.0006015300750732
			],
			"type":"VEC3"
		},
		{
			"bufferView":9,
			"componentType":5126,
			"count":512,
			"type":"VEC3"
		},
		{
			"bufferView":10,
			"componentType":5126,
			"count":512,
			"type":"VEC2"
		},
		{
			"bufferView":11,
			"componentType":5123,
			"count":966,
			"type":"SCALAR"
		},
		{
			"bufferView":12,
			"componentType":5126,
			"count":96,
			"max":[
				0.5022262334823608,
				0.016075391322374344,
				1.0006012916564941
			],
			"min":[
				0.0009193643345497549,
				-0.016075391322374344,
				-1.0006015300750732
			],
			"type":"VEC3"
		},
		{
			"bufferView":13,
			"componentType":5126,
			"count":96,
			"type":"VEC3"
		},
		{
			"bufferView":14,
			"componentType":5126,
			"count":96,
			"type":"VEC2"
		},
		{
			"bufferView":15,
			"componentType":5123,
			"count":234,
			"type":"SCALAR"
		},
		{
			"bufferView":16,
			"componentType":5126,
			"count":512,
			"max":[
				0.5022262334823608,
				0.042867764830589294,
				1.0006012916564941
			],
			"min":[
				-0.0711778998374939,
				-0.042867764830589294,
				-1.0006015300750732
			],
			"type":"VEC3"
		},
		{
			"bufferView":17,
			"componentType":5126,
			"count":512,
			"type":"VEC3"
		},
		{
			"bufferView":18,
			"componentType":5126,
			"count":512,
			"type":"VEC2"
		},
		{
			"bufferView":19,
			"componentType":5123,
			"count":966,
			"type":"SCALAR"
		},
		{
			"bufferView":20,
			"componentType":5126,
			"count":24,
			"max":[
				0.1481477916240692,
				0.01607539877295494,
				1.0006012916564941
			],
			"min":[
				-0.007289205212146044,
				-0.01607539877295494,
				-1.0006015300750732
			],
			"type":"VEC3"
		},
		{
			"bufferView":21,
			"componentType":5126,
			"count":24,
			"type":"VEC3"
		},
		{
			"bufferView":22,
			"componentType":5126,
			"count":24,
			"type":"VEC2"
		},
		{
			"bufferView":23,
			"componentType":5123,
			"count":60,
			"type":"SCALAR"
		},
		{
			"bufferView":24,
			"componentType":5126,
			"count":30,
			"max":[
				1.25
			],
			"min":[
				0.041666666666666664
			],
			"type":"SCALAR"
		},
		{
			"bufferView":25,
			"componentType":5126,
			"count":30,
			"type":"VEC3"
		},
		{
			"bufferView":26,
			"componentType":5126,
			"count":2,
			"max":[
				1.25
			],
			"min":[
				0.041666666666666664
			],
			"type":"SCALAR"
		},
		{
			"bufferView":27,
			"componentType":5126,
			"count":2,
			"type":"VEC4"
		},
		{
			"bufferView":28,
			"componentType":5126,
			"count":2,
			"type":"VEC3"
		},
		{
			"bufferView":29,
			"componentType":5126,
			"count":30,
			"type":"VEC3"
		},
		{
			"bufferView":30,
			"componentType":5126,
			"count":2,
			"type":"VEC4"
		},
		{
			"bufferView":31,
			"componentType":5126,
			"count":2,
			"type":"VEC3"
		},
		{
			"bufferView":32,
			"componentType":5126,
			"count":30,
			"type":"VEC3"
		},
		{
			"bufferView":33,
			"componentType":5126,
			"count":2,
			"type":"VEC4"
		},
		{
			"bufferView":34,
			"componentType":5126,
			"count":2,
			"type":"VEC3"
		},
		{
			"bufferView":35,
			"componentType":5126,
			"count":30,
			"type":"VEC3"
		},
		{
			"bufferView":36,
			"componentType":5126,
			"count":2,
			"type":"VEC4"
		},
		{
			"bufferView":37,
			"componentType":5126,
			"count":2,
			"type":"VEC3"
		},
		{
			"bufferView":38,
			"componentType":5126,
			"count":2,
			"type":"MAT4"
		}
	],
	"bufferViews":[
		{
			"buffer":0,
			"byteLength":1152,
			"byteOffset":0,
			"target":34962
		},
		{
			"buffer":0,
			"byteLength":1152,
			"byteOffset":1152,
			"target":34962
		},
		{
			"buffer":0,
			"byteLength":768,
			"byteOffset":2304,
			"target":34962
		},
		{
			"buffer":0,
			"byteLength":468,
			"byteOffset":3072,
			"target":34963
		},
		{
			"buffer":0,
			"byteLength":288,
			"byteOffset":3540,
			"target":34962
		},
		{
			"buffer":0,
			"byteLength":288,
			"byteOffset":3828,
			"target":34962
		},
		{
			"buffer":0,
			"byteLength":192,
			"byteOffset":4116,
			"target":34962
		},
		{
			"buffer":0,
			"byteLength":120,
			"byteOffset":4308,
			"target":34963
		},
		{
			"buffer":0,
			"byteLength":6144,
			"byteOffset":4428,
			"target":34962
		},
		{
			"buffer":0,
			"byteLength":6144,
			"byteOffset":10572,
			"target":34962
		},
		{
			"buffer":0,
			"byteLength":4096,
			"byteOffset":16716,
			"target":34962
		},
		{
			"buffer":0,
			"byteLength":1932,
			"byteOffset":20812,
			"target":34963
		},
		{
			"buffer":0,
			"byteLength":1152,
			"byteOffset":22744,
			"target":34962
		},
		{
			"buffer":0,
			"byteLength":1152,
			"byteOffset":23896,
			"target":34962
		},
		{
			"buffer":0,
			"byteLength":768,
			"byteOffset":25048,
			"target":34962
		},
		{
			"buffer":0,
			"byteLength":468,
			"byteOffset":25816,
			"target":34963
		},
		{
			"buffer":0,
			"byteLength":6144,
			"byteOffset":26284,
			"target":34962
		},
		{
			"buffer":0,
			"byteLength":6144,
			"byteOffset":32428,
			"target":34962
		},
		{
			"buffer":0,
			"byteLength":4096,
			"byteOffset":38572,
			"target":34962
		},
		{
			"buffer":0,
			"byteLength":1932,
			"byteOffset":42668,
			"target":34963
		},
		{
			"buffer":0,
			"byteLength":288,
			"byteOffset":44600,
			"target":34962
		},
		{
			"buffer":0,
			"byteLength":288,
			"byteOffset":44888,
			"target":34962
		},
		{
			"buffer":0,
			"byteLength":192,
			"byteOffset":45176,
			"target":34962
		},
		{
			"buffer":0,
			"byteLength":120,
			"byteOffset":45368,
			"target":34963
		},
		{
			"buffer":0,
			"byteLength":120,
			"byteOffset":45488
		},
		{
			"buffer":0,
			"byteLength":360,
			"byteOffset":45608
		},
		{
			"buffer":0,
			"byteLength":8,
			"byteOffset":45968
		},
		{
			"buffer":0,
			"byteLength":32,
			"byteOffset":45976
		},
		{
			"buffer":0,
			"byteLength":24,
			"byteOffset":46008
		},
		{
			"buffer":0,
			"byteLength":360,
			"byteOffset":46032
		},
		{
			"buffer":0,
			"byteLength":32,
			"byteOffset":46392
		},
		{
			"buffer":0,
			"byteLength":24,
			"byteOffset":46424
		},
		{
			"buffer":0,
			"byteLength":360,
			"byteOffset":46448
		},
		{
			"buffer":0,
			"byteLength":32,
			"byteOffset":46808
		},
		{
			"buffer":0,
			"byteLength":24,
			"byteOffset":46840
		},
		{
			"buffer":0,
			"byteLength":360,
			"byteOffset":46864
		},
		{
			"buffer":0,
			"byteLength":32,
			"byteOffset":47224
		},
		{
			"buffer":0,
			"byteLength":24,
			"byteOffset":47256
		},
		{
			"buffer":0,
			"byteLength":128,
			"byteOffset":47280
		}
	],
	"buffers":[
		{
			"byteLength":47408,
			"uri":"data:application/octet-stream;base64,"
		}
	]
}
