{
	"asset":{
		"generator":"Khronos glTF Blender I/O v3.6.28",
		"version":"2.0"
	},
	"scene":0,
	"scenes":[
		{
			"name":"Scene",
			"nodes":[
				6
			]
		}
	],
	"nodes":[
		{
			"mesh":0,
			"name":"Upper_Panel",
			"rotation":[
				-0.6164517402648926,
				-0.3463919162750244,
				-0.3463919162750244,
				0.616451621055603
			],
			"scale":[
				1.0000001192092896,
				1.0000001192092896,
				1
			],
			"translation":[
				0.08541391789913177,
				2.9000000953674316,
				-0.05200570821762085
			]
		},
		{
			"children":[
				0
			],
			"name":"Top",
			"rotation":[
				-0.8717942833900452,
				1.2225522989252856e-14,
				-0.48987212777137756,
				1.4542885651280812e-07
			],
			"translation":[
				-7.549790126404332e-08,
				2.9000000953674316,
				1.3435884227419592e-07
			]
		},
		{
			"mesh":1,
			"name":"Bottom_Panel_L",
			"rotation":[
				-0.6808332800865173,
				-0.6808332800865173,
				0.19096100330352783,
				0.19096088409423828
			],
			"scale":[
				1,
				1.000000238418579,
				1.000000238418579
			],
			"translation":[
				-0.17461161315441132,
				1.8000003099441528,
				-0.4790731966495514
			]
		},
		{
			"children":[
				2
			],
			"name":"Left",
			"rotation":[
				-0.616451621055603,
				-0.616451621055603,
				-0.3463919460773468,
				0.34639209508895874
			],
			"scale":[
				0.9999999403953552,
				1,
				0.9999999403953552
			],
			"translation":[
				-1.8000001907348633,
				0.4999999403953552,
				6.717940692624325e-08
			]
		},
		{
			"mesh":2,
			"name":"Bottom_Panel_R",
			"rotation":[
				-0.5,
				-0.5,
				0.5,
				0.5
			],
			"scale":[
				1.0000001192092896,
				1,
				1
			],
			"translation":[
				-0.5000001788139343,
				1.9000002145767212,
				0.10000022500753403
			]
		},
		{
			"children":[
				4
			],
			"name":"Right",
			"rotation":[
				-2.1511993963940768e-08,
				-7.349402864065269e-08,
				0.7071067690849304,
				0.7071067690849304
			],
			"scale":[
				1,
				0.9999999403953552,
				1
			],
			"translation":[
				1.9000000953674316,
				0.4999999701976776,
				6.71794140316706e-08
			]
		},
		{
			"children":[
				1,
				3,
				5
			],
			"name":"Large_Door_Rig"
		}
	],
	"animations":[
		{
			"channels":[
				{
					"sampler":0,
					"target":{
						"node":1,
						"path":"translation"
					}
				},
				{
					"sampler":1,
					"target":{
						"node":1,
						"path":"rotation"
					}
				},
				{
					"sampler":2,
					"target":{
						"node":1,
						"path":"scale"
					}
				},
				{
					"sampler":3,
					"target":{
						"node":3,
						"path":"translation"
					}
				},
				{
					"sampler":4,
					"target":{
						"node":3,
						"path":"rotation"
					}
				},
				{
					"sampler":5,
					"target":{
						"node":3,
						"path":"scale"
					}
				},
				{
					"sampler":6,
					"target":{
						"node":5,
						"path":"translation"
					}
				},
				{
					"sampler":7,
					"target":{
						"node":5,
						"path":"rotation"
					}
				},
				{
					"sampler":8,
					"target":{
						"node":5,
						"path":"scale"
					}
				}
			],
			"name":"Large_Door_Closing",
			"samplers":[
				{
					"input":11,
					"interpolation":"LINEAR",
					"output":12
				},
				{
					"input":13,
					"interpolation":"STEP",
					"output":14
				},
				{
					"input":13,
					"interpolation":"STEP",
					"output":15
				},
				{
					"input":11,
					"interpolation":"LINEAR",
					"output":16
				},
				{
					"input":13,
					"interpolation":"STEP",
					"output":17
				},
				{
					"input":13,
					"interpolation":"STEP",
					"output":18
				},
				{
					"input":11,
					"interpolation":"LINEAR",
					"output":19
				},
				{
					"input":13,
					"interpolation":"STEP",
					"output":20
				},
				{
					"input":13,
					"interpolation":"STEP",
					"output":21
				}
			]
		},
		{
			"channels":[
				{
					"sampler":0,
					"target":{
						"node":1,
						"path":"translation"
					}
				},
				{
					"sampler":1,
					"target":{
						"node":1,
						"path":"rotation"
					}
				},
				{
					"sampler":2,
					"target":{
						"node":1,
						"path":"scale"
					}
				},
				{
					"sampler":3,
					"target":{
						"node":3,
						"path":"translation"
					}
				},
				{
					"sampler":4,
					"target":{
						"node":3,
						"path":"rotation"
					}
				},
				{
					"sampler":5,
					"target":{
						"node":3,
						"path":"scale"
					}
				},
				{
					"sampler":6,
					"target":{
						"node":5,
						"path":"translation"
					}
				},
				{
					"sampler":7,
					"target":{
						"node":5,
						"path":"rotation"
					}
				},
				{
					"sampler":8,
					"target":{
						"node":5,
						"path":"scale"
					}
				}
			],
			"name":"Large_Door_Opening",
			"samplers":[
				{
					"input":11,
					"interpolation":"LINEAR",
					"output":22
				},
				{
					"input":13,
					"interpolation":"STEP",
					"output":23
				},
				{
					"input":13,
					"interpolation":"STEP",
					"output":24
				},
				{
					"input":11,
					"interpolation":"LINEAR",
					"output":25
				},
				{
					"input":13,
					"interpolation":"STEP",
					"output":26
				},
				{
					"input":13,
					"interpolation":"STEP",
					"output":27
				},
				{
					"input":11,
					"interpolation":"LINEAR",
					"output":28
				},
				{
					"input":13,
					"interpolation":"STEP",
					"output":29
				},
				{
					"input":13,
					"interpolation":"STEP",
					"output":30
				}
			]
		}
	],
	"meshes":[
		{
			"name":"Plane.001",
			"primitives":[
				{
					"attributes":{
						"POSITION":0,
						"NORMAL":1,
						"TEXCOORD_0":2
					},
					"indices":3
				}
			]
		},
		{
			"name":"Plane.004",
			"primitives":[
				{
					"attributes":{
						"POSITION":4,
						"NORMAL":5,
						"TEXCOORD_0":6
					},
					"indices":7
				}
			]
		},
		{
			"name":"Plane.003",
			"primitives":[
				{
					"attributes":{
						"POSITION":8,
						"NORMAL":9,
						"TEXCOORD_0":10
					},
					"indices":7
				}
			]
		}
	],
	"skins":[
		{
			"inverseBindMatrices":31,
			"joints":[
				1,
				3,
				5
			],
			"name":"Large_Door_Rig"
		}
	],
	"accessors":[
		{
			"bufferView":0,
			"componentType":5126,
			"count":450,
			"max":[
				3.0018725395202637,
				0.09331807494163513,
				-0.9269999861717224
			],
			"min":[
				-3.0018725395202637,
				-0.09331807494163513,
				-2.999999761581421
			],
			"type":"VEC3"
		},
		{
			"bufferView":1,
			"componentType":5126,
			"count":450,
			"type":"VEC3"
		},
		{
			"bufferView":2,
			"componentType":5126,
			"count":450,
			"type":"VEC2"
		},
		{
			"bufferView":3,
			"componentType":5123,
			"count":960,
			"type":"SCALAR"
		},
		{
			"bufferView":4,
			"componentType":5126,
			"count":194,
			"max":[
				1.4901161193847656e-08,
				0.09236299991607666,
				4.301000444684178e-09
			],
			"min":[
				-3.000000238418579,
				-0.09236299991607666,
				-1.5000183582305908
			],
			"type":"VEC3"
		},
		{
			"bufferView":5,
			"componentType":5126,
			"count":194,
			"type":"VEC3"
		},
		{
			"bufferView":6,
			"componentType":5126,
			"count":194,
			"type":"VEC2"
		},
		{
			"bufferView":7,
			"componentType":5123,
			"count":444,
			"type":"SCALAR"
		},
		{
			"bufferView":8,
			"componentType":5126,
			"count":194,
			"max":[
				1.4901161193847656e-08,
				0.09236299991607666,
				4.301000444684178e-09
			],
			"min":[
				-3.000000238418579,
				-0.09236299991607666,
				-1.5000183582305908
			],
			"type":"VEC3"
		},
		{
			"bufferView":9,
			"componentType":5126,
			"count":194,
			"type":"VEC3"
		},
		{
			"bufferView":10,
			"componentType":5126,
			"count":194,
			"type":"VEC2"
		},
		{
			"bufferView":11,
			"componentType":5126,
			"count":20,
			"max":[
				0.8333333333333334
			],
			"min":[
				0.041666666666666664
			],
			"type":"SCALAR"
		},
		{
			"bufferView":12,
			"componentType":5126,
			"count":20,
			"type":"VEC3"
		},
		{
			"bufferView":13,
			"componentType":5126,
			"count":2,
			"max":[
				0.8333333333333334
			],
			"min":[
				0.041666666666666664
			],
			"type":"SCALAR"
		},
		{
			"bufferView":14,
			"componentType":5126,
			"count":2,
			"type":"VEC4"
		},
		{
			"bufferView":15,
			"componentType":5126,
			"count":2,
			"type":"VEC3"
		},
		{
			"bufferView":16,
			"componentType":5126,
			"count":20,
			"type":"VEC3"
		},
		{
			"bufferView":17,
			"componentType":5126,
			"count":2,
			"type":"VEC4"
		},
		{
			"bufferView":18,
			"componentType":5126,
			"count":2,
			"type":"VEC3"
		},
		{
			"bufferView":19,
			"componentType":5126,
			"count":20,
			"type":"VEC3"
		},
		{
			"bufferView":20,
			"componentType":5126,
			"count":2,
			"type":"VEC4"
		},
		{
			"bufferView":21,
			"componentType":5126,
			"count":2,
			"type":"VEC3"
		},
		{
			"bufferView":22,
			"componentType":5126,
			"count":20,
			"type":"VEC3"
		},
		{
			"bufferView":23,
			"componentType":5126,
			"count":2,
			"type":"VEC4"
		},
		{
			"bufferView":24,
			"componentType":5126,
			"count":2,
			"type":"VEC3"
		},
		{
			"bufferView":25,
			"componentType":5126,
			"count":20,
			"type":"VEC3"
		},
		{
			"bufferView":26,
			"componentType":5126,
			"count":2,
			"type":"VEC4"
		},
		{
			"bufferView":27,
			"componentType":5126,
			"count":2,
			"type":"VEC3"
		},
		{
			"bufferView":28,
			"componentType":5126,
			"count":20,
			"type":"VEC3"
		},
		{
			"bufferView":29,
			"componentType":5126,
			"count":2,
			"type":"VEC4"
		},
		{
			"bufferView":30,
			"componentType":5126,
			"count":2,
			"type":"VEC3"
		},
		{
			"bufferView":31,
			"componentType":5126,
			"count":3,
			"type":"MAT4"
		}
	],
	"bufferViews":[
		{
			"buffer":0,
			"byteLength":5400,
			"byteOffset":0,
			"target":34962
		},
		{
			"buffer":0,
			"byteLength":5400,
			"byteOffset":5400,
			"target":34962
		},
		{
			"buffer":0,
			"byteLength":3600,
			"byteOffset":10800,
			"target":34962
		},
		{
			"buffer":0,
			"byteLength":1920,
			"byteOffset":14400,
			"target":34963
		},
		{
			"buffer":0,
			"byteLength":2328,
			"byteOffset":16320,
			"target":34962
		},
		{
			"buffer":0,
			"byteLength":2328,
			"byteOffset":18648,
			"target":34962
		},
		{
			"buffer":0,
			"byteLength":1552,
			"byteOffset":20976,
			"target":34962
		},
		{
			"buffer":0,
			"byteLength":888,
			"byteOffset":22528,
			"target":34963
		},
		{
			"buffer":0,
			"byteLength":2328,
			"byteOffset":23416,
			"target":34962
		},
		{
			"buffer":0,
			"byteLength":2328,
			"byteOffset":25744,
			"target":34962
		},
		{
			"buffer":0,
			"byteLength":1552,
			"byteOffset":28072,
			"target":34962
		},
		{
			"buffer":0,
			"byteLength":80,
			"byteOffset":29624
		},
		{
			"buffer":0,
			"byteLength":240,
			"byteOffset":29704
		},
		{
			"buffer":0,
			"byteLength":8,
			"byteOffset":29944
		},
		{
			"buffer":0,
			"byteLength":32,
			"byteOffset":29952
		},
		{
			"buffer":0,
			"byteLength":24,
			"byteOffset":29984
		},
		{
			"buffer":0,
			"byteLength":240,
			"byteOffset":30008
		},
		{
			"buffer":0,
			"byteLength":32,
			"byteOffset":30248
		},
		{
			"buffer":0,
			"byteLength":24,
			"byteOffset":30280
		},
		{
			"buffer":0,
			"byteLength":240,
			"byteOffset":30304
		},
		{
			"buffer":0,
			"byteLength":32,
			"byteOffset":30544
		},
		{
			"buffer":0,
			"byteLength":24,
			"byteOffset":30576
		},
		{
			"buffer":0,
			"byteLength":240,
			"byteOffset":30600
		},
		{
			"buffer":0,
			"byteLength":32,
			"byteOffset":30840
		},
		{
			"buffer":0,
			"byteLength":24,
			"byteOffset":30872
		},
		{
			"buffer":0,
			"byteLength":240,
			"byteOffset":30896
		},
		{
			"buffer":0,
			"byteLength":32,
			"byteOffset":31136
		},
		{
			"buffer":0,
			"byteLength":24,
			"byteOffset":31168
		},
		{
			"buffer":0,
			"byteLength":240,
			"byteOffset":31192
		},
		{
			"buffer":0,
			"byteLength":32,
			"byteOffset":31432
		},
		{
			"buffer":0,
			"byteLength":24,
			"byteOffset":31464
		},
		{
			"buffer":0,
			"byteLength":192,
			"byteOffset":31488
		}
	],
	"buffers":[
		{
			"byteLength":31680,
			"uri":"data:application/octet-stream;base64,"
		}
	]
}
