{
	"asset":{
		"generator":"Khronos glTF Blender I/O v3.6.28",
		"version":"2.0"
	},
	"scene":0,
	"scenes":[
		{
			"name":"Scene",
			"nodes":[
				8
			]
		}
	],
	"nodes":[
		{
			"mesh":0,
			"name":"Bottom_Panel",
			"rotation":[
				0.7071067690849304,
				0,
				0,
				0.7071067690849304
			]
		},
		{
			"children":[
				0
			],
			"name":"Bottom"
		},
		{
			"mesh":1,
			"name":"Top_Panel",
			"rotation":[
				-0.6724168062210083,
				-0.21875952184200287,
				-0.21875952184200287,
				0.6724166870117188
			],
			"scale":[
				1.000000238418579,
				1.000000238418579,
				1
			],
			"translation":[
				3.724212263023219e-07,
				3.000000476837158,
				-1.144737211689062e-06
			]
		},
		{
			"children":[
				2
			],
			"name":"Top",
			"rotation":[
				-0.9509409070014954,
				1.6811992946332184e-14,
				-0.3093726933002472,
				1.333248462742631e-07
			],
			"scale":[
				0.9999999403953552,
				1,
				0.9999999403953552
			],
			"translation":[
				1.1015271184078301e-07,
				3,
				-3.3858430015243357e-07
			]
		},
		{
			"mesh":2,
			"name":"Right_Panel",
			"rotation":[
				0.49999964237213135,
				0.4999998211860657,
				0.5000004172325134,
				0.5000001788139343
			],
			"scale":[
				1.0000001192092896,
				1,
				1
			],
			"translation":[
				0.9971153140068054,
				0.9807599782943726,
				-2.003568624786567e-06
			]
		},
		{
			"children":[
				4
			],
			"name":"right",
			"rotation":[
				3.7252982565405546e-07,
				4.6753564220125554e-07,
				-0.7071069478988647,
				0.7071065902709961
			],
			"scale":[
				1,
				0.9999999403953552,
				1
			],
			"translation":[
				-0.9808445572853088,
				0.9971156716346741,
				-8.560211028907361e-08
			]
		},
		{
			"mesh":3,
			"name":"Left_Panel",
			"rotation":[
				-0.6319101452827454,
				0.6319103837013245,
				-0.31731605529785156,
				0.31731584668159485
			],
			"scale":[
				-1,
				-0.9999999403953552,
				-0.9999999403953552
			],
			"translation":[
				-0.8043739795684814,
				0.9808447957038879,
				0.598965585231781
			]
		},
		{
			"children":[
				6
			],
			"name":"left",
			"rotation":[
				0.22245179116725922,
				-0.22245179116725922,
				0.6712044477462769,
				0.671204149723053
			],
			"translation":[
				0.9808443188667297,
				1.0028847455978394,
				-3.6429338479138096e-07
			]
		},
		{
			"children":[
				1,
				3,
				5,
				7
			],
			"name":"Small_Door_Rig"
		}
	],
	"animations":[
		{
			"channels":[
				{
					"sampler":0,
					"target":{
						"node":1,
						"path":"translation"
					}
				},
				{
					"sampler":1,
					"target":{
						"node":1,
						"path":"rotation"
					}
				},
				{
					"sampler":2,
					"target":{
						"node":1,
						"path":"scale"
					}
				},
				{
					"sampler":3,
					"target":{
						"node":3,
						"path":"translation"
					}
				},
				{
					"sampler":4,
					"target":{
						"node":3,
						"path":"rotation"
					}
				},
				{
					"sampler":5,
					"target":{
						"node":3,
						"path":"scale"
					}
				},
				{
					"sampler":6,
					"target":{
						"node":5,
						"path":"translation"
					}
				},
				{
					"sampler":7,
					"target":{
						"node":5,
						"path":"rotation"
					}
				},
				{
					"sampler":8,
					"target":{
						"node":5,
						"path":"scale"
					}
				},
				{
					"sampler":9,
					"target":{
						"node":7,
						"path":"translation"
					}
				},
				{
					"sampler":10,
					"target":{
						"node":7,
						"path":"rotation"
					}
				},
				{
					"sampler":11,
					"target":{
						"node":7,
						"path":"scale"
					}
				}
			],
			"name":"Small_Door_Closing",
			"samplers":[
				{
					"input":16,
					"interpolation":"LINEAR",
					"output":17
				},
				{
					"input":18,
					"interpolation":"STEP",
					"output":19
				},
				{
					"input":18,
					"interpolation":"STEP",
					"output":20
				},
				{
					"input":16,
					"interpolation":"LINEAR",
					"output":21
				},
				{
					"input":18,
					"interpolation":"STEP",
					"output":22
				},
				{
					"input":18,
					"interpolation":"STEP",
					"output":23
				},
				{
					"input":16,
					"interpolation":"LINEAR",
					"output":24
				},
				{
					"input":18,
					"interpolation":"STEP",
					"output":25
				},
				{
					"input":18,
					"interpolation":"STEP",
					"output":26
				},
				{
					"input":16,
					"interpolation":"LINEAR",
					"output":27
				},
				{
					"input":18,
					"interpolation":"STEP",
					"output":28
				},
				{
					"input":18,
					"interpolation":"STEP",
					"output":29
				}
			]
		},
		{
			"channels":[
				{
					"sampler":0,
					"target":{
						"node":1,
						"path":"translation"
					}
				},
				{
					"sampler":1,
					"target":{
						"node":1,
						"path":"rotation"
					}
				},
				{
					"sampler":2,
					"target":{
						"node":1,
						"path":"scale"
					}
				},
				{
					"sampler":3,
					"target":{
						"node":3,
						"path":"translation"
					}
				},
				{
					"sampler":4,
					"target":{
						"node":3,
						"path":"rotation"
					}
				},
				{
					"sampler":5,
					"target":{
						"node":3,
						"path":"scale"
					}
				},
				{
					"sampler":6,
					"target":{
						"node":5,
						"path":"translation"
					}
				},
				{
					"sampler":7,
					"target":{
						"node":5,
						"path":"rotation"
					}
				},
				{
					"sampler":8,
					"target":{
						"node":5,
						"path":"scale"
					}
				},
				{
					"sampler":9,
					"target":{
						"node":7,
						"path":"translation"
					}
				},
				{
					"sampler":10,
					"target":{
						"node":7,
						"path":"rotation"
					}
				},
				{
					"sampler":11,
					"target":{
						"node":7,
						"path":"scale"
					}
				}
			],
			"name":"Small_Door_Opening",
			"samplers":[
				{
					"input":16,
					"interpolation":"LINEAR",
					"output":30
				},
				{
					"input":18,
					"interpolation":"STEP",
					"output":31
				},
				{
					"input":18,
					"interpolation":"STEP",
					"output":32
				},
				{
					"input":16,
					"interpolation":"LINEAR",
					"output":33
				},
				{
					"input":18,
					"interpolation":"STEP",
					"output":34
				},
				{
					"input":18,
					"interpolation":"STEP",
					"output":35
				},
				{
					"input":16,
					"interpolation":"LINEAR",
					"output":36
				},
				{
					"input":18,
					"interpolation":"STEP",
					"output":37
				},
				{
					"input":18,
					"interpolation":"STEP",
					"output":38
				},
				{
					"input":16,
					"interpolation":"LINEAR",
					"output":39
				},
				{
					"input":18,
					"interpolation":"STEP",
					"output":40
				},
				{
					"input":18,
					"interpolation":"STEP",
					"output":41
				}
			]
		}
	],
	"meshes":[
		{
			"name":"Plane.006",
			"primitives":[
				{
					"attributes":{
						"POSITION":0,
						"NORMAL":1,
						"TEXCOORD_0":2
					},
					"indices":3
				}
			]
		},
		{
			"name":"Plane.007",
			"primitives":[
				{
					"attributes":{
						"POSITION":4,
						"NORMAL":5,
						"TEXCOORD_0":6
					},
					"indices":7
				}
			]
		},
		{
			"name":"Plane.008",
			"primitives":[
				{
					"attributes":{
						"POSITION":8,
						"NORMAL":9,
						"TEXCOORD_0":10
					},
					"indices":11
				}
			]
		},
		{
			"name":"Plane.005",
			"primitives":[
				{
					"attributes":{
						"POSITION":12,
						"NORMAL":13,
						"TEXCOORD_0":14
					},
					"indices":15
				}
			]
		}
	],
	"skins":[
		{
			"inverseBindMatrices":42,
			"joints":[
				1,
				3,
				5,
				7
			],
			"name":"Small_Door_Rig"
		}
	],
	"accessors":[
		{
			"bufferView":0,
			"componentType":5126,
			"count":88,
			"max":[
				0.5619528889656067,
				0.034812744706869125,
				1.303259159612935e-05
			],
			"min":[
				-0.5619528889656067,
				-0.034812744706869125,
				-1.9930622577667236
			],
			"type":"VEC3"
		},
		{
			"bufferView":1,
			"componentType":5126,
			"count":88,
			"type":"VEC3"
		},
		{
			"bufferView":2,
			"componentType":5126,
			"count":88,
			"type":"VEC2"
		},
		{
			"bufferView":3,
			"componentType":5123,
			"count":186,
			"type":"SCALAR"
		},
		{
			"bufferView":4,
			"componentType":5126,
			"count":110,
			"max":[
				0.6763308644294739,
				0.03105262853205204,
				-1.993062138557434
			],
			"min":[
				-0.6763308644294739,
				-0.03105262853205204,
				-2.999990940093994
			],
			"type":"VEC3"
		},
		{
			"bufferView":5,
			"componentType":5126,
			"count":110,
			"type":"VEC3"
		},
		{
			"bufferView":6,
			"componentType":5126,
			"count":110,
			"type":"VEC2"
		},
		{
			"bufferView":7,
			"componentType":5123,
			"count":252,
			"type":"SCALAR"
		},
		{
			"bufferView":8,
			"componentType":5126,
			"count":186,
			"max":[
				-0.5614979863166809,
				0.09897361695766449,
				0
			],
			"min":[
				-1.0000817775726318,
				-0.09897361695766449,
				-2.999990463256836
			],
			"type":"VEC3"
		},
		{
			"bufferView":9,
			"componentType":5126,
			"count":186,
			"type":"VEC3"
		},
		{
			"bufferView":10,
			"componentType":5126,
			"count":186,
			"type":"VEC2"
		},
		{
			"bufferView":11,
			"componentType":5123,
			"count":348,
			"type":"SCALAR"
		},
		{
			"bufferView":12,
			"componentType":5126,
			"count":186,
			"max":[
				-0.5614162683486938,
				0.09899912774562836,
				4.327385560998209e-09
			],
			"min":[
				-1,
				-0.09899912774562836,
				-3
			],
			"type":"VEC3"
		},
		{
			"bufferView":13,
			"componentType":5126,
			"count":186,
			"type":"VEC3"
		},
		{
			"bufferView":14,
			"componentType":5126,
			"count":186,
			"type":"VEC2"
		},
		{
			"bufferView":15,
			"componentType":5123,
			"count":348,
			"type":"SCALAR"
		},
		{
			"bufferView":16,
			"componentType":5126,
			"count":20,
			"max":[
				0.8333333333333334
			],
			"min":[
				0.041666666666666664
			],
			"type":"SCALAR"
		},
		{
			"bufferView":17,
			"componentType":5126,
			"count":20,
			"type":"VEC3"
		},
		{
			"bufferView":18,
			"componentType":5126,
			"count":2,
			"max":[
				0.8333333333333334
			],
			"min":[
				0.041666666666666664
			],
			"type":"SCALAR"
		},
		{
			"bufferView":19,
			"componentType":5126,
			"count":2,
			"type":"VEC4"
		},
		{
			"bufferView":20,
			"componentType":5126,
			"count":2,
			"type":"VEC3"
		},
		{
			"bufferView":21,
			"componentType":5126,
			"count":20,
			"type":"VEC3"
		},
		{
			"bufferView":22,
			"componentType":5126,
			"count":2,
			"type":"VEC4"
		},
		{
			"bufferView":23,
			"componentType":5126,
			"count":2,
			"type":"VEC3"
		},
		{
			"bufferView":24,
			"componentType":5126,
			"count":20,
			"type":"VEC3"
		},
		{
			"bufferView":25,
			"componentType":5126,
			"count":2,
			"type":"VEC4"
		},
		{
			"bufferView":26,
			"componentType":5126,
			"count":2,
			"type":"VEC3"
		},
		{
			"bufferView":27,
			"componentType":5126,
			"count":20,
			"type":"VEC3"
		},
		{
			"bufferView":28,
			"componentType":5126,
			"count":2,
			"type":"VEC4"
		},
		{
			"bufferView":29,
			"componentType":5126,
			"count":2,
			"type":"VEC3"
		},
		{
			"bufferView":30,
			"componentType":5126,
			"count":20,
			"type":"VEC3"
		},
		{
			"bufferView":31,
			"componentType":5126,
			"count":2,
			"type":"VEC4"
		},
		{
			"bufferView":32,
			"componentType":5126,
			"count":2,
			"type":"VEC3"
		},
		{
			"bufferView":33,
			"componentType":5126,
			"count":20,
			"type":"VEC3"
		},
		{
			"bufferView":34,
			"componentType":5126,
			"count":2,
			"type":"VEC4"
		},
		{
			"bufferView":35,
			"componentType":5126,
			"count":2,
			"type":"VEC3"
		},
		{
			"bufferView":36,
			"componentType":5126,
			"count":20,
			"type":"VEC3"
		},
		{
			"bufferView":37,
			"componentType":5126,
			"count":2,
			"type":"VEC4"
		},
		{
			"bufferView":38,
			"componentType":5126,
			"count":2,
			"type":"VEC3"
		},
		{
			"bufferView":39,
			"componentType":5126,
			"count":20,
			"type":"VEC3"
		},
		{
			"bufferView":40,
			"componentType":5126,
			"count":2,
			"type":"VEC4"
		},
		{
			"bufferView":41,
			"componentType":5126,
			"count":2,
			"type":"VEC3"
		},
		{
			"bufferView":42,
			"componentType":5126,
			"count":4,
			"type":"MAT4"
		}
	],
	"bufferViews":[
		{
			"buffer":0,
			"byteLength":1056,
			"byteOffset":0,
			"target":34962
		},
		{
			"buffer":0,
			"byteLength":1056,
			"byteOffset":1056,
			"target":34962
		},
		{
			"buffer":0,
			"byteLength":704,
			"byteOffset":2112,
			"target":34962
		},
		{
			"buffer":0,
			"byteLength":372,
			"byteOffset":2816,
			"target":34963
		},
		{
			"buffer":0,
			"byteLength":1320,
			"byteOffset":3188,
			"target":34962
		},
		{
			"buffer":0,
			"byteLength":1320,
			"byteOffset":4508,
			"target":34962
		},
		{
			"buffer":0,
			"byteLength":880,
			"byteOffset":5828,
			"target":34962
		},
		{
			"buffer":0,
			"byteLength":504,
			"byteOffset":6708,
			"target":34963
		},
		{
			"buffer":0,
			"byteLength":2232,
			"byteOffset":7212,
			"target":34962
		},
		{
			"buffer":0,
			"byteLength":2232,
			"byteOffset":9444,
			"target":34962
		},
		{
			"buffer":0,
			"byteLength":1488,
			"byteOffset":11676,
			"target":34962
		},
		{
			"buffer":0,
			"byteLength":696,
			"byteOffset":13164,
			"target":34963
		},
		{
			"buffer":0,
			"byteLength":2232,
			"byteOffset":13860,
			"target":34962
		},
		{
			"buffer":0,
			"byteLength":2232,
			"byteOffset":16092,
			"target":34962
		},
		{
			"buffer":0,
			"byteLength":1488,
			"byteOffset":18324,
			"target":34962
		},
		{
			"buffer":0,
			"byteLength":696,
			"byteOffset":19812,
			"target":34963
		},
		{
			"buffer":0,
			"byteLength":80,
			"byteOffset":20508
		},
		{
			"buffer":0,
			"byteLength":240,
			"byteOffset":20588
		},
		{
			"buffer":0,
			"byteLength":8,
			"byteOffset":20828
		},
		{
			"buffer":0,
			"byteLength":32,
			"byteOffset":20836
		},
		{
			"buffer":0,
			"byteLength":24,
			"byteOffset":20868
		},
		{
			"buffer":0,
			"byteLength":240,
			"byteOffset":20892
		},
		{
			"buffer":0,
			"byteLength":32,
			"byteOffset":21132
		},
		{
			"buffer":0,
			"byteLength":24,
			"byteOffset":21164
		},
		{
			"buffer":0,
			"byteLength":240,
			"byteOffset":21188
		},
		{
			"buffer":0,
			"byteLength":32,
			"byteOffset":21428
		},
		{
			"buffer":0,
			"byteLength":24,
			"byteOffset":21460
		},
		{
			"buffer":0,
			"byteLength":240,
			"byteOffset":21484
		},
		{
			"buffer":0,
			"byteLength":32,
			"byteOffset":21724
		},
		{
			"buffer":0,
			"byteLength":24,
			"byteOffset":21756
		},
		{
			"buffer":0,
			"byteLength":240,
			"byteOffset":21780
		},
		{
			"buffer":0,
			"byteLength":32,
			"byteOffset":22020
		},
		{
			"buffer":0,
			"byteLength":24,
			"byteOffset":22052
		},
		{
			"buffer":0,
			"byteLength":240,
			"byteOffset":22076
		},
		{
			"buffer":0,
			"byteLength":32,
			"byteOffset":22316
		},
		{
			"buffer":0,
			"byteLength":24,
			"byteOffset":22348
		},
		{
			"buffer":0,
			"byteLength":240,
			"byteOffset":22372
		},
		{
			"buffer":0,
			"byteLength":32,
			"byteOffset":22612
		},
		{
			"buffer":0,
			"byteLength":24,
			"byteOffset":22644
		},
		{
			"buffer":0,
			"byteLength":240,
			"byteOffset":22668
		},
		{
			"buffer":0,
			"byteLength":32,
			"byteOffset":22908
		},
		{
			"buffer":0,
			"byteLength":24,
			"byteOffset":22940
		},
		{
			"buffer":0,
			"byteLength":256,
			"byteOffset":22964
		}
	],
	"buffers":[
		{
			"byteLength":23220,
			"uri":"data:application/octet-stream;base64,"
		}
	]
}
