{
	"asset":{
		"generator":"Khronos glTF Blender I/O v3.6.28",
		"version":"2.0"
	},
	"scene":0,
	"scenes":[
		{
			"name":"Scene",
			"nodes":[
				0,
				1,
				2,
				3,
				4,
				5
			]
		}
	],
	"nodes":[
		{
			"mesh":0,
			"name":"Window_Wall",
			"rotation":[
				0.7071068286895752,
				0,
				0,
				0.7071068286895752
			],
			"translation":[
				0,
				0,
				-3.799999952316284
			]
		},
		{
			"mesh":1,
			"name":"Window Frame",
			"translation":[
				0,
				0,
				-4.800000190734863
			]
		},
		{
			"mesh":2,
			"name":"Window_Exterior",
			"translation":[
				0,
				0,
				-4.800000190734863
			]
		},
		{
			"mesh":3,
			"name":"Small_Interior_Panel"
		},
		{
			"mesh":4,
			"name":"Window_Interior",
			"translation":[
				0,
				0,
				-4.800000190734863
			]
		},
		{
			"mesh":5,
			"name":"Small_Interior_3"
		}
	],
	"meshes":[
		{
			"name":"Plane.012",
			"primitives":[
				{
					"attributes":{
						"POSITION":0,
						"NORMAL":1,
						"TEXCOORD_0":2
					},
					"indices":3
				},
				{
					"attributes":{
						"POSITION":4,
						"NORMAL":5,
						"TEXCOORD_0":6
					},
					"indices":7
				}
			]
		},
		{
			"name":"Cube.005",
			"primitives":[
				{
					"attributes":{
						"POSITION":8,
						"NORMAL":9,
						"TEXCOORD_0":10
					},
					"indices":11
				}
			]
		},
		{
			"name":"Cube.003",
			"primitives":[
				{
					"attributes":{
						"POSITION":12,
						"NORMAL":13,
						"TEXCOORD_0":14
					},
					"indices":15
				}
			]
		},
		{
			"name":"Cube.051",
			"primitives":[
				{
					"attributes":{
						"POSITION":16,
						"NORMAL":17,
						"TEXCOORD_0":18
					},
					"indices":19
				}
			]
		},
		{
			"name":"Cube.002",
			"primitives":[
				{
					"attributes":{
						"POSITION":20,
						"NORMAL":21,
						"TEXCOORD_0":22
					},
					"indices":23
				}
			]
		},
		{
			"name":"Cube.004",
			"primitives":[
				{
					"attributes":{
						"POSITION":24,
						"NORMAL":25,
						"TEXCOORD_0":26
					},
					"indices":27
				}
			]
		}
	],
	"accessors":[
		{
			"bufferView":0,
			"componentType":5126,
			"count":60,
			"max":[
				3,
				4,
				-1.661032769106896e-07
			],
			"min":[
				-3,
				3.799999713897705,
				-6
			],
			"type":"VEC3"
		},
		{
			"bufferView":1,
			"componentType":5126,
			"count":60,
			"type":"VEC3"
		},
		{
			"bufferView":2,
			"componentType":5126,
			"count":60,
			"type":"VEC2"
		},
		{
			"bufferView":3,
			"componentType":5123,
			"count":138,
			"type":"SCALAR"
		},
		{
			"bufferView":4,
			"componentType":5126,
			"count":36,
			"max":[
				2.200000047683716,
				4,
				-0.699999988079071
			],
			"min":[
				-2.200000047683716,
				3.799999713897705,
				-5.100000381469727
			],
			"type":"VEC3"
		},
		{
			"bufferView":5,
			"componentType":5126,
			"count":36,
			"type":"VEC3"
		},
		{
			"bufferView":6,
			"componentType":5126,
			"count":36,
			"type":"VEC2"
		},
		{
			"bufferView":7,
			"componentType":5123,
			"count":60,
			"type":"SCALAR"
		},
		{
			"bufferView":8,
			"componentType":5126,
			"count":96,
			"max":[
				2.200000047683716,
				5.100000381469727,
				5
			],
			"min":[
				-2.200000047683716,
				0.7000000476837158,
				4.800000190734863
			],
			"type":"VEC3"
		},
		{
			"bufferView":9,
			"componentType":5126,
			"count":96,
			"type":"VEC3"
		},
		{
			"bufferView":10,
			"componentType":5126,
			"count":96,
			"type":"VEC2"
		},
		{
			"bufferView":11,
			"componentType":5123,
			"count":192,
			"type":"SCALAR"
		},
		{
			"bufferView":12,
			"componentType":5126,
			"count":48,
			"max":[
				2.0999999046325684,
				5,
				4.800053119659424
			],
			"min":[
				-2.0999999046325684,
				0.800000011920929,
				4.704217910766602
			],
			"type":"VEC3"
		},
		{
			"bufferView":13,
			"componentType":5126,
			"count":48,
			"type":"VEC3"
		},
		{
			"bufferView":14,
			"componentType":5126,
			"count":48,
			"type":"VEC2"
		},
		{
			"bufferView":15,
			"componentType":5123,
			"count":84,
			"type":"SCALAR"
		},
		{
			"bufferView":16,
			"componentType":5126,
			"count":48,
			"max":[
				3,
				5.5,
				0.30000025033950806
			],
			"min":[
				-3,
				0.3000001609325409,
				0.2000003457069397
			],
			"type":"VEC3"
		},
		{
			"bufferView":17,
			"componentType":5126,
			"count":48,
			"type":"VEC3"
		},
		{
			"bufferView":18,
			"componentType":5126,
			"count":48,
			"type":"VEC2"
		},
		{
			"bufferView":19,
			"componentType":5123,
			"count":72,
			"type":"SCALAR"
		},
		{
			"bufferView":20,
			"componentType":5126,
			"count":8,
			"max":[
				2.0999999046325684,
				5,
				4.980000019073486
			],
			"min":[
				-2.0999999046325684,
				0.800000011920929,
				4.980000019073486
			],
			"type":"VEC3"
		},
		{
			"bufferView":21,
			"componentType":5126,
			"count":8,
			"type":"VEC3"
		},
		{
			"bufferView":22,
			"componentType":5126,
			"count":8,
			"type":"VEC2"
		},
		{
			"bufferView":23,
			"componentType":5123,
			"count":18,
			"type":"SCALAR"
		},
		{
			"bufferView":24,
			"componentType":5126,
			"count":48,
			"max":[
				3,
				5.800000190734863,
				0.3000001907348633
			],
			"min":[
				-3,
				7.674098014831543e-05,
				0.20000028610229492
			],
			"type":"VEC3"
		},
		{
			"bufferView":25,
			"componentType":5126,
			"count":48,
			"type":"VEC3"
		},
		{
			"bufferView":26,
			"componentType":5126,
			"count":48,
			"type":"VEC2"
		},
		{
			"bufferView":27,
			"componentType":5123,
			"count":72,
			"type":"SCALAR"
		}
	],
	"bufferViews":[
		{
			"buffer":0,
			"byteLength":720,
			"byteOffset":0,
			"target":34962
		},
		{
			"buffer":0,
			"byteLength":720,
			"byteOffset":720,
			"target":34962
		},
		{
			"buffer":0,
			"byteLength":480,
			"byteOffset":1440,
			"target":34962
		},
		{
			"buffer":0,
			"byteLength":276,
			"byteOffset":1920,
			"target":34963
		},
		{
			"buffer":0,
			"byteLength":432,
			"byteOffset":2196,
			"target":34962
		},
		{
			"buffer":0,
			"byteLength":432,
			"byteOffset":2628,
			"target":34962
		},
		{
			"buffer":0,
			"byteLength":288,
			"byteOffset":3060,
			"target":34962
		},
		{
			"buffer":0,
			"byteLength":120,
			"byteOffset":3348,
			"target":34963
		},
		{
			"buffer":0,
			"byteLength":1152,
			"byteOffset":3468,
			"target":34962
		},
		{
			"buffer":0,
			"byteLength":1152,
			"byteOffset":4620,
			"target":34962
		},
		{
			"buffer":0,
			"byteLength":768,
			"byteOffset":5772,
			"target":34962
		},
		{
			"buffer":0,
			"byteLength":384,
			"byteOffset":6540,
			"target":34963
		},
		{
			"buffer":0,
			"byteLength":576,
			"byteOffset":6924,
			"target":34962
		},
		{
			"buffer":0,
			"byteLength":576,
			"byteOffset":7500,
			"target":34962
		},
		{
			"buffer":0,
			"byteLength":384,
			"byteOffset":8076,
			"target":34962
		},
		{
			"buffer":0,
			"byteLength":168,
			"byteOffset":8460,
			"target":34963
		},
		{
			"buffer":0,
			"byteLength":576,
			"byteOffset":8628,
			"target":34962
		},
		{
			"buffer":0,
			"byteLength":576,
			"byteOffset":9204,
			"target":34962
		},
		{
			"buffer":0,
			"byteLength":384,
			"byteOffset":9780,
			"target":34962
		},
		{
			"buffer":0,
			"byteLength":144,
			"byteOffset":10164,
			"target":34963
		},
		{
			"buffer":0,
			"byteLength":96,
			"byteOffset":10308,
			"target":34962
		},
		{
			"buffer":0,
			"byteLength":96,
			"byteOffset":10404,
			"target":34962
		},
		{
			"buffer":0,
			"byteLength":64,
			"byteOffset":10500,
			"target":34962
		},
		{
			"buffer":0,
			"byteLength":36,
			"byteOffset":10564,
			"target":34963
		},
		{
			"buffer":0,
			"byteLength":576,
			"byteOffset":10600,
			"target":34962
		},
		{
			"buffer":0,
			"byteLength":576,
			"byteOffset":11176,
			"target":34962
		},
		{
			"buffer":0,
			"byteLength":384,
			"byteOffset":11752,
			"target":34962
		},
		{
			"buffer":0,
			"byteLength":144,
			"byteOffset":12136,
			"target":34963
		}
	],
	"buffers":[
		{
			"byteLength":12280,
			"uri":"data:application/octet-stream;base64,"
		}
	]
}
