{
	"asset":{
		"generator":"Khronos glTF Blender I/O v3.6.28",
		"version":"2.0"
	},
	"scene":0,
	"scenes":[
		{
			"name":"Scene",
			"nodes":[
				0,
				1,
				2,
				3
			]
		}
	],
	"nodes":[
		{
			"mesh":0,
			"name":"Door_Frame",
			"translation":[
				0,
				0,
				-1
			]
		},
		{
			"mesh":1,
			"name":"Door_Wall",
			"rotation":[
				0.7071068286895752,
				0,
				0,
				0.7071068286895752
			],
			"translation":[
				0,
				0,
				-1
			]
		},
		{
			"mesh":2,
			"name":"Door_Wall_Interior",
			"rotation":[
				0.7071068286895752,
				0,
				0,
				0.7071068286895752
			],
			"translation":[
				0,
				0,
				-1
			]
		},
		{
			"mesh":3,
			"name":"Doorway_Interior",
			"translation":[
				0,
				3,
				0
			]
		}
	],
	"meshes":[
		{
			"name":"Cube.007",
			"primitives":[
				{
					"attributes":{
						"POSITION":0,
						"NORMAL":1,
						"TEXCOORD_0":2
					},
					"indices":3
				}
			]
		},
		{
			"name":"Plane.004",
			"primitives":[
				{
					"attributes":{
						"POSITION":4,
						"NORMAL":5,
						"TEXCOORD_0":6
					},
					"indices":7
				},
				{
					"attributes":{
						"POSITION":8,
						"NORMAL":9,
						"TEXCOORD_0":10
					},
					"indices":11
				}
			]
		},
		{
			"name":"Plane.001",
			"primitives":[
				{
					"attributes":{
						"POSITION":12,
						"NORMAL":13,
						"TEXCOORD_0":14
					},
					"indices":15
				}
			]
		},
		{
			"name":"Cube.052",
			"primitives":[
				{
					"attributes":{
						"POSITION":16,
						"NORMAL":17,
						"TEXCOORD_0":18
					},
					"indices":19
				}
			]
		}
	],
	"accessors":[
		{
			"bufferView":0,
			"componentType":5126,
			"count":60,
			"max":[
				1.1999999284744263,
				3.2001121044158936,
				1.4000000953674316
			],
			"min":[
				-1.1999999284744263,
				0,
				0.9999999403953552
			],
			"type":"VEC3"
		},
		{
			"bufferView":1,
			"componentType":5126,
			"count":60,
			"type":"VEC3"
		},
		{
			"bufferView":2,
			"componentType":5126,
			"count":60,
			"type":"VEC2"
		},
		{
			"bufferView":3,
			"componentType":5123,
			"count":108,
			"type":"SCALAR"
		},
		{
			"bufferView":4,
			"componentType":5126,
			"count":30,
			"max":[
				3,
				1.2000000476837158,
				-4.3711395392165286e-08
			],
			"min":[
				-3,
				0.9999997615814209,
				-6
			],
			"type":"VEC3"
		},
		{
			"bufferView":5,
			"componentType":5126,
			"count":30,
			"type":"VEC3"
		},
		{
			"bufferView":6,
			"componentType":5126,
			"count":30,
			"type":"VEC2"
		},
		{
			"bufferView":7,
			"componentType":5123,
			"count":54,
			"type":"SCALAR"
		},
		{
			"bufferView":8,
			"componentType":5126,
			"count":20,
			"max":[
				1.2000000476837158,
				1.2000000476837158,
				-4.3711395392165286e-08
			],
			"min":[
				-1.2000000476837158,
				0.9999998807907104,
				-3.200000047683716
			],
			"type":"VEC3"
		},
		{
			"bufferView":9,
			"componentType":5126,
			"count":20,
			"type":"VEC3"
		},
		{
			"bufferView":10,
			"componentType":5126,
			"count":20,
			"type":"VEC2"
		},
		{
			"bufferView":11,
			"componentType":5123,
			"count":30,
			"type":"SCALAR"
		},
		{
			"bufferView":12,
			"componentType":5126,
			"count":10,
			"max":[
				3,
				1.2000000476837158,
				-8.348319369133606e-08
			],
			"min":[
				-3,
				1.2000000476837158,
				-6
			],
			"type":"VEC3"
		},
		{
			"bufferView":13,
			"componentType":5126,
			"count":10,
			"type":"VEC3"
		},
		{
			"bufferView":14,
			"componentType":5126,
			"count":10,
			"type":"VEC2"
		},
		{
			"bufferView":15,
			"componentType":5123,
			"count":24,
			"type":"SCALAR"
		},
		{
			"bufferView":16,
			"componentType":5126,
			"count":64,
			"max":[
				3,
				2.799999952316284,
				0.40000009536743164
			],
			"min":[
				-3,
				-3.000000238418579,
				0.20000028610229492
			],
			"type":"VEC3"
		},
		{
			"bufferView":17,
			"componentType":5126,
			"count":64,
			"type":"VEC3"
		},
		{
			"bufferView":18,
			"componentType":5126,
			"count":64,
			"type":"VEC2"
		},
		{
			"bufferView":19,
			"componentType":5123,
			"count":96,
			"type":"SCALAR"
		}
	],
	"bufferViews":[
		{
			"buffer":0,
			"byteLength":720,
			"byteOffset":0,
			"target":34962
		},
		{
			"buffer":0,
			"byteLength":720,
			"byteOffset":720,
			"target":34962
		},
		{
			"buffer":0,
			"byteLength":480,
			"byteOffset":1440,
			"target":34962
		},
		{
			"buffer":0,
			"byteLength":216,
			"byteOffset":1920,
			"target":34963
		},
		{
			"buffer":0,
			"byteLength":360,
			"byteOffset":2136,
			"target":34962
		},
		{
			"buffer":0,
			"byteLength":360,
			"byteOffset":2496,
			"target":34962
		},
		{
			"buffer":0,
			"byteLength":240,
			"byteOffset":2856,
			"target":34962
		},
		{
			"buffer":0,
			"byteLength":108,
			"byteOffset":3096,
			"target":34963
		},
		{
			"buffer":0,
			"byteLength":240,
			"byteOffset":3204,
			"target":34962
		},
		{
			"buffer":0,
			"byteLength":240,
			"byteOffset":3444,
			"target":34962
		},
		{
			"buffer":0,
			"byteLength":160,
			"byteOffset":3684,
			"target":34962
		},
		{
			"buffer":0,
			"byteLength":60,
			"byteOffset":3844,
			"target":34963
		},
		{
			"buffer":0,
			"byteLength":120,
			"byteOffset":3904,
			"target":34962
		},
		{
			"buffer":0,
			"byteLength":120,
			"byteOffset":4024,
			"target":34962
		},
		{
			"buffer":0,
			"byteLength":80,
			"byteOffset":4144,
			"target":34962
		},
		{
			"buffer":0,
			"byteLength":48,
			"byteOffset":4224,
			"target":34963
		},
		{
			"buffer":0,
			"byteLength":768,
			"byteOffset":4272,
			"target":34962
		},
		{
			"buffer":0,
			"byteLength":768,
			"byteOffset":5040,
			"target":34962
		},
		{
			"buffer":0,
			"byteLength":512,
			"byteOffset":5808,
			"target":34962
		},
		{
			"buffer":0,
			"byteLength":192,
			"byteOffset":6320,
			"target":34963
		}
	],
	"buffers":[
		{
			"byteLength":6512,
			"uri":"data:application/octet-stream;base64,"
		}
	]
}
