{
	"asset":{
		"generator":"Khronos glTF Blender I/O v3.6.28",
		"version":"2.0"
	},
	"scene":0,
	"scenes":[
		{
			"name":"Scene",
			"nodes":[
				0,
				1,
				2,
				3,
				4
			]
		}
	],
	"nodes":[
		{
			"mesh":0,
			"name":"Door_Wall",
			"rotation":[
				0.7071068286895752,
				0,
				0,
				0.7071068286895752
			],
			"translation":[
				0,
				0,
				-0.8999999761581421
			]
		},
		{
			"mesh":1,
			"name":"Doorway_Interior_Bot",
			"translation":[
				0,
				3,
				0.09999999403953552
			]
		},
		{
			"mesh":2,
			"name":"Doorway_Interior_Top",
			"translation":[
				0,
				3,
				0.09999999403953552
			]
		},
		{
			"mesh":3,
			"name":"Kitchen_Counter",
			"translation":[
				0,
				0,
				-0.8999999761581421
			]
		},
		{
			"mesh":4,
			"name":"Kitchen_Counter_Top",
			"translation":[
				0,
				0,
				-0.8999999761581421
			]
		}
	],
	"meshes":[
		{
			"name":"Plane.004",
			"primitives":[
				{
					"attributes":{
						"POSITION":0,
						"NORMAL":1,
						"TEXCOORD_0":2
					},
					"indices":3
				},
				{
					"attributes":{
						"POSITION":4,
						"NORMAL":5,
						"TEXCOORD_0":6
					},
					"indices":7
				}
			]
		},
		{
			"name":"Cube.052",
			"primitives":[
				{
					"attributes":{
						"POSITION":8,
						"NORMAL":9,
						"TEXCOORD_0":10
					},
					"indices":11
				}
			]
		},
		{
			"name":"Cube.003",
			"primitives":[
				{
					"attributes":{
						"POSITION":12,
						"NORMAL":13,
						"TEXCOORD_0":14
					},
					"indices":15
				}
			]
		},
		{
			"name":"Cube.001",
			"primitives":[
				{
					"attributes":{
						"POSITION":16,
						"NORMAL":17,
						"TEXCOORD_0":18
					},
					"indices":19
				}
			]
		},
		{
			"name":"Cube.002",
			"primitives":[
				{
					"attributes":{
						"POSITION":20,
						"NORMAL":21,
						"TEXCOORD_0":22
					},
					"indices":23
				}
			]
		}
	],
	"accessors":[
		{
			"bufferView":0,
			"componentType":5126,
			"count":56,
			"max":[
				5,
				1.1000001430511475,
				-3.934026082674791e-08
			],
			"min":[
				-5,
				0.8999999761581421,
				-6
			],
			"type":"VEC3"
		},
		{
			"bufferView":1,
			"componentType":5126,
			"count":56,
			"type":"VEC3"
		},
		{
			"bufferView":2,
			"componentType":5126,
			"count":56,
			"type":"VEC2"
		},
		{
			"bufferView":3,
			"componentType":5123,
			"count":132,
			"type":"SCALAR"
		},
		{
			"bufferView":4,
			"componentType":5126,
			"count":28,
			"max":[
				4,
				1.1000001430511475,
				-1
			],
			"min":[
				-4,
				0.9000000357627869,
				-4
			],
			"type":"VEC3"
		},
		{
			"bufferView":5,
			"componentType":5126,
			"count":28,
			"type":"VEC3"
		},
		{
			"bufferView":6,
			"componentType":5126,
			"count":28,
			"type":"VEC2"
		},
		{
			"bufferView":7,
			"componentType":5123,
			"count":48,
			"type":"SCALAR"
		},
		{
			"bufferView":8,
			"componentType":5126,
			"count":24,
			"max":[
				5,
				-2.299999475479126,
				0.30000025033950806
			],
			"min":[
				-5,
				-3.000000238418579,
				0.10000044107437134
			],
			"type":"VEC3"
		},
		{
			"bufferView":9,
			"componentType":5126,
			"count":24,
			"type":"VEC3"
		},
		{
			"bufferView":10,
			"componentType":5126,
			"count":24,
			"type":"VEC2"
		},
		{
			"bufferView":11,
			"componentType":5123,
			"count":36,
			"type":"SCALAR"
		},
		{
			"bufferView":12,
			"componentType":5126,
			"count":24,
			"max":[
				5,
				3,
				0.30000025033950806
			],
			"min":[
				-5,
				2.3000001907348633,
				0.10000044107437134
			],
			"type":"VEC3"
		},
		{
			"bufferView":13,
			"componentType":5126,
			"count":24,
			"type":"VEC3"
		},
		{
			"bufferView":14,
			"componentType":5126,
			"count":24,
			"type":"VEC2"
		},
		{
			"bufferView":15,
			"componentType":5123,
			"count":36,
			"type":"SCALAR"
		},
		{
			"bufferView":16,
			"componentType":5126,
			"count":32,
			"max":[
				4,
				1.100000023841858,
				1.500000238418579
			],
			"min":[
				-4,
				1,
				0.9000002145767212
			],
			"type":"VEC3"
		},
		{
			"bufferView":17,
			"componentType":5126,
			"count":32,
			"type":"VEC3"
		},
		{
			"bufferView":18,
			"componentType":5126,
			"count":32,
			"type":"VEC2"
		},
		{
			"bufferView":19,
			"componentType":5123,
			"count":60,
			"type":"SCALAR"
		},
		{
			"bufferView":20,
			"componentType":5126,
			"count":74,
			"max":[
				4,
				4,
				1.500000238418579
			],
			"min":[
				-4,
				3.4000000953674316,
				0.9000002145767212
			],
			"type":"VEC3"
		},
		{
			"bufferView":21,
			"componentType":5126,
			"count":74,
			"type":"VEC3"
		},
		{
			"bufferView":22,
			"componentType":5126,
			"count":74,
			"type":"VEC2"
		},
		{
			"bufferView":23,
			"componentType":5123,
			"count":168,
			"type":"SCALAR"
		}
	],
	"bufferViews":[
		{
			"buffer":0,
			"byteLength":672,
			"byteOffset":0,
			"target":34962
		},
		{
			"buffer":0,
			"byteLength":672,
			"byteOffset":672,
			"target":34962
		},
		{
			"buffer":0,
			"byteLength":448,
			"byteOffset":1344,
			"target":34962
		},
		{
			"buffer":0,
			"byteLength":264,
			"byteOffset":1792,
			"target":34963
		},
		{
			"buffer":0,
			"byteLength":336,
			"byteOffset":2056,
			"target":34962
		},
		{
			"buffer":0,
			"byteLength":336,
			"byteOffset":2392,
			"target":34962
		},
		{
			"buffer":0,
			"byteLength":224,
			"byteOffset":2728,
			"target":34962
		},
		{
			"buffer":0,
			"byteLength":96,
			"byteOffset":2952,
			"target":34963
		},
		{
			"buffer":0,
			"byteLength":288,
			"byteOffset":3048,
			"target":34962
		},
		{
			"buffer":0,
			"byteLength":288,
			"byteOffset":3336,
			"target":34962
		},
		{
			"buffer":0,
			"byteLength":192,
			"byteOffset":3624,
			"target":34962
		},
		{
			"buffer":0,
			"byteLength":72,
			"byteOffset":3816,
			"target":34963
		},
		{
			"buffer":0,
			"byteLength":288,
			"byteOffset":3888,
			"target":34962
		},
		{
			"buffer":0,
			"byteLength":288,
			"byteOffset":4176,
			"target":34962
		},
		{
			"buffer":0,
			"byteLength":192,
			"byteOffset":4464,
			"target":34962
		},
		{
			"buffer":0,
			"byteLength":72,
			"byteOffset":4656,
			"target":34963
		},
		{
			"buffer":0,
			"byteLength":384,
			"byteOffset":4728,
			"target":34962
		},
		{
			"buffer":0,
			"byteLength":384,
			"byteOffset":5112,
			"target":34962
		},
		{
			"buffer":0,
			"byteLength":256,
			"byteOffset":5496,
			"target":34962
		},
		{
			"buffer":0,
			"byteLength":120,
			"byteOffset":5752,
			"target":34963
		},
		{
			"buffer":0,
			"byteLength":888,
			"byteOffset":5872,
			"target":34962
		},
		{
			"buffer":0,
			"byteLength":888,
			"byteOffset":6760,
			"target":34962
		},
		{
			"buffer":0,
			"byteLength":592,
			"byteOffset":7648,
			"target":34962
		},
		{
			"buffer":0,
			"byteLength":336,
			"byteOffset":8240,
			"target":34963
		}
	],
	"buffers":[
		{
			"byteLength":8576,
			"uri":"data:application/octet-stream;base64,"
		}
	]
}
