{
	"asset":{
		"generator":"Khronos glTF Blender I/O v3.6.28",
		"version":"2.0"
	},
	"scene":0,
	"scenes":[
		{
			"name":"Scene",
			"nodes":[
				0,
				1,
				2,
				3
			]
		}
	],
	"nodes":[
		{
			"mesh":0,
			"name":"Doorway_Interior",
			"translation":[
				0,
				3,
				0
			]
		},
		{
			"mesh":1,
			"name":"Door_Wall",
			"rotation":[
				0.7071068286895752,
				0,
				0,
				0.7071068286895752
			],
			"translation":[
				0,
				0,
				-1
			]
		},
		{
			"mesh":2,
			"name":"Door_Frame.001",
			"translation":[
				0,
				0,
				-1
			]
		},
		{
			"mesh":3,
			"name":"Door_Frame.002",
			"translation":[
				0,
				0,
				-1
			]
		}
	],
	"meshes":[
		{
			"name":"Cube.052",
			"primitives":[
				{
					"attributes":{
						"POSITION":0,
						"NORMAL":1,
						"TEXCOORD_0":2
					},
					"indices":3
				}
			]
		},
		{
			"name":"Plane.004",
			"primitives":[
				{
					"attributes":{
						"POSITION":4,
						"NORMAL":5,
						"TEXCOORD_0":6
					},
					"indices":7
				},
				{
					"attributes":{
						"POSITION":8,
						"NORMAL":9,
						"TEXCOORD_0":10
					},
					"indices":11
				}
			]
		},
		{
			"name":"Cube.001",
			"primitives":[
				{
					"attributes":{
						"POSITION":12,
						"NORMAL":13,
						"TEXCOORD_0":14
					},
					"indices":15
				}
			]
		},
		{
			"name":"Cube.002",
			"primitives":[
				{
					"attributes":{
						"POSITION":16,
						"NORMAL":17,
						"TEXCOORD_0":18
					},
					"indices":19
				}
			]
		}
	],
	"accessors":[
		{
			"bufferView":0,
			"componentType":5126,
			"count":48,
			"max":[
				5,
				3,
				2.384185791015625e-07
			],
			"min":[
				-5,
				-3.000000238418579,
				-0.19999957084655762
			],
			"type":"VEC3"
		},
		{
			"bufferView":1,
			"componentType":5126,
			"count":48,
			"type":"VEC3"
		},
		{
			"bufferView":2,
			"componentType":5126,
			"count":48,
			"type":"VEC2"
		},
		{
			"bufferView":3,
			"componentType":5123,
			"count":72,
			"type":"SCALAR"
		},
		{
			"bufferView":4,
			"componentType":5126,
			"count":60,
			"max":[
				5,
				0.8000001907348633,
				-2.6226842919641058e-08
			],
			"min":[
				-5,
				0.5999999046325684,
				-6
			],
			"type":"VEC3"
		},
		{
			"bufferView":5,
			"componentType":5126,
			"count":60,
			"type":"VEC3"
		},
		{
			"bufferView":6,
			"componentType":5126,
			"count":60,
			"type":"VEC2"
		},
		{
			"bufferView":7,
			"componentType":5123,
			"count":132,
			"type":"SCALAR"
		},
		{
			"bufferView":8,
			"componentType":5126,
			"count":28,
			"max":[
				4,
				0.8000001907348633,
				-1
			],
			"min":[
				-4,
				0.5999999642372131,
				-4
			],
			"type":"VEC3"
		},
		{
			"bufferView":9,
			"componentType":5126,
			"count":28,
			"type":"VEC3"
		},
		{
			"bufferView":10,
			"componentType":5126,
			"count":28,
			"type":"VEC2"
		},
		{
			"bufferView":11,
			"componentType":5123,
			"count":48,
			"type":"SCALAR"
		},
		{
			"bufferView":12,
			"componentType":5126,
			"count":32,
			"max":[
				4,
				1.100000023841858,
				1.200000286102295
			],
			"min":[
				-4,
				1,
				0.20000022649765015
			],
			"type":"VEC3"
		},
		{
			"bufferView":13,
			"componentType":5126,
			"count":32,
			"type":"VEC3"
		},
		{
			"bufferView":14,
			"componentType":5126,
			"count":32,
			"type":"VEC2"
		},
		{
			"bufferView":15,
			"componentType":5123,
			"count":60,
			"type":"SCALAR"
		},
		{
			"bufferView":16,
			"componentType":5126,
			"count":74,
			"max":[
				4,
				4,
				1.200000286102295
			],
			"min":[
				-4,
				3.4000000953674316,
				0.20000021159648895
			],
			"type":"VEC3"
		},
		{
			"bufferView":17,
			"componentType":5126,
			"count":74,
			"type":"VEC3"
		},
		{
			"bufferView":18,
			"componentType":5126,
			"count":74,
			"type":"VEC2"
		},
		{
			"bufferView":19,
			"componentType":5123,
			"count":168,
			"type":"SCALAR"
		}
	],
	"bufferViews":[
		{
			"buffer":0,
			"byteLength":576,
			"byteOffset":0,
			"target":34962
		},
		{
			"buffer":0,
			"byteLength":576,
			"byteOffset":576,
			"target":34962
		},
		{
			"buffer":0,
			"byteLength":384,
			"byteOffset":1152,
			"target":34962
		},
		{
			"buffer":0,
			"byteLength":144,
			"byteOffset":1536,
			"target":34963
		},
		{
			"buffer":0,
			"byteLength":720,
			"byteOffset":1680,
			"target":34962
		},
		{
			"buffer":0,
			"byteLength":720,
			"byteOffset":2400,
			"target":34962
		},
		{
			"buffer":0,
			"byteLength":480,
			"byteOffset":3120,
			"target":34962
		},
		{
			"buffer":0,
			"byteLength":264,
			"byteOffset":3600,
			"target":34963
		},
		{
			"buffer":0,
			"byteLength":336,
			"byteOffset":3864,
			"target":34962
		},
		{
			"buffer":0,
			"byteLength":336,
			"byteOffset":4200,
			"target":34962
		},
		{
			"buffer":0,
			"byteLength":224,
			"byteOffset":4536,
			"target":34962
		},
		{
			"buffer":0,
			"byteLength":96,
			"byteOffset":4760,
			"target":34963
		},
		{
			"buffer":0,
			"byteLength":384,
			"byteOffset":4856,
			"target":34962
		},
		{
			"buffer":0,
			"byteLength":384,
			"byteOffset":5240,
			"target":34962
		},
		{
			"buffer":0,
			"byteLength":256,
			"byteOffset":5624,
			"target":34962
		},
		{
			"buffer":0,
			"byteLength":120,
			"byteOffset":5880,
			"target":34963
		},
		{
			"buffer":0,
			"byteLength":888,
			"byteOffset":6000,
			"target":34962
		},
		{
			"buffer":0,
			"byteLength":888,
			"byteOffset":6888,
			"target":34962
		},
		{
			"buffer":0,
			"byteLength":592,
			"byteOffset":7776,
			"target":34962
		},
		{
			"buffer":0,
			"byteLength":336,
			"byteOffset":8368,
			"target":34963
		}
	],
	"buffers":[
		{
			"byteLength":8704,
			"uri":"data:application/octet-stream;base64,"
		}
	]
}
