{
	"asset":{
		"generator":"Khronos glTF Blender I/O v3.6.28",
		"version":"2.0"
	},
	"scene":0,
	"scenes":[
		{
			"name":"Scene",
			"nodes":[
				0,
				1,
				2,
				3,
				4,
				5,
				6,
				7,
				8,
				9
			]
		}
	],
	"nodes":[
		{
			"mesh":0,
			"name":"Door_Wall",
			"rotation":[
				0.7071068286895752,
				0,
				0,
				0.7071068286895752
			],
			"translation":[
				0,
				0,
				-0.8999999761581421
			]
		},
		{
			"mesh":1,
			"name":"Cabinet.003",
			"translation":[
				0,
				0,
				0.09999999403953552
			]
		},
		{
			"mesh":2,
			"name":"Light_Strip",
			"translation":[
				0,
				0,
				0.09999999403953552
			]
		},
		{
			"mesh":3,
			"name":"Counter",
			"translation":[
				0,
				0,
				0.09999999403953552
			]
		},
		{
			"mesh":4,
			"name":"Counter.001",
			"translation":[
				0,
				0,
				0.09999999403953552
			]
		},
		{
			"mesh":5,
			"name":"Counter.002",
			"translation":[
				0,
				0,
				0.09999999403953552
			]
		},
		{
			"mesh":6,
			"name":"Counter.003",
			"translation":[
				0,
				0,
				0.09999999403953552
			]
		},
		{
			"mesh":7,
			"name":"Cabinet.002",
			"translation":[
				0,
				0,
				0.09999999403953552
			]
		},
		{
			"mesh":8,
			"name":"Cabinet.001",
			"translation":[
				0,
				0,
				0.09999999403953552
			]
		},
		{
			"mesh":9,
			"name":"Wall_Divier",
			"translation":[
				0,
				0,
				0.09999999403953552
			]
		}
	],
	"meshes":[
		{
			"name":"Plane.004",
			"primitives":[
				{
					"attributes":{
						"POSITION":0,
						"NORMAL":1,
						"TEXCOORD_0":2
					},
					"indices":3
				}
			]
		},
		{
			"name":"Cube.005",
			"primitives":[
				{
					"attributes":{
						"POSITION":4,
						"NORMAL":5,
						"TEXCOORD_0":6
					},
					"indices":7
				}
			]
		},
		{
			"name":"Cube.006",
			"primitives":[
				{
					"attributes":{
						"POSITION":8,
						"NORMAL":9,
						"TEXCOORD_0":10
					},
					"indices":11
				}
			]
		},
		{
			"name":"Cube.008",
			"primitives":[
				{
					"attributes":{
						"POSITION":12,
						"NORMAL":13,
						"TEXCOORD_0":14
					},
					"indices":15
				}
			]
		},
		{
			"name":"Cube.015",
			"primitives":[
				{
					"attributes":{
						"POSITION":16,
						"NORMAL":17,
						"TEXCOORD_0":18
					},
					"indices":15
				}
			]
		},
		{
			"name":"Cube.016",
			"primitives":[
				{
					"attributes":{
						"POSITION":19,
						"NORMAL":20,
						"TEXCOORD_0":21
					},
					"indices":15
				}
			]
		},
		{
			"name":"Cube.017",
			"primitives":[
				{
					"attributes":{
						"POSITION":22,
						"NORMAL":23,
						"TEXCOORD_0":24
					},
					"indices":15
				}
			]
		},
		{
			"name":"Cube.018",
			"primitives":[
				{
					"attributes":{
						"POSITION":25,
						"NORMAL":26,
						"TEXCOORD_0":27
					},
					"indices":28
				}
			]
		},
		{
			"name":"Cube.019",
			"primitives":[
				{
					"attributes":{
						"POSITION":29,
						"NORMAL":30,
						"TEXCOORD_0":31
					},
					"indices":32
				}
			]
		},
		{
			"name":"Cube.020",
			"primitives":[
				{
					"attributes":{
						"POSITION":33,
						"NORMAL":34,
						"TEXCOORD_0":35
					},
					"indices":36
				}
			]
		}
	],
	"accessors":[
		{
			"bufferView":0,
			"componentType":5126,
			"count":36,
			"max":[
				5,
				1.1000001430511475,
				-3.934026082674791e-08
			],
			"min":[
				-5,
				0.8999999761581421,
				-6
			],
			"type":"VEC3"
		},
		{
			"bufferView":1,
			"componentType":5126,
			"count":36,
			"type":"VEC3"
		},
		{
			"bufferView":2,
			"componentType":5126,
			"count":36,
			"type":"VEC2"
		},
		{
			"bufferView":3,
			"componentType":5123,
			"count":66,
			"type":"SCALAR"
		},
		{
			"bufferView":4,
			"componentType":5126,
			"count":176,
			"max":[
				5,
				5.500000476837158,
				0.6000000238418579
			],
			"min":[
				2,
				2.0000007152557373,
				0.10000006854534149
			],
			"type":"VEC3"
		},
		{
			"bufferView":5,
			"componentType":5126,
			"count":176,
			"type":"VEC3"
		},
		{
			"bufferView":6,
			"componentType":5126,
			"count":176,
			"type":"VEC2"
		},
		{
			"bufferView":7,
			"componentType":5123,
			"count":360,
			"type":"SCALAR"
		},
		{
			"bufferView":8,
			"componentType":5126,
			"count":48,
			"max":[
				2,
				5.5,
				0.19999995827674866
			],
			"min":[
				-1.8000000715255737,
				1.0999999046325684,
				0.10000002384185791
			],
			"type":"VEC3"
		},
		{
			"bufferView":9,
			"componentType":5126,
			"count":48,
			"type":"VEC3"
		},
		{
			"bufferView":10,
			"componentType":5126,
			"count":48,
			"type":"VEC2"
		},
		{
			"bufferView":11,
			"componentType":5123,
			"count":72,
			"type":"SCALAR"
		},
		{
			"bufferView":12,
			"componentType":5126,
			"count":52,
			"max":[
				-2.4000000953674316,
				1.100000023841858,
				1.7999999523162842
			],
			"min":[
				-4.800000190734863,
				0,
				0.10000002384185791
			],
			"type":"VEC3"
		},
		{
			"bufferView":13,
			"componentType":5126,
			"count":52,
			"type":"VEC3"
		},
		{
			"bufferView":14,
			"componentType":5126,
			"count":52,
			"type":"VEC2"
		},
		{
			"bufferView":15,
			"componentType":5123,
			"count":96,
			"type":"SCALAR"
		},
		{
			"bufferView":16,
			"componentType":5126,
			"count":52,
			"max":[
				0.09999994933605194,
				1.100000023841858,
				1.7999999523162842
			],
			"min":[
				-2.4000000953674316,
				0,
				0.10000002384185791
			],
			"type":"VEC3"
		},
		{
			"bufferView":17,
			"componentType":5126,
			"count":52,
			"type":"VEC3"
		},
		{
			"bufferView":18,
			"componentType":5126,
			"count":52,
			"type":"VEC2"
		},
		{
			"bufferView":19,
			"componentType":5126,
			"count":52,
			"max":[
				2.5999999046325684,
				1.100000023841858,
				1.7999999523162842
			],
			"min":[
				0.09999972581863403,
				0,
				0.10000002384185791
			],
			"type":"VEC3"
		},
		{
			"bufferView":20,
			"componentType":5126,
			"count":52,
			"type":"VEC3"
		},
		{
			"bufferView":21,
			"componentType":5126,
			"count":52,
			"type":"VEC2"
		},
		{
			"bufferView":22,
			"componentType":5126,
			"count":52,
			"max":[
				5,
				1.100000023841858,
				1.7999999523162842
			],
			"min":[
				2.5999999046325684,
				0,
				0.10000002384185791
			],
			"type":"VEC3"
		},
		{
			"bufferView":23,
			"componentType":5126,
			"count":52,
			"type":"VEC3"
		},
		{
			"bufferView":24,
			"componentType":5126,
			"count":52,
			"type":"VEC2"
		},
		{
			"bufferView":25,
			"componentType":5126,
			"count":144,
			"max":[
				-1.7999999523162842,
				5.500000476837158,
				0.637499988079071
			],
			"min":[
				-4.800000190734863,
				2.000000238418579,
				0.13750006258487701
			],
			"type":"VEC3"
		},
		{
			"bufferView":26,
			"componentType":5126,
			"count":144,
			"type":"VEC3"
		},
		{
			"bufferView":27,
			"componentType":5126,
			"count":144,
			"type":"VEC2"
		},
		{
			"bufferView":28,
			"componentType":5123,
			"count":312,
			"type":"SCALAR"
		},
		{
			"bufferView":29,
			"componentType":5126,
			"count":176,
			"max":[
				1.600000023841858,
				5.5,
				0.637499988079071
			],
			"min":[
				-1.399999976158142,
				1.9999995231628418,
				0.13750003278255463
			],
			"type":"VEC3"
		},
		{
			"bufferView":30,
			"componentType":5126,
			"count":176,
			"type":"VEC3"
		},
		{
			"bufferView":31,
			"componentType":5126,
			"count":176,
			"type":"VEC2"
		},
		{
			"bufferView":32,
			"componentType":5123,
			"count":360,
			"type":"SCALAR"
		},
		{
			"bufferView":33,
			"componentType":5126,
			"count":24,
			"max":[
				-4.800000190734863,
				6,
				1.7999999523162842
			],
			"min":[
				-5,
				0,
				0.10000002384185791
			],
			"type":"VEC3"
		},
		{
			"bufferView":34,
			"componentType":5126,
			"count":24,
			"type":"VEC3"
		},
		{
			"bufferView":35,
			"componentType":5126,
			"count":24,
			"type":"VEC2"
		},
		{
			"bufferView":36,
			"componentType":5123,
			"count":36,
			"type":"SCALAR"
		}
	],
	"bufferViews":[
		{
			"buffer":0,
			"byteLength":432,
			"byteOffset":0,
			"target":34962
		},
		{
			"buffer":0,
			"byteLength":432,
			"byteOffset":432,
			"target":34962
		},
		{
			"buffer":0,
			"byteLength":288,
			"byteOffset":864,
			"target":34962
		},
		{
			"buffer":0,
			"byteLength":132,
			"byteOffset":1152,
			"target":34963
		},
		{
			"buffer":0,
			"byteLength":2112,
			"byteOffset":1284,
			"target":34962
		},
		{
			"buffer":0,
			"byteLength":2112,
			"byteOffset":3396,
			"target":34962
		},
		{
			"buffer":0,
			"byteLength":1408,
			"byteOffset":5508,
			"target":34962
		},
		{
			"buffer":0,
			"byteLength":720,
			"byteOffset":6916,
			"target":34963
		},
		{
			"buffer":0,
			"byteLength":576,
			"byteOffset":7636,
			"target":34962
		},
		{
			"buffer":0,
			"byteLength":576,
			"byteOffset":8212,
			"target":34962
		},
		{
			"buffer":0,
			"byteLength":384,
			"byteOffset":8788,
			"target":34962
		},
		{
			"buffer":0,
			"byteLength":144,
			"byteOffset":9172,
			"target":34963
		},
		{
			"buffer":0,
			"byteLength":624,
			"byteOffset":9316,
			"target":34962
		},
		{
			"buffer":0,
			"byteLength":624,
			"byteOffset":9940,
			"target":34962
		},
		{
			"buffer":0,
			"byteLength":416,
			"byteOffset":10564,
			"target":34962
		},
		{
			"buffer":0,
			"byteLength":192,
			"byteOffset":10980,
			"target":34963
		},
		{
			"buffer":0,
			"byteLength":624,
			"byteOffset":11172,
			"target":34962
		},
		{
			"buffer":0,
			"byteLength":624,
			"byteOffset":11796,
			"target":34962
		},
		{
			"buffer":0,
			"byteLength":416,
			"byteOffset":12420,
			"target":34962
		},
		{
			"buffer":0,
			"byteLength":624,
			"byteOffset":12836,
			"target":34962
		},
		{
			"buffer":0,
			"byteLength":624,
			"byteOffset":13460,
			"target":34962
		},
		{
			"buffer":0,
			"byteLength":416,
			"byteOffset":14084,
			"target":34962
		},
		{
			"buffer":0,
			"byteLength":624,
			"byteOffset":14500,
			"target":34962
		},
		{
			"buffer":0,
			"byteLength":624,
			"byteOffset":15124,
			"target":34962
		},
		{
			"buffer":0,
			"byteLength":416,
			"byteOffset":15748,
			"target":34962
		},
		{
			"buffer":0,
			"byteLength":1728,
			"byteOffset":16164,
			"target":34962
		},
		{
			"buffer":0,
			"byteLength":1728,
			"byteOffset":17892,
			"target":34962
		},
		{
			"buffer":0,
			"byteLength":1152,
			"byteOffset":19620,
			"target":34962
		},
		{
			"buffer":0,
			"byteLength":624,
			"byteOffset":20772,
			"target":34963
		},
		{
			"buffer":0,
			"byteLength":2112,
			"byteOffset":21396,
			"target":34962
		},
		{
			"buffer":0,
			"byteLength":2112,
			"byteOffset":23508,
			"target":34962
		},
		{
			"buffer":0,
			"byteLength":1408,
			"byteOffset":25620,
			"target":34962
		},
		{
			"buffer":0,
			"byteLength":720,
			"byteOffset":27028,
			"target":34963
		},
		{
			"buffer":0,
			"byteLength":288,
			"byteOffset":27748,
			"target":34962
		},
		{
			"buffer":0,
			"byteLength":288,
			"byteOffset":28036,
			"target":34962
		},
		{
			"buffer":0,
			"byteLength":192,
			"byteOffset":28324,
			"target":34962
		},
		{
			"buffer":0,
			"byteLength":72,
			"byteOffset":28516,
			"target":34963
		}
	],
	"buffers":[
		{
			"byteLength":28588,
			"uri":"data:application/octet-stream;base64,"
		}
	]
}
