{
	"asset":{
		"generator":"Khronos glTF Blender I/O v3.6.28",
		"version":"2.0"
	},
	"scene":0,
	"scenes":[
		{
			"name":"Scene",
			"nodes":[
				0,
				1,
				2,
				3,
				4,
				5,
				6
			]
		}
	],
	"nodes":[
		{
			"mesh":0,
			"name":"Large_Window_Frame",
			"rotation":[
				0,
				0,
				0.7071066498756409,
				0.70710688829422
			],
			"translation":[
				0,
				0,
				0.19999998807907104
			]
		},
		{
			"mesh":1,
			"name":"Large_Window",
			"translation":[
				0,
				0,
				-1
			]
		},
		{
			"mesh":2,
			"name":"Large_Wall_Window",
			"rotation":[
				0.7071068286895752,
				0,
				0,
				0.7071068286895752
			],
			"translation":[
				0,
				0,
				0.19999998807907104
			]
		},
		{
			"mesh":3,
			"name":"Large_Wall_Interior_Top_Bottom",
			"translation":[
				0,
				3,
				0.19999998807907104
			]
		},
		{
			"mesh":4,
			"name":"Large_Wall_Interior_Sides",
			"translation":[
				0,
				3,
				0.19999998807907104
			]
		},
		{
			"mesh":5,
			"name":"Large_Middle_Extrusion",
			"rotation":[
				0.7071068286895752,
				0,
				0,
				0.7071068286895752
			],
			"translation":[
				0,
				0,
				0.19999998807907104
			]
		},
		{
			"mesh":6,
			"name":"Large_Extruded_Wall_Window",
			"rotation":[
				0.7071068286895752,
				0,
				0,
				0.7071068286895752
			],
			"translation":[
				0,
				3,
				0.19999998807907104
			]
		}
	],
	"meshes":[
		{
			"name":"Cube.018",
			"primitives":[
				{
					"attributes":{
						"POSITION":0,
						"NORMAL":1,
						"TEXCOORD_0":2
					},
					"indices":3
				},
				{
					"attributes":{
						"POSITION":4,
						"NORMAL":5,
						"TEXCOORD_0":6
					},
					"indices":7
				}
			]
		},
		{
			"name":"Cube.019",
			"primitives":[
				{
					"attributes":{
						"POSITION":8,
						"NORMAL":9,
						"TEXCOORD_0":10
					},
					"indices":11
				}
			]
		},
		{
			"name":"Plane.022",
			"primitives":[
				{
					"attributes":{
						"POSITION":12,
						"NORMAL":13,
						"TEXCOORD_0":14
					},
					"indices":15
				},
				{
					"attributes":{
						"POSITION":16,
						"NORMAL":17,
						"TEXCOORD_0":18
					},
					"indices":19
				}
			]
		},
		{
			"name":"Cube.060",
			"primitives":[
				{
					"attributes":{
						"POSITION":20,
						"NORMAL":21,
						"TEXCOORD_0":22
					},
					"indices":23
				}
			]
		},
		{
			"name":"Cube.059",
			"primitives":[
				{
					"attributes":{
						"POSITION":24,
						"NORMAL":25,
						"TEXCOORD_0":26
					},
					"indices":27
				}
			]
		},
		{
			"name":"Plane.026",
			"primitives":[
				{
					"attributes":{
						"POSITION":28,
						"NORMAL":29,
						"TEXCOORD_0":30
					},
					"indices":31
				}
			]
		},
		{
			"name":"Plane.021",
			"primitives":[
				{
					"attributes":{
						"POSITION":32,
						"NORMAL":33,
						"TEXCOORD_0":34
					},
					"indices":35
				}
			]
		}
	],
	"accessors":[
		{
			"bufferView":0,
			"componentType":5126,
			"count":468,
			"max":[
				4.699999809265137,
				6.500000953674316,
				-0.1999988555908203
			],
			"min":[
				1.2999999523162842,
				-6.500000953674316,
				-0.5
			],
			"type":"VEC3"
		},
		{
			"bufferView":1,
			"componentType":5126,
			"count":468,
			"type":"VEC3"
		},
		{
			"bufferView":2,
			"componentType":5126,
			"count":468,
			"type":"VEC2"
		},
		{
			"bufferView":3,
			"componentType":5123,
			"count":834,
			"type":"SCALAR"
		},
		{
			"bufferView":4,
			"componentType":5126,
			"count":74,
			"max":[
				4.699999809265137,
				6.5,
				-0.19999980926513672
			],
			"min":[
				1.2999999523162842,
				-6.5,
				-0.39999961853027344
			],
			"type":"VEC3"
		},
		{
			"bufferView":5,
			"componentType":5126,
			"count":74,
			"type":"VEC3"
		},
		{
			"bufferView":6,
			"componentType":5126,
			"count":74,
			"type":"VEC2"
		},
		{
			"bufferView":7,
			"componentType":5123,
			"count":150,
			"type":"SCALAR"
		},
		{
			"bufferView":8,
			"componentType":5126,
			"count":132,
			"max":[
				6.5,
				4.700000286102295,
				0.7002124786376953
			],
			"min":[
				-6.5,
				1.3000000715255737,
				0.352294921875
			],
			"type":"VEC3"
		},
		{
			"bufferView":9,
			"componentType":5126,
			"count":132,
			"type":"VEC3"
		},
		{
			"bufferView":10,
			"componentType":5126,
			"count":132,
			"type":"VEC2"
		},
		{
			"bufferView":11,
			"componentType":5123,
			"count":216,
			"type":"SCALAR"
		},
		{
			"bufferView":12,
			"componentType":5126,
			"count":56,
			"max":[
				8,
				-0.19999980926513672,
				1.748455247252423e-08
			],
			"min":[
				-8,
				-0.39999961853027344,
				-6
			],
			"type":"VEC3"
		},
		{
			"bufferView":13,
			"componentType":5126,
			"count":56,
			"type":"VEC3"
		},
		{
			"bufferView":14,
			"componentType":5126,
			"count":56,
			"type":"VEC2"
		},
		{
			"bufferView":15,
			"componentType":5123,
			"count":156,
			"type":"SCALAR"
		},
		{
			"bufferView":16,
			"componentType":5126,
			"count":64,
			"max":[
				6.5,
				-0.19999980926513672,
				-1.2999999523162842
			],
			"min":[
				-6.5,
				-0.39999961853027344,
				-4.699999809265137
			],
			"type":"VEC3"
		},
		{
			"bufferView":17,
			"componentType":5126,
			"count":64,
			"type":"VEC3"
		},
		{
			"bufferView":18,
			"componentType":5126,
			"count":64,
			"type":"VEC2"
		},
		{
			"bufferView":19,
			"componentType":5123,
			"count":96,
			"type":"SCALAR"
		},
		{
			"bufferView":20,
			"componentType":5126,
			"count":96,
			"max":[
				7.600000381469727,
				2.799999952316284,
				0
			],
			"min":[
				-7.600000381469727,
				-3.000000238418579,
				-0.1999988555908203
			],
			"type":"VEC3"
		},
		{
			"bufferView":21,
			"componentType":5126,
			"count":96,
			"type":"VEC3"
		},
		{
			"bufferView":22,
			"componentType":5126,
			"count":96,
			"type":"VEC2"
		},
		{
			"bufferView":23,
			"componentType":5123,
			"count":144,
			"type":"SCALAR"
		},
		{
			"bufferView":24,
			"componentType":5126,
			"count":84,
			"max":[
				8,
				2.800001382827759,
				0
			],
			"min":[
				-8,
				-3.000000238418579,
				-0.1999988555908203
			],
			"type":"VEC3"
		},
		{
			"bufferView":25,
			"componentType":5126,
			"count":84,
			"type":"VEC3"
		},
		{
			"bufferView":26,
			"componentType":5126,
			"count":84,
			"type":"VEC2"
		},
		{
			"bufferView":27,
			"componentType":5123,
			"count":138,
			"type":"SCALAR"
		},
		{
			"bufferView":28,
			"componentType":5126,
			"count":132,
			"max":[
				0.800000011920929,
				-0.39999961853027344,
				-0.49999991059303284
			],
			"min":[
				-0.800000011920929,
				-0.5,
				-5.5
			],
			"type":"VEC3"
		},
		{
			"bufferView":29,
			"componentType":5126,
			"count":132,
			"type":"VEC3"
		},
		{
			"bufferView":30,
			"componentType":5126,
			"count":132,
			"type":"VEC2"
		},
		{
			"bufferView":31,
			"componentType":5123,
			"count":234,
			"type":"SCALAR"
		},
		{
			"bufferView":32,
			"componentType":5126,
			"count":396,
			"max":[
				8,
				-0.39999961853027344,
				3.000000238418579
			],
			"min":[
				-8,
				-0.5,
				-3.000000238418579
			],
			"type":"VEC3"
		},
		{
			"bufferView":33,
			"componentType":5126,
			"count":396,
			"type":"VEC3"
		},
		{
			"bufferView":34,
			"componentType":5126,
			"count":396,
			"type":"VEC2"
		},
		{
			"bufferView":35,
			"componentType":5123,
			"count":876,
			"type":"SCALAR"
		}
	],
	"bufferViews":[
		{
			"buffer":0,
			"byteLength":5616,
			"byteOffset":0,
			"target":34962
		},
		{
			"buffer":0,
			"byteLength":5616,
			"byteOffset":5616,
			"target":34962
		},
		{
			"buffer":0,
			"byteLength":3744,
			"byteOffset":11232,
			"target":34962
		},
		{
			"buffer":0,
			"byteLength":1668,
			"byteOffset":14976,
			"target":34963
		},
		{
			"buffer":0,
			"byteLength":888,
			"byteOffset":16644,
			"target":34962
		},
		{
			"buffer":0,
			"byteLength":888,
			"byteOffset":17532,
			"target":34962
		},
		{
			"buffer":0,
			"byteLength":592,
			"byteOffset":18420,
			"target":34962
		},
		{
			"buffer":0,
			"byteLength":300,
			"byteOffset":19012,
			"target":34963
		},
		{
			"buffer":0,
			"byteLength":1584,
			"byteOffset":19312,
			"target":34962
		},
		{
			"buffer":0,
			"byteLength":1584,
			"byteOffset":20896,
			"target":34962
		},
		{
			"buffer":0,
			"byteLength":1056,
			"byteOffset":22480,
			"target":34962
		},
		{
			"buffer":0,
			"byteLength":432,
			"byteOffset":23536,
			"target":34963
		},
		{
			"buffer":0,
			"byteLength":672,
			"byteOffset":23968,
			"target":34962
		},
		{
			"buffer":0,
			"byteLength":672,
			"byteOffset":24640,
			"target":34962
		},
		{
			"buffer":0,
			"byteLength":448,
			"byteOffset":25312,
			"target":34962
		},
		{
			"buffer":0,
			"byteLength":312,
			"byteOffset":25760,
			"target":34963
		},
		{
			"buffer":0,
			"byteLength":768,
			"byteOffset":26072,
			"target":34962
		},
		{
			"buffer":0,
			"byteLength":768,
			"byteOffset":26840,
			"target":34962
		},
		{
			"buffer":0,
			"byteLength":512,
			"byteOffset":27608,
			"target":34962
		},
		{
			"buffer":0,
			"byteLength":192,
			"byteOffset":28120,
			"target":34963
		},
		{
			"buffer":0,
			"byteLength":1152,
			"byteOffset":28312,
			"target":34962
		},
		{
			"buffer":0,
			"byteLength":1152,
			"byteOffset":29464,
			"target":34962
		},
		{
			"buffer":0,
			"byteLength":768,
			"byteOffset":30616,
			"target":34962
		},
		{
			"buffer":0,
			"byteLength":288,
			"byteOffset":31384,
			"target":34963
		},
		{
			"buffer":0,
			"byteLength":1008,
			"byteOffset":31672,
			"target":34962
		},
		{
			"buffer":0,
			"byteLength":1008,
			"byteOffset":32680,
			"target":34962
		},
		{
			"buffer":0,
			"byteLength":672,
			"byteOffset":33688,
			"target":34962
		},
		{
			"buffer":0,
			"byteLength":276,
			"byteOffset":34360,
			"target":34963
		},
		{
			"buffer":0,
			"byteLength":1584,
			"byteOffset":34636,
			"target":34962
		},
		{
			"buffer":0,
			"byteLength":1584,
			"byteOffset":36220,
			"target":34962
		},
		{
			"buffer":0,
			"byteLength":1056,
			"byteOffset":37804,
			"target":34962
		},
		{
			"buffer":0,
			"byteLength":468,
			"byteOffset":38860,
			"target":34963
		},
		{
			"buffer":0,
			"byteLength":4752,
			"byteOffset":39328,
			"target":34962
		},
		{
			"buffer":0,
			"byteLength":4752,
			"byteOffset":44080,
			"target":34962
		},
		{
			"buffer":0,
			"byteLength":3168,
			"byteOffset":48832,
			"target":34962
		},
		{
			"buffer":0,
			"byteLength":1752,
			"byteOffset":52000,
			"target":34963
		}
	],
	"buffers":[
		{
			"byteLength":53752,
			"uri":"data:application/octet-stream;base64,"
		}
	]
}
