{
	"asset":{
		"generator":"Khronos glTF Blender I/O v3.6.28",
		"version":"2.0"
	},
	"scene":0,
	"scenes":[
		{
			"name":"Scene",
			"nodes":[
				0,
				1,
				2,
				3,
				4,
				5,
				6,
				7,
				8
			]
		}
	],
	"nodes":[
		{
			"mesh":0,
			"name":"Large_Wall_Doorway",
			"rotation":[
				0.7071068286895752,
				0,
				0,
				0.7071068286895752
			]
		},
		{
			"mesh":1,
			"name":"Large_Door_Frame"
		},
		{
			"mesh":2,
			"name":"Large_Buds",
			"translation":[
				0,
				3,
				-0.18301692605018616
			]
		},
		{
			"mesh":3,
			"name":"Large_Doorway__Exterior_Panel"
		},
		{
			"mesh":4,
			"name":"Large_Exterior_Wall_Doorway_Bot",
			"rotation":[
				0.7071068286895752,
				0,
				0,
				0.7071068286895752
			],
			"translation":[
				0,
				3,
				0
			]
		},
		{
			"mesh":5,
			"name":"Large_Exterior_Wall_Doorway_Top",
			"rotation":[
				0.7071068286895752,
				0,
				0,
				0.7071068286895752
			],
			"translation":[
				0,
				3,
				0
			]
		},
		{
			"mesh":6,
			"name":"Large_Doorway_Wall_Panel"
		},
		{
			"mesh":7,
			"name":"Large_Wall_Interior_Center_Panel",
			"translation":[
				0,
				3,
				0
			]
		},
		{
			"mesh":8,
			"name":"Large_Wall_Interior_Top_Bottom_Panel",
			"translation":[
				0,
				3,
				0
			]
		}
	],
	"meshes":[
		{
			"name":"Plane.024",
			"primitives":[
				{
					"attributes":{
						"POSITION":0,
						"NORMAL":1,
						"TEXCOORD_0":2
					},
					"indices":3
				}
			]
		},
		{
			"name":"Cube.008",
			"primitives":[
				{
					"attributes":{
						"POSITION":4,
						"NORMAL":5,
						"TEXCOORD_0":6
					},
					"indices":7
				}
			]
		},
		{
			"name":"Cube.011",
			"primitives":[
				{
					"attributes":{
						"POSITION":8,
						"NORMAL":9,
						"TEXCOORD_0":10
					},
					"indices":11
				}
			]
		},
		{
			"name":"Cube.012",
			"primitives":[
				{
					"attributes":{
						"POSITION":12,
						"NORMAL":13,
						"TEXCOORD_0":14
					},
					"indices":15
				}
			]
		},
		{
			"name":"Plane.025",
			"primitives":[
				{
					"attributes":{
						"POSITION":16,
						"NORMAL":17,
						"TEXCOORD_0":18
					},
					"indices":19
				}
			]
		},
		{
			"name":"Plane.023",
			"primitives":[
				{
					"attributes":{
						"POSITION":20,
						"NORMAL":21,
						"TEXCOORD_0":22
					},
					"indices":23
				}
			]
		},
		{
			"name":"Cube.066",
			"primitives":[
				{
					"attributes":{
						"POSITION":24,
						"NORMAL":25,
						"TEXCOORD_0":26
					},
					"indices":27
				}
			]
		},
		{
			"name":"Cube.065",
			"primitives":[
				{
					"attributes":{
						"POSITION":28,
						"NORMAL":29,
						"TEXCOORD_0":30
					},
					"indices":31
				}
			]
		},
		{
			"name":"Cube.064",
			"primitives":[
				{
					"attributes":{
						"POSITION":32,
						"NORMAL":33,
						"TEXCOORD_0":34
					},
					"indices":35
				}
			]
		}
	],
	"accessors":[
		{
			"bufferView":0,
			"componentType":5126,
			"count":60,
			"max":[
				8,
				0.19999980926513672,
				0
			],
			"min":[
				-8,
				0,
				-6
			],
			"type":"VEC3"
		},
		{
			"bufferView":1,
			"componentType":5126,
			"count":60,
			"type":"VEC3"
		},
		{
			"bufferView":2,
			"componentType":5126,
			"count":60,
			"type":"VEC2"
		},
		{
			"bufferView":3,
			"componentType":5123,
			"count":108,
			"type":"SCALAR"
		},
		{
			"bufferView":4,
			"componentType":5126,
			"count":84,
			"max":[
				3,
				3,
				0.39999961853027344
			],
			"min":[
				-3,
				0,
				-0.19999980926513672
			],
			"type":"VEC3"
		},
		{
			"bufferView":5,
			"componentType":5126,
			"count":84,
			"type":"VEC3"
		},
		{
			"bufferView":6,
			"componentType":5126,
			"count":84,
			"type":"VEC2"
		},
		{
			"bufferView":7,
			"componentType":5123,
			"count":162,
			"type":"SCALAR"
		},
		{
			"bufferView":8,
			"componentType":5126,
			"count":690,
			"max":[
				6.963634967803955,
				2.0063416957855225,
				0.18301677703857422
			],
			"min":[
				-6.963634967803955,
				-2.0063416957855225,
				0.14301776885986328
			],
			"type":"VEC3"
		},
		{
			"bufferView":9,
			"componentType":5126,
			"count":690,
			"type":"VEC3"
		},
		{
			"bufferView":10,
			"componentType":5126,
			"count":690,
			"type":"VEC2"
		},
		{
			"bufferView":11,
			"componentType":5123,
			"count":1284,
			"type":"SCALAR"
		},
		{
			"bufferView":12,
			"componentType":5126,
			"count":72,
			"max":[
				2.950000047683716,
				5.400000095367432,
				0.06328201293945312
			],
			"min":[
				-2.950000286102295,
				3.4000000953674316,
				-0.05218505859375
			],
			"type":"VEC3"
		},
		{
			"bufferView":13,
			"componentType":5126,
			"count":72,
			"type":"VEC3"
		},
		{
			"bufferView":14,
			"componentType":5126,
			"count":72,
			"type":"VEC2"
		},
		{
			"bufferView":15,
			"componentType":5123,
			"count":132,
			"type":"SCALAR"
		},
		{
			"bufferView":16,
			"componentType":5126,
			"count":132,
			"max":[
				8,
				0,
				3
			],
			"min":[
				-8,
				-0.10000038146972656,
				-1.0370541758675245e-08
			],
			"type":"VEC3"
		},
		{
			"bufferView":17,
			"componentType":5126,
			"count":132,
			"type":"VEC3"
		},
		{
			"bufferView":18,
			"componentType":5126,
			"count":132,
			"type":"VEC2"
		},
		{
			"bufferView":19,
			"componentType":5123,
			"count":240,
			"type":"SCALAR"
		},
		{
			"bufferView":20,
			"componentType":5126,
			"count":238,
			"max":[
				8,
				0,
				-8.74229044711683e-09
			],
			"min":[
				-8,
				-0.10000038146972656,
				-3
			],
			"type":"VEC3"
		},
		{
			"bufferView":21,
			"componentType":5126,
			"count":238,
			"type":"VEC3"
		},
		{
			"bufferView":22,
			"componentType":5126,
			"count":238,
			"type":"VEC2"
		},
		{
			"bufferView":23,
			"componentType":5123,
			"count":438,
			"type":"SCALAR"
		},
		{
			"bufferView":24,
			"componentType":5126,
			"count":228,
			"max":[
				8,
				4.799999713897705,
				0.3000001907348633
			],
			"min":[
				-8,
				0.9999999403953552,
				0.20000076293945312
			],
			"type":"VEC3"
		},
		{
			"bufferView":25,
			"componentType":5126,
			"count":228,
			"type":"VEC3"
		},
		{
			"bufferView":26,
			"componentType":5126,
			"count":228,
			"type":"VEC2"
		},
		{
			"bufferView":27,
			"componentType":5123,
			"count":336,
			"type":"SCALAR"
		},
		{
			"bufferView":28,
			"componentType":5126,
			"count":36,
			"max":[
				0.49999886751174927,
				2.400001287460327,
				0.39999961853027344
			],
			"min":[
				-0.49999886751174927,
				9.5367431640625e-07,
				0.20000076293945312
			],
			"type":"VEC3"
		},
		{
			"bufferView":29,
			"componentType":5126,
			"count":36,
			"type":"VEC3"
		},
		{
			"bufferView":30,
			"componentType":5126,
			"count":36,
			"type":"VEC2"
		},
		{
			"bufferView":31,
			"componentType":5123,
			"count":66,
			"type":"SCALAR"
		},
		{
			"bufferView":32,
			"componentType":5126,
			"count":84,
			"max":[
				8,
				2.8000001907348633,
				0.39999961853027344
			],
			"min":[
				-8,
				-3.000000238418579,
				0.20000076293945312
			],
			"type":"VEC3"
		},
		{
			"bufferView":33,
			"componentType":5126,
			"count":84,
			"type":"VEC3"
		},
		{
			"bufferView":34,
			"componentType":5126,
			"count":84,
			"type":"VEC2"
		},
		{
			"bufferView":35,
			"componentType":5123,
			"count":138,
			"type":"SCALAR"
		}
	],
	"bufferViews":[
		{
			"buffer":0,
			"byteLength":720,
			"byteOffset":0,
			"target":34962
		},
		{
			"buffer":0,
			"byteLength":720,
			"byteOffset":720,
			"target":34962
		},
		{
			"buffer":0,
			"byteLength":480,
			"byteOffset":1440,
			"target":34962
		},
		{
			"buffer":0,
			"byteLength":216,
			"byteOffset":1920,
			"target":34963
		},
		{
			"buffer":0,
			"byteLength":1008,
			"byteOffset":2136,
			"target":34962
		},
		{
			"buffer":0,
			"byteLength":1008,
			"byteOffset":3144,
			"target":34962
		},
		{
			"buffer":0,
			"byteLength":672,
			"byteOffset":4152,
			"target":34962
		},
		{
			"buffer":0,
			"byteLength":324,
			"byteOffset":4824,
			"target":34963
		},
		{
			"buffer":0,
			"byteLength":8280,
			"byteOffset":5148,
			"target":34962
		},
		{
			"buffer":0,
			"byteLength":8280,
			"byteOffset":13428,
			"target":34962
		},
		{
			"buffer":0,
			"byteLength":5520,
			"byteOffset":21708,
			"target":34962
		},
		{
			"buffer":0,
			"byteLength":2568,
			"byteOffset":27228,
			"target":34963
		},
		{
			"buffer":0,
			"byteLength":864,
			"byteOffset":29796,
			"target":34962
		},
		{
			"buffer":0,
			"byteLength":864,
			"byteOffset":30660,
			"target":34962
		},
		{
			"buffer":0,
			"byteLength":576,
			"byteOffset":31524,
			"target":34962
		},
		{
			"buffer":0,
			"byteLength":264,
			"byteOffset":32100,
			"target":34963
		},
		{
			"buffer":0,
			"byteLength":1584,
			"byteOffset":32364,
			"target":34962
		},
		{
			"buffer":0,
			"byteLength":1584,
			"byteOffset":33948,
			"target":34962
		},
		{
			"buffer":0,
			"byteLength":1056,
			"byteOffset":35532,
			"target":34962
		},
		{
			"buffer":0,
			"byteLength":480,
			"byteOffset":36588,
			"target":34963
		},
		{
			"buffer":0,
			"byteLength":2856,
			"byteOffset":37068,
			"target":34962
		},
		{
			"buffer":0,
			"byteLength":2856,
			"byteOffset":39924,
			"target":34962
		},
		{
			"buffer":0,
			"byteLength":1904,
			"byteOffset":42780,
			"target":34962
		},
		{
			"buffer":0,
			"byteLength":876,
			"byteOffset":44684,
			"target":34963
		},
		{
			"buffer":0,
			"byteLength":2736,
			"byteOffset":45560,
			"target":34962
		},
		{
			"buffer":0,
			"byteLength":2736,
			"byteOffset":48296,
			"target":34962
		},
		{
			"buffer":0,
			"byteLength":1824,
			"byteOffset":51032,
			"target":34962
		},
		{
			"buffer":0,
			"byteLength":672,
			"byteOffset":52856,
			"target":34963
		},
		{
			"buffer":0,
			"byteLength":432,
			"byteOffset":53528,
			"target":34962
		},
		{
			"buffer":0,
			"byteLength":432,
			"byteOffset":53960,
			"target":34962
		},
		{
			"buffer":0,
			"byteLength":288,
			"byteOffset":54392,
			"target":34962
		},
		{
			"buffer":0,
			"byteLength":132,
			"byteOffset":54680,
			"target":34963
		},
		{
			"buffer":0,
			"byteLength":1008,
			"byteOffset":54812,
			"target":34962
		},
		{
			"buffer":0,
			"byteLength":1008,
			"byteOffset":55820,
			"target":34962
		},
		{
			"buffer":0,
			"byteLength":672,
			"byteOffset":56828,
			"target":34962
		},
		{
			"buffer":0,
			"byteLength":276,
			"byteOffset":57500,
			"target":34963
		}
	],
	"buffers":[
		{
			"byteLength":57776,
			"uri":"data:application/octet-stream;base64,"
		}
	]
}
