{
	"asset":{
		"generator":"Khronos glTF Blender I/O v3.6.28",
		"version":"2.0"
	},
	"scene":0,
	"scenes":[
		{
			"name":"Scene",
			"nodes":[
				0,
				1,
				2,
				3,
				4
			]
		}
	],
	"nodes":[
		{
			"mesh":0,
			"name":"Large_Wall_Doorway",
			"rotation":[
				0.7071068286895752,
				0,
				0,
				0.7071068286895752
			]
		},
		{
			"mesh":1,
			"name":"Large_Door_Frame"
		},
		{
			"mesh":2,
			"name":"Large_Doorway_Wall_Panel"
		},
		{
			"mesh":3,
			"name":"Large_Wall_Interior_Center_Panel",
			"translation":[
				0,
				3,
				0
			]
		},
		{
			"mesh":4,
			"name":"Large_Wall_Interior_Top_Bottom_Panel",
			"translation":[
				0,
				3,
				0
			]
		}
	],
	"meshes":[
		{
			"name":"Plane.024",
			"primitives":[
				{
					"attributes":{
						"POSITION":0,
						"NORMAL":1,
						"TEXCOORD_0":2
					},
					"indices":3
				}
			]
		},
		{
			"name":"Cube.008",
			"primitives":[
				{
					"attributes":{
						"POSITION":4,
						"NORMAL":5,
						"TEXCOORD_0":6
					},
					"indices":7
				}
			]
		},
		{
			"name":"Cube.066",
			"primitives":[
				{
					"attributes":{
						"POSITION":8,
						"NORMAL":9,
						"TEXCOORD_0":10
					},
					"indices":11
				}
			]
		},
		{
			"name":"Cube.065",
			"primitives":[
				{
					"attributes":{
						"POSITION":12,
						"NORMAL":13,
						"TEXCOORD_0":14
					},
					"indices":15
				}
			]
		},
		{
			"name":"Cube.064",
			"primitives":[
				{
					"attributes":{
						"POSITION":16,
						"NORMAL":17,
						"TEXCOORD_0":18
					},
					"indices":19
				}
			]
		}
	],
	"accessors":[
		{
			"bufferView":0,
			"componentType":5126,
			"count":60,
			"max":[
				8,
				0.19999980926513672,
				0
			],
			"min":[
				-8,
				0,
				-6
			],
			"type":"VEC3"
		},
		{
			"bufferView":1,
			"componentType":5126,
			"count":60,
			"type":"VEC3"
		},
		{
			"bufferView":2,
			"componentType":5126,
			"count":60,
			"type":"VEC2"
		},
		{
			"bufferView":3,
			"componentType":5123,
			"count":108,
			"type":"SCALAR"
		},
		{
			"bufferView":4,
			"componentType":5126,
			"count":84,
			"max":[
				3.299999952316284,
				3.299999952316284,
				0.39999961853027344
			],
			"min":[
				-3.299999952316284,
				0,
				1.9371509552001953e-07
			],
			"type":"VEC3"
		},
		{
			"bufferView":5,
			"componentType":5126,
			"count":84,
			"type":"VEC3"
		},
		{
			"bufferView":6,
			"componentType":5126,
			"count":84,
			"type":"VEC2"
		},
		{
			"bufferView":7,
			"componentType":5123,
			"count":162,
			"type":"SCALAR"
		},
		{
			"bufferView":8,
			"componentType":5126,
			"count":228,
			"max":[
				8,
				4.799999713897705,
				0.3000001907348633
			],
			"min":[
				-8,
				0.9999999403953552,
				0.20000076293945312
			],
			"type":"VEC3"
		},
		{
			"bufferView":9,
			"componentType":5126,
			"count":228,
			"type":"VEC3"
		},
		{
			"bufferView":10,
			"componentType":5126,
			"count":228,
			"type":"VEC2"
		},
		{
			"bufferView":11,
			"componentType":5123,
			"count":336,
			"type":"SCALAR"
		},
		{
			"bufferView":12,
			"componentType":5126,
			"count":36,
			"max":[
				0.49999886751174927,
				2.400001287460327,
				0.39999961853027344
			],
			"min":[
				-0.49999886751174927,
				0.30000096559524536,
				0.20000076293945312
			],
			"type":"VEC3"
		},
		{
			"bufferView":13,
			"componentType":5126,
			"count":36,
			"type":"VEC3"
		},
		{
			"bufferView":14,
			"componentType":5126,
			"count":36,
			"type":"VEC2"
		},
		{
			"bufferView":15,
			"componentType":5123,
			"count":66,
			"type":"SCALAR"
		},
		{
			"bufferView":16,
			"componentType":5126,
			"count":84,
			"max":[
				8,
				2.8000001907348633,
				0.39999961853027344
			],
			"min":[
				-8,
				-3.000000238418579,
				0.20000076293945312
			],
			"type":"VEC3"
		},
		{
			"bufferView":17,
			"componentType":5126,
			"count":84,
			"type":"VEC3"
		},
		{
			"bufferView":18,
			"componentType":5126,
			"count":84,
			"type":"VEC2"
		},
		{
			"bufferView":19,
			"componentType":5123,
			"count":138,
			"type":"SCALAR"
		}
	],
	"bufferViews":[
		{
			"buffer":0,
			"byteLength":720,
			"byteOffset":0,
			"target":34962
		},
		{
			"buffer":0,
			"byteLength":720,
			"byteOffset":720,
			"target":34962
		},
		{
			"buffer":0,
			"byteLength":480,
			"byteOffset":1440,
			"target":34962
		},
		{
			"buffer":0,
			"byteLength":216,
			"byteOffset":1920,
			"target":34963
		},
		{
			"buffer":0,
			"byteLength":1008,
			"byteOffset":2136,
			"target":34962
		},
		{
			"buffer":0,
			"byteLength":1008,
			"byteOffset":3144,
			"target":34962
		},
		{
			"buffer":0,
			"byteLength":672,
			"byteOffset":4152,
			"target":34962
		},
		{
			"buffer":0,
			"byteLength":324,
			"byteOffset":4824,
			"target":34963
		},
		{
			"buffer":0,
			"byteLength":2736,
			"byteOffset":5148,
			"target":34962
		},
		{
			"buffer":0,
			"byteLength":2736,
			"byteOffset":7884,
			"target":34962
		},
		{
			"buffer":0,
			"byteLength":1824,
			"byteOffset":10620,
			"target":34962
		},
		{
			"buffer":0,
			"byteLength":672,
			"byteOffset":12444,
			"target":34963
		},
		{
			"buffer":0,
			"byteLength":432,
			"byteOffset":13116,
			"target":34962
		},
		{
			"buffer":0,
			"byteLength":432,
			"byteOffset":13548,
			"target":34962
		},
		{
			"buffer":0,
			"byteLength":288,
			"byteOffset":13980,
			"target":34962
		},
		{
			"buffer":0,
			"byteLength":132,
			"byteOffset":14268,
			"target":34963
		},
		{
			"buffer":0,
			"byteLength":1008,
			"byteOffset":14400,
			"target":34962
		},
		{
			"buffer":0,
			"byteLength":1008,
			"byteOffset":15408,
			"target":34962
		},
		{
			"buffer":0,
			"byteLength":672,
			"byteOffset":16416,
			"target":34962
		},
		{
			"buffer":0,
			"byteLength":276,
			"byteOffset":17088,
			"target":34963
		}
	],
	"buffers":[
		{
			"byteLength":17364,
			"uri":"data:application/octet-stream;base64,"
		}
	]
}
