{
	"asset":{
		"generator":"Khronos glTF Blender I/O v3.6.28",
		"version":"2.0"
	},
	"scene":0,
	"scenes":[
		{
			"name":"Scene",
			"nodes":[
				0,
				1,
				2,
				3,
				4,
				5,
				6,
				7
			]
		}
	],
	"nodes":[
		{
			"mesh":0,
			"name":"Large_Wall_Interior_Top_Bottom_Panel",
			"translation":[
				0,
				3,
				0
			]
		},
		{
			"mesh":1,
			"name":"Large_Wall_Interior_Center_Panel",
			"translation":[
				0,
				3,
				0
			]
		},
		{
			"mesh":2,
			"name":"Large_Wall_Doorway",
			"rotation":[
				0.7071068286895752,
				0,
				0,
				0.7071068286895752
			]
		},
		{
			"mesh":3,
			"name":"Large_Frame"
		},
		{
			"mesh":4,
			"name":"Large_Doorway_Wall_Panel"
		},
		{
			"mesh":5,
			"name":"Large_Wall_Interior_Top_Bottom_Panel_2",
			"translation":[
				0,
				3,
				-2
			]
		},
		{
			"mesh":6,
			"name":"Large_Wall_Interior_Center_Panel_2",
			"translation":[
				0,
				3,
				-2
			]
		},
		{
			"mesh":7,
			"name":"Large_Doorway_Wall_Panel_2",
			"translation":[
				0,
				0,
				-2
			]
		}
	],
	"meshes":[
		{
			"name":"Cube.064",
			"primitives":[
				{
					"attributes":{
						"POSITION":0,
						"NORMAL":1,
						"TEXCOORD_0":2
					},
					"indices":3
				}
			]
		},
		{
			"name":"Cube.065",
			"primitives":[
				{
					"attributes":{
						"POSITION":4,
						"NORMAL":5,
						"TEXCOORD_0":6
					},
					"indices":7
				}
			]
		},
		{
			"name":"Plane.024",
			"primitives":[
				{
					"attributes":{
						"POSITION":8,
						"NORMAL":9,
						"TEXCOORD_0":10
					},
					"indices":11
				}
			]
		},
		{
			"name":"Cube.008",
			"primitives":[
				{
					"attributes":{
						"POSITION":12,
						"NORMAL":13,
						"TEXCOORD_0":14
					},
					"indices":15
				}
			]
		},
		{
			"name":"Cube.066",
			"primitives":[
				{
					"attributes":{
						"POSITION":16,
						"NORMAL":17,
						"TEXCOORD_0":18
					},
					"indices":19
				}
			]
		},
		{
			"name":"Cube.001",
			"primitives":[
				{
					"attributes":{
						"POSITION":20,
						"NORMAL":21,
						"TEXCOORD_0":22
					},
					"indices":23
				}
			]
		},
		{
			"name":"Cube.002",
			"primitives":[
				{
					"attributes":{
						"POSITION":24,
						"NORMAL":25,
						"TEXCOORD_0":26
					},
					"indices":27
				}
			]
		},
		{
			"name":"Cube.003",
			"primitives":[
				{
					"attributes":{
						"POSITION":28,
						"NORMAL":29,
						"TEXCOORD_0":30
					},
					"indices":31
				}
			]
		}
	],
	"accessors":[
		{
			"bufferView":0,
			"componentType":5126,
			"count":84,
			"max":[
				8,
				2.8000001907348633,
				-8.600000381469727
			],
			"min":[
				-8,
				-3.000000238418579,
				-8.799999237060547
			],
			"type":"VEC3"
		},
		{
			"bufferView":1,
			"componentType":5126,
			"count":84,
			"type":"VEC3"
		},
		{
			"bufferView":2,
			"componentType":5126,
			"count":84,
			"type":"VEC2"
		},
		{
			"bufferView":3,
			"componentType":5123,
			"count":138,
			"type":"SCALAR"
		},
		{
			"bufferView":4,
			"componentType":5126,
			"count":36,
			"max":[
				0.49999886751174927,
				2.400001287460327,
				-8.600000381469727
			],
			"min":[
				-0.49999886751174927,
				9.5367431640625e-07,
				-8.799999237060547
			],
			"type":"VEC3"
		},
		{
			"bufferView":5,
			"componentType":5126,
			"count":36,
			"type":"VEC3"
		},
		{
			"bufferView":6,
			"componentType":5126,
			"count":36,
			"type":"VEC2"
		},
		{
			"bufferView":7,
			"componentType":5123,
			"count":66,
			"type":"SCALAR"
		},
		{
			"bufferView":8,
			"componentType":5126,
			"count":60,
			"max":[
				8,
				-8.800000190734863,
				3.934025016860687e-07
			],
			"min":[
				-8,
				-9,
				-5.999999523162842
			],
			"type":"VEC3"
		},
		{
			"bufferView":9,
			"componentType":5126,
			"count":60,
			"type":"VEC3"
		},
		{
			"bufferView":10,
			"componentType":5126,
			"count":60,
			"type":"VEC2"
		},
		{
			"bufferView":11,
			"componentType":5123,
			"count":108,
			"type":"SCALAR"
		},
		{
			"bufferView":12,
			"componentType":5126,
			"count":72,
			"max":[
				2.5,
				3,
				-8.600000381469727
			],
			"min":[
				-2.5,
				0,
				-9.199999809265137
			],
			"type":"VEC3"
		},
		{
			"bufferView":13,
			"componentType":5126,
			"count":72,
			"type":"VEC3"
		},
		{
			"bufferView":14,
			"componentType":5126,
			"count":72,
			"type":"VEC2"
		},
		{
			"bufferView":15,
			"componentType":5123,
			"count":138,
			"type":"SCALAR"
		},
		{
			"bufferView":16,
			"componentType":5126,
			"count":228,
			"max":[
				8,
				4.799999713897705,
				-8.699999809265137
			],
			"min":[
				-8,
				0.9999999403953552,
				-8.799999237060547
			],
			"type":"VEC3"
		},
		{
			"bufferView":17,
			"componentType":5126,
			"count":228,
			"type":"VEC3"
		},
		{
			"bufferView":18,
			"componentType":5126,
			"count":228,
			"type":"VEC2"
		},
		{
			"bufferView":19,
			"componentType":5123,
			"count":336,
			"type":"SCALAR"
		},
		{
			"bufferView":20,
			"componentType":5126,
			"count":84,
			"max":[
				8,
				2.8000001907348633,
				-7.000001430511475
			],
			"min":[
				-8,
				-3.000000238418579,
				-7.200002193450928
			],
			"type":"VEC3"
		},
		{
			"bufferView":21,
			"componentType":5126,
			"count":84,
			"type":"VEC3"
		},
		{
			"bufferView":22,
			"componentType":5126,
			"count":84,
			"type":"VEC2"
		},
		{
			"bufferView":23,
			"componentType":5123,
			"count":138,
			"type":"SCALAR"
		},
		{
			"bufferView":24,
			"componentType":5126,
			"count":36,
			"max":[
				0.4999999403953552,
				2.400001287460327,
				-7.000000476837158
			],
			"min":[
				-0.4999999403953552,
				9.5367431640625e-07,
				-7.1999993324279785
			],
			"type":"VEC3"
		},
		{
			"bufferView":25,
			"componentType":5126,
			"count":36,
			"type":"VEC3"
		},
		{
			"bufferView":26,
			"componentType":5126,
			"count":36,
			"type":"VEC2"
		},
		{
			"bufferView":27,
			"componentType":5123,
			"count":66,
			"type":"SCALAR"
		},
		{
			"bufferView":28,
			"componentType":5126,
			"count":228,
			"max":[
				8.00052261352539,
				4.799999713897705,
				-7.00526237487793
			],
			"min":[
				-8.00052261352539,
				1,
				-7.105263710021973
			],
			"type":"VEC3"
		},
		{
			"bufferView":29,
			"componentType":5126,
			"count":228,
			"type":"VEC3"
		},
		{
			"bufferView":30,
			"componentType":5126,
			"count":228,
			"type":"VEC2"
		},
		{
			"bufferView":31,
			"componentType":5123,
			"count":336,
			"type":"SCALAR"
		}
	],
	"bufferViews":[
		{
			"buffer":0,
			"byteLength":1008,
			"byteOffset":0,
			"target":34962
		},
		{
			"buffer":0,
			"byteLength":1008,
			"byteOffset":1008,
			"target":34962
		},
		{
			"buffer":0,
			"byteLength":672,
			"byteOffset":2016,
			"target":34962
		},
		{
			"buffer":0,
			"byteLength":276,
			"byteOffset":2688,
			"target":34963
		},
		{
			"buffer":0,
			"byteLength":432,
			"byteOffset":2964,
			"target":34962
		},
		{
			"buffer":0,
			"byteLength":432,
			"byteOffset":3396,
			"target":34962
		},
		{
			"buffer":0,
			"byteLength":288,
			"byteOffset":3828,
			"target":34962
		},
		{
			"buffer":0,
			"byteLength":132,
			"byteOffset":4116,
			"target":34963
		},
		{
			"buffer":0,
			"byteLength":720,
			"byteOffset":4248,
			"target":34962
		},
		{
			"buffer":0,
			"byteLength":720,
			"byteOffset":4968,
			"target":34962
		},
		{
			"buffer":0,
			"byteLength":480,
			"byteOffset":5688,
			"target":34962
		},
		{
			"buffer":0,
			"byteLength":216,
			"byteOffset":6168,
			"target":34963
		},
		{
			"buffer":0,
			"byteLength":864,
			"byteOffset":6384,
			"target":34962
		},
		{
			"buffer":0,
			"byteLength":864,
			"byteOffset":7248,
			"target":34962
		},
		{
			"buffer":0,
			"byteLength":576,
			"byteOffset":8112,
			"target":34962
		},
		{
			"buffer":0,
			"byteLength":276,
			"byteOffset":8688,
			"target":34963
		},
		{
			"buffer":0,
			"byteLength":2736,
			"byteOffset":8964,
			"target":34962
		},
		{
			"buffer":0,
			"byteLength":2736,
			"byteOffset":11700,
			"target":34962
		},
		{
			"buffer":0,
			"byteLength":1824,
			"byteOffset":14436,
			"target":34962
		},
		{
			"buffer":0,
			"byteLength":672,
			"byteOffset":16260,
			"target":34963
		},
		{
			"buffer":0,
			"byteLength":1008,
			"byteOffset":16932,
			"target":34962
		},
		{
			"buffer":0,
			"byteLength":1008,
			"byteOffset":17940,
			"target":34962
		},
		{
			"buffer":0,
			"byteLength":672,
			"byteOffset":18948,
			"target":34962
		},
		{
			"buffer":0,
			"byteLength":276,
			"byteOffset":19620,
			"target":34963
		},
		{
			"buffer":0,
			"byteLength":432,
			"byteOffset":19896,
			"target":34962
		},
		{
			"buffer":0,
			"byteLength":432,
			"byteOffset":20328,
			"target":34962
		},
		{
			"buffer":0,
			"byteLength":288,
			"byteOffset":20760,
			"target":34962
		},
		{
			"buffer":0,
			"byteLength":132,
			"byteOffset":21048,
			"target":34963
		},
		{
			"buffer":0,
			"byteLength":2736,
			"byteOffset":21180,
			"target":34962
		},
		{
			"buffer":0,
			"byteLength":2736,
			"byteOffset":23916,
			"target":34962
		},
		{
			"buffer":0,
			"byteLength":1824,
			"byteOffset":26652,
			"target":34962
		},
		{
			"buffer":0,
			"byteLength":672,
			"byteOffset":28476,
			"target":34963
		}
	],
	"buffers":[
		{
			"byteLength":29148,
			"uri":"data:application/octet-stream;base64,"
		}
	]
}
