{
	"asset":{
		"generator":"Khronos glTF Blender I/O v3.6.28",
		"version":"2.0"
	},
	"scene":0,
	"scenes":[
		{
			"name":"Scene",
			"nodes":[
				0,
				1,
				2,
				3,
				4,
				5,
				6,
				7,
				8
			]
		}
	],
	"nodes":[
		{
			"mesh":0,
			"name":"Large_Wall_Interior_Top_Bottom_Panel",
			"translation":[
				0,
				3,
				0
			]
		},
		{
			"mesh":1,
			"name":"Large_Wall_Interior_Center_Panel",
			"translation":[
				0,
				3,
				0
			]
		},
		{
			"mesh":2,
			"name":"Large_Wall_Doorway",
			"rotation":[
				0.7071068286895752,
				0,
				0,
				0.7071068286895752
			]
		},
		{
			"mesh":3,
			"name":"Large_Frame"
		},
		{
			"mesh":4,
			"name":"Large_Extruded_Wall_Doorway_Top",
			"rotation":[
				0.7071068286895752,
				0,
				0,
				0.7071068286895752
			],
			"translation":[
				0,
				3,
				0
			]
		},
		{
			"mesh":5,
			"name":"Large_Extruded_Wall_Doorway_Bot",
			"rotation":[
				0.7071068286895752,
				0,
				0,
				0.7071068286895752
			],
			"translation":[
				0,
				3,
				0
			]
		},
		{
			"mesh":6,
			"name":"Large_Doorway_Wall_Panel"
		},
		{
			"mesh":7,
			"name":"Large_Doorway__Exterior_Panel"
		},
		{
			"mesh":8,
			"name":"Large_Buds",
			"translation":[
				0,
				3,
				-0.18301692605018616
			]
		}
	],
	"meshes":[
		{
			"name":"Cube.064",
			"primitives":[
				{
					"attributes":{
						"POSITION":0,
						"NORMAL":1,
						"TEXCOORD_0":2
					},
					"indices":3
				}
			]
		},
		{
			"name":"Cube.065",
			"primitives":[
				{
					"attributes":{
						"POSITION":4,
						"NORMAL":5,
						"TEXCOORD_0":6
					},
					"indices":7
				}
			]
		},
		{
			"name":"Plane.024",
			"primitives":[
				{
					"attributes":{
						"POSITION":8,
						"NORMAL":9,
						"TEXCOORD_0":10
					},
					"indices":11
				}
			]
		},
		{
			"name":"Cube.008",
			"primitives":[
				{
					"attributes":{
						"POSITION":12,
						"NORMAL":13,
						"TEXCOORD_0":14
					},
					"indices":15
				}
			]
		},
		{
			"name":"Plane.023",
			"primitives":[
				{
					"attributes":{
						"POSITION":16,
						"NORMAL":17,
						"TEXCOORD_0":18
					},
					"indices":19
				}
			]
		},
		{
			"name":"Plane.025",
			"primitives":[
				{
					"attributes":{
						"POSITION":20,
						"NORMAL":21,
						"TEXCOORD_0":22
					},
					"indices":23
				}
			]
		},
		{
			"name":"Cube.066",
			"primitives":[
				{
					"attributes":{
						"POSITION":24,
						"NORMAL":25,
						"TEXCOORD_0":26
					},
					"indices":27
				}
			]
		},
		{
			"name":"Cube.012",
			"primitives":[
				{
					"attributes":{
						"POSITION":28,
						"NORMAL":29,
						"TEXCOORD_0":30
					},
					"indices":31
				}
			]
		},
		{
			"name":"Cube.011",
			"primitives":[
				{
					"attributes":{
						"POSITION":32,
						"NORMAL":33,
						"TEXCOORD_0":34
					},
					"indices":35
				}
			]
		}
	],
	"accessors":[
		{
			"bufferView":0,
			"componentType":5126,
			"count":84,
			"max":[
				8,
				2.8000001907348633,
				-8.600000381469727
			],
			"min":[
				-8,
				-3.000000238418579,
				-8.799999237060547
			],
			"type":"VEC3"
		},
		{
			"bufferView":1,
			"componentType":5126,
			"count":84,
			"type":"VEC3"
		},
		{
			"bufferView":2,
			"componentType":5126,
			"count":84,
			"type":"VEC2"
		},
		{
			"bufferView":3,
			"componentType":5123,
			"count":138,
			"type":"SCALAR"
		},
		{
			"bufferView":4,
			"componentType":5126,
			"count":36,
			"max":[
				0.49999886751174927,
				2.400001287460327,
				-8.600000381469727
			],
			"min":[
				-0.49999886751174927,
				9.5367431640625e-07,
				-8.799999237060547
			],
			"type":"VEC3"
		},
		{
			"bufferView":5,
			"componentType":5126,
			"count":36,
			"type":"VEC3"
		},
		{
			"bufferView":6,
			"componentType":5126,
			"count":36,
			"type":"VEC2"
		},
		{
			"bufferView":7,
			"componentType":5123,
			"count":66,
			"type":"SCALAR"
		},
		{
			"bufferView":8,
			"componentType":5126,
			"count":60,
			"max":[
				8,
				-8.800000190734863,
				3.934025016860687e-07
			],
			"min":[
				-8,
				-9,
				-5.999999523162842
			],
			"type":"VEC3"
		},
		{
			"bufferView":9,
			"componentType":5126,
			"count":60,
			"type":"VEC3"
		},
		{
			"bufferView":10,
			"componentType":5126,
			"count":60,
			"type":"VEC2"
		},
		{
			"bufferView":11,
			"componentType":5123,
			"count":108,
			"type":"SCALAR"
		},
		{
			"bufferView":12,
			"componentType":5126,
			"count":72,
			"max":[
				2.5,
				3,
				-8.600000381469727
			],
			"min":[
				-2.5,
				0,
				-9.199999809265137
			],
			"type":"VEC3"
		},
		{
			"bufferView":13,
			"componentType":5126,
			"count":72,
			"type":"VEC3"
		},
		{
			"bufferView":14,
			"componentType":5126,
			"count":72,
			"type":"VEC2"
		},
		{
			"bufferView":15,
			"componentType":5123,
			"count":138,
			"type":"SCALAR"
		},
		{
			"bufferView":16,
			"componentType":5126,
			"count":238,
			"max":[
				8,
				-9,
				3.846602112389519e-07
			],
			"min":[
				-8,
				-9.100000381469727,
				-2.999999523162842
			],
			"type":"VEC3"
		},
		{
			"bufferView":17,
			"componentType":5126,
			"count":238,
			"type":"VEC3"
		},
		{
			"bufferView":18,
			"componentType":5126,
			"count":238,
			"type":"VEC2"
		},
		{
			"bufferView":19,
			"componentType":5123,
			"count":438,
			"type":"SCALAR"
		},
		{
			"bufferView":20,
			"componentType":5126,
			"count":132,
			"max":[
				8,
				-9,
				3.000000476837158
			],
			"min":[
				-8,
				-9.100000381469727,
				3.8303195992739347e-07
			],
			"type":"VEC3"
		},
		{
			"bufferView":21,
			"componentType":5126,
			"count":132,
			"type":"VEC3"
		},
		{
			"bufferView":22,
			"componentType":5126,
			"count":132,
			"type":"VEC2"
		},
		{
			"bufferView":23,
			"componentType":5123,
			"count":240,
			"type":"SCALAR"
		},
		{
			"bufferView":24,
			"componentType":5126,
			"count":228,
			"max":[
				8,
				4.799999713897705,
				-8.699999809265137
			],
			"min":[
				-8,
				0.9999999403953552,
				-8.799999237060547
			],
			"type":"VEC3"
		},
		{
			"bufferView":25,
			"componentType":5126,
			"count":228,
			"type":"VEC3"
		},
		{
			"bufferView":26,
			"componentType":5126,
			"count":228,
			"type":"VEC2"
		},
		{
			"bufferView":27,
			"componentType":5123,
			"count":336,
			"type":"SCALAR"
		},
		{
			"bufferView":28,
			"componentType":5126,
			"count":72,
			"max":[
				2.950000047683716,
				5.400000095367432,
				-8.936717987060547
			],
			"min":[
				-2.950000286102295,
				3.4000000953674316,
				-9.05218505859375
			],
			"type":"VEC3"
		},
		{
			"bufferView":29,
			"componentType":5126,
			"count":72,
			"type":"VEC3"
		},
		{
			"bufferView":30,
			"componentType":5126,
			"count":72,
			"type":"VEC2"
		},
		{
			"bufferView":31,
			"componentType":5123,
			"count":132,
			"type":"SCALAR"
		},
		{
			"bufferView":32,
			"componentType":5126,
			"count":690,
			"max":[
				6.963634967803955,
				2.0063416957855225,
				-8.816983222961426
			],
			"min":[
				-6.963634967803955,
				-2.0063416957855225,
				-8.856982231140137
			],
			"type":"VEC3"
		},
		{
			"bufferView":33,
			"componentType":5126,
			"count":690,
			"type":"VEC3"
		},
		{
			"bufferView":34,
			"componentType":5126,
			"count":690,
			"type":"VEC2"
		},
		{
			"bufferView":35,
			"componentType":5123,
			"count":1284,
			"type":"SCALAR"
		}
	],
	"bufferViews":[
		{
			"buffer":0,
			"byteLength":1008,
			"byteOffset":0,
			"target":34962
		},
		{
			"buffer":0,
			"byteLength":1008,
			"byteOffset":1008,
			"target":34962
		},
		{
			"buffer":0,
			"byteLength":672,
			"byteOffset":2016,
			"target":34962
		},
		{
			"buffer":0,
			"byteLength":276,
			"byteOffset":2688,
			"target":34963
		},
		{
			"buffer":0,
			"byteLength":432,
			"byteOffset":2964,
			"target":34962
		},
		{
			"buffer":0,
			"byteLength":432,
			"byteOffset":3396,
			"target":34962
		},
		{
			"buffer":0,
			"byteLength":288,
			"byteOffset":3828,
			"target":34962
		},
		{
			"buffer":0,
			"byteLength":132,
			"byteOffset":4116,
			"target":34963
		},
		{
			"buffer":0,
			"byteLength":720,
			"byteOffset":4248,
			"target":34962
		},
		{
			"buffer":0,
			"byteLength":720,
			"byteOffset":4968,
			"target":34962
		},
		{
			"buffer":0,
			"byteLength":480,
			"byteOffset":5688,
			"target":34962
		},
		{
			"buffer":0,
			"byteLength":216,
			"byteOffset":6168,
			"target":34963
		},
		{
			"buffer":0,
			"byteLength":864,
			"byteOffset":6384,
			"target":34962
		},
		{
			"buffer":0,
			"byteLength":864,
			"byteOffset":7248,
			"target":34962
		},
		{
			"buffer":0,
			"byteLength":576,
			"byteOffset":8112,
			"target":34962
		},
		{
			"buffer":0,
			"byteLength":276,
			"byteOffset":8688,
			"target":34963
		},
		{
			"buffer":0,
			"byteLength":2856,
			"byteOffset":8964,
			"target":34962
		},
		{
			"buffer":0,
			"byteLength":2856,
			"byteOffset":11820,
			"target":34962
		},
		{
			"buffer":0,
			"byteLength":1904,
			"byteOffset":14676,
			"target":34962
		},
		{
			"buffer":0,
			"byteLength":876,
			"byteOffset":16580,
			"target":34963
		},
		{
			"buffer":0,
			"byteLength":1584,
			"byteOffset":17456,
			"target":34962
		},
		{
			"buffer":0,
			"byteLength":1584,
			"byteOffset":19040,
			"target":34962
		},
		{
			"buffer":0,
			"byteLength":1056,
			"byteOffset":20624,
			"target":34962
		},
		{
			"buffer":0,
			"byteLength":480,
			"byteOffset":21680,
			"target":34963
		},
		{
			"buffer":0,
			"byteLength":2736,
			"byteOffset":22160,
			"target":34962
		},
		{
			"buffer":0,
			"byteLength":2736,
			"byteOffset":24896,
			"target":34962
		},
		{
			"buffer":0,
			"byteLength":1824,
			"byteOffset":27632,
			"target":34962
		},
		{
			"buffer":0,
			"byteLength":672,
			"byteOffset":29456,
			"target":34963
		},
		{
			"buffer":0,
			"byteLength":864,
			"byteOffset":30128,
			"target":34962
		},
		{
			"buffer":0,
			"byteLength":864,
			"byteOffset":30992,
			"target":34962
		},
		{
			"buffer":0,
			"byteLength":576,
			"byteOffset":31856,
			"target":34962
		},
		{
			"buffer":0,
			"byteLength":264,
			"byteOffset":32432,
			"target":34963
		},
		{
			"buffer":0,
			"byteLength":8280,
			"byteOffset":32696,
			"target":34962
		},
		{
			"buffer":0,
			"byteLength":8280,
			"byteOffset":40976,
			"target":34962
		},
		{
			"buffer":0,
			"byteLength":5520,
			"byteOffset":49256,
			"target":34962
		},
		{
			"buffer":0,
			"byteLength":2568,
			"byteOffset":54776,
			"target":34963
		}
	],
	"buffers":[
		{
			"byteLength":57344,
			"uri":"data:application/octet-stream;base64,"
		}
	]
}
