{
	"asset":{
		"generator":"Khronos glTF Blender I/O v3.6.28",
		"version":"2.0"
	},
	"scene":0,
	"scenes":[
		{
			"name":"Scene",
			"nodes":[
				0,
				1
			]
		}
	],
	"nodes":[
		{
			"mesh":0,
			"name":"Large_Exterior_Panel"
		},
		{
			"mesh":1,
			"name":"Large_Exterior_Border",
			"rotation":[
				0.7071068286895752,
				0,
				0,
				0.7071068286895752
			],
			"translation":[
				0,
				3,
				0
			]
		}
	],
	"meshes":[
		{
			"name":"Cube.002",
			"primitives":[
				{
					"attributes":{
						"POSITION":0,
						"NORMAL":1,
						"TEXCOORD_0":2
					},
					"indices":3
				}
			]
		},
		{
			"name":"Plane.020",
			"primitives":[
				{
					"attributes":{
						"POSITION":4,
						"NORMAL":5,
						"TEXCOORD_0":6
					},
					"indices":7
				}
			]
		}
	],
	"accessors":[
		{
			"bufferView":0,
			"componentType":5126,
			"count":144,
			"max":[
				6.199999809265137,
				4,
				0
			],
			"min":[
				-6.199999809265137,
				2,
				-0.10000001639127731
			],
			"type":"VEC3"
		},
		{
			"bufferView":1,
			"componentType":5126,
			"count":144,
			"type":"VEC3"
		},
		{
			"bufferView":2,
			"componentType":5126,
			"count":144,
			"type":"VEC2"
		},
		{
			"bufferView":3,
			"componentType":5123,
			"count":264,
			"type":"SCALAR"
		},
		{
			"bufferView":4,
			"componentType":5126,
			"count":334,
			"max":[
				8,
				3.4969076523339027e-09,
				3.000000238418579
			],
			"min":[
				-8,
				-0.10000038146972656,
				-3.000000238418579
			],
			"type":"VEC3"
		},
		{
			"bufferView":5,
			"componentType":5126,
			"count":334,
			"type":"VEC3"
		},
		{
			"bufferView":6,
			"componentType":5126,
			"count":334,
			"type":"VEC2"
		},
		{
			"bufferView":7,
			"componentType":5123,
			"count":708,
			"type":"SCALAR"
		}
	],
	"bufferViews":[
		{
			"buffer":0,
			"byteLength":1728,
			"byteOffset":0,
			"target":34962
		},
		{
			"buffer":0,
			"byteLength":1728,
			"byteOffset":1728,
			"target":34962
		},
		{
			"buffer":0,
			"byteLength":1152,
			"byteOffset":3456,
			"target":34962
		},
		{
			"buffer":0,
			"byteLength":528,
			"byteOffset":4608,
			"target":34963
		},
		{
			"buffer":0,
			"byteLength":4008,
			"byteOffset":5136,
			"target":34962
		},
		{
			"buffer":0,
			"byteLength":4008,
			"byteOffset":9144,
			"target":34962
		},
		{
			"buffer":0,
			"byteLength":2672,
			"byteOffset":13152,
			"target":34962
		},
		{
			"buffer":0,
			"byteLength":1416,
			"byteOffset":15824,
			"target":34963
		}
	],
	"buffers":[
		{
			"byteLength":17240,
			"uri":"data:application/octet-stream;base64,"
		}
	]
}
