{
	"asset":{
		"generator":"Khronos glTF Blender I/O v3.6.28",
		"version":"2.0"
	},
	"scene":0,
	"scenes":[
		{
			"name":"Scene",
			"nodes":[
				0,
				1,
				2,
				3
			]
		}
	],
	"nodes":[
		{
			"mesh":0,
			"name":"Large_Buds",
			"translation":[
				0,
				3,
				0
			]
		},
		{
			"mesh":1,
			"name":"Large_Doorway__Exterior_Panel"
		},
		{
			"mesh":2,
			"name":"Large_Exterior_Wall_Doorway_Bot",
			"rotation":[
				0.7071068286895752,
				0,
				0,
				0.7071068286895752
			],
			"translation":[
				0,
				3,
				0
			]
		},
		{
			"mesh":3,
			"name":"Large_Exterior_Wall_Doorway_Top",
			"rotation":[
				0.7071068286895752,
				0,
				0,
				0.7071068286895752
			],
			"translation":[
				0,
				3,
				0
			]
		}
	],
	"meshes":[
		{
			"name":"Cube.011",
			"primitives":[
				{
					"attributes":{
						"POSITION":0,
						"NORMAL":1,
						"TEXCOORD_0":2
					},
					"indices":3
				}
			]
		},
		{
			"name":"Cube.012",
			"primitives":[
				{
					"attributes":{
						"POSITION":4,
						"NORMAL":5,
						"TEXCOORD_0":6
					},
					"indices":7
				}
			]
		},
		{
			"name":"Plane.025",
			"primitives":[
				{
					"attributes":{
						"POSITION":8,
						"NORMAL":9,
						"TEXCOORD_0":10
					},
					"indices":11
				}
			]
		},
		{
			"name":"Plane.023",
			"primitives":[
				{
					"attributes":{
						"POSITION":12,
						"NORMAL":13,
						"TEXCOORD_0":14
					},
					"indices":15
				}
			]
		}
	],
	"accessors":[
		{
			"bufferView":0,
			"componentType":5126,
			"count":690,
			"max":[
				6.963634967803955,
				2.0063416957855225,
				0.23301677405834198
			],
			"min":[
				-6.963634967803955,
				-2.0063416957855225,
				0.19301776587963104
			],
			"type":"VEC3"
		},
		{
			"bufferView":1,
			"componentType":5126,
			"count":690,
			"type":"VEC3"
		},
		{
			"bufferView":2,
			"componentType":5126,
			"count":690,
			"type":"VEC2"
		},
		{
			"bufferView":3,
			"componentType":5123,
			"count":1284,
			"type":"SCALAR"
		},
		{
			"bufferView":4,
			"componentType":5126,
			"count":72,
			"max":[
				2.950000047683716,
				5.400000095367432,
				0.3132820129394531
			],
			"min":[
				-2.950000286102295,
				3.4000000953674316,
				0.19781494140625
			],
			"type":"VEC3"
		},
		{
			"bufferView":5,
			"componentType":5126,
			"count":72,
			"type":"VEC3"
		},
		{
			"bufferView":6,
			"componentType":5126,
			"count":72,
			"type":"VEC2"
		},
		{
			"bufferView":7,
			"componentType":5123,
			"count":132,
			"type":"SCALAR"
		},
		{
			"bufferView":8,
			"componentType":5126,
			"count":132,
			"max":[
				8,
				0.29999998211860657,
				3
			],
			"min":[
				-8,
				0.19999960064888,
				-2.3483957889425255e-08
			],
			"type":"VEC3"
		},
		{
			"bufferView":9,
			"componentType":5126,
			"count":132,
			"type":"VEC3"
		},
		{
			"bufferView":10,
			"componentType":5126,
			"count":132,
			"type":"VEC2"
		},
		{
			"bufferView":11,
			"componentType":5123,
			"count":240,
			"type":"SCALAR"
		},
		{
			"bufferView":12,
			"componentType":5126,
			"count":178,
			"max":[
				8,
				0.30000001192092896,
				-2.185570835422368e-08
			],
			"min":[
				-8,
				0.1999996304512024,
				-3
			],
			"type":"VEC3"
		},
		{
			"bufferView":13,
			"componentType":5126,
			"count":178,
			"type":"VEC3"
		},
		{
			"bufferView":14,
			"componentType":5126,
			"count":178,
			"type":"VEC2"
		},
		{
			"bufferView":15,
			"componentType":5123,
			"count":420,
			"type":"SCALAR"
		}
	],
	"bufferViews":[
		{
			"buffer":0,
			"byteLength":8280,
			"byteOffset":0,
			"target":34962
		},
		{
			"buffer":0,
			"byteLength":8280,
			"byteOffset":8280,
			"target":34962
		},
		{
			"buffer":0,
			"byteLength":5520,
			"byteOffset":16560,
			"target":34962
		},
		{
			"buffer":0,
			"byteLength":2568,
			"byteOffset":22080,
			"target":34963
		},
		{
			"buffer":0,
			"byteLength":864,
			"byteOffset":24648,
			"target":34962
		},
		{
			"buffer":0,
			"byteLength":864,
			"byteOffset":25512,
			"target":34962
		},
		{
			"buffer":0,
			"byteLength":576,
			"byteOffset":26376,
			"target":34962
		},
		{
			"buffer":0,
			"byteLength":264,
			"byteOffset":26952,
			"target":34963
		},
		{
			"buffer":0,
			"byteLength":1584,
			"byteOffset":27216,
			"target":34962
		},
		{
			"buffer":0,
			"byteLength":1584,
			"byteOffset":28800,
			"target":34962
		},
		{
			"buffer":0,
			"byteLength":1056,
			"byteOffset":30384,
			"target":34962
		},
		{
			"buffer":0,
			"byteLength":480,
			"byteOffset":31440,
			"target":34963
		},
		{
			"buffer":0,
			"byteLength":2136,
			"byteOffset":31920,
			"target":34962
		},
		{
			"buffer":0,
			"byteLength":2136,
			"byteOffset":34056,
			"target":34962
		},
		{
			"buffer":0,
			"byteLength":1424,
			"byteOffset":36192,
			"target":34962
		},
		{
			"buffer":0,
			"byteLength":840,
			"byteOffset":37616,
			"target":34963
		}
	],
	"buffers":[
		{
			"byteLength":38456,
			"uri":"data:application/octet-stream;base64,"
		}
	]
}
