{
	"asset":{
		"generator":"Khronos glTF Blender I/O v3.6.28",
		"version":"2.0"
	},
	"scene":0,
	"scenes":[
		{
			"name":"Scene",
			"nodes":[
				0,
				1,
				2,
				3,
				4
			]
		}
	],
	"nodes":[
		{
			"mesh":0,
			"name":"Middle_Interior_Panel",
			"translation":[
				0,
				3.9000000953674316,
				-7.80000114440918
			]
		},
		{
			"mesh":1,
			"name":"Large_Wall_Interior",
			"translation":[
				0,
				3,
				0
			]
		},
		{
			"mesh":2,
			"name":"Large_Wall",
			"rotation":[
				0.7071068286895752,
				0,
				0,
				0.7071068286895752
			]
		},
		{
			"mesh":3,
			"name":"Large_Exterior_Panel"
		},
		{
			"mesh":4,
			"name":"Large_Exterior_Border",
			"rotation":[
				0.7071068286895752,
				0,
				0,
				0.7071068286895752
			],
			"translation":[
				0,
				3,
				0
			]
		}
	],
	"meshes":[
		{
			"name":"Cube.058",
			"primitives":[
				{
					"attributes":{
						"POSITION":0,
						"NORMAL":1,
						"TEXCOORD_0":2
					},
					"indices":3
				}
			]
		},
		{
			"name":"Cube.057",
			"primitives":[
				{
					"attributes":{
						"POSITION":4,
						"NORMAL":5,
						"TEXCOORD_0":6
					},
					"indices":7
				}
			]
		},
		{
			"name":"Plane.019",
			"primitives":[
				{
					"attributes":{
						"POSITION":8,
						"NORMAL":9,
						"TEXCOORD_0":10
					},
					"indices":11
				}
			]
		},
		{
			"name":"Cube.002",
			"primitives":[
				{
					"attributes":{
						"POSITION":12,
						"NORMAL":13,
						"TEXCOORD_0":14
					},
					"indices":15
				}
			]
		},
		{
			"name":"Plane.020",
			"primitives":[
				{
					"attributes":{
						"POSITION":16,
						"NORMAL":17,
						"TEXCOORD_0":18
					},
					"indices":19
				}
			]
		}
	],
	"accessors":[
		{
			"bufferView":0,
			"componentType":5126,
			"count":220,
			"max":[
				8,
				-0.7000000476837158,
				7.900000095367432
			],
			"min":[
				-8,
				-1.1000001430511475,
				7.800000190734863
			],
			"type":"VEC3"
		},
		{
			"bufferView":1,
			"componentType":5126,
			"count":220,
			"type":"VEC3"
		},
		{
			"bufferView":2,
			"componentType":5126,
			"count":220,
			"type":"VEC2"
		},
		{
			"bufferView":3,
			"componentType":5123,
			"count":348,
			"type":"SCALAR"
		},
		{
			"bufferView":4,
			"componentType":5126,
			"count":360,
			"max":[
				8,
				2.799999952316284,
				0.19999980926513672
			],
			"min":[
				-8,
				-3.000000238418579,
				9.5367431640625e-07
			],
			"type":"VEC3"
		},
		{
			"bufferView":5,
			"componentType":5126,
			"count":360,
			"type":"VEC3"
		},
		{
			"bufferView":6,
			"componentType":5126,
			"count":360,
			"type":"VEC2"
		},
		{
			"bufferView":7,
			"componentType":5123,
			"count":564,
			"type":"SCALAR"
		},
		{
			"bufferView":8,
			"componentType":5126,
			"count":24,
			"max":[
				8,
				0,
				8.74229044711683e-09
			],
			"min":[
				-8,
				-0.19999980926513672,
				-6
			],
			"type":"VEC3"
		},
		{
			"bufferView":9,
			"componentType":5126,
			"count":24,
			"type":"VEC3"
		},
		{
			"bufferView":10,
			"componentType":5126,
			"count":24,
			"type":"VEC2"
		},
		{
			"bufferView":11,
			"componentType":5123,
			"count":36,
			"type":"SCALAR"
		},
		{
			"bufferView":12,
			"componentType":5126,
			"count":144,
			"max":[
				6.700000286102295,
				4,
				-0.1367177963256836
			],
			"min":[
				-6.700000286102295,
				2,
				-0.2521848678588867
			],
			"type":"VEC3"
		},
		{
			"bufferView":13,
			"componentType":5126,
			"count":144,
			"type":"VEC3"
		},
		{
			"bufferView":14,
			"componentType":5126,
			"count":144,
			"type":"VEC2"
		},
		{
			"bufferView":15,
			"componentType":5123,
			"count":264,
			"type":"SCALAR"
		},
		{
			"bufferView":16,
			"componentType":5126,
			"count":436,
			"max":[
				8,
				-0.19999980926513672,
				3.000000238418579
			],
			"min":[
				-8,
				-0.3000001907348633,
				-3.000000238418579
			],
			"type":"VEC3"
		},
		{
			"bufferView":17,
			"componentType":5126,
			"count":436,
			"type":"VEC3"
		},
		{
			"bufferView":18,
			"componentType":5126,
			"count":436,
			"type":"VEC2"
		},
		{
			"bufferView":19,
			"componentType":5123,
			"count":1020,
			"type":"SCALAR"
		}
	],
	"bufferViews":[
		{
			"buffer":0,
			"byteLength":2640,
			"byteOffset":0,
			"target":34962
		},
		{
			"buffer":0,
			"byteLength":2640,
			"byteOffset":2640,
			"target":34962
		},
		{
			"buffer":0,
			"byteLength":1760,
			"byteOffset":5280,
			"target":34962
		},
		{
			"buffer":0,
			"byteLength":696,
			"byteOffset":7040,
			"target":34963
		},
		{
			"buffer":0,
			"byteLength":4320,
			"byteOffset":7736,
			"target":34962
		},
		{
			"buffer":0,
			"byteLength":4320,
			"byteOffset":12056,
			"target":34962
		},
		{
			"buffer":0,
			"byteLength":2880,
			"byteOffset":16376,
			"target":34962
		},
		{
			"buffer":0,
			"byteLength":1128,
			"byteOffset":19256,
			"target":34963
		},
		{
			"buffer":0,
			"byteLength":288,
			"byteOffset":20384,
			"target":34962
		},
		{
			"buffer":0,
			"byteLength":288,
			"byteOffset":20672,
			"target":34962
		},
		{
			"buffer":0,
			"byteLength":192,
			"byteOffset":20960,
			"target":34962
		},
		{
			"buffer":0,
			"byteLength":72,
			"byteOffset":21152,
			"target":34963
		},
		{
			"buffer":0,
			"byteLength":1728,
			"byteOffset":21224,
			"target":34962
		},
		{
			"buffer":0,
			"byteLength":1728,
			"byteOffset":22952,
			"target":34962
		},
		{
			"buffer":0,
			"byteLength":1152,
			"byteOffset":24680,
			"target":34962
		},
		{
			"buffer":0,
			"byteLength":528,
			"byteOffset":25832,
			"target":34963
		},
		{
			"buffer":0,
			"byteLength":5232,
			"byteOffset":26360,
			"target":34962
		},
		{
			"buffer":0,
			"byteLength":5232,
			"byteOffset":31592,
			"target":34962
		},
		{
			"buffer":0,
			"byteLength":3488,
			"byteOffset":36824,
			"target":34962
		},
		{
			"buffer":0,
			"byteLength":2040,
			"byteOffset":40312,
			"target":34963
		}
	],
	"buffers":[
		{
			"byteLength":42352,
			"uri":"data:application/octet-stream;base64,"
		}
	]
}
