{
	"asset":{
		"generator":"Khronos glTF Blender I/O v3.6.28",
		"version":"2.0"
	},
	"scene":0,
	"scenes":[
		{
			"name":"Scene",
			"nodes":[
				0,
				1,
				2,
				3,
				4
			]
		}
	],
	"nodes":[
		{
			"mesh":0,
			"name":"Middle_Interior_Panel"
		},
		{
			"mesh":1,
			"name":"Large_Wall_Interior",
			"translation":[
				0,
				3,
				0
			]
		},
		{
			"mesh":2,
			"name":"Large_Wall",
			"rotation":[
				0.7071068286895752,
				0,
				0,
				0.7071068286895752
			]
		},
		{
			"mesh":3,
			"name":"Wall_Pillar_1",
			"translation":[
				0,
				3,
				0
			]
		},
		{
			"mesh":4,
			"name":"Wall_Pillars_2",
			"translation":[
				0,
				3,
				0
			]
		}
	],
	"meshes":[
		{
			"name":"Cube.058",
			"primitives":[
				{
					"attributes":{
						"POSITION":0,
						"NORMAL":1,
						"TEXCOORD_0":2
					},
					"indices":3
				}
			]
		},
		{
			"name":"Cube.057",
			"primitives":[
				{
					"attributes":{
						"POSITION":4,
						"NORMAL":5,
						"TEXCOORD_0":6
					},
					"indices":7
				}
			]
		},
		{
			"name":"Plane.019",
			"primitives":[
				{
					"attributes":{
						"POSITION":8,
						"NORMAL":9,
						"TEXCOORD_0":10
					},
					"indices":11
				}
			]
		},
		{
			"name":"Cube.001",
			"primitives":[
				{
					"attributes":{
						"POSITION":12,
						"NORMAL":13,
						"TEXCOORD_0":14
					},
					"indices":15
				}
			]
		},
		{
			"name":"Cube.003",
			"primitives":[
				{
					"attributes":{
						"POSITION":16,
						"NORMAL":17,
						"TEXCOORD_0":18
					},
					"indices":19
				}
			]
		}
	],
	"accessors":[
		{
			"bufferView":0,
			"componentType":5126,
			"count":352,
			"max":[
				8,
				4.300000190734863,
				0.2999999523162842
			],
			"min":[
				-8,
				1.4999998807907104,
				0.19999992847442627
			],
			"type":"VEC3"
		},
		{
			"bufferView":1,
			"componentType":5126,
			"count":352,
			"type":"VEC3"
		},
		{
			"bufferView":2,
			"componentType":5126,
			"count":352,
			"type":"VEC2"
		},
		{
			"bufferView":3,
			"componentType":5123,
			"count":558,
			"type":"SCALAR"
		},
		{
			"bufferView":4,
			"componentType":5126,
			"count":72,
			"max":[
				8,
				2.8000001907348633,
				0.39999961853027344
			],
			"min":[
				-8,
				-3.000000238418579,
				0.20000076293945312
			],
			"type":"VEC3"
		},
		{
			"bufferView":5,
			"componentType":5126,
			"count":72,
			"type":"VEC3"
		},
		{
			"bufferView":6,
			"componentType":5126,
			"count":72,
			"type":"VEC2"
		},
		{
			"bufferView":7,
			"componentType":5123,
			"count":132,
			"type":"SCALAR"
		},
		{
			"bufferView":8,
			"componentType":5126,
			"count":24,
			"max":[
				8,
				0.19999942183494568,
				3.890313564625103e-07
			],
			"min":[
				-8,
				-3.8743019104003906e-07,
				-5.999999523162842
			],
			"type":"VEC3"
		},
		{
			"bufferView":9,
			"componentType":5126,
			"count":24,
			"type":"VEC3"
		},
		{
			"bufferView":10,
			"componentType":5126,
			"count":24,
			"type":"VEC2"
		},
		{
			"bufferView":11,
			"componentType":5123,
			"count":36,
			"type":"SCALAR"
		},
		{
			"bufferView":12,
			"componentType":5126,
			"count":64,
			"max":[
				2,
				2.700000047683716,
				0.38999998569488525
			],
			"min":[
				-2,
				-2.9000003337860107,
				0.20000076293945312
			],
			"type":"VEC3"
		},
		{
			"bufferView":13,
			"componentType":5126,
			"count":64,
			"type":"VEC3"
		},
		{
			"bufferView":14,
			"componentType":5126,
			"count":64,
			"type":"VEC2"
		},
		{
			"bufferView":15,
			"componentType":5123,
			"count":132,
			"type":"SCALAR"
		},
		{
			"bufferView":16,
			"componentType":5126,
			"count":68,
			"max":[
				6,
				2.700000047683716,
				0.38999998569488525
			],
			"min":[
				-6,
				-2.9000003337860107,
				0.20000076293945312
			],
			"type":"VEC3"
		},
		{
			"bufferView":17,
			"componentType":5126,
			"count":68,
			"type":"VEC3"
		},
		{
			"bufferView":18,
			"componentType":5126,
			"count":68,
			"type":"VEC2"
		},
		{
			"bufferView":19,
			"componentType":5123,
			"count":150,
			"type":"SCALAR"
		}
	],
	"bufferViews":[
		{
			"buffer":0,
			"byteLength":4224,
			"byteOffset":0,
			"target":34962
		},
		{
			"buffer":0,
			"byteLength":4224,
			"byteOffset":4224,
			"target":34962
		},
		{
			"buffer":0,
			"byteLength":2816,
			"byteOffset":8448,
			"target":34962
		},
		{
			"buffer":0,
			"byteLength":1116,
			"byteOffset":11264,
			"target":34963
		},
		{
			"buffer":0,
			"byteLength":864,
			"byteOffset":12380,
			"target":34962
		},
		{
			"buffer":0,
			"byteLength":864,
			"byteOffset":13244,
			"target":34962
		},
		{
			"buffer":0,
			"byteLength":576,
			"byteOffset":14108,
			"target":34962
		},
		{
			"buffer":0,
			"byteLength":264,
			"byteOffset":14684,
			"target":34963
		},
		{
			"buffer":0,
			"byteLength":288,
			"byteOffset":14948,
			"target":34962
		},
		{
			"buffer":0,
			"byteLength":288,
			"byteOffset":15236,
			"target":34962
		},
		{
			"buffer":0,
			"byteLength":192,
			"byteOffset":15524,
			"target":34962
		},
		{
			"buffer":0,
			"byteLength":72,
			"byteOffset":15716,
			"target":34963
		},
		{
			"buffer":0,
			"byteLength":768,
			"byteOffset":15788,
			"target":34962
		},
		{
			"buffer":0,
			"byteLength":768,
			"byteOffset":16556,
			"target":34962
		},
		{
			"buffer":0,
			"byteLength":512,
			"byteOffset":17324,
			"target":34962
		},
		{
			"buffer":0,
			"byteLength":264,
			"byteOffset":17836,
			"target":34963
		},
		{
			"buffer":0,
			"byteLength":816,
			"byteOffset":18100,
			"target":34962
		},
		{
			"buffer":0,
			"byteLength":816,
			"byteOffset":18916,
			"target":34962
		},
		{
			"buffer":0,
			"byteLength":544,
			"byteOffset":19732,
			"target":34962
		},
		{
			"buffer":0,
			"byteLength":300,
			"byteOffset":20276,
			"target":34963
		}
	],
	"buffers":[
		{
			"byteLength":20576,
			"uri":"data:application/octet-stream;base64,"
		}
	]
}
