{
	"asset":{
		"generator":"Khronos glTF Blender I/O v3.6.28",
		"version":"2.0"
	},
	"scene":0,
	"scenes":[
		{
			"name":"Scene",
			"nodes":[
				0,
				1,
				2
			]
		}
	],
	"nodes":[
		{
			"mesh":0,
			"name":"Workshop_Pillar",
			"translation":[
				0,
				3,
				0
			]
		},
		{
			"mesh":1,
			"name":"Workshop_Wall_Interior",
			"translation":[
				0,
				3,
				0
			]
		},
		{
			"mesh":2,
			"name":"Workshop_Wall",
			"rotation":[
				0.7071068286895752,
				0,
				0,
				0.7071068286895752
			]
		}
	],
	"meshes":[
		{
			"name":"Cube.006",
			"primitives":[
				{
					"attributes":{
						"POSITION":0,
						"NORMAL":1,
						"TEXCOORD_0":2
					},
					"indices":3
				}
			]
		},
		{
			"name":"Cube.004",
			"primitives":[
				{
					"attributes":{
						"POSITION":4,
						"NORMAL":5,
						"TEXCOORD_0":6
					},
					"indices":7
				}
			]
		},
		{
			"name":"Plane.001",
			"primitives":[
				{
					"attributes":{
						"POSITION":8,
						"NORMAL":9,
						"TEXCOORD_0":10
					},
					"indices":11
				}
			]
		}
	],
	"accessors":[
		{
			"bufferView":0,
			"componentType":5126,
			"count":48,
			"max":[
				2,
				2.385000467300415,
				0.38999998569488525
			],
			"min":[
				-2,
				-2.5850002765655518,
				0.20000076293945312
			],
			"type":"VEC3"
		},
		{
			"bufferView":1,
			"componentType":5126,
			"count":48,
			"type":"VEC3"
		},
		{
			"bufferView":2,
			"componentType":5126,
			"count":48,
			"type":"VEC2"
		},
		{
			"bufferView":3,
			"componentType":5123,
			"count":72,
			"type":"SCALAR"
		},
		{
			"bufferView":4,
			"componentType":5126,
			"count":48,
			"max":[
				4.850000381469727,
				2.8000001907348633,
				0.39999961853027344
			],
			"min":[
				-4.75,
				-3.000000238418579,
				0.20000076293945312
			],
			"type":"VEC3"
		},
		{
			"bufferView":5,
			"componentType":5126,
			"count":48,
			"type":"VEC3"
		},
		{
			"bufferView":6,
			"componentType":5126,
			"count":48,
			"type":"VEC2"
		},
		{
			"bufferView":7,
			"componentType":5123,
			"count":72,
			"type":"SCALAR"
		},
		{
			"bufferView":8,
			"componentType":5126,
			"count":24,
			"max":[
				4.849999904632568,
				0.19999942183494568,
				3.890313564625103e-07
			],
			"min":[
				-4.75,
				-3.8743019104003906e-07,
				-5.999999523162842
			],
			"type":"VEC3"
		},
		{
			"bufferView":9,
			"componentType":5126,
			"count":24,
			"type":"VEC3"
		},
		{
			"bufferView":10,
			"componentType":5126,
			"count":24,
			"type":"VEC2"
		},
		{
			"bufferView":11,
			"componentType":5123,
			"count":36,
			"type":"SCALAR"
		}
	],
	"bufferViews":[
		{
			"buffer":0,
			"byteLength":576,
			"byteOffset":0,
			"target":34962
		},
		{
			"buffer":0,
			"byteLength":576,
			"byteOffset":576,
			"target":34962
		},
		{
			"buffer":0,
			"byteLength":384,
			"byteOffset":1152,
			"target":34962
		},
		{
			"buffer":0,
			"byteLength":144,
			"byteOffset":1536,
			"target":34963
		},
		{
			"buffer":0,
			"byteLength":576,
			"byteOffset":1680,
			"target":34962
		},
		{
			"buffer":0,
			"byteLength":576,
			"byteOffset":2256,
			"target":34962
		},
		{
			"buffer":0,
			"byteLength":384,
			"byteOffset":2832,
			"target":34962
		},
		{
			"buffer":0,
			"byteLength":144,
			"byteOffset":3216,
			"target":34963
		},
		{
			"buffer":0,
			"byteLength":288,
			"byteOffset":3360,
			"target":34962
		},
		{
			"buffer":0,
			"byteLength":288,
			"byteOffset":3648,
			"target":34962
		},
		{
			"buffer":0,
			"byteLength":192,
			"byteOffset":3936,
			"target":34962
		},
		{
			"buffer":0,
			"byteLength":72,
			"byteOffset":4128,
			"target":34963
		}
	],
	"buffers":[
		{
			"byteLength":4200,
			"uri":"data:application/octet-stream;base64,"
		}
	]
}
