{
	"asset":{
		"generator":"Khronos glTF Blender I/O v3.6.28",
		"version":"2.0"
	},
	"scene":0,
	"scenes":[
		{
			"name":"Scene",
			"nodes":[
				0,
				1,
				2
			]
		}
	],
	"nodes":[
		{
			"mesh":0,
			"name":"Workshop_Doorway_Interior"
		},
		{
			"mesh":1,
			"name":"Workshop_Door_Wall",
			"rotation":[
				0.7071068286895752,
				0,
				0,
				0.7071068286895752
			]
		},
		{
			"mesh":2,
			"name":"Workshop_Door_Frame"
		}
	],
	"meshes":[
		{
			"name":"Cube.006",
			"primitives":[
				{
					"attributes":{
						"POSITION":0,
						"NORMAL":1,
						"TEXCOORD_0":2
					},
					"indices":3
				},
				{
					"attributes":{
						"POSITION":4,
						"NORMAL":5,
						"TEXCOORD_0":6
					},
					"indices":7
				}
			]
		},
		{
			"name":"Plane.002",
			"primitives":[
				{
					"attributes":{
						"POSITION":8,
						"NORMAL":9,
						"TEXCOORD_0":10
					},
					"indices":11
				},
				{
					"attributes":{
						"POSITION":12,
						"NORMAL":13,
						"TEXCOORD_0":14
					},
					"indices":15
				}
			]
		},
		{
			"name":"Cube.009",
			"primitives":[
				{
					"attributes":{
						"POSITION":16,
						"NORMAL":17,
						"TEXCOORD_0":18
					},
					"indices":19
				}
			]
		}
	],
	"accessors":[
		{
			"bufferView":0,
			"componentType":5126,
			"count":66,
			"max":[
				5,
				6,
				0.20000004768371582
			],
			"min":[
				-11,
				-2.384185791015625e-07,
				2.384185791015625e-07
			],
			"type":"VEC3"
		},
		{
			"bufferView":1,
			"componentType":5126,
			"count":66,
			"type":"VEC3"
		},
		{
			"bufferView":2,
			"componentType":5126,
			"count":66,
			"type":"VEC2"
		},
		{
			"bufferView":3,
			"componentType":5123,
			"count":102,
			"type":"SCALAR"
		},
		{
			"bufferView":4,
			"componentType":5126,
			"count":10,
			"max":[
				1.2000000476837158,
				0.6999999284744263,
				0.20000004768371582
			],
			"min":[
				-1.2000000476837158,
				-1.1920931797249068e-08,
				2.384185791015625e-07
			],
			"type":"VEC3"
		},
		{
			"bufferView":5,
			"componentType":5126,
			"count":10,
			"type":"VEC3"
		},
		{
			"bufferView":6,
			"componentType":5126,
			"count":10,
			"type":"VEC2"
		},
		{
			"bufferView":7,
			"componentType":5123,
			"count":18,
			"type":"SCALAR"
		},
		{
			"bufferView":8,
			"componentType":5126,
			"count":44,
			"max":[
				5,
				0,
				8.742276236262114e-09
			],
			"min":[
				-11,
				-0.20000028610229492,
				-6
			],
			"type":"VEC3"
		},
		{
			"bufferView":9,
			"componentType":5126,
			"count":44,
			"type":"VEC3"
		},
		{
			"bufferView":10,
			"componentType":5126,
			"count":44,
			"type":"VEC2"
		},
		{
			"bufferView":11,
			"componentType":5123,
			"count":90,
			"type":"SCALAR"
		},
		{
			"bufferView":12,
			"componentType":5126,
			"count":25,
			"max":[
				1.2000000476837158,
				0,
				8.742276236262114e-09
			],
			"min":[
				-1.2000000476837158,
				-0.20000018179416656,
				-3.200000047683716
			],
			"type":"VEC3"
		},
		{
			"bufferView":13,
			"componentType":5126,
			"count":25,
			"type":"VEC3"
		},
		{
			"bufferView":14,
			"componentType":5126,
			"count":25,
			"type":"VEC2"
		},
		{
			"bufferView":15,
			"componentType":5123,
			"count":42,
			"type":"SCALAR"
		},
		{
			"bufferView":16,
			"componentType":5126,
			"count":138,
			"max":[
				1.1999999284744263,
				3.2001121044158936,
				0.20000019669532776
			],
			"min":[
				-1.1999999284744263,
				0,
				-0.19999989867210388
			],
			"type":"VEC3"
		},
		{
			"bufferView":17,
			"componentType":5126,
			"count":138,
			"type":"VEC3"
		},
		{
			"bufferView":18,
			"componentType":5126,
			"count":138,
			"type":"VEC2"
		},
		{
			"bufferView":19,
			"componentType":5123,
			"count":276,
			"type":"SCALAR"
		}
	],
	"bufferViews":[
		{
			"buffer":0,
			"byteLength":792,
			"byteOffset":0,
			"target":34962
		},
		{
			"buffer":0,
			"byteLength":792,
			"byteOffset":792,
			"target":34962
		},
		{
			"buffer":0,
			"byteLength":528,
			"byteOffset":1584,
			"target":34962
		},
		{
			"buffer":0,
			"byteLength":204,
			"byteOffset":2112,
			"target":34963
		},
		{
			"buffer":0,
			"byteLength":120,
			"byteOffset":2316,
			"target":34962
		},
		{
			"buffer":0,
			"byteLength":120,
			"byteOffset":2436,
			"target":34962
		},
		{
			"buffer":0,
			"byteLength":80,
			"byteOffset":2556,
			"target":34962
		},
		{
			"buffer":0,
			"byteLength":36,
			"byteOffset":2636,
			"target":34963
		},
		{
			"buffer":0,
			"byteLength":528,
			"byteOffset":2672,
			"target":34962
		},
		{
			"buffer":0,
			"byteLength":528,
			"byteOffset":3200,
			"target":34962
		},
		{
			"buffer":0,
			"byteLength":352,
			"byteOffset":3728,
			"target":34962
		},
		{
			"buffer":0,
			"byteLength":180,
			"byteOffset":4080,
			"target":34963
		},
		{
			"buffer":0,
			"byteLength":300,
			"byteOffset":4260,
			"target":34962
		},
		{
			"buffer":0,
			"byteLength":300,
			"byteOffset":4560,
			"target":34962
		},
		{
			"buffer":0,
			"byteLength":200,
			"byteOffset":4860,
			"target":34962
		},
		{
			"buffer":0,
			"byteLength":84,
			"byteOffset":5060,
			"target":34963
		},
		{
			"buffer":0,
			"byteLength":1656,
			"byteOffset":5144,
			"target":34962
		},
		{
			"buffer":0,
			"byteLength":1656,
			"byteOffset":6800,
			"target":34962
		},
		{
			"buffer":0,
			"byteLength":1104,
			"byteOffset":8456,
			"target":34962
		},
		{
			"buffer":0,
			"byteLength":552,
			"byteOffset":9560,
			"target":34963
		}
	],
	"buffers":[
		{
			"byteLength":10112,
			"uri":"data:application/octet-stream;base64,"
		}
	]
}
